<?xml version="1.0" encoding="utf-8"?>
<svg xmlns="http://www.w3.org/2000/svg" xmlns:xlink="http://www.w3.org/1999/xlink" width="600" height="400" viewBox="0 0 2400 1600">
<defs>
  <clipPath id="clip850">
    <rect x="0" y="0" width="2400" height="1600"/>
  </clipPath>
</defs>
<path clip-path="url(#clip850)" d="M0 1600 L2400 1600 L2400 8.88178e-14 L0 8.88178e-14  Z" fill="#ffffff" fill-rule="evenodd" fill-opacity="1"/>
<defs>
  <clipPath id="clip851">
    <rect x="480" y="0" width="1681" height="1600"/>
  </clipPath>
</defs>
<path clip-path="url(#clip850)" d="M276.876 1423.18 L2352.76 1423.18 L2352.76 47.2441 L276.876 47.2441  Z" fill="#ffffff" fill-rule="evenodd" fill-opacity="1"/>
<defs>
  <clipPath id="clip852">
    <rect x="276" y="47" width="2077" height="1377"/>
  </clipPath>
</defs>
<polyline clip-path="url(#clip852)" style="stroke:#000000; stroke-linecap:round; stroke-linejoin:round; stroke-width:2; stroke-opacity:0.1; fill:none" points="640.263,1423.18 640.263,47.2441 "/>
<polyline clip-path="url(#clip852)" style="stroke:#000000; stroke-linecap:round; stroke-linejoin:round; stroke-width:2; stroke-opacity:0.1; fill:none" points="1075.46,1423.18 1075.46,47.2441 "/>
<polyline clip-path="url(#clip852)" style="stroke:#000000; stroke-linecap:round; stroke-linejoin:round; stroke-width:2; stroke-opacity:0.1; fill:none" points="1510.65,1423.18 1510.65,47.2441 "/>
<polyline clip-path="url(#clip852)" style="stroke:#000000; stroke-linecap:round; stroke-linejoin:round; stroke-width:2; stroke-opacity:0.1; fill:none" points="1945.85,1423.18 1945.85,47.2441 "/>
<polyline clip-path="url(#clip852)" style="stroke:#000000; stroke-linecap:round; stroke-linejoin:round; stroke-width:2; stroke-opacity:0.1; fill:none" points="276.876,1052.57 2352.76,1052.57 "/>
<polyline clip-path="url(#clip852)" style="stroke:#000000; stroke-linecap:round; stroke-linejoin:round; stroke-width:2; stroke-opacity:0.1; fill:none" points="276.876,586.61 2352.76,586.61 "/>
<polyline clip-path="url(#clip852)" style="stroke:#000000; stroke-linecap:round; stroke-linejoin:round; stroke-width:2; stroke-opacity:0.1; fill:none" points="276.876,120.647 2352.76,120.647 "/>
<polyline clip-path="url(#clip850)" style="stroke:#000000; stroke-linecap:round; stroke-linejoin:round; stroke-width:4; stroke-opacity:1; fill:none" points="276.876,1423.18 2352.76,1423.18 "/>
<polyline clip-path="url(#clip850)" style="stroke:#000000; stroke-linecap:round; stroke-linejoin:round; stroke-width:4; stroke-opacity:1; fill:none" points="640.263,1423.18 640.263,1404.28 "/>
<polyline clip-path="url(#clip850)" style="stroke:#000000; stroke-linecap:round; stroke-linejoin:round; stroke-width:4; stroke-opacity:1; fill:none" points="1075.46,1423.18 1075.46,1404.28 "/>
<polyline clip-path="url(#clip850)" style="stroke:#000000; stroke-linecap:round; stroke-linejoin:round; stroke-width:4; stroke-opacity:1; fill:none" points="1510.65,1423.18 1510.65,1404.28 "/>
<polyline clip-path="url(#clip850)" style="stroke:#000000; stroke-linecap:round; stroke-linejoin:round; stroke-width:4; stroke-opacity:1; fill:none" points="1945.85,1423.18 1945.85,1404.28 "/>
<path clip-path="url(#clip850)" d="M614.951 1481.64 L622.59 1481.64 L622.59 1455.28 L614.28 1456.95 L614.28 1452.69 L622.544 1451.02 L627.219 1451.02 L627.219 1481.64 L634.858 1481.64 L634.858 1485.58 L614.951 1485.58 L614.951 1481.64 Z" fill="#000000" fill-rule="nonzero" fill-opacity="1" /><path clip-path="url(#clip850)" d="M654.303 1454.1 Q650.692 1454.1 648.863 1457.66 Q647.057 1461.2 647.057 1468.33 Q647.057 1475.44 648.863 1479.01 Q650.692 1482.55 654.303 1482.55 Q657.937 1482.55 659.742 1479.01 Q661.571 1475.44 661.571 1468.33 Q661.571 1461.2 659.742 1457.66 Q657.937 1454.1 654.303 1454.1 M654.303 1450.39 Q660.113 1450.39 663.168 1455 Q666.247 1459.58 666.247 1468.33 Q666.247 1477.06 663.168 1481.67 Q660.113 1486.25 654.303 1486.25 Q648.492 1486.25 645.414 1481.67 Q642.358 1477.06 642.358 1468.33 Q642.358 1459.58 645.414 1455 Q648.492 1450.39 654.303 1450.39 Z" fill="#000000" fill-rule="nonzero" fill-opacity="1" /><path clip-path="url(#clip850)" d="M1054.23 1481.64 L1070.55 1481.64 L1070.55 1485.58 L1048.61 1485.58 L1048.61 1481.64 Q1051.27 1478.89 1055.85 1474.26 Q1060.46 1469.61 1061.64 1468.27 Q1063.88 1465.74 1064.76 1464.01 Q1065.67 1462.25 1065.67 1460.56 Q1065.67 1457.8 1063.72 1456.07 Q1061.8 1454.33 1058.7 1454.33 Q1056.5 1454.33 1054.05 1455.09 Q1051.62 1455.86 1048.84 1457.41 L1048.84 1452.69 Q1051.66 1451.55 1054.12 1450.97 Q1056.57 1450.39 1058.61 1450.39 Q1063.98 1450.39 1067.17 1453.08 Q1070.37 1455.77 1070.37 1460.26 Q1070.37 1462.39 1069.56 1464.31 Q1068.77 1466.2 1066.66 1468.8 Q1066.08 1469.47 1062.98 1472.69 Q1059.88 1475.88 1054.23 1481.64 Z" fill="#000000" fill-rule="nonzero" fill-opacity="1" /><path clip-path="url(#clip850)" d="M1090.37 1454.1 Q1086.75 1454.1 1084.93 1457.66 Q1083.12 1461.2 1083.12 1468.33 Q1083.12 1475.44 1084.93 1479.01 Q1086.75 1482.55 1090.37 1482.55 Q1094 1482.55 1095.81 1479.01 Q1097.63 1475.44 1097.63 1468.33 Q1097.63 1461.2 1095.81 1457.66 Q1094 1454.1 1090.37 1454.1 M1090.37 1450.39 Q1096.18 1450.39 1099.23 1455 Q1102.31 1459.58 1102.31 1468.33 Q1102.31 1477.06 1099.23 1481.67 Q1096.18 1486.25 1090.37 1486.25 Q1084.56 1486.25 1081.48 1481.67 Q1078.42 1477.06 1078.42 1468.33 Q1078.42 1459.58 1081.48 1455 Q1084.56 1450.39 1090.37 1450.39 Z" fill="#000000" fill-rule="nonzero" fill-opacity="1" /><path clip-path="url(#clip850)" d="M1499.5 1466.95 Q1502.85 1467.66 1504.73 1469.93 Q1506.63 1472.2 1506.63 1475.53 Q1506.63 1480.65 1503.11 1483.45 Q1499.59 1486.25 1493.11 1486.25 Q1490.93 1486.25 1488.62 1485.81 Q1486.32 1485.39 1483.87 1484.54 L1483.87 1480.02 Q1485.82 1481.16 1488.13 1481.74 Q1490.45 1482.32 1492.97 1482.32 Q1497.37 1482.32 1499.66 1480.58 Q1501.97 1478.84 1501.97 1475.53 Q1501.97 1472.48 1499.82 1470.77 Q1497.69 1469.03 1493.87 1469.03 L1489.84 1469.03 L1489.84 1465.19 L1494.06 1465.19 Q1497.51 1465.19 1499.33 1463.82 Q1501.16 1462.43 1501.16 1459.84 Q1501.16 1457.18 1499.26 1455.77 Q1497.39 1454.33 1493.87 1454.33 Q1491.95 1454.33 1489.75 1454.75 Q1487.55 1455.16 1484.91 1456.04 L1484.91 1451.88 Q1487.57 1451.14 1489.89 1450.77 Q1492.23 1450.39 1494.29 1450.39 Q1499.61 1450.39 1502.71 1452.83 Q1505.82 1455.23 1505.82 1459.35 Q1505.82 1462.22 1504.17 1464.21 Q1502.53 1466.18 1499.5 1466.95 Z" fill="#000000" fill-rule="nonzero" fill-opacity="1" /><path clip-path="url(#clip850)" d="M1525.49 1454.1 Q1521.88 1454.1 1520.05 1457.66 Q1518.25 1461.2 1518.25 1468.33 Q1518.25 1475.44 1520.05 1479.01 Q1521.88 1482.55 1525.49 1482.55 Q1529.13 1482.55 1530.93 1479.01 Q1532.76 1475.44 1532.76 1468.33 Q1532.76 1461.2 1530.93 1457.66 Q1529.13 1454.1 1525.49 1454.1 M1525.49 1450.39 Q1531.3 1450.39 1534.36 1455 Q1537.44 1459.58 1537.44 1468.33 Q1537.44 1477.06 1534.36 1481.67 Q1531.3 1486.25 1525.49 1486.25 Q1519.68 1486.25 1516.6 1481.67 Q1513.55 1477.06 1513.55 1468.33 Q1513.55 1459.58 1516.6 1455 Q1519.68 1450.39 1525.49 1450.39 Z" fill="#000000" fill-rule="nonzero" fill-opacity="1" /><path clip-path="url(#clip850)" d="M1934.02 1455.09 L1922.21 1473.54 L1934.02 1473.54 L1934.02 1455.09 M1932.79 1451.02 L1938.67 1451.02 L1938.67 1473.54 L1943.6 1473.54 L1943.6 1477.43 L1938.67 1477.43 L1938.67 1485.58 L1934.02 1485.58 L1934.02 1477.43 L1918.42 1477.43 L1918.42 1472.92 L1932.79 1451.02 Z" fill="#000000" fill-rule="nonzero" fill-opacity="1" /><path clip-path="url(#clip850)" d="M1961.33 1454.1 Q1957.72 1454.1 1955.89 1457.66 Q1954.09 1461.2 1954.09 1468.33 Q1954.09 1475.44 1955.89 1479.01 Q1957.72 1482.55 1961.33 1482.55 Q1964.97 1482.55 1966.77 1479.01 Q1968.6 1475.44 1968.6 1468.33 Q1968.6 1461.2 1966.77 1457.66 Q1964.97 1454.1 1961.33 1454.1 M1961.33 1450.39 Q1967.14 1450.39 1970.2 1455 Q1973.28 1459.58 1973.28 1468.33 Q1973.28 1477.06 1970.2 1481.67 Q1967.14 1486.25 1961.33 1486.25 Q1955.52 1486.25 1952.45 1481.67 Q1949.39 1477.06 1949.39 1468.33 Q1949.39 1459.58 1952.45 1455 Q1955.52 1450.39 1961.33 1450.39 Z" fill="#000000" fill-rule="nonzero" fill-opacity="1" /><path clip-path="url(#clip850)" d="M981.873 1520.52 L991.454 1520.52 L1003.58 1552.86 L1015.77 1520.52 L1025.35 1520.52 L1025.35 1568.04 L1019.08 1568.04 L1019.08 1526.32 L1006.83 1558.91 L1000.37 1558.91 L988.112 1526.32 L988.112 1568.04 L981.873 1568.04 L981.873 1520.52 Z" fill="#000000" fill-rule="nonzero" fill-opacity="1" /><path clip-path="url(#clip850)" d="M1054.06 1550.12 Q1046.96 1550.12 1044.23 1551.75 Q1041.49 1553.37 1041.49 1557.29 Q1041.49 1560.4 1043.53 1562.25 Q1045.59 1564.07 1049.13 1564.07 Q1054 1564.07 1056.93 1560.63 Q1059.89 1557.16 1059.89 1551.43 L1059.89 1550.12 L1054.06 1550.12 M1065.74 1547.71 L1065.74 1568.04 L1059.89 1568.04 L1059.89 1562.63 Q1057.88 1565.88 1054.89 1567.44 Q1051.9 1568.97 1047.57 1568.97 Q1042.09 1568.97 1038.85 1565.91 Q1035.63 1562.82 1035.63 1557.67 Q1035.63 1551.65 1039.64 1548.6 Q1043.68 1545.54 1051.67 1545.54 L1059.89 1545.54 L1059.89 1544.97 Q1059.89 1540.93 1057.21 1538.73 Q1054.57 1536.5 1049.76 1536.5 Q1046.71 1536.5 1043.81 1537.23 Q1040.92 1537.97 1038.24 1539.43 L1038.24 1534.02 Q1041.46 1532.78 1044.48 1532.17 Q1047.5 1531.54 1050.37 1531.54 Q1058.1 1531.54 1061.92 1535.55 Q1065.74 1539.56 1065.74 1547.71 Z" fill="#000000" fill-rule="nonzero" fill-opacity="1" /><path clip-path="url(#clip850)" d="M1107.44 1532.4 L1094.55 1549.74 L1108.11 1568.04 L1101.2 1568.04 L1090.82 1554.04 L1080.45 1568.04 L1073.54 1568.04 L1087.38 1549.39 L1074.72 1532.4 L1081.62 1532.4 L1091.08 1545.1 L1100.53 1532.4 L1107.44 1532.4 Z" fill="#000000" fill-rule="nonzero" fill-opacity="1" /><path clip-path="url(#clip850)" d="M1162.69 1550.25 Q1162.69 1543.79 1160.02 1540.13 Q1157.38 1536.44 1152.73 1536.44 Q1148.08 1536.44 1145.41 1540.13 Q1142.77 1543.79 1142.77 1550.25 Q1142.77 1556.71 1145.41 1560.4 Q1148.08 1564.07 1152.73 1564.07 Q1157.38 1564.07 1160.02 1560.4 Q1162.69 1556.71 1162.69 1550.25 M1142.77 1537.81 Q1144.61 1534.62 1147.41 1533.1 Q1150.25 1531.54 1154.16 1531.54 Q1160.65 1531.54 1164.7 1536.69 Q1168.77 1541.85 1168.77 1550.25 Q1168.77 1558.65 1164.7 1563.81 Q1160.65 1568.97 1154.16 1568.97 Q1150.25 1568.97 1147.41 1567.44 Q1144.61 1565.88 1142.77 1562.7 L1142.77 1568.04 L1136.88 1568.04 L1136.88 1518.52 L1142.77 1518.52 L1142.77 1537.81 Z" fill="#000000" fill-rule="nonzero" fill-opacity="1" /><path clip-path="url(#clip850)" d="M1192.29 1536.5 Q1187.58 1536.5 1184.84 1540.19 Q1182.11 1543.85 1182.11 1550.25 Q1182.11 1556.65 1184.81 1560.34 Q1187.55 1564 1192.29 1564 Q1196.97 1564 1199.71 1560.31 Q1202.45 1556.62 1202.45 1550.25 Q1202.45 1543.92 1199.71 1540.23 Q1196.97 1536.5 1192.29 1536.5 M1192.29 1531.54 Q1199.93 1531.54 1204.29 1536.5 Q1208.65 1541.47 1208.65 1550.25 Q1208.65 1559 1204.29 1564 Q1199.93 1568.97 1192.29 1568.97 Q1184.62 1568.97 1180.26 1564 Q1175.93 1559 1175.93 1550.25 Q1175.93 1541.47 1180.26 1536.5 Q1184.62 1531.54 1192.29 1531.54 Z" fill="#000000" fill-rule="nonzero" fill-opacity="1" /><path clip-path="url(#clip850)" d="M1247.99 1546.53 L1247.99 1568.04 L1242.14 1568.04 L1242.14 1546.72 Q1242.14 1541.66 1240.16 1539.14 Q1238.19 1536.63 1234.24 1536.63 Q1229.5 1536.63 1226.76 1539.65 Q1224.02 1542.68 1224.02 1547.9 L1224.02 1568.04 L1218.14 1568.04 L1218.14 1532.4 L1224.02 1532.4 L1224.02 1537.93 Q1226.13 1534.72 1228.96 1533.13 Q1231.82 1531.54 1235.55 1531.54 Q1241.69 1531.54 1244.84 1535.36 Q1247.99 1539.14 1247.99 1546.53 Z" fill="#000000" fill-rule="nonzero" fill-opacity="1" /><path clip-path="url(#clip850)" d="M1283.13 1537.81 L1283.13 1518.52 L1288.99 1518.52 L1288.99 1568.04 L1283.13 1568.04 L1283.13 1562.7 Q1281.28 1565.88 1278.45 1567.44 Q1275.65 1568.97 1271.7 1568.97 Q1265.24 1568.97 1261.17 1563.81 Q1257.13 1558.65 1257.13 1550.25 Q1257.13 1541.85 1261.17 1536.69 Q1265.24 1531.54 1271.7 1531.54 Q1275.65 1531.54 1278.45 1533.1 Q1281.28 1534.62 1283.13 1537.81 M1263.17 1550.25 Q1263.17 1556.71 1265.82 1560.4 Q1268.49 1564.07 1273.14 1564.07 Q1277.78 1564.07 1280.46 1560.4 Q1283.13 1556.71 1283.13 1550.25 Q1283.13 1543.79 1280.46 1540.13 Q1277.78 1536.44 1273.14 1536.44 Q1268.49 1536.44 1265.82 1540.13 Q1263.17 1543.79 1263.17 1550.25 Z" fill="#000000" fill-rule="nonzero" fill-opacity="1" /><path clip-path="url(#clip850)" d="M1345.23 1537.81 L1345.23 1518.52 L1351.08 1518.52 L1351.08 1568.04 L1345.23 1568.04 L1345.23 1562.7 Q1343.38 1565.88 1340.55 1567.44 Q1337.75 1568.97 1333.8 1568.97 Q1327.34 1568.97 1323.27 1563.81 Q1319.22 1558.65 1319.22 1550.25 Q1319.22 1541.85 1323.27 1536.69 Q1327.34 1531.54 1333.8 1531.54 Q1337.75 1531.54 1340.55 1533.1 Q1343.38 1534.62 1345.23 1537.81 M1325.27 1550.25 Q1325.27 1556.71 1327.91 1560.4 Q1330.59 1564.07 1335.23 1564.07 Q1339.88 1564.07 1342.55 1560.4 Q1345.23 1556.71 1345.23 1550.25 Q1345.23 1543.79 1342.55 1540.13 Q1339.88 1536.44 1335.23 1536.44 Q1330.59 1536.44 1327.91 1540.13 Q1325.27 1543.79 1325.27 1550.25 Z" fill="#000000" fill-rule="nonzero" fill-opacity="1" /><path clip-path="url(#clip850)" d="M1363.15 1532.4 L1369 1532.4 L1369 1568.04 L1363.15 1568.04 L1363.15 1532.4 M1363.15 1518.52 L1369 1518.52 L1369 1525.93 L1363.15 1525.93 L1363.15 1518.52 Z" fill="#000000" fill-rule="nonzero" fill-opacity="1" /><path clip-path="url(#clip850)" d="M1409.01 1539.24 Q1411.21 1535.29 1414.26 1533.41 Q1417.32 1531.54 1421.46 1531.54 Q1427.03 1531.54 1430.05 1535.45 Q1433.07 1539.33 1433.07 1546.53 L1433.07 1568.04 L1427.19 1568.04 L1427.19 1546.72 Q1427.19 1541.59 1425.37 1539.11 Q1423.56 1536.63 1419.83 1536.63 Q1415.28 1536.63 1412.64 1539.65 Q1410 1542.68 1410 1547.9 L1410 1568.04 L1404.11 1568.04 L1404.11 1546.72 Q1404.11 1541.56 1402.3 1539.11 Q1400.48 1536.63 1396.69 1536.63 Q1392.21 1536.63 1389.57 1539.68 Q1386.92 1542.71 1386.92 1547.9 L1386.92 1568.04 L1381.03 1568.04 L1381.03 1532.4 L1386.92 1532.4 L1386.92 1537.93 Q1388.93 1534.66 1391.73 1533.1 Q1394.53 1531.54 1398.38 1531.54 Q1402.26 1531.54 1404.97 1533.51 Q1407.71 1535.48 1409.01 1539.24 Z" fill="#000000" fill-rule="nonzero" fill-opacity="1" /><path clip-path="url(#clip850)" d="M1475.25 1548.76 L1475.25 1551.62 L1448.32 1551.62 Q1448.7 1557.67 1451.95 1560.85 Q1455.23 1564 1461.05 1564 Q1464.43 1564 1467.58 1563.17 Q1470.76 1562.35 1473.88 1560.69 L1473.88 1566.23 Q1470.73 1567.57 1467.42 1568.27 Q1464.11 1568.97 1460.7 1568.97 Q1452.17 1568.97 1447.17 1564 Q1442.21 1559.04 1442.21 1550.57 Q1442.21 1541.82 1446.92 1536.69 Q1451.66 1531.54 1459.68 1531.54 Q1466.88 1531.54 1471.05 1536.18 Q1475.25 1540.8 1475.25 1548.76 M1469.39 1547.04 Q1469.33 1542.23 1466.69 1539.37 Q1464.08 1536.5 1459.75 1536.5 Q1454.85 1536.5 1451.89 1539.27 Q1448.96 1542.04 1448.51 1547.07 L1469.39 1547.04 Z" fill="#000000" fill-rule="nonzero" fill-opacity="1" /><path clip-path="url(#clip850)" d="M1514.49 1546.53 L1514.49 1568.04 L1508.64 1568.04 L1508.64 1546.72 Q1508.64 1541.66 1506.66 1539.14 Q1504.69 1536.63 1500.74 1536.63 Q1496 1536.63 1493.26 1539.65 Q1490.53 1542.68 1490.53 1547.9 L1490.53 1568.04 L1484.64 1568.04 L1484.64 1532.4 L1490.53 1532.4 L1490.53 1537.93 Q1492.63 1534.72 1495.46 1533.13 Q1498.32 1531.54 1502.05 1531.54 Q1508.19 1531.54 1511.34 1535.36 Q1514.49 1539.14 1514.49 1546.53 Z" fill="#000000" fill-rule="nonzero" fill-opacity="1" /><path clip-path="url(#clip850)" d="M1548.9 1533.45 L1548.9 1538.98 Q1546.42 1537.71 1543.74 1537.07 Q1541.07 1536.44 1538.2 1536.44 Q1533.84 1536.44 1531.65 1537.77 Q1529.48 1539.11 1529.48 1541.79 Q1529.48 1543.82 1531.04 1545 Q1532.6 1546.15 1537.31 1547.2 L1539.32 1547.64 Q1545.56 1548.98 1548.17 1551.43 Q1550.81 1553.85 1550.81 1558.21 Q1550.81 1563.17 1546.86 1566.07 Q1542.95 1568.97 1536.07 1568.97 Q1533.21 1568.97 1530.09 1568.39 Q1527 1567.85 1523.56 1566.74 L1523.56 1560.69 Q1526.81 1562.38 1529.96 1563.24 Q1533.11 1564.07 1536.2 1564.07 Q1540.34 1564.07 1542.56 1562.66 Q1544.79 1561.23 1544.79 1558.65 Q1544.79 1556.27 1543.17 1554.99 Q1541.58 1553.72 1536.14 1552.54 L1534.1 1552.07 Q1528.66 1550.92 1526.24 1548.56 Q1523.82 1546.18 1523.82 1542.04 Q1523.82 1537.01 1527.38 1534.27 Q1530.95 1531.54 1537.5 1531.54 Q1540.75 1531.54 1543.62 1532.01 Q1546.48 1532.49 1548.9 1533.45 Z" fill="#000000" fill-rule="nonzero" fill-opacity="1" /><path clip-path="url(#clip850)" d="M1560.13 1532.4 L1565.99 1532.4 L1565.99 1568.04 L1560.13 1568.04 L1560.13 1532.4 M1560.13 1518.52 L1565.99 1518.52 L1565.99 1525.93 L1560.13 1525.93 L1560.13 1518.52 Z" fill="#000000" fill-rule="nonzero" fill-opacity="1" /><path clip-path="url(#clip850)" d="M1592.06 1536.5 Q1587.35 1536.5 1584.61 1540.19 Q1581.87 1543.85 1581.87 1550.25 Q1581.87 1556.65 1584.58 1560.34 Q1587.32 1564 1592.06 1564 Q1596.74 1564 1599.47 1560.31 Q1602.21 1556.62 1602.21 1550.25 Q1602.21 1543.92 1599.47 1540.23 Q1596.74 1536.5 1592.06 1536.5 M1592.06 1531.54 Q1599.7 1531.54 1604.06 1536.5 Q1608.42 1541.47 1608.42 1550.25 Q1608.42 1559 1604.06 1564 Q1599.7 1568.97 1592.06 1568.97 Q1584.39 1568.97 1580.03 1564 Q1575.7 1559 1575.7 1550.25 Q1575.7 1541.47 1580.03 1536.5 Q1584.39 1531.54 1592.06 1531.54 Z" fill="#000000" fill-rule="nonzero" fill-opacity="1" /><path clip-path="url(#clip850)" d="M1647.76 1546.53 L1647.76 1568.04 L1641.9 1568.04 L1641.9 1546.72 Q1641.9 1541.66 1639.93 1539.14 Q1637.95 1536.63 1634.01 1536.63 Q1629.27 1536.63 1626.53 1539.65 Q1623.79 1542.68 1623.79 1547.9 L1623.79 1568.04 L1617.9 1568.04 L1617.9 1532.4 L1623.79 1532.4 L1623.79 1537.93 Q1625.89 1534.72 1628.72 1533.13 Q1631.59 1531.54 1635.31 1531.54 Q1641.46 1531.54 1644.61 1535.36 Q1647.76 1539.14 1647.76 1546.53 Z" fill="#000000" fill-rule="nonzero" fill-opacity="1" /><polyline clip-path="url(#clip850)" style="stroke:#000000; stroke-linecap:round; stroke-linejoin:round; stroke-width:4; stroke-opacity:1; fill:none" points="276.876,1423.18 276.876,47.2441 "/>
<polyline clip-path="url(#clip850)" style="stroke:#000000; stroke-linecap:round; stroke-linejoin:round; stroke-width:4; stroke-opacity:1; fill:none" points="276.876,1052.57 295.773,1052.57 "/>
<polyline clip-path="url(#clip850)" style="stroke:#000000; stroke-linecap:round; stroke-linejoin:round; stroke-width:4; stroke-opacity:1; fill:none" points="276.876,586.61 295.773,586.61 "/>
<polyline clip-path="url(#clip850)" style="stroke:#000000; stroke-linecap:round; stroke-linejoin:round; stroke-width:4; stroke-opacity:1; fill:none" points="276.876,120.647 295.773,120.647 "/>
<path clip-path="url(#clip850)" d="M114.931 1072.37 L122.57 1072.37 L122.57 1046 L114.26 1047.67 L114.26 1043.41 L122.524 1041.74 L127.2 1041.74 L127.2 1072.37 L134.839 1072.37 L134.839 1076.3 L114.931 1076.3 L114.931 1072.37 Z" fill="#000000" fill-rule="nonzero" fill-opacity="1" /><path clip-path="url(#clip850)" d="M154.283 1044.82 Q150.672 1044.82 148.843 1048.38 Q147.038 1051.93 147.038 1059.06 Q147.038 1066.16 148.843 1069.73 Q150.672 1073.27 154.283 1073.27 Q157.917 1073.27 159.723 1069.73 Q161.552 1066.16 161.552 1059.06 Q161.552 1051.93 159.723 1048.38 Q157.917 1044.82 154.283 1044.82 M154.283 1041.12 Q160.093 1041.12 163.149 1045.72 Q166.227 1050.31 166.227 1059.06 Q166.227 1067.78 163.149 1072.39 Q160.093 1076.97 154.283 1076.97 Q148.473 1076.97 145.394 1072.39 Q142.339 1067.78 142.339 1059.06 Q142.339 1050.31 145.394 1045.72 Q148.473 1041.12 154.283 1041.12 Z" fill="#000000" fill-rule="nonzero" fill-opacity="1" /><path clip-path="url(#clip850)" d="M166.227 1035.22 L190.339 1035.22 L190.339 1038.41 L166.227 1038.41 L166.227 1035.22 Z" fill="#000000" fill-rule="nonzero" fill-opacity="1" /><path clip-path="url(#clip850)" d="M199.197 1045.69 L205.404 1045.69 L205.404 1024.27 L198.652 1025.63 L198.652 1022.16 L205.366 1020.81 L209.166 1020.81 L209.166 1045.69 L215.372 1045.69 L215.372 1048.89 L199.197 1048.89 L199.197 1045.69 Z" fill="#000000" fill-rule="nonzero" fill-opacity="1" /><path clip-path="url(#clip850)" d="M231.171 1023.31 Q228.237 1023.31 226.751 1026.21 Q225.284 1029.09 225.284 1034.88 Q225.284 1040.65 226.751 1043.55 Q228.237 1046.43 231.171 1046.43 Q234.124 1046.43 235.591 1043.55 Q237.076 1040.65 237.076 1034.88 Q237.076 1029.09 235.591 1026.21 Q234.124 1023.31 231.171 1023.31 M231.171 1020.3 Q235.891 1020.3 238.374 1024.05 Q240.876 1027.77 240.876 1034.88 Q240.876 1041.97 238.374 1045.71 Q235.891 1049.44 231.171 1049.44 Q226.45 1049.44 223.949 1045.71 Q221.466 1041.97 221.466 1034.88 Q221.466 1027.77 223.949 1024.05 Q226.45 1020.3 231.171 1020.3 Z" fill="#000000" fill-rule="nonzero" fill-opacity="1" /><path clip-path="url(#clip850)" d="M140.247 606.403 L147.886 606.403 L147.886 580.037 L139.575 581.704 L139.575 577.444 L147.839 575.778 L152.515 575.778 L152.515 606.403 L160.154 606.403 L160.154 610.338 L140.247 610.338 L140.247 606.403 Z" fill="#000000" fill-rule="nonzero" fill-opacity="1" /><path clip-path="url(#clip850)" d="M179.598 578.856 Q175.987 578.856 174.159 582.421 Q172.353 585.963 172.353 593.093 Q172.353 600.199 174.159 603.764 Q175.987 607.305 179.598 607.305 Q183.233 607.305 185.038 603.764 Q186.867 600.199 186.867 593.093 Q186.867 585.963 185.038 582.421 Q183.233 578.856 179.598 578.856 M179.598 575.153 Q185.409 575.153 188.464 579.759 Q191.543 584.343 191.543 593.093 Q191.543 601.819 188.464 606.426 Q185.409 611.009 179.598 611.009 Q173.788 611.009 170.71 606.426 Q167.654 601.819 167.654 593.093 Q167.654 584.343 170.71 579.759 Q173.788 575.153 179.598 575.153 Z" fill="#000000" fill-rule="nonzero" fill-opacity="1" /><path clip-path="url(#clip850)" d="M191.543 569.254 L215.654 569.254 L215.654 572.451 L191.543 572.451 L191.543 569.254 Z" fill="#000000" fill-rule="nonzero" fill-opacity="1" /><path clip-path="url(#clip850)" d="M223.892 554.847 L238.807 554.847 L238.807 558.045 L227.372 558.045 L227.372 564.928 Q228.199 564.646 229.027 564.515 Q229.854 564.364 230.682 564.364 Q235.384 564.364 238.13 566.941 Q240.876 569.517 240.876 573.918 Q240.876 578.451 238.054 580.971 Q235.233 583.473 230.099 583.473 Q228.331 583.473 226.488 583.172 Q224.663 582.871 222.707 582.269 L222.707 578.451 Q224.4 579.373 226.205 579.824 Q228.011 580.276 230.023 580.276 Q233.277 580.276 235.177 578.564 Q237.076 576.852 237.076 573.918 Q237.076 570.984 235.177 569.273 Q233.277 567.561 230.023 567.561 Q228.5 567.561 226.977 567.9 Q225.472 568.239 223.892 568.953 L223.892 554.847 Z" fill="#000000" fill-rule="nonzero" fill-opacity="1" /><path clip-path="url(#clip850)" d="M170.17 140.439 L177.809 140.439 L177.809 114.074 L169.499 115.74 L169.499 111.481 L177.762 109.815 L182.438 109.815 L182.438 140.439 L190.077 140.439 L190.077 144.375 L170.17 144.375 L170.17 140.439 Z" fill="#000000" fill-rule="nonzero" fill-opacity="1" /><path clip-path="url(#clip850)" d="M209.522 112.893 Q205.91 112.893 204.082 116.458 Q202.276 120 202.276 127.129 Q202.276 134.236 204.082 137.801 Q205.91 141.342 209.522 141.342 Q213.156 141.342 214.961 137.801 Q216.79 134.236 216.79 127.129 Q216.79 120 214.961 116.458 Q213.156 112.893 209.522 112.893 M209.522 109.19 Q215.332 109.19 218.387 113.796 Q221.466 118.379 221.466 127.129 Q221.466 135.856 218.387 140.463 Q215.332 145.046 209.522 145.046 Q203.711 145.046 200.633 140.463 Q197.577 135.856 197.577 127.129 Q197.577 118.379 200.633 113.796 Q203.711 109.19 209.522 109.19 Z" fill="#000000" fill-rule="nonzero" fill-opacity="1" /><path clip-path="url(#clip850)" d="M231.171 91.3856 Q228.237 91.3856 226.751 94.282 Q225.284 97.1596 225.284 102.952 Q225.284 108.726 226.751 111.623 Q228.237 114.5 231.171 114.5 Q234.124 114.5 235.591 111.623 Q237.076 108.726 237.076 102.952 Q237.076 97.1596 235.591 94.282 Q234.124 91.3856 231.171 91.3856 M231.171 88.3763 Q235.891 88.3763 238.374 92.1191 Q240.876 95.843 240.876 102.952 Q240.876 110.043 238.374 113.786 Q235.891 117.51 231.171 117.51 Q226.45 117.51 223.949 113.786 Q221.466 110.043 221.466 102.952 Q221.466 95.843 223.949 92.1191 Q226.45 88.3763 231.171 88.3763 Z" fill="#000000" fill-rule="nonzero" fill-opacity="1" /><path clip-path="url(#clip850)" d="M18.0438 984.429 L24.314 984.429 Q22.5634 988.09 21.704 991.336 Q20.8447 994.583 20.8447 997.606 Q20.8447 1002.86 22.8817 1005.72 Q24.9187 1008.56 28.6745 1008.56 Q31.8255 1008.56 33.4488 1006.68 Q35.0402 1004.77 36.0269 999.484 L36.8226 995.601 Q38.1912 988.408 41.6605 985.002 Q45.098 981.565 50.8908 981.565 Q57.7976 981.565 61.3624 986.212 Q64.9272 990.827 64.9272 999.771 Q64.9272 1003.14 64.1633 1006.96 Q63.3994 1010.75 61.9035 1014.83 L55.2831 1014.83 Q57.4793 1010.91 58.5933 1007.15 Q59.7073 1003.4 59.7073 999.771 Q59.7073 994.264 57.543 991.273 Q55.3786 988.281 51.3682 988.281 Q47.8671 988.281 45.8937 990.445 Q43.9204 992.577 42.9337 997.479 L42.1698 1001.39 Q40.7375 1008.59 37.682 1011.8 Q34.6264 1015.02 29.1837 1015.02 Q22.8817 1015.02 19.2532 1010.59 Q15.6248 1006.14 15.6248 998.338 Q15.6248 994.996 16.2295 991.527 Q16.8343 988.058 18.0438 984.429 Z" fill="#000000" fill-rule="nonzero" fill-opacity="1" /><path clip-path="url(#clip850)" d="M46.0847 955.593 Q46.0847 962.69 47.7079 965.428 Q49.3312 968.165 53.2461 968.165 Q56.3653 968.165 58.2114 966.128 Q60.0256 964.059 60.0256 960.526 Q60.0256 955.656 56.5881 952.728 Q53.1188 949.768 47.3897 949.768 L46.0847 949.768 L46.0847 955.593 M43.6657 943.912 L64.0042 943.912 L64.0042 949.768 L58.5933 949.768 Q61.8398 951.773 63.3994 954.765 Q64.9272 957.757 64.9272 962.086 Q64.9272 967.56 61.8716 970.807 Q58.7843 974.021 53.6281 974.021 Q47.6125 974.021 44.5569 970.011 Q41.5014 965.969 41.5014 957.98 L41.5014 949.768 L40.9285 949.768 Q36.8862 949.768 34.6901 952.442 Q32.4621 955.083 32.4621 959.89 Q32.4621 962.945 33.1941 965.842 Q33.9262 968.738 35.3903 971.412 L29.9795 971.412 Q28.7381 968.197 28.1334 965.173 Q27.4968 962.149 27.4968 959.285 Q27.4968 951.551 31.5072 947.731 Q35.5176 943.912 43.6657 943.912 Z" fill="#000000" fill-rule="nonzero" fill-opacity="1" /><path clip-path="url(#clip850)" d="M35.1993 904.094 Q31.2526 901.898 29.3747 898.842 Q27.4968 895.787 27.4968 891.649 Q27.4968 886.079 31.4117 883.056 Q35.2948 880.032 42.4881 880.032 L64.0042 880.032 L64.0042 885.92 L42.679 885.92 Q37.5546 885.92 35.072 887.734 Q32.5894 889.549 32.5894 893.272 Q32.5894 897.824 35.6131 900.466 Q38.6368 903.107 43.8567 903.107 L64.0042 903.107 L64.0042 908.996 L42.679 908.996 Q37.5228 908.996 35.072 910.81 Q32.5894 912.624 32.5894 916.412 Q32.5894 920.9 35.6449 923.541 Q38.6686 926.183 43.8567 926.183 L64.0042 926.183 L64.0042 932.071 L28.3562 932.071 L28.3562 926.183 L33.8944 926.183 Q30.616 924.178 29.0564 921.377 Q27.4968 918.576 27.4968 914.725 Q27.4968 910.842 29.4702 908.136 Q31.4436 905.399 35.1993 904.094 Z" fill="#000000" fill-rule="nonzero" fill-opacity="1" /><path clip-path="url(#clip850)" d="M58.657 862.685 L77.5631 862.685 L77.5631 868.574 L28.3562 868.574 L28.3562 862.685 L33.7671 862.685 Q30.5842 860.839 29.0564 858.038 Q27.4968 855.206 27.4968 851.291 Q27.4968 844.798 32.6531 840.755 Q37.8093 836.681 46.212 836.681 Q54.6147 836.681 59.771 840.755 Q64.9272 844.798 64.9272 851.291 Q64.9272 855.206 63.3994 858.038 Q61.8398 860.839 58.657 862.685 M46.212 842.761 Q39.7508 842.761 36.0905 845.434 Q32.3984 848.076 32.3984 852.723 Q32.3984 857.37 36.0905 860.043 Q39.7508 862.685 46.212 862.685 Q52.6732 862.685 56.3653 860.043 Q60.0256 857.37 60.0256 852.723 Q60.0256 848.076 56.3653 845.434 Q52.6732 842.761 46.212 842.761 Z" fill="#000000" fill-rule="nonzero" fill-opacity="1" /><path clip-path="url(#clip850)" d="M14.479 826.974 L14.479 821.117 L64.0042 821.117 L64.0042 826.974 L14.479 826.974 Z" fill="#000000" fill-rule="nonzero" fill-opacity="1" /><path clip-path="url(#clip850)" d="M44.7161 778.371 L47.5806 778.371 L47.5806 805.298 Q53.6281 804.916 56.8109 801.67 Q59.9619 798.392 59.9619 792.567 Q59.9619 789.193 59.1344 786.042 Q58.3069 782.859 56.6518 779.74 L62.1899 779.74 Q63.5267 782.891 64.227 786.201 Q64.9272 789.511 64.9272 792.917 Q64.9272 801.447 59.9619 806.444 Q54.9967 811.409 46.5303 811.409 Q37.7774 811.409 32.6531 806.699 Q27.4968 801.956 27.4968 793.936 Q27.4968 786.742 32.1438 782.573 Q36.7589 778.371 44.7161 778.371 M42.9973 784.228 Q38.1912 784.292 35.3266 786.933 Q32.4621 789.543 32.4621 793.872 Q32.4621 798.774 35.2312 801.734 Q38.0002 804.662 43.0292 805.107 L42.9973 784.228 Z" fill="#000000" fill-rule="nonzero" fill-opacity="1" /><path clip-path="url(#clip850)" d="M33.7671 745.302 L14.479 745.302 L14.479 739.445 L64.0042 739.445 L64.0042 745.302 L58.657 745.302 Q61.8398 747.148 63.3994 749.98 Q64.9272 752.781 64.9272 756.728 Q64.9272 763.189 59.771 767.263 Q54.6147 771.306 46.212 771.306 Q37.8093 771.306 32.6531 767.263 Q27.4968 763.189 27.4968 756.728 Q27.4968 752.781 29.0564 749.98 Q30.5842 747.148 33.7671 745.302 M46.212 765.258 Q52.6732 765.258 56.3653 762.616 Q60.0256 759.943 60.0256 755.296 Q60.0256 750.649 56.3653 747.975 Q52.6732 745.302 46.212 745.302 Q39.7508 745.302 36.0905 747.975 Q32.3984 750.649 32.3984 755.296 Q32.3984 759.943 36.0905 762.616 Q39.7508 765.258 46.212 765.258 Z" fill="#000000" fill-rule="nonzero" fill-opacity="1" /><path clip-path="url(#clip850)" d="M16.4842 706.407 L16.4842 699.978 L58.5933 699.978 L58.5933 676.838 L64.0042 676.838 L64.0042 706.407 L16.4842 706.407 Z" fill="#000000" fill-rule="nonzero" fill-opacity="1" /><path clip-path="url(#clip850)" d="M58.5933 668.404 L58.5933 657.9 L22.3406 657.9 L24.6323 669.327 L18.7758 669.327 L16.4842 657.964 L16.4842 651.535 L58.5933 651.535 L58.5933 641.031 L64.0042 641.031 L64.0042 668.404 L58.5933 668.404 Z" fill="#000000" fill-rule="nonzero" fill-opacity="1" /><path clip-path="url(#clip850)" d="M16.4842 607.898 L16.4842 577.852 L21.895 577.852 L21.895 601.468 L35.9632 601.468 L35.9632 578.838 L41.3741 578.838 L41.3741 601.468 L58.5933 601.468 L58.5933 577.279 L64.0042 577.279 L64.0042 607.898 L16.4842 607.898 Z" fill="#000000" fill-rule="nonzero" fill-opacity="1" /><path clip-path="url(#clip850)" d="M33.8307 546.31 Q33.2578 547.296 33.0032 548.474 Q32.7167 549.62 32.7167 551.02 Q32.7167 555.985 35.9632 558.659 Q39.1779 561.301 45.2253 561.301 L64.0042 561.301 L64.0042 567.189 L28.3562 567.189 L28.3562 561.301 L33.8944 561.301 Q30.6479 559.455 29.0883 556.495 Q27.4968 553.535 27.4968 549.302 Q27.4968 548.697 27.5923 547.965 Q27.656 547.233 27.8151 546.341 L33.8307 546.31 Z" fill="#000000" fill-rule="nonzero" fill-opacity="1" /><path clip-path="url(#clip850)" d="M33.8307 520.656 Q33.2578 521.643 33.0032 522.82 Q32.7167 523.966 32.7167 525.366 Q32.7167 530.332 35.9632 533.005 Q39.1779 535.647 45.2253 535.647 L64.0042 535.647 L64.0042 541.535 L28.3562 541.535 L28.3562 535.647 L33.8944 535.647 Q30.6479 533.801 29.0883 530.841 Q27.4968 527.881 27.4968 523.648 Q27.4968 523.043 27.5923 522.311 Q27.656 521.579 27.8151 520.688 L33.8307 520.656 Z" fill="#000000" fill-rule="nonzero" fill-opacity="1" /><path clip-path="url(#clip850)" d="M32.4621 502.132 Q32.4621 506.842 36.1542 509.579 Q39.8145 512.317 46.212 512.317 Q52.6095 512.317 56.3017 509.611 Q59.9619 506.874 59.9619 502.132 Q59.9619 497.453 56.2698 494.716 Q52.5777 491.978 46.212 491.978 Q39.8781 491.978 36.186 494.716 Q32.4621 497.453 32.4621 502.132 M27.4968 502.132 Q27.4968 494.493 32.4621 490.132 Q37.4273 485.772 46.212 485.772 Q54.9649 485.772 59.9619 490.132 Q64.9272 494.493 64.9272 502.132 Q64.9272 509.802 59.9619 514.163 Q54.9649 518.491 46.212 518.491 Q37.4273 518.491 32.4621 514.163 Q27.4968 509.802 27.4968 502.132 Z" fill="#000000" fill-rule="nonzero" fill-opacity="1" /><path clip-path="url(#clip850)" d="M33.8307 455.407 Q33.2578 456.394 33.0032 457.572 Q32.7167 458.718 32.7167 460.118 Q32.7167 465.083 35.9632 467.757 Q39.1779 470.399 45.2253 470.399 L64.0042 470.399 L64.0042 476.287 L28.3562 476.287 L28.3562 470.399 L33.8944 470.399 Q30.6479 468.553 29.0883 465.592 Q27.4968 462.632 27.4968 458.399 Q27.4968 457.794 27.5923 457.062 Q27.656 456.33 27.8151 455.439 L33.8307 455.407 Z" fill="#000000" fill-rule="nonzero" fill-opacity="1" /><polyline clip-path="url(#clip852)" style="stroke:#009af9; stroke-linecap:round; stroke-linejoin:round; stroke-width:4; stroke-opacity:1; fill:none" points="335.627,134.755 466.185,193.677 596.744,239.124 727.302,283.385 857.861,481.255 988.419,506.909 1118.98,514.059 1249.54,900.841 1380.09,907.401 1510.65,979.343 1641.21,1160.45 1771.77,1278.32 1902.33,1267.49 2032.89,1260.51 2163.45,1263.47 2294,1276.29 "/>
<path clip-path="url(#clip852)" d="M335.627 150.755 L324.315 146.067 L319.627 134.755 L324.315 123.443 L335.627 118.755 L346.939 123.443 L351.627 134.755 L346.939 146.067 Z" fill="#009af9" fill-rule="evenodd" fill-opacity="1" stroke="#000000" stroke-opacity="1" stroke-width="3.2"/>
<path clip-path="url(#clip852)" d="M466.185 209.677 L454.873 204.989 L450.185 193.677 L454.873 182.365 L466.185 177.677 L477.497 182.365 L482.185 193.677 L477.497 204.989 Z" fill="#009af9" fill-rule="evenodd" fill-opacity="1" stroke="#000000" stroke-opacity="1" stroke-width="3.2"/>
<path clip-path="url(#clip852)" d="M596.744 255.124 L585.432 250.436 L580.744 239.124 L585.432 227.812 L596.744 223.124 L608.056 227.812 L612.744 239.124 L608.056 250.436 Z" fill="#009af9" fill-rule="evenodd" fill-opacity="1" stroke="#000000" stroke-opacity="1" stroke-width="3.2"/>
<path clip-path="url(#clip852)" d="M727.302 299.385 L715.99 294.697 L711.302 283.385 L715.99 272.073 L727.302 267.385 L738.614 272.073 L743.302 283.385 L738.614 294.697 Z" fill="#009af9" fill-rule="evenodd" fill-opacity="1" stroke="#000000" stroke-opacity="1" stroke-width="3.2"/>
<path clip-path="url(#clip852)" d="M857.861 497.255 L846.549 492.567 L841.861 481.255 L846.549 469.943 L857.861 465.255 L869.173 469.943 L873.861 481.255 L869.173 492.567 Z" fill="#009af9" fill-rule="evenodd" fill-opacity="1" stroke="#000000" stroke-opacity="1" stroke-width="3.2"/>
<path clip-path="url(#clip852)" d="M988.419 522.909 L977.107 518.221 L972.419 506.909 L977.107 495.597 L988.419 490.909 L999.731 495.597 L1004.42 506.909 L999.731 518.221 Z" fill="#009af9" fill-rule="evenodd" fill-opacity="1" stroke="#000000" stroke-opacity="1" stroke-width="3.2"/>
<path clip-path="url(#clip852)" d="M1118.98 530.059 L1107.67 525.371 L1102.98 514.059 L1107.67 502.747 L1118.98 498.059 L1130.29 502.747 L1134.98 514.059 L1130.29 525.371 Z" fill="#009af9" fill-rule="evenodd" fill-opacity="1" stroke="#000000" stroke-opacity="1" stroke-width="3.2"/>
<path clip-path="url(#clip852)" d="M1249.54 916.841 L1238.22 912.153 L1233.54 900.841 L1238.22 889.529 L1249.54 884.841 L1260.85 889.529 L1265.54 900.841 L1260.85 912.153 Z" fill="#009af9" fill-rule="evenodd" fill-opacity="1" stroke="#000000" stroke-opacity="1" stroke-width="3.2"/>
<path clip-path="url(#clip852)" d="M1380.09 923.401 L1368.78 918.713 L1364.09 907.401 L1368.78 896.089 L1380.09 891.401 L1391.41 896.089 L1396.09 907.401 L1391.41 918.713 Z" fill="#009af9" fill-rule="evenodd" fill-opacity="1" stroke="#000000" stroke-opacity="1" stroke-width="3.2"/>
<path clip-path="url(#clip852)" d="M1510.65 995.343 L1499.34 990.655 L1494.65 979.343 L1499.34 968.031 L1510.65 963.343 L1521.97 968.031 L1526.65 979.343 L1521.97 990.655 Z" fill="#009af9" fill-rule="evenodd" fill-opacity="1" stroke="#000000" stroke-opacity="1" stroke-width="3.2"/>
<path clip-path="url(#clip852)" d="M1641.21 1176.45 L1629.9 1171.76 L1625.21 1160.45 L1629.9 1149.13 L1641.21 1144.45 L1652.52 1149.13 L1657.21 1160.45 L1652.52 1171.76 Z" fill="#009af9" fill-rule="evenodd" fill-opacity="1" stroke="#000000" stroke-opacity="1" stroke-width="3.2"/>
<path clip-path="url(#clip852)" d="M1771.77 1294.32 L1760.46 1289.63 L1755.77 1278.32 L1760.46 1267.01 L1771.77 1262.32 L1783.08 1267.01 L1787.77 1278.32 L1783.08 1289.63 Z" fill="#009af9" fill-rule="evenodd" fill-opacity="1" stroke="#000000" stroke-opacity="1" stroke-width="3.2"/>
<path clip-path="url(#clip852)" d="M1902.33 1283.49 L1891.02 1278.8 L1886.33 1267.49 L1891.02 1256.17 L1902.33 1251.49 L1913.64 1256.17 L1918.33 1267.49 L1913.64 1278.8 Z" fill="#009af9" fill-rule="evenodd" fill-opacity="1" stroke="#000000" stroke-opacity="1" stroke-width="3.2"/>
<path clip-path="url(#clip852)" d="M2032.89 1276.51 L2021.58 1271.82 L2016.89 1260.51 L2021.58 1249.2 L2032.89 1244.51 L2044.2 1249.2 L2048.89 1260.51 L2044.2 1271.82 Z" fill="#009af9" fill-rule="evenodd" fill-opacity="1" stroke="#000000" stroke-opacity="1" stroke-width="3.2"/>
<path clip-path="url(#clip852)" d="M2163.45 1279.47 L2152.13 1274.78 L2147.45 1263.47 L2152.13 1252.16 L2163.45 1247.47 L2174.76 1252.16 L2179.45 1263.47 L2174.76 1274.78 Z" fill="#009af9" fill-rule="evenodd" fill-opacity="1" stroke="#000000" stroke-opacity="1" stroke-width="3.2"/>
<path clip-path="url(#clip852)" d="M2294 1292.29 L2282.69 1287.6 L2278 1276.29 L2282.69 1264.97 L2294 1260.29 L2305.32 1264.97 L2310 1276.29 L2305.32 1287.6 Z" fill="#009af9" fill-rule="evenodd" fill-opacity="1" stroke="#000000" stroke-opacity="1" stroke-width="3.2"/>
<polyline clip-path="url(#clip852)" style="stroke:#e26f46; stroke-linecap:round; stroke-linejoin:round; stroke-width:4; stroke-opacity:1; fill:none" points="335.627,86.1857 466.185,95.7473 596.744,107.301 727.302,106.904 857.861,135.302 988.419,136.293 1118.98,146.388 1249.54,145.392 1380.09,147.512 1510.65,149.242 1641.21,142.989 1771.77,157.577 1902.33,180.052 2032.89,172.685 2163.45,173.452 2294,202.024 "/>
<path clip-path="url(#clip852)" d="M335.627 102.186 L324.315 97.4977 L319.627 86.1857 L324.315 74.8737 L335.627 70.1857 L346.939 74.8737 L351.627 86.1857 L346.939 97.4977 Z" fill="#e26f46" fill-rule="evenodd" fill-opacity="1" stroke="#000000" stroke-opacity="1" stroke-width="3.2"/>
<path clip-path="url(#clip852)" d="M466.185 111.747 L454.873 107.059 L450.185 95.7473 L454.873 84.4353 L466.185 79.7473 L477.497 84.4353 L482.185 95.7473 L477.497 107.059 Z" fill="#e26f46" fill-rule="evenodd" fill-opacity="1" stroke="#000000" stroke-opacity="1" stroke-width="3.2"/>
<path clip-path="url(#clip852)" d="M596.744 123.301 L585.432 118.613 L580.744 107.301 L585.432 95.9892 L596.744 91.3012 L608.056 95.9892 L612.744 107.301 L608.056 118.613 Z" fill="#e26f46" fill-rule="evenodd" fill-opacity="1" stroke="#000000" stroke-opacity="1" stroke-width="3.2"/>
<path clip-path="url(#clip852)" d="M727.302 122.904 L715.99 118.216 L711.302 106.904 L715.99 95.5915 L727.302 90.9035 L738.614 95.5915 L743.302 106.904 L738.614 118.216 Z" fill="#e26f46" fill-rule="evenodd" fill-opacity="1" stroke="#000000" stroke-opacity="1" stroke-width="3.2"/>
<path clip-path="url(#clip852)" d="M857.861 151.302 L846.549 146.614 L841.861 135.302 L846.549 123.99 L857.861 119.302 L869.173 123.99 L873.861 135.302 L869.173 146.614 Z" fill="#e26f46" fill-rule="evenodd" fill-opacity="1" stroke="#000000" stroke-opacity="1" stroke-width="3.2"/>
<path clip-path="url(#clip852)" d="M988.419 152.293 L977.107 147.605 L972.419 136.293 L977.107 124.981 L988.419 120.293 L999.731 124.981 L1004.42 136.293 L999.731 147.605 Z" fill="#e26f46" fill-rule="evenodd" fill-opacity="1" stroke="#000000" stroke-opacity="1" stroke-width="3.2"/>
<path clip-path="url(#clip852)" d="M1118.98 162.388 L1107.67 157.7 L1102.98 146.388 L1107.67 135.076 L1118.98 130.388 L1130.29 135.076 L1134.98 146.388 L1130.29 157.7 Z" fill="#e26f46" fill-rule="evenodd" fill-opacity="1" stroke="#000000" stroke-opacity="1" stroke-width="3.2"/>
<path clip-path="url(#clip852)" d="M1249.54 161.392 L1238.22 156.704 L1233.54 145.392 L1238.22 134.08 L1249.54 129.392 L1260.85 134.08 L1265.54 145.392 L1260.85 156.704 Z" fill="#e26f46" fill-rule="evenodd" fill-opacity="1" stroke="#000000" stroke-opacity="1" stroke-width="3.2"/>
<path clip-path="url(#clip852)" d="M1380.09 163.512 L1368.78 158.824 L1364.09 147.512 L1368.78 136.2 L1380.09 131.512 L1391.41 136.2 L1396.09 147.512 L1391.41 158.824 Z" fill="#e26f46" fill-rule="evenodd" fill-opacity="1" stroke="#000000" stroke-opacity="1" stroke-width="3.2"/>
<path clip-path="url(#clip852)" d="M1510.65 165.242 L1499.34 160.554 L1494.65 149.242 L1499.34 137.93 L1510.65 133.242 L1521.97 137.93 L1526.65 149.242 L1521.97 160.554 Z" fill="#e26f46" fill-rule="evenodd" fill-opacity="1" stroke="#000000" stroke-opacity="1" stroke-width="3.2"/>
<path clip-path="url(#clip852)" d="M1641.21 158.989 L1629.9 154.301 L1625.21 142.989 L1629.9 131.677 L1641.21 126.989 L1652.52 131.677 L1657.21 142.989 L1652.52 154.301 Z" fill="#e26f46" fill-rule="evenodd" fill-opacity="1" stroke="#000000" stroke-opacity="1" stroke-width="3.2"/>
<path clip-path="url(#clip852)" d="M1771.77 173.577 L1760.46 168.889 L1755.77 157.577 L1760.46 146.265 L1771.77 141.577 L1783.08 146.265 L1787.77 157.577 L1783.08 168.889 Z" fill="#e26f46" fill-rule="evenodd" fill-opacity="1" stroke="#000000" stroke-opacity="1" stroke-width="3.2"/>
<path clip-path="url(#clip852)" d="M1902.33 196.052 L1891.02 191.364 L1886.33 180.052 L1891.02 168.74 L1902.33 164.052 L1913.64 168.74 L1918.33 180.052 L1913.64 191.364 Z" fill="#e26f46" fill-rule="evenodd" fill-opacity="1" stroke="#000000" stroke-opacity="1" stroke-width="3.2"/>
<path clip-path="url(#clip852)" d="M2032.89 188.685 L2021.58 183.997 L2016.89 172.685 L2021.58 161.373 L2032.89 156.685 L2044.2 161.373 L2048.89 172.685 L2044.2 183.997 Z" fill="#e26f46" fill-rule="evenodd" fill-opacity="1" stroke="#000000" stroke-opacity="1" stroke-width="3.2"/>
<path clip-path="url(#clip852)" d="M2163.45 189.452 L2152.13 184.764 L2147.45 173.452 L2152.13 162.14 L2163.45 157.452 L2174.76 162.14 L2179.45 173.452 L2174.76 184.764 Z" fill="#e26f46" fill-rule="evenodd" fill-opacity="1" stroke="#000000" stroke-opacity="1" stroke-width="3.2"/>
<path clip-path="url(#clip852)" d="M2294 218.024 L2282.69 213.336 L2278 202.024 L2282.69 190.712 L2294 186.024 L2305.32 190.712 L2310 202.024 L2305.32 213.336 Z" fill="#e26f46" fill-rule="evenodd" fill-opacity="1" stroke="#000000" stroke-opacity="1" stroke-width="3.2"/>
<polyline clip-path="url(#clip852)" style="stroke:#3da44d; stroke-linecap:round; stroke-linejoin:round; stroke-width:4; stroke-opacity:1; fill:none" points="335.627,90.8366 466.185,131.444 596.744,175.47 727.302,187.482 857.861,213.26 988.419,241.341 1118.98,249.263 1249.54,250.393 1380.09,261.018 1510.65,274.76 1641.21,276.62 1771.77,279.689 1902.33,289.327 2032.89,290.997 2163.45,300.283 2294,287.064 "/>
<path clip-path="url(#clip852)" d="M335.627 106.837 L324.315 102.149 L319.627 90.8366 L324.315 79.5246 L335.627 74.8366 L346.939 79.5246 L351.627 90.8366 L346.939 102.149 Z" fill="#3da44d" fill-rule="evenodd" fill-opacity="1" stroke="#000000" stroke-opacity="1" stroke-width="3.2"/>
<path clip-path="url(#clip852)" d="M466.185 147.444 L454.873 142.756 L450.185 131.444 L454.873 120.132 L466.185 115.444 L477.497 120.132 L482.185 131.444 L477.497 142.756 Z" fill="#3da44d" fill-rule="evenodd" fill-opacity="1" stroke="#000000" stroke-opacity="1" stroke-width="3.2"/>
<path clip-path="url(#clip852)" d="M596.744 191.47 L585.432 186.782 L580.744 175.47 L585.432 164.158 L596.744 159.47 L608.056 164.158 L612.744 175.47 L608.056 186.782 Z" fill="#3da44d" fill-rule="evenodd" fill-opacity="1" stroke="#000000" stroke-opacity="1" stroke-width="3.2"/>
<path clip-path="url(#clip852)" d="M727.302 203.482 L715.99 198.794 L711.302 187.482 L715.99 176.17 L727.302 171.482 L738.614 176.17 L743.302 187.482 L738.614 198.794 Z" fill="#3da44d" fill-rule="evenodd" fill-opacity="1" stroke="#000000" stroke-opacity="1" stroke-width="3.2"/>
<path clip-path="url(#clip852)" d="M857.861 229.26 L846.549 224.572 L841.861 213.26 L846.549 201.948 L857.861 197.26 L869.173 201.948 L873.861 213.26 L869.173 224.572 Z" fill="#3da44d" fill-rule="evenodd" fill-opacity="1" stroke="#000000" stroke-opacity="1" stroke-width="3.2"/>
<path clip-path="url(#clip852)" d="M988.419 257.341 L977.107 252.653 L972.419 241.341 L977.107 230.029 L988.419 225.341 L999.731 230.029 L1004.42 241.341 L999.731 252.653 Z" fill="#3da44d" fill-rule="evenodd" fill-opacity="1" stroke="#000000" stroke-opacity="1" stroke-width="3.2"/>
<path clip-path="url(#clip852)" d="M1118.98 265.263 L1107.67 260.575 L1102.98 249.263 L1107.67 237.951 L1118.98 233.263 L1130.29 237.951 L1134.98 249.263 L1130.29 260.575 Z" fill="#3da44d" fill-rule="evenodd" fill-opacity="1" stroke="#000000" stroke-opacity="1" stroke-width="3.2"/>
<path clip-path="url(#clip852)" d="M1249.54 266.393 L1238.22 261.705 L1233.54 250.393 L1238.22 239.081 L1249.54 234.393 L1260.85 239.081 L1265.54 250.393 L1260.85 261.705 Z" fill="#3da44d" fill-rule="evenodd" fill-opacity="1" stroke="#000000" stroke-opacity="1" stroke-width="3.2"/>
<path clip-path="url(#clip852)" d="M1380.09 277.018 L1368.78 272.33 L1364.09 261.018 L1368.78 249.706 L1380.09 245.018 L1391.41 249.706 L1396.09 261.018 L1391.41 272.33 Z" fill="#3da44d" fill-rule="evenodd" fill-opacity="1" stroke="#000000" stroke-opacity="1" stroke-width="3.2"/>
<path clip-path="url(#clip852)" d="M1510.65 290.76 L1499.34 286.072 L1494.65 274.76 L1499.34 263.448 L1510.65 258.76 L1521.97 263.448 L1526.65 274.76 L1521.97 286.072 Z" fill="#3da44d" fill-rule="evenodd" fill-opacity="1" stroke="#000000" stroke-opacity="1" stroke-width="3.2"/>
<path clip-path="url(#clip852)" d="M1641.21 292.62 L1629.9 287.932 L1625.21 276.62 L1629.9 265.308 L1641.21 260.62 L1652.52 265.308 L1657.21 276.62 L1652.52 287.932 Z" fill="#3da44d" fill-rule="evenodd" fill-opacity="1" stroke="#000000" stroke-opacity="1" stroke-width="3.2"/>
<path clip-path="url(#clip852)" d="M1771.77 295.689 L1760.46 291.001 L1755.77 279.689 L1760.46 268.377 L1771.77 263.689 L1783.08 268.377 L1787.77 279.689 L1783.08 291.001 Z" fill="#3da44d" fill-rule="evenodd" fill-opacity="1" stroke="#000000" stroke-opacity="1" stroke-width="3.2"/>
<path clip-path="url(#clip852)" d="M1902.33 305.327 L1891.02 300.639 L1886.33 289.327 L1891.02 278.015 L1902.33 273.327 L1913.64 278.015 L1918.33 289.327 L1913.64 300.639 Z" fill="#3da44d" fill-rule="evenodd" fill-opacity="1" stroke="#000000" stroke-opacity="1" stroke-width="3.2"/>
<path clip-path="url(#clip852)" d="M2032.89 306.997 L2021.58 302.309 L2016.89 290.997 L2021.58 279.685 L2032.89 274.997 L2044.2 279.685 L2048.89 290.997 L2044.2 302.309 Z" fill="#3da44d" fill-rule="evenodd" fill-opacity="1" stroke="#000000" stroke-opacity="1" stroke-width="3.2"/>
<path clip-path="url(#clip852)" d="M2163.45 316.283 L2152.13 311.595 L2147.45 300.283 L2152.13 288.971 L2163.45 284.283 L2174.76 288.971 L2179.45 300.283 L2174.76 311.595 Z" fill="#3da44d" fill-rule="evenodd" fill-opacity="1" stroke="#000000" stroke-opacity="1" stroke-width="3.2"/>
<path clip-path="url(#clip852)" d="M2294 303.064 L2282.69 298.376 L2278 287.064 L2282.69 275.752 L2294 271.064 L2305.32 275.752 L2310 287.064 L2305.32 298.376 Z" fill="#3da44d" fill-rule="evenodd" fill-opacity="1" stroke="#000000" stroke-opacity="1" stroke-width="3.2"/>
<polyline clip-path="url(#clip852)" style="stroke:#c271d2; stroke-linecap:round; stroke-linejoin:round; stroke-width:4; stroke-opacity:1; fill:none" points="335.627,88.5316 466.185,132.374 596.744,159.407 727.302,197.047 857.861,213.551 988.419,219.539 1118.98,226.173 1249.54,245.46 1380.09,262.443 1510.65,265.978 1641.21,287.287 1771.77,277.927 1902.33,273.691 2032.89,287.23 2163.45,273.443 2294,261.79 "/>
<path clip-path="url(#clip852)" d="M335.627 104.532 L324.315 99.8436 L319.627 88.5316 L324.315 77.2196 L335.627 72.5316 L346.939 77.2196 L351.627 88.5316 L346.939 99.8436 Z" fill="#c271d2" fill-rule="evenodd" fill-opacity="1" stroke="#000000" stroke-opacity="1" stroke-width="3.2"/>
<path clip-path="url(#clip852)" d="M466.185 148.374 L454.873 143.686 L450.185 132.374 L454.873 121.062 L466.185 116.374 L477.497 121.062 L482.185 132.374 L477.497 143.686 Z" fill="#c271d2" fill-rule="evenodd" fill-opacity="1" stroke="#000000" stroke-opacity="1" stroke-width="3.2"/>
<path clip-path="url(#clip852)" d="M596.744 175.407 L585.432 170.719 L580.744 159.407 L585.432 148.095 L596.744 143.407 L608.056 148.095 L612.744 159.407 L608.056 170.719 Z" fill="#c271d2" fill-rule="evenodd" fill-opacity="1" stroke="#000000" stroke-opacity="1" stroke-width="3.2"/>
<path clip-path="url(#clip852)" d="M727.302 213.047 L715.99 208.359 L711.302 197.047 L715.99 185.735 L727.302 181.047 L738.614 185.735 L743.302 197.047 L738.614 208.359 Z" fill="#c271d2" fill-rule="evenodd" fill-opacity="1" stroke="#000000" stroke-opacity="1" stroke-width="3.2"/>
<path clip-path="url(#clip852)" d="M857.861 229.551 L846.549 224.863 L841.861 213.551 L846.549 202.239 L857.861 197.551 L869.173 202.239 L873.861 213.551 L869.173 224.863 Z" fill="#c271d2" fill-rule="evenodd" fill-opacity="1" stroke="#000000" stroke-opacity="1" stroke-width="3.2"/>
<path clip-path="url(#clip852)" d="M988.419 235.539 L977.107 230.851 L972.419 219.539 L977.107 208.227 L988.419 203.539 L999.731 208.227 L1004.42 219.539 L999.731 230.851 Z" fill="#c271d2" fill-rule="evenodd" fill-opacity="1" stroke="#000000" stroke-opacity="1" stroke-width="3.2"/>
<path clip-path="url(#clip852)" d="M1118.98 242.173 L1107.67 237.485 L1102.98 226.173 L1107.67 214.861 L1118.98 210.173 L1130.29 214.861 L1134.98 226.173 L1130.29 237.485 Z" fill="#c271d2" fill-rule="evenodd" fill-opacity="1" stroke="#000000" stroke-opacity="1" stroke-width="3.2"/>
<path clip-path="url(#clip852)" d="M1249.54 261.46 L1238.22 256.772 L1233.54 245.46 L1238.22 234.148 L1249.54 229.46 L1260.85 234.148 L1265.54 245.46 L1260.85 256.772 Z" fill="#c271d2" fill-rule="evenodd" fill-opacity="1" stroke="#000000" stroke-opacity="1" stroke-width="3.2"/>
<path clip-path="url(#clip852)" d="M1380.09 278.443 L1368.78 273.755 L1364.09 262.443 L1368.78 251.131 L1380.09 246.443 L1391.41 251.131 L1396.09 262.443 L1391.41 273.755 Z" fill="#c271d2" fill-rule="evenodd" fill-opacity="1" stroke="#000000" stroke-opacity="1" stroke-width="3.2"/>
<path clip-path="url(#clip852)" d="M1510.65 281.978 L1499.34 277.29 L1494.65 265.978 L1499.34 254.666 L1510.65 249.978 L1521.97 254.666 L1526.65 265.978 L1521.97 277.29 Z" fill="#c271d2" fill-rule="evenodd" fill-opacity="1" stroke="#000000" stroke-opacity="1" stroke-width="3.2"/>
<path clip-path="url(#clip852)" d="M1641.21 303.287 L1629.9 298.599 L1625.21 287.287 L1629.9 275.975 L1641.21 271.287 L1652.52 275.975 L1657.21 287.287 L1652.52 298.599 Z" fill="#c271d2" fill-rule="evenodd" fill-opacity="1" stroke="#000000" stroke-opacity="1" stroke-width="3.2"/>
<path clip-path="url(#clip852)" d="M1771.77 293.927 L1760.46 289.239 L1755.77 277.927 L1760.46 266.615 L1771.77 261.927 L1783.08 266.615 L1787.77 277.927 L1783.08 289.239 Z" fill="#c271d2" fill-rule="evenodd" fill-opacity="1" stroke="#000000" stroke-opacity="1" stroke-width="3.2"/>
<path clip-path="url(#clip852)" d="M1902.33 289.691 L1891.02 285.003 L1886.33 273.691 L1891.02 262.379 L1902.33 257.691 L1913.64 262.379 L1918.33 273.691 L1913.64 285.003 Z" fill="#c271d2" fill-rule="evenodd" fill-opacity="1" stroke="#000000" stroke-opacity="1" stroke-width="3.2"/>
<path clip-path="url(#clip852)" d="M2032.89 303.23 L2021.58 298.542 L2016.89 287.23 L2021.58 275.918 L2032.89 271.23 L2044.2 275.918 L2048.89 287.23 L2044.2 298.542 Z" fill="#c271d2" fill-rule="evenodd" fill-opacity="1" stroke="#000000" stroke-opacity="1" stroke-width="3.2"/>
<path clip-path="url(#clip852)" d="M2163.45 289.443 L2152.13 284.755 L2147.45 273.443 L2152.13 262.131 L2163.45 257.443 L2174.76 262.131 L2179.45 273.443 L2174.76 284.755 Z" fill="#c271d2" fill-rule="evenodd" fill-opacity="1" stroke="#000000" stroke-opacity="1" stroke-width="3.2"/>
<path clip-path="url(#clip852)" d="M2294 277.79 L2282.69 273.102 L2278 261.79 L2282.69 250.478 L2294 245.79 L2305.32 250.478 L2310 261.79 L2305.32 273.102 Z" fill="#c271d2" fill-rule="evenodd" fill-opacity="1" stroke="#000000" stroke-opacity="1" stroke-width="3.2"/>
<polyline clip-path="url(#clip852)" style="stroke:#ac8d18; stroke-linecap:round; stroke-linejoin:round; stroke-width:4; stroke-opacity:1; fill:none" points="335.627,96.8229 466.185,380.434 596.744,720.488 727.302,1276.03 857.861,1382.81 988.419,1382.13 1118.98,1384.24 1249.54,1382.81 1380.09,1381.58 1510.65,1381.71 1641.21,1381.56 1771.77,1382.47 1902.33,1379.78 2032.89,1379.66 2163.45,1382.83 2294,1382.44 "/>
<path clip-path="url(#clip852)" d="M335.627 112.823 L324.315 108.135 L319.627 96.8229 L324.315 85.5109 L335.627 80.8229 L346.939 85.5109 L351.627 96.8229 L346.939 108.135 Z" fill="#ac8d18" fill-rule="evenodd" fill-opacity="1" stroke="#000000" stroke-opacity="1" stroke-width="3.2"/>
<path clip-path="url(#clip852)" d="M466.185 396.434 L454.873 391.746 L450.185 380.434 L454.873 369.122 L466.185 364.434 L477.497 369.122 L482.185 380.434 L477.497 391.746 Z" fill="#ac8d18" fill-rule="evenodd" fill-opacity="1" stroke="#000000" stroke-opacity="1" stroke-width="3.2"/>
<path clip-path="url(#clip852)" d="M596.744 736.488 L585.432 731.8 L580.744 720.488 L585.432 709.176 L596.744 704.488 L608.056 709.176 L612.744 720.488 L608.056 731.8 Z" fill="#ac8d18" fill-rule="evenodd" fill-opacity="1" stroke="#000000" stroke-opacity="1" stroke-width="3.2"/>
<path clip-path="url(#clip852)" d="M727.302 1292.03 L715.99 1287.34 L711.302 1276.03 L715.99 1264.72 L727.302 1260.03 L738.614 1264.72 L743.302 1276.03 L738.614 1287.34 Z" fill="#ac8d18" fill-rule="evenodd" fill-opacity="1" stroke="#000000" stroke-opacity="1" stroke-width="3.2"/>
<path clip-path="url(#clip852)" d="M857.861 1398.81 L846.549 1394.12 L841.861 1382.81 L846.549 1371.5 L857.861 1366.81 L869.173 1371.5 L873.861 1382.81 L869.173 1394.12 Z" fill="#ac8d18" fill-rule="evenodd" fill-opacity="1" stroke="#000000" stroke-opacity="1" stroke-width="3.2"/>
<path clip-path="url(#clip852)" d="M988.419 1398.13 L977.107 1393.44 L972.419 1382.13 L977.107 1370.82 L988.419 1366.13 L999.731 1370.82 L1004.42 1382.13 L999.731 1393.44 Z" fill="#ac8d18" fill-rule="evenodd" fill-opacity="1" stroke="#000000" stroke-opacity="1" stroke-width="3.2"/>
<path clip-path="url(#clip852)" d="M1118.98 1400.24 L1107.67 1395.55 L1102.98 1384.24 L1107.67 1372.93 L1118.98 1368.24 L1130.29 1372.93 L1134.98 1384.24 L1130.29 1395.55 Z" fill="#ac8d18" fill-rule="evenodd" fill-opacity="1" stroke="#000000" stroke-opacity="1" stroke-width="3.2"/>
<path clip-path="url(#clip852)" d="M1249.54 1398.81 L1238.22 1394.12 L1233.54 1382.81 L1238.22 1371.49 L1249.54 1366.81 L1260.85 1371.49 L1265.54 1382.81 L1260.85 1394.12 Z" fill="#ac8d18" fill-rule="evenodd" fill-opacity="1" stroke="#000000" stroke-opacity="1" stroke-width="3.2"/>
<path clip-path="url(#clip852)" d="M1380.09 1397.58 L1368.78 1392.89 L1364.09 1381.58 L1368.78 1370.27 L1380.09 1365.58 L1391.41 1370.27 L1396.09 1381.58 L1391.41 1392.89 Z" fill="#ac8d18" fill-rule="evenodd" fill-opacity="1" stroke="#000000" stroke-opacity="1" stroke-width="3.2"/>
<path clip-path="url(#clip852)" d="M1510.65 1397.71 L1499.34 1393.02 L1494.65 1381.71 L1499.34 1370.39 L1510.65 1365.71 L1521.97 1370.39 L1526.65 1381.71 L1521.97 1393.02 Z" fill="#ac8d18" fill-rule="evenodd" fill-opacity="1" stroke="#000000" stroke-opacity="1" stroke-width="3.2"/>
<path clip-path="url(#clip852)" d="M1641.21 1397.56 L1629.9 1392.87 L1625.21 1381.56 L1629.9 1370.25 L1641.21 1365.56 L1652.52 1370.25 L1657.21 1381.56 L1652.52 1392.87 Z" fill="#ac8d18" fill-rule="evenodd" fill-opacity="1" stroke="#000000" stroke-opacity="1" stroke-width="3.2"/>
<path clip-path="url(#clip852)" d="M1771.77 1398.47 L1760.46 1393.78 L1755.77 1382.47 L1760.46 1371.16 L1771.77 1366.47 L1783.08 1371.16 L1787.77 1382.47 L1783.08 1393.78 Z" fill="#ac8d18" fill-rule="evenodd" fill-opacity="1" stroke="#000000" stroke-opacity="1" stroke-width="3.2"/>
<path clip-path="url(#clip852)" d="M1902.33 1395.78 L1891.02 1391.09 L1886.33 1379.78 L1891.02 1368.46 L1902.33 1363.78 L1913.64 1368.46 L1918.33 1379.78 L1913.64 1391.09 Z" fill="#ac8d18" fill-rule="evenodd" fill-opacity="1" stroke="#000000" stroke-opacity="1" stroke-width="3.2"/>
<path clip-path="url(#clip852)" d="M2032.89 1395.66 L2021.58 1390.97 L2016.89 1379.66 L2021.58 1368.35 L2032.89 1363.66 L2044.2 1368.35 L2048.89 1379.66 L2044.2 1390.97 Z" fill="#ac8d18" fill-rule="evenodd" fill-opacity="1" stroke="#000000" stroke-opacity="1" stroke-width="3.2"/>
<path clip-path="url(#clip852)" d="M2163.45 1398.83 L2152.13 1394.14 L2147.45 1382.83 L2152.13 1371.52 L2163.45 1366.83 L2174.76 1371.52 L2179.45 1382.83 L2174.76 1394.14 Z" fill="#ac8d18" fill-rule="evenodd" fill-opacity="1" stroke="#000000" stroke-opacity="1" stroke-width="3.2"/>
<path clip-path="url(#clip852)" d="M2294 1398.44 L2282.69 1393.75 L2278 1382.44 L2282.69 1371.13 L2294 1366.44 L2305.32 1371.13 L2310 1382.44 L2305.32 1393.75 Z" fill="#ac8d18" fill-rule="evenodd" fill-opacity="1" stroke="#000000" stroke-opacity="1" stroke-width="3.2"/>
<path clip-path="url(#clip850)" d="M1797.83 404.149 L2283.56 404.149 L2283.56 93.1086 L1797.83 93.1086  Z" fill="#ffffff" fill-rule="evenodd" fill-opacity="1"/>
<polyline clip-path="url(#clip850)" style="stroke:#000000; stroke-linecap:round; stroke-linejoin:round; stroke-width:4; stroke-opacity:1; fill:none" points="1797.83,404.149 2283.56,404.149 2283.56,93.1086 1797.83,93.1086 1797.83,404.149 "/>
<polyline clip-path="url(#clip850)" style="stroke:#009af9; stroke-linecap:round; stroke-linejoin:round; stroke-width:4; stroke-opacity:1; fill:none" points="1820.89,144.949 1959.28,144.949 "/>
<path clip-path="url(#clip850)" d="M1890.09 166.305 L1874.99 160.048 L1868.73 144.949 L1874.99 129.849 L1890.09 123.592 L1905.19 129.849 L1911.44 144.949 L1905.19 160.048 Z" fill="#009af9" fill-rule="evenodd" fill-opacity="1" stroke="#000000" stroke-opacity="1" stroke-width="4.55111"/>
<path clip-path="url(#clip850)" d="M1982.35 127.669 L2002.21 127.669 L2002.21 131.604 L1987.02 131.604 L1987.02 141.789 L2000.73 141.789 L2000.73 145.724 L1987.02 145.724 L1987.02 162.229 L1982.35 162.229 L1982.35 127.669 Z" fill="#000000" fill-rule="nonzero" fill-opacity="1" /><path clip-path="url(#clip850)" d="M2006.4 151.997 L2006.4 136.303 L2010.66 136.303 L2010.66 151.835 Q2010.66 155.516 2012.09 157.368 Q2013.53 159.196 2016.4 159.196 Q2019.85 159.196 2021.84 156.997 Q2023.85 154.798 2023.85 151.002 L2023.85 136.303 L2028.11 136.303 L2028.11 162.229 L2023.85 162.229 L2023.85 158.247 Q2022.3 160.608 2020.24 161.766 Q2018.2 162.9 2015.5 162.9 Q2011.03 162.9 2008.71 160.122 Q2006.4 157.344 2006.4 151.997 M2017.12 135.678 L2017.12 135.678 Z" fill="#000000" fill-rule="nonzero" fill-opacity="1" /><path clip-path="url(#clip850)" d="M2053.41 137.067 L2053.41 141.094 Q2051.61 140.169 2049.66 139.706 Q2047.72 139.243 2045.63 139.243 Q2042.46 139.243 2040.87 140.215 Q2039.29 141.187 2039.29 143.131 Q2039.29 144.613 2040.43 145.469 Q2041.56 146.303 2044.99 147.067 L2046.44 147.391 Q2050.98 148.363 2052.88 150.145 Q2054.8 151.905 2054.8 155.076 Q2054.8 158.687 2051.93 160.793 Q2049.08 162.9 2044.08 162.9 Q2042 162.9 2039.73 162.483 Q2037.49 162.09 2034.99 161.28 L2034.99 156.881 Q2037.35 158.108 2039.64 158.733 Q2041.93 159.335 2044.18 159.335 Q2047.19 159.335 2048.81 158.317 Q2050.43 157.275 2050.43 155.4 Q2050.43 153.664 2049.25 152.738 Q2048.09 151.812 2044.13 150.956 L2042.65 150.608 Q2038.69 149.775 2036.93 148.062 Q2035.17 146.326 2035.17 143.317 Q2035.17 139.659 2037.76 137.669 Q2040.36 135.678 2045.13 135.678 Q2047.49 135.678 2049.57 136.025 Q2051.65 136.372 2053.41 137.067 Z" fill="#000000" fill-rule="nonzero" fill-opacity="1" /><path clip-path="url(#clip850)" d="M2083.76 148.201 L2083.76 150.284 L2064.18 150.284 Q2064.45 154.682 2066.82 156.997 Q2069.2 159.289 2073.44 159.289 Q2075.89 159.289 2078.18 158.687 Q2080.5 158.085 2082.76 156.881 L2082.76 160.909 Q2080.47 161.881 2078.06 162.391 Q2075.66 162.9 2073.18 162.9 Q2066.98 162.9 2063.34 159.289 Q2059.73 155.678 2059.73 149.52 Q2059.73 143.155 2063.16 139.428 Q2066.61 135.678 2072.44 135.678 Q2077.67 135.678 2080.7 139.057 Q2083.76 142.414 2083.76 148.201 M2079.5 146.951 Q2079.45 143.456 2077.53 141.372 Q2075.63 139.289 2072.49 139.289 Q2068.92 139.289 2066.77 141.303 Q2064.64 143.317 2064.32 146.974 L2079.5 146.951 Z" fill="#000000" fill-rule="nonzero" fill-opacity="1" /><path clip-path="url(#clip850)" d="M2107.81 140.238 L2107.81 126.21 L2112.07 126.21 L2112.07 162.229 L2107.81 162.229 L2107.81 158.34 Q2106.47 160.655 2104.41 161.789 Q2102.37 162.9 2099.5 162.9 Q2094.8 162.9 2091.84 159.15 Q2088.9 155.4 2088.9 149.289 Q2088.9 143.178 2091.84 139.428 Q2094.8 135.678 2099.5 135.678 Q2102.37 135.678 2104.41 136.812 Q2106.47 137.923 2107.81 140.238 M2093.3 149.289 Q2093.3 153.988 2095.22 156.673 Q2097.16 159.335 2100.54 159.335 Q2103.92 159.335 2105.87 156.673 Q2107.81 153.988 2107.81 149.289 Q2107.81 144.59 2105.87 141.928 Q2103.92 139.243 2100.54 139.243 Q2097.16 139.243 2095.22 141.928 Q2093.3 144.59 2093.3 149.289 Z" fill="#000000" fill-rule="nonzero" fill-opacity="1" /><path clip-path="url(#clip850)" d="M2140.54 170.099 L2140.54 173.409 L2115.91 173.409 L2115.91 170.099 L2140.54 170.099 Z" fill="#000000" fill-rule="nonzero" fill-opacity="1" /><path clip-path="url(#clip850)" d="M2149.41 145.724 L2149.41 158.386 L2156.91 158.386 Q2160.68 158.386 2162.49 156.835 Q2164.31 155.261 2164.31 152.043 Q2164.31 148.803 2162.49 147.275 Q2160.68 145.724 2156.91 145.724 L2149.41 145.724 M2149.41 131.511 L2149.41 141.928 L2156.33 141.928 Q2159.75 141.928 2161.42 140.655 Q2163.11 139.358 2163.11 136.719 Q2163.11 134.104 2161.42 132.807 Q2159.75 131.511 2156.33 131.511 L2149.41 131.511 M2144.73 127.669 L2156.68 127.669 Q2162.02 127.669 2164.92 129.891 Q2167.81 132.113 2167.81 136.21 Q2167.81 139.382 2166.33 141.257 Q2164.85 143.131 2161.98 143.594 Q2165.43 144.335 2167.32 146.696 Q2169.25 149.034 2169.25 152.553 Q2169.25 157.182 2166.1 159.705 Q2162.95 162.229 2157.14 162.229 L2144.73 162.229 L2144.73 127.669 Z" fill="#000000" fill-rule="nonzero" fill-opacity="1" /><path clip-path="url(#clip850)" d="M2172.46 127.669 L2201.7 127.669 L2201.7 131.604 L2189.43 131.604 L2189.43 162.229 L2184.73 162.229 L2184.73 131.604 L2172.46 131.604 L2172.46 127.669 Z" fill="#000000" fill-rule="nonzero" fill-opacity="1" /><path clip-path="url(#clip850)" d="M2200.59 127.669 L2229.82 127.669 L2229.82 131.604 L2217.55 131.604 L2217.55 162.229 L2212.86 162.229 L2212.86 131.604 L2200.59 131.604 L2200.59 127.669 Z" fill="#000000" fill-rule="nonzero" fill-opacity="1" /><path clip-path="url(#clip850)" d="M2234.34 127.669 L2240.63 127.669 L2255.96 156.581 L2255.96 127.669 L2260.49 127.669 L2260.49 162.229 L2254.2 162.229 L2238.87 133.317 L2238.87 162.229 L2234.34 162.229 L2234.34 127.669 Z" fill="#000000" fill-rule="nonzero" fill-opacity="1" /><polyline clip-path="url(#clip850)" style="stroke:#e26f46; stroke-linecap:round; stroke-linejoin:round; stroke-width:4; stroke-opacity:1; fill:none" points="1820.89,196.789 1959.28,196.789 "/>
<path clip-path="url(#clip850)" d="M1890.09 218.145 L1874.99 211.888 L1868.73 196.789 L1874.99 181.689 L1890.09 175.432 L1905.19 181.689 L1911.44 196.789 L1905.19 211.888 Z" fill="#e26f46" fill-rule="evenodd" fill-opacity="1" stroke="#000000" stroke-opacity="1" stroke-width="4.55111"/>
<path clip-path="url(#clip850)" d="M1998.37 182.68 Q1993.27 182.68 1990.26 186.476 Q1987.28 190.272 1987.28 196.823 Q1987.28 203.351 1990.26 207.147 Q1993.27 210.944 1998.37 210.944 Q2003.46 210.944 2006.42 207.147 Q2009.41 203.351 2009.41 196.823 Q2009.41 190.272 2006.42 186.476 Q2003.46 182.68 1998.37 182.68 M2004.92 213.444 L2011.07 220.18 L2005.43 220.18 L2000.31 214.647 Q1999.55 214.694 1999.13 214.717 Q1998.74 214.74 1998.37 214.74 Q1991.07 214.74 1986.7 209.879 Q1982.35 204.995 1982.35 196.823 Q1982.35 188.629 1986.7 183.768 Q1991.07 178.884 1998.37 178.884 Q2005.63 178.884 2009.99 183.768 Q2014.34 188.629 2014.34 196.823 Q2014.34 202.842 2011.91 207.124 Q2009.5 211.407 2004.92 213.444 Z" fill="#000000" fill-rule="nonzero" fill-opacity="1" /><path clip-path="url(#clip850)" d="M2016.86 179.509 L2046.1 179.509 L2046.1 183.444 L2033.83 183.444 L2033.83 214.069 L2029.13 214.069 L2029.13 183.444 L2016.86 183.444 L2016.86 179.509 Z" fill="#000000" fill-rule="nonzero" fill-opacity="1" /><path clip-path="url(#clip850)" d="M2044.99 179.509 L2074.22 179.509 L2074.22 183.444 L2061.95 183.444 L2061.95 214.069 L2057.25 214.069 L2057.25 183.444 L2044.99 183.444 L2044.99 179.509 Z" fill="#000000" fill-rule="nonzero" fill-opacity="1" /><path clip-path="url(#clip850)" d="M2098.25 221.939 L2098.25 225.249 L2073.62 225.249 L2073.62 221.939 L2098.25 221.939 Z" fill="#000000" fill-rule="nonzero" fill-opacity="1" /><path clip-path="url(#clip850)" d="M2123.16 180.643 L2123.16 185.203 Q2120.5 183.93 2118.13 183.305 Q2115.77 182.68 2113.57 182.68 Q2109.75 182.68 2107.67 184.161 Q2105.61 185.643 2105.61 188.374 Q2105.61 190.666 2106.98 191.847 Q2108.37 193.004 2112.21 193.722 L2115.03 194.3 Q2120.26 195.296 2122.74 197.819 Q2125.24 200.319 2125.24 204.532 Q2125.24 209.555 2121.86 212.147 Q2118.5 214.74 2112 214.74 Q2109.55 214.74 2106.77 214.184 Q2104.01 213.629 2101.05 212.541 L2101.05 207.726 Q2103.9 209.323 2106.63 210.133 Q2109.36 210.944 2112 210.944 Q2116 210.944 2118.18 209.37 Q2120.36 207.796 2120.36 204.879 Q2120.36 202.333 2118.78 200.897 Q2117.23 199.462 2113.67 198.745 L2110.82 198.189 Q2105.59 197.147 2103.25 194.925 Q2100.91 192.703 2100.91 188.745 Q2100.91 184.161 2104.13 181.522 Q2107.37 178.884 2113.04 178.884 Q2115.47 178.884 2118 179.323 Q2120.52 179.763 2123.16 180.643 Z" fill="#000000" fill-rule="nonzero" fill-opacity="1" /><path clip-path="url(#clip850)" d="M2154.52 200.041 L2154.52 202.124 L2134.94 202.124 Q2135.22 206.522 2137.58 208.837 Q2139.96 211.129 2144.2 211.129 Q2146.65 211.129 2148.94 210.527 Q2151.26 209.925 2153.53 208.721 L2153.53 212.749 Q2151.24 213.721 2148.83 214.231 Q2146.42 214.74 2143.94 214.74 Q2137.74 214.74 2134.11 211.129 Q2130.5 207.518 2130.5 201.36 Q2130.5 194.995 2133.92 191.268 Q2137.37 187.518 2143.2 187.518 Q2148.43 187.518 2151.47 190.897 Q2154.52 194.254 2154.52 200.041 M2150.26 198.791 Q2150.22 195.296 2148.3 193.212 Q2146.4 191.129 2143.25 191.129 Q2139.69 191.129 2137.53 193.143 Q2135.4 195.157 2135.08 198.814 L2150.26 198.791 Z" fill="#000000" fill-rule="nonzero" fill-opacity="1" /><path clip-path="url(#clip850)" d="M2164.06 201.129 Q2164.06 205.828 2165.98 208.513 Q2167.93 211.175 2171.31 211.175 Q2174.68 211.175 2176.63 208.513 Q2178.57 205.828 2178.57 201.129 Q2178.57 196.43 2176.63 193.768 Q2174.68 191.083 2171.31 191.083 Q2167.93 191.083 2165.98 193.768 Q2164.06 196.43 2164.06 201.129 M2178.57 210.18 Q2177.23 212.495 2175.17 213.629 Q2173.13 214.74 2170.26 214.74 Q2165.56 214.74 2162.6 210.99 Q2159.66 207.24 2159.66 201.129 Q2159.66 195.018 2162.6 191.268 Q2165.56 187.518 2170.26 187.518 Q2173.13 187.518 2175.17 188.652 Q2177.23 189.763 2178.57 192.078 L2178.57 188.143 L2182.83 188.143 L2182.83 223.93 L2178.57 223.93 L2178.57 210.18 Z" fill="#000000" fill-rule="nonzero" fill-opacity="1" /><polyline clip-path="url(#clip850)" style="stroke:#3da44d; stroke-linecap:round; stroke-linejoin:round; stroke-width:4; stroke-opacity:1; fill:none" points="1820.89,248.629 1959.28,248.629 "/>
<path clip-path="url(#clip850)" d="M1890.09 269.985 L1874.99 263.728 L1868.73 248.629 L1874.99 233.529 L1890.09 227.272 L1905.19 233.529 L1911.44 248.629 L1905.19 263.728 Z" fill="#3da44d" fill-rule="evenodd" fill-opacity="1" stroke="#000000" stroke-opacity="1" stroke-width="4.55111"/>
<path clip-path="url(#clip850)" d="M1987.02 249.404 L1987.02 262.066 L1994.52 262.066 Q1998.3 262.066 2000.1 260.515 Q2001.93 258.941 2001.93 255.723 Q2001.93 252.483 2000.1 250.955 Q1998.3 249.404 1994.52 249.404 L1987.02 249.404 M1987.02 235.191 L1987.02 245.608 L1993.95 245.608 Q1997.37 245.608 1999.04 244.335 Q2000.73 243.038 2000.73 240.399 Q2000.73 237.784 1999.04 236.487 Q1997.37 235.191 1993.95 235.191 L1987.02 235.191 M1982.35 231.349 L1994.29 231.349 Q1999.64 231.349 2002.53 233.571 Q2005.43 235.793 2005.43 239.89 Q2005.43 243.062 2003.95 244.937 Q2002.46 246.811 1999.59 247.274 Q2003.04 248.015 2004.94 250.376 Q2006.86 252.714 2006.86 256.233 Q2006.86 260.862 2003.71 263.385 Q2000.57 265.909 1994.76 265.909 L1982.35 265.909 L1982.35 231.349 Z" fill="#000000" fill-rule="nonzero" fill-opacity="1" /><path clip-path="url(#clip850)" d="M2010.08 231.349 L2039.32 231.349 L2039.32 235.284 L2027.05 235.284 L2027.05 265.909 L2022.35 265.909 L2022.35 235.284 L2010.08 235.284 L2010.08 231.349 Z" fill="#000000" fill-rule="nonzero" fill-opacity="1" /><path clip-path="url(#clip850)" d="M2038.2 231.349 L2067.44 231.349 L2067.44 235.284 L2055.17 235.284 L2055.17 265.909 L2050.47 265.909 L2050.47 235.284 L2038.2 235.284 L2038.2 231.349 Z" fill="#000000" fill-rule="nonzero" fill-opacity="1" /><path clip-path="url(#clip850)" d="M2071.95 231.349 L2078.25 231.349 L2093.57 260.261 L2093.57 231.349 L2098.11 231.349 L2098.11 265.909 L2091.81 265.909 L2076.49 236.997 L2076.49 265.909 L2071.95 265.909 L2071.95 231.349 Z" fill="#000000" fill-rule="nonzero" fill-opacity="1" /><polyline clip-path="url(#clip850)" style="stroke:#c271d2; stroke-linecap:round; stroke-linejoin:round; stroke-width:4; stroke-opacity:1; fill:none" points="1820.89,300.469 1959.28,300.469 "/>
<path clip-path="url(#clip850)" d="M1890.09 321.825 L1874.99 315.568 L1868.73 300.469 L1874.99 285.369 L1890.09 279.112 L1905.19 285.369 L1911.44 300.469 L1905.19 315.568 Z" fill="#c271d2" fill-rule="evenodd" fill-opacity="1" stroke="#000000" stroke-opacity="1" stroke-width="4.55111"/>
<path clip-path="url(#clip850)" d="M2010.22 285.851 L2010.22 290.781 Q2007.86 288.582 2005.17 287.494 Q2002.51 286.406 1999.5 286.406 Q1993.57 286.406 1990.43 290.04 Q1987.28 293.652 1987.28 300.503 Q1987.28 307.332 1990.43 310.966 Q1993.57 314.577 1999.5 314.577 Q2002.51 314.577 2005.17 313.489 Q2007.86 312.401 2010.22 310.202 L2010.22 315.087 Q2007.76 316.753 2005.01 317.587 Q2002.28 318.42 1999.22 318.42 Q1991.38 318.42 1986.86 313.628 Q1982.35 308.813 1982.35 300.503 Q1982.35 292.17 1986.86 287.378 Q1991.38 282.564 1999.22 282.564 Q2002.32 282.564 2005.06 283.397 Q2007.81 284.207 2010.22 285.851 Z" fill="#000000" fill-rule="nonzero" fill-opacity="1" /><path clip-path="url(#clip850)" d="M2012.65 283.189 L2041.88 283.189 L2041.88 287.124 L2029.62 287.124 L2029.62 317.749 L2024.92 317.749 L2024.92 287.124 L2012.65 287.124 L2012.65 283.189 Z" fill="#000000" fill-rule="nonzero" fill-opacity="1" /><path clip-path="url(#clip850)" d="M2040.77 283.189 L2070.01 283.189 L2070.01 287.124 L2057.74 287.124 L2057.74 317.749 L2053.04 317.749 L2053.04 287.124 L2040.77 287.124 L2040.77 283.189 Z" fill="#000000" fill-rule="nonzero" fill-opacity="1" /><path clip-path="url(#clip850)" d="M2074.52 283.189 L2080.82 283.189 L2096.14 312.101 L2096.14 283.189 L2100.68 283.189 L2100.68 317.749 L2094.38 317.749 L2079.06 288.837 L2079.06 317.749 L2074.52 317.749 L2074.52 283.189 Z" fill="#000000" fill-rule="nonzero" fill-opacity="1" /><polyline clip-path="url(#clip850)" style="stroke:#ac8d18; stroke-linecap:round; stroke-linejoin:round; stroke-width:4; stroke-opacity:1; fill:none" points="1820.89,352.309 1959.28,352.309 "/>
<path clip-path="url(#clip850)" d="M1890.09 373.665 L1874.99 367.408 L1868.73 352.309 L1874.99 337.209 L1890.09 330.952 L1905.19 337.209 L1911.44 352.309 L1905.19 367.408 Z" fill="#ac8d18" fill-rule="evenodd" fill-opacity="1" stroke="#000000" stroke-opacity="1" stroke-width="4.55111"/>
<path clip-path="url(#clip850)" d="M1998.37 338.2 Q1993.27 338.2 1990.26 341.996 Q1987.28 345.792 1987.28 352.343 Q1987.28 358.871 1990.26 362.667 Q1993.27 366.464 1998.37 366.464 Q2003.46 366.464 2006.42 362.667 Q2009.41 358.871 2009.41 352.343 Q2009.41 345.792 2006.42 341.996 Q2003.46 338.2 1998.37 338.2 M2004.92 368.964 L2011.07 375.7 L2005.43 375.7 L2000.31 370.167 Q1999.55 370.214 1999.13 370.237 Q1998.74 370.26 1998.37 370.26 Q1991.07 370.26 1986.7 365.399 Q1982.35 360.515 1982.35 352.343 Q1982.35 344.149 1986.7 339.288 Q1991.07 334.404 1998.37 334.404 Q2005.63 334.404 2009.99 339.288 Q2014.34 344.149 2014.34 352.343 Q2014.34 358.362 2011.91 362.644 Q2009.5 366.927 2004.92 368.964 Z" fill="#000000" fill-rule="nonzero" fill-opacity="1" /><path clip-path="url(#clip850)" d="M2016.86 335.029 L2046.1 335.029 L2046.1 338.964 L2033.83 338.964 L2033.83 369.589 L2029.13 369.589 L2029.13 338.964 L2016.86 338.964 L2016.86 335.029 Z" fill="#000000" fill-rule="nonzero" fill-opacity="1" /><path clip-path="url(#clip850)" d="M2044.99 335.029 L2074.22 335.029 L2074.22 338.964 L2061.95 338.964 L2061.95 369.589 L2057.25 369.589 L2057.25 338.964 L2044.99 338.964 L2044.99 335.029 Z" fill="#000000" fill-rule="nonzero" fill-opacity="1" /><path clip-path="url(#clip850)" d="M2098.25 377.459 L2098.25 380.769 L2073.62 380.769 L2073.62 377.459 L2098.25 377.459 Z" fill="#000000" fill-rule="nonzero" fill-opacity="1" /><path clip-path="url(#clip850)" d="M2102.44 335.029 L2107.12 335.029 L2107.12 369.589 L2102.44 369.589 L2102.44 335.029 Z" fill="#000000" fill-rule="nonzero" fill-opacity="1" /><path clip-path="url(#clip850)" d="M2137.79 353.941 L2137.79 369.589 L2133.53 369.589 L2133.53 354.079 Q2133.53 350.399 2132.09 348.57 Q2130.66 346.742 2127.79 346.742 Q2124.34 346.742 2122.35 348.941 Q2120.36 351.14 2120.36 354.936 L2120.36 369.589 L2116.07 369.589 L2116.07 343.663 L2120.36 343.663 L2120.36 347.691 Q2121.88 345.353 2123.94 344.195 Q2126.03 343.038 2128.74 343.038 Q2133.2 343.038 2135.5 345.816 Q2137.79 348.57 2137.79 353.941 Z" fill="#000000" fill-rule="nonzero" fill-opacity="1" /><path clip-path="url(#clip850)" d="M2150.5 336.302 L2150.5 343.663 L2159.27 343.663 L2159.27 346.973 L2150.5 346.973 L2150.5 361.047 Q2150.5 364.218 2151.35 365.121 Q2152.23 366.024 2154.89 366.024 L2159.27 366.024 L2159.27 369.589 L2154.89 369.589 Q2149.96 369.589 2148.09 367.76 Q2146.21 365.908 2146.21 361.047 L2146.21 346.973 L2143.09 346.973 L2143.09 343.663 L2146.21 343.663 L2146.21 336.302 L2150.5 336.302 Z" fill="#000000" fill-rule="nonzero" fill-opacity="1" /></svg>
