<?xml version="1.0" encoding="utf-8"?>
<svg xmlns="http://www.w3.org/2000/svg" xmlns:xlink="http://www.w3.org/1999/xlink" width="600" height="400" viewBox="0 0 2400 1600">
<defs>
  <clipPath id="clip610">
    <rect x="0" y="0" width="2400" height="1600"/>
  </clipPath>
</defs>
<path clip-path="url(#clip610)" d="M0 1600 L2400 1600 L2400 8.88178e-14 L0 8.88178e-14  Z" fill="#ffffff" fill-rule="evenodd" fill-opacity="1"/>
<defs>
  <clipPath id="clip611">
    <rect x="480" y="0" width="1681" height="1600"/>
  </clipPath>
</defs>
<path clip-path="url(#clip610)" d="M276.876 1423.18 L2352.76 1423.18 L2352.76 123.472 L276.876 123.472  Z" fill="#ffffff" fill-rule="evenodd" fill-opacity="1"/>
<defs>
  <clipPath id="clip612">
    <rect x="276" y="123" width="2077" height="1301"/>
  </clipPath>
</defs>
<polyline clip-path="url(#clip612)" style="stroke:#000000; stroke-linecap:round; stroke-linejoin:round; stroke-width:2; stroke-opacity:0.1; fill:none" points="480.692,1423.18 480.692,123.472 "/>
<polyline clip-path="url(#clip612)" style="stroke:#000000; stroke-linecap:round; stroke-linejoin:round; stroke-width:2; stroke-opacity:0.1; fill:none" points="843.354,1423.18 843.354,123.472 "/>
<polyline clip-path="url(#clip612)" style="stroke:#000000; stroke-linecap:round; stroke-linejoin:round; stroke-width:2; stroke-opacity:0.1; fill:none" points="1206.02,1423.18 1206.02,123.472 "/>
<polyline clip-path="url(#clip612)" style="stroke:#000000; stroke-linecap:round; stroke-linejoin:round; stroke-width:2; stroke-opacity:0.1; fill:none" points="1568.68,1423.18 1568.68,123.472 "/>
<polyline clip-path="url(#clip612)" style="stroke:#000000; stroke-linecap:round; stroke-linejoin:round; stroke-width:2; stroke-opacity:0.1; fill:none" points="1931.34,1423.18 1931.34,123.472 "/>
<polyline clip-path="url(#clip612)" style="stroke:#000000; stroke-linecap:round; stroke-linejoin:round; stroke-width:2; stroke-opacity:0.1; fill:none" points="2294,1423.18 2294,123.472 "/>
<polyline clip-path="url(#clip612)" style="stroke:#000000; stroke-linecap:round; stroke-linejoin:round; stroke-width:2; stroke-opacity:0.1; fill:none" points="276.876,1083.87 2352.76,1083.87 "/>
<polyline clip-path="url(#clip612)" style="stroke:#000000; stroke-linecap:round; stroke-linejoin:round; stroke-width:2; stroke-opacity:0.1; fill:none" points="276.876,644.838 2352.76,644.838 "/>
<polyline clip-path="url(#clip612)" style="stroke:#000000; stroke-linecap:round; stroke-linejoin:round; stroke-width:2; stroke-opacity:0.1; fill:none" points="276.876,205.81 2352.76,205.81 "/>
<polyline clip-path="url(#clip610)" style="stroke:#000000; stroke-linecap:round; stroke-linejoin:round; stroke-width:4; stroke-opacity:1; fill:none" points="276.876,1423.18 2352.76,1423.18 "/>
<polyline clip-path="url(#clip610)" style="stroke:#000000; stroke-linecap:round; stroke-linejoin:round; stroke-width:4; stroke-opacity:1; fill:none" points="480.692,1423.18 480.692,1404.28 "/>
<polyline clip-path="url(#clip610)" style="stroke:#000000; stroke-linecap:round; stroke-linejoin:round; stroke-width:4; stroke-opacity:1; fill:none" points="843.354,1423.18 843.354,1404.28 "/>
<polyline clip-path="url(#clip610)" style="stroke:#000000; stroke-linecap:round; stroke-linejoin:round; stroke-width:4; stroke-opacity:1; fill:none" points="1206.02,1423.18 1206.02,1404.28 "/>
<polyline clip-path="url(#clip610)" style="stroke:#000000; stroke-linecap:round; stroke-linejoin:round; stroke-width:4; stroke-opacity:1; fill:none" points="1568.68,1423.18 1568.68,1404.28 "/>
<polyline clip-path="url(#clip610)" style="stroke:#000000; stroke-linecap:round; stroke-linejoin:round; stroke-width:4; stroke-opacity:1; fill:none" points="1931.34,1423.18 1931.34,1404.28 "/>
<polyline clip-path="url(#clip610)" style="stroke:#000000; stroke-linecap:round; stroke-linejoin:round; stroke-width:4; stroke-opacity:1; fill:none" points="2294,1423.18 2294,1404.28 "/>
<path clip-path="url(#clip610)" d="M470.97 1451.02 L489.326 1451.02 L489.326 1454.96 L475.252 1454.96 L475.252 1463.43 Q476.271 1463.08 477.289 1462.92 Q478.308 1462.73 479.326 1462.73 Q485.113 1462.73 488.493 1465.9 Q491.872 1469.08 491.872 1474.49 Q491.872 1480.07 488.4 1483.17 Q484.928 1486.25 478.609 1486.25 Q476.433 1486.25 474.164 1485.88 Q471.919 1485.51 469.511 1484.77 L469.511 1480.07 Q471.595 1481.2 473.817 1481.76 Q476.039 1482.32 478.516 1482.32 Q482.521 1482.32 484.859 1480.21 Q487.196 1478.1 487.196 1474.49 Q487.196 1470.88 484.859 1468.77 Q482.521 1466.67 478.516 1466.67 Q476.641 1466.67 474.766 1467.08 Q472.914 1467.5 470.97 1468.38 L470.97 1451.02 Z" fill="#000000" fill-rule="nonzero" fill-opacity="1" /><path clip-path="url(#clip610)" d="M818.042 1481.64 L825.681 1481.64 L825.681 1455.28 L817.371 1456.95 L817.371 1452.69 L825.635 1451.02 L830.31 1451.02 L830.31 1481.64 L837.949 1481.64 L837.949 1485.58 L818.042 1485.58 L818.042 1481.64 Z" fill="#000000" fill-rule="nonzero" fill-opacity="1" /><path clip-path="url(#clip610)" d="M857.394 1454.1 Q853.783 1454.1 851.954 1457.66 Q850.148 1461.2 850.148 1468.33 Q850.148 1475.44 851.954 1479.01 Q853.783 1482.55 857.394 1482.55 Q861.028 1482.55 862.833 1479.01 Q864.662 1475.44 864.662 1468.33 Q864.662 1461.2 862.833 1457.66 Q861.028 1454.1 857.394 1454.1 M857.394 1450.39 Q863.204 1450.39 866.259 1455 Q869.338 1459.58 869.338 1468.33 Q869.338 1477.06 866.259 1481.67 Q863.204 1486.25 857.394 1486.25 Q851.584 1486.25 848.505 1481.67 Q845.449 1477.06 845.449 1468.33 Q845.449 1459.58 848.505 1455 Q851.584 1450.39 857.394 1450.39 Z" fill="#000000" fill-rule="nonzero" fill-opacity="1" /><path clip-path="url(#clip610)" d="M1181.2 1481.64 L1188.84 1481.64 L1188.84 1455.28 L1180.53 1456.95 L1180.53 1452.69 L1188.79 1451.02 L1193.47 1451.02 L1193.47 1481.64 L1201.11 1481.64 L1201.11 1485.58 L1181.2 1485.58 L1181.2 1481.64 Z" fill="#000000" fill-rule="nonzero" fill-opacity="1" /><path clip-path="url(#clip610)" d="M1210.6 1451.02 L1228.96 1451.02 L1228.96 1454.96 L1214.88 1454.96 L1214.88 1463.43 Q1215.9 1463.08 1216.92 1462.92 Q1217.94 1462.73 1218.96 1462.73 Q1224.74 1462.73 1228.12 1465.9 Q1231.5 1469.08 1231.5 1474.49 Q1231.5 1480.07 1228.03 1483.17 Q1224.56 1486.25 1218.24 1486.25 Q1216.06 1486.25 1213.79 1485.88 Q1211.55 1485.51 1209.14 1484.77 L1209.14 1480.07 Q1211.23 1481.2 1213.45 1481.76 Q1215.67 1482.32 1218.15 1482.32 Q1222.15 1482.32 1224.49 1480.21 Q1226.83 1478.1 1226.83 1474.49 Q1226.83 1470.88 1224.49 1468.77 Q1222.15 1466.67 1218.15 1466.67 Q1216.27 1466.67 1214.4 1467.08 Q1212.54 1467.5 1210.6 1468.38 L1210.6 1451.02 Z" fill="#000000" fill-rule="nonzero" fill-opacity="1" /><path clip-path="url(#clip610)" d="M1547.45 1481.64 L1563.77 1481.64 L1563.77 1485.58 L1541.83 1485.58 L1541.83 1481.64 Q1544.49 1478.89 1549.07 1474.26 Q1553.68 1469.61 1554.86 1468.27 Q1557.11 1465.74 1557.99 1464.01 Q1558.89 1462.25 1558.89 1460.56 Q1558.89 1457.8 1556.94 1456.07 Q1555.02 1454.33 1551.92 1454.33 Q1549.72 1454.33 1547.27 1455.09 Q1544.84 1455.86 1542.06 1457.41 L1542.06 1452.69 Q1544.88 1451.55 1547.34 1450.97 Q1549.79 1450.39 1551.83 1450.39 Q1557.2 1450.39 1560.39 1453.08 Q1563.59 1455.77 1563.59 1460.26 Q1563.59 1462.39 1562.78 1464.31 Q1561.99 1466.2 1559.88 1468.8 Q1559.3 1469.47 1556.2 1472.69 Q1553.1 1475.88 1547.45 1481.64 Z" fill="#000000" fill-rule="nonzero" fill-opacity="1" /><path clip-path="url(#clip610)" d="M1583.59 1454.1 Q1579.98 1454.1 1578.15 1457.66 Q1576.34 1461.2 1576.34 1468.33 Q1576.34 1475.44 1578.15 1479.01 Q1579.98 1482.55 1583.59 1482.55 Q1587.22 1482.55 1589.03 1479.01 Q1590.86 1475.44 1590.86 1468.33 Q1590.86 1461.2 1589.03 1457.66 Q1587.22 1454.1 1583.59 1454.1 M1583.59 1450.39 Q1589.4 1450.39 1592.45 1455 Q1595.53 1459.58 1595.53 1468.33 Q1595.53 1477.06 1592.45 1481.67 Q1589.4 1486.25 1583.59 1486.25 Q1577.78 1486.25 1574.7 1481.67 Q1571.64 1477.06 1571.64 1468.33 Q1571.64 1459.58 1574.7 1455 Q1577.78 1450.39 1583.59 1450.39 Z" fill="#000000" fill-rule="nonzero" fill-opacity="1" /><path clip-path="url(#clip610)" d="M1910.61 1481.64 L1926.93 1481.64 L1926.93 1485.58 L1904.99 1485.58 L1904.99 1481.64 Q1907.65 1478.89 1912.23 1474.26 Q1916.84 1469.61 1918.02 1468.27 Q1920.27 1465.74 1921.15 1464.01 Q1922.05 1462.25 1922.05 1460.56 Q1922.05 1457.8 1920.1 1456.07 Q1918.18 1454.33 1915.08 1454.33 Q1912.88 1454.33 1910.43 1455.09 Q1908 1455.86 1905.22 1457.41 L1905.22 1452.69 Q1908.04 1451.55 1910.5 1450.97 Q1912.95 1450.39 1914.99 1450.39 Q1920.36 1450.39 1923.55 1453.08 Q1926.75 1455.77 1926.75 1460.26 Q1926.75 1462.39 1925.94 1464.31 Q1925.15 1466.2 1923.04 1468.8 Q1922.46 1469.47 1919.36 1472.69 Q1916.26 1475.88 1910.61 1481.64 Z" fill="#000000" fill-rule="nonzero" fill-opacity="1" /><path clip-path="url(#clip610)" d="M1936.79 1451.02 L1955.15 1451.02 L1955.15 1454.96 L1941.08 1454.96 L1941.08 1463.43 Q1942.09 1463.08 1943.11 1462.92 Q1944.13 1462.73 1945.15 1462.73 Q1950.94 1462.73 1954.32 1465.9 Q1957.7 1469.08 1957.7 1474.49 Q1957.7 1480.07 1954.22 1483.17 Q1950.75 1486.25 1944.43 1486.25 Q1942.26 1486.25 1939.99 1485.88 Q1937.74 1485.51 1935.34 1484.77 L1935.34 1480.07 Q1937.42 1481.2 1939.64 1481.76 Q1941.86 1482.32 1944.34 1482.32 Q1948.34 1482.32 1950.68 1480.21 Q1953.02 1478.1 1953.02 1474.49 Q1953.02 1470.88 1950.68 1468.77 Q1948.34 1466.67 1944.34 1466.67 Q1942.46 1466.67 1940.59 1467.08 Q1938.74 1467.5 1936.79 1468.38 L1936.79 1451.02 Z" fill="#000000" fill-rule="nonzero" fill-opacity="1" /><path clip-path="url(#clip610)" d="M2282.85 1466.95 Q2286.2 1467.66 2288.08 1469.93 Q2289.98 1472.2 2289.98 1475.53 Q2289.98 1480.65 2286.46 1483.45 Q2282.94 1486.25 2276.46 1486.25 Q2274.28 1486.25 2271.97 1485.81 Q2269.68 1485.39 2267.22 1484.54 L2267.22 1480.02 Q2269.17 1481.16 2271.48 1481.74 Q2273.8 1482.32 2276.32 1482.32 Q2280.72 1482.32 2283.01 1480.58 Q2285.32 1478.84 2285.32 1475.53 Q2285.32 1472.48 2283.17 1470.77 Q2281.04 1469.03 2277.22 1469.03 L2273.19 1469.03 L2273.19 1465.19 L2277.41 1465.19 Q2280.86 1465.19 2282.69 1463.82 Q2284.51 1462.43 2284.51 1459.84 Q2284.51 1457.18 2282.62 1455.77 Q2280.74 1454.33 2277.22 1454.33 Q2275.3 1454.33 2273.1 1454.75 Q2270.9 1455.16 2268.26 1456.04 L2268.26 1451.88 Q2270.93 1451.14 2273.24 1450.77 Q2275.58 1450.39 2277.64 1450.39 Q2282.96 1450.39 2286.06 1452.83 Q2289.17 1455.23 2289.17 1459.35 Q2289.17 1462.22 2287.52 1464.21 Q2285.88 1466.18 2282.85 1466.95 Z" fill="#000000" fill-rule="nonzero" fill-opacity="1" /><path clip-path="url(#clip610)" d="M2308.84 1454.1 Q2305.23 1454.1 2303.4 1457.66 Q2301.6 1461.2 2301.6 1468.33 Q2301.6 1475.44 2303.4 1479.01 Q2305.23 1482.55 2308.84 1482.55 Q2312.48 1482.55 2314.28 1479.01 Q2316.11 1475.44 2316.11 1468.33 Q2316.11 1461.2 2314.28 1457.66 Q2312.48 1454.1 2308.84 1454.1 M2308.84 1450.39 Q2314.65 1450.39 2317.71 1455 Q2320.79 1459.58 2320.79 1468.33 Q2320.79 1477.06 2317.71 1481.67 Q2314.65 1486.25 2308.84 1486.25 Q2303.03 1486.25 2299.95 1481.67 Q2296.9 1477.06 2296.9 1468.33 Q2296.9 1459.58 2299.95 1455 Q2303.03 1450.39 2308.84 1450.39 Z" fill="#000000" fill-rule="nonzero" fill-opacity="1" /><path clip-path="url(#clip610)" d="M1113.33 1539.24 Q1115.52 1535.29 1118.58 1533.41 Q1121.63 1531.54 1125.77 1531.54 Q1131.34 1531.54 1134.36 1535.45 Q1137.39 1539.33 1137.39 1546.53 L1137.39 1568.04 L1131.5 1568.04 L1131.5 1546.72 Q1131.5 1541.59 1129.69 1539.11 Q1127.87 1536.63 1124.15 1536.63 Q1119.6 1536.63 1116.95 1539.65 Q1114.31 1542.68 1114.31 1547.9 L1114.31 1568.04 L1108.42 1568.04 L1108.42 1546.72 Q1108.42 1541.56 1106.61 1539.11 Q1104.8 1536.63 1101.01 1536.63 Q1096.52 1536.63 1093.88 1539.68 Q1091.24 1542.71 1091.24 1547.9 L1091.24 1568.04 L1085.35 1568.04 L1085.35 1532.4 L1091.24 1532.4 L1091.24 1537.93 Q1093.24 1534.66 1096.04 1533.1 Q1098.84 1531.54 1102.69 1531.54 Q1106.58 1531.54 1109.28 1533.51 Q1112.02 1535.48 1113.33 1539.24 Z" fill="#000000" fill-rule="nonzero" fill-opacity="1" /><path clip-path="url(#clip610)" d="M1165.27 1550.12 Q1158.17 1550.12 1155.43 1551.75 Q1152.7 1553.37 1152.7 1557.29 Q1152.7 1560.4 1154.73 1562.25 Q1156.8 1564.07 1160.34 1564.07 Q1165.21 1564.07 1168.13 1560.63 Q1171.09 1557.16 1171.09 1551.43 L1171.09 1550.12 L1165.27 1550.12 M1176.95 1547.71 L1176.95 1568.04 L1171.09 1568.04 L1171.09 1562.63 Q1169.09 1565.88 1166.1 1567.44 Q1163.11 1568.97 1158.78 1568.97 Q1153.3 1568.97 1150.06 1565.91 Q1146.84 1562.82 1146.84 1557.67 Q1146.84 1551.65 1150.85 1548.6 Q1154.89 1545.54 1162.88 1545.54 L1171.09 1545.54 L1171.09 1544.97 Q1171.09 1540.93 1168.42 1538.73 Q1165.78 1536.5 1160.97 1536.5 Q1157.92 1536.5 1155.02 1537.23 Q1152.12 1537.97 1149.45 1539.43 L1149.45 1534.02 Q1152.67 1532.78 1155.69 1532.17 Q1158.71 1531.54 1161.58 1531.54 Q1169.31 1531.54 1173.13 1535.55 Q1176.95 1539.56 1176.95 1547.71 Z" fill="#000000" fill-rule="nonzero" fill-opacity="1" /><path clip-path="url(#clip610)" d="M1218.65 1532.4 L1205.76 1549.74 L1219.31 1568.04 L1212.41 1568.04 L1202.03 1554.04 L1191.66 1568.04 L1184.75 1568.04 L1198.59 1549.39 L1185.93 1532.4 L1192.83 1532.4 L1202.29 1545.1 L1211.74 1532.4 L1218.65 1532.4 Z" fill="#000000" fill-rule="nonzero" fill-opacity="1" /><path clip-path="url(#clip610)" d="M1273.9 1550.25 Q1273.9 1543.79 1271.23 1540.13 Q1268.58 1536.44 1263.94 1536.44 Q1259.29 1536.44 1256.62 1540.13 Q1253.98 1543.79 1253.98 1550.25 Q1253.98 1556.71 1256.62 1560.4 Q1259.29 1564.07 1263.94 1564.07 Q1268.58 1564.07 1271.23 1560.4 Q1273.9 1556.71 1273.9 1550.25 M1253.98 1537.81 Q1255.82 1534.62 1258.62 1533.1 Q1261.46 1531.54 1265.37 1531.54 Q1271.86 1531.54 1275.91 1536.69 Q1279.98 1541.85 1279.98 1550.25 Q1279.98 1558.65 1275.91 1563.81 Q1271.86 1568.97 1265.37 1568.97 Q1261.46 1568.97 1258.62 1567.44 Q1255.82 1565.88 1253.98 1562.7 L1253.98 1568.04 L1248.09 1568.04 L1248.09 1518.52 L1253.98 1518.52 L1253.98 1537.81 Z" fill="#000000" fill-rule="nonzero" fill-opacity="1" /><path clip-path="url(#clip610)" d="M1303.5 1536.5 Q1298.79 1536.5 1296.05 1540.19 Q1293.32 1543.85 1293.32 1550.25 Q1293.32 1556.65 1296.02 1560.34 Q1298.76 1564 1303.5 1564 Q1308.18 1564 1310.92 1560.31 Q1313.65 1556.62 1313.65 1550.25 Q1313.65 1543.92 1310.92 1540.23 Q1308.18 1536.5 1303.5 1536.5 M1303.5 1531.54 Q1311.14 1531.54 1315.5 1536.5 Q1319.86 1541.47 1319.86 1550.25 Q1319.86 1559 1315.5 1564 Q1311.14 1568.97 1303.5 1568.97 Q1295.83 1568.97 1291.47 1564 Q1287.14 1559 1287.14 1550.25 Q1287.14 1541.47 1291.47 1536.5 Q1295.83 1531.54 1303.5 1531.54 Z" fill="#000000" fill-rule="nonzero" fill-opacity="1" /><path clip-path="url(#clip610)" d="M1359.2 1546.53 L1359.2 1568.04 L1353.34 1568.04 L1353.34 1546.72 Q1353.34 1541.66 1351.37 1539.14 Q1349.4 1536.63 1345.45 1536.63 Q1340.71 1536.63 1337.97 1539.65 Q1335.23 1542.68 1335.23 1547.9 L1335.23 1568.04 L1329.35 1568.04 L1329.35 1532.4 L1335.23 1532.4 L1335.23 1537.93 Q1337.33 1534.72 1340.17 1533.13 Q1343.03 1531.54 1346.76 1531.54 Q1352.9 1531.54 1356.05 1535.36 Q1359.2 1539.14 1359.2 1546.53 Z" fill="#000000" fill-rule="nonzero" fill-opacity="1" /><path clip-path="url(#clip610)" d="M1394.34 1537.81 L1394.34 1518.52 L1400.2 1518.52 L1400.2 1568.04 L1394.34 1568.04 L1394.34 1562.7 Q1392.49 1565.88 1389.66 1567.44 Q1386.86 1568.97 1382.91 1568.97 Q1376.45 1568.97 1372.38 1563.81 Q1368.34 1558.65 1368.34 1550.25 Q1368.34 1541.85 1372.38 1536.69 Q1376.45 1531.54 1382.91 1531.54 Q1386.86 1531.54 1389.66 1533.1 Q1392.49 1534.62 1394.34 1537.81 M1374.38 1550.25 Q1374.38 1556.71 1377.02 1560.4 Q1379.7 1564.07 1384.35 1564.07 Q1388.99 1564.07 1391.67 1560.4 Q1394.34 1556.71 1394.34 1550.25 Q1394.34 1543.79 1391.67 1540.13 Q1388.99 1536.44 1384.35 1536.44 Q1379.7 1536.44 1377.02 1540.13 Q1374.38 1543.79 1374.38 1550.25 Z" fill="#000000" fill-rule="nonzero" fill-opacity="1" /><path clip-path="url(#clip610)" d="M1456.44 1537.81 L1456.44 1518.52 L1462.29 1518.52 L1462.29 1568.04 L1456.44 1568.04 L1456.44 1562.7 Q1454.59 1565.88 1451.76 1567.44 Q1448.96 1568.97 1445.01 1568.97 Q1438.55 1568.97 1434.48 1563.81 Q1430.43 1558.65 1430.43 1550.25 Q1430.43 1541.85 1434.48 1536.69 Q1438.55 1531.54 1445.01 1531.54 Q1448.96 1531.54 1451.76 1533.1 Q1454.59 1534.62 1456.44 1537.81 M1436.48 1550.25 Q1436.48 1556.71 1439.12 1560.4 Q1441.8 1564.07 1446.44 1564.07 Q1451.09 1564.07 1453.76 1560.4 Q1456.44 1556.71 1456.44 1550.25 Q1456.44 1543.79 1453.76 1540.13 Q1451.09 1536.44 1446.44 1536.44 Q1441.8 1536.44 1439.12 1540.13 Q1436.48 1543.79 1436.48 1550.25 Z" fill="#000000" fill-rule="nonzero" fill-opacity="1" /><path clip-path="url(#clip610)" d="M1474.36 1532.4 L1480.21 1532.4 L1480.21 1568.04 L1474.36 1568.04 L1474.36 1532.4 M1474.36 1518.52 L1480.21 1518.52 L1480.21 1525.93 L1474.36 1525.93 L1474.36 1518.52 Z" fill="#000000" fill-rule="nonzero" fill-opacity="1" /><path clip-path="url(#clip610)" d="M1520.22 1539.24 Q1522.42 1535.29 1525.47 1533.41 Q1528.53 1531.54 1532.67 1531.54 Q1538.24 1531.54 1541.26 1535.45 Q1544.28 1539.33 1544.28 1546.53 L1544.28 1568.04 L1538.4 1568.04 L1538.4 1546.72 Q1538.4 1541.59 1536.58 1539.11 Q1534.77 1536.63 1531.04 1536.63 Q1526.49 1536.63 1523.85 1539.65 Q1521.21 1542.68 1521.21 1547.9 L1521.21 1568.04 L1515.32 1568.04 L1515.32 1546.72 Q1515.32 1541.56 1513.51 1539.11 Q1511.69 1536.63 1507.9 1536.63 Q1503.42 1536.63 1500.77 1539.68 Q1498.13 1542.71 1498.13 1547.9 L1498.13 1568.04 L1492.24 1568.04 L1492.24 1532.4 L1498.13 1532.4 L1498.13 1537.93 Q1500.14 1534.66 1502.94 1533.1 Q1505.74 1531.54 1509.59 1531.54 Q1513.47 1531.54 1516.18 1533.51 Q1518.92 1535.48 1520.22 1539.24 Z" fill="#000000" fill-rule="nonzero" fill-opacity="1" /><polyline clip-path="url(#clip610)" style="stroke:#000000; stroke-linecap:round; stroke-linejoin:round; stroke-width:4; stroke-opacity:1; fill:none" points="276.876,1423.18 276.876,123.472 "/>
<polyline clip-path="url(#clip610)" style="stroke:#000000; stroke-linecap:round; stroke-linejoin:round; stroke-width:4; stroke-opacity:1; fill:none" points="276.876,1083.87 295.773,1083.87 "/>
<polyline clip-path="url(#clip610)" style="stroke:#000000; stroke-linecap:round; stroke-linejoin:round; stroke-width:4; stroke-opacity:1; fill:none" points="276.876,644.838 295.773,644.838 "/>
<polyline clip-path="url(#clip610)" style="stroke:#000000; stroke-linecap:round; stroke-linejoin:round; stroke-width:4; stroke-opacity:1; fill:none" points="276.876,205.81 295.773,205.81 "/>
<path clip-path="url(#clip610)" d="M114.931 1103.66 L122.57 1103.66 L122.57 1077.29 L114.26 1078.96 L114.26 1074.7 L122.524 1073.03 L127.2 1073.03 L127.2 1103.66 L134.839 1103.66 L134.839 1107.59 L114.931 1107.59 L114.931 1103.66 Z" fill="#000000" fill-rule="nonzero" fill-opacity="1" /><path clip-path="url(#clip610)" d="M154.283 1076.11 Q150.672 1076.11 148.843 1079.68 Q147.038 1083.22 147.038 1090.35 Q147.038 1097.46 148.843 1101.02 Q150.672 1104.56 154.283 1104.56 Q157.917 1104.56 159.723 1101.02 Q161.552 1097.46 161.552 1090.35 Q161.552 1083.22 159.723 1079.68 Q157.917 1076.11 154.283 1076.11 M154.283 1072.41 Q160.093 1072.41 163.149 1077.02 Q166.227 1081.6 166.227 1090.35 Q166.227 1099.08 163.149 1103.68 Q160.093 1108.27 154.283 1108.27 Q148.473 1108.27 145.394 1103.68 Q142.339 1099.08 142.339 1090.35 Q142.339 1081.6 145.394 1077.02 Q148.473 1072.41 154.283 1072.41 Z" fill="#000000" fill-rule="nonzero" fill-opacity="1" /><path clip-path="url(#clip610)" d="M166.227 1066.51 L190.339 1066.51 L190.339 1069.71 L166.227 1069.71 L166.227 1066.51 Z" fill="#000000" fill-rule="nonzero" fill-opacity="1" /><path clip-path="url(#clip610)" d="M199.197 1076.99 L205.404 1076.99 L205.404 1055.56 L198.652 1056.92 L198.652 1053.46 L205.366 1052.1 L209.166 1052.1 L209.166 1076.99 L215.372 1076.99 L215.372 1080.18 L199.197 1080.18 L199.197 1076.99 Z" fill="#000000" fill-rule="nonzero" fill-opacity="1" /><path clip-path="url(#clip610)" d="M231.171 1054.61 Q228.237 1054.61 226.751 1057.5 Q225.284 1060.38 225.284 1066.17 Q225.284 1071.95 226.751 1074.84 Q228.237 1077.72 231.171 1077.72 Q234.124 1077.72 235.591 1074.84 Q237.076 1071.95 237.076 1066.17 Q237.076 1060.38 235.591 1057.5 Q234.124 1054.61 231.171 1054.61 M231.171 1051.6 Q235.891 1051.6 238.374 1055.34 Q240.876 1059.06 240.876 1066.17 Q240.876 1073.26 238.374 1077.01 Q235.891 1080.73 231.171 1080.73 Q226.45 1080.73 223.949 1077.01 Q221.466 1073.26 221.466 1066.17 Q221.466 1059.06 223.949 1055.34 Q226.45 1051.6 231.171 1051.6 Z" fill="#000000" fill-rule="nonzero" fill-opacity="1" /><path clip-path="url(#clip610)" d="M140.247 664.631 L147.886 664.631 L147.886 638.265 L139.575 639.932 L139.575 635.673 L147.839 634.006 L152.515 634.006 L152.515 664.631 L160.154 664.631 L160.154 668.566 L140.247 668.566 L140.247 664.631 Z" fill="#000000" fill-rule="nonzero" fill-opacity="1" /><path clip-path="url(#clip610)" d="M179.598 637.085 Q175.987 637.085 174.159 640.649 Q172.353 644.191 172.353 651.321 Q172.353 658.427 174.159 661.992 Q175.987 665.534 179.598 665.534 Q183.233 665.534 185.038 661.992 Q186.867 658.427 186.867 651.321 Q186.867 644.191 185.038 640.649 Q183.233 637.085 179.598 637.085 M179.598 633.381 Q185.409 633.381 188.464 637.987 Q191.543 642.571 191.543 651.321 Q191.543 660.047 188.464 664.654 Q185.409 669.237 179.598 669.237 Q173.788 669.237 170.71 664.654 Q167.654 660.047 167.654 651.321 Q167.654 642.571 170.71 637.987 Q173.788 633.381 179.598 633.381 Z" fill="#000000" fill-rule="nonzero" fill-opacity="1" /><path clip-path="url(#clip610)" d="M191.543 627.482 L215.654 627.482 L215.654 630.68 L191.543 630.68 L191.543 627.482 Z" fill="#000000" fill-rule="nonzero" fill-opacity="1" /><path clip-path="url(#clip610)" d="M223.892 613.075 L238.807 613.075 L238.807 616.273 L227.372 616.273 L227.372 623.156 Q228.199 622.874 229.027 622.743 Q229.854 622.592 230.682 622.592 Q235.384 622.592 238.13 625.169 Q240.876 627.746 240.876 632.147 Q240.876 636.679 238.054 639.199 Q235.233 641.701 230.099 641.701 Q228.331 641.701 226.488 641.4 Q224.663 641.099 222.707 640.497 L222.707 636.679 Q224.4 637.601 226.205 638.052 Q228.011 638.504 230.023 638.504 Q233.277 638.504 235.177 636.792 Q237.076 635.081 237.076 632.147 Q237.076 629.213 235.177 627.501 Q233.277 625.79 230.023 625.79 Q228.5 625.79 226.977 626.128 Q225.472 626.467 223.892 627.181 L223.892 613.075 Z" fill="#000000" fill-rule="nonzero" fill-opacity="1" /><path clip-path="url(#clip610)" d="M170.17 225.602 L177.809 225.602 L177.809 199.237 L169.499 200.903 L169.499 196.644 L177.762 194.977 L182.438 194.977 L182.438 225.602 L190.077 225.602 L190.077 229.537 L170.17 229.537 L170.17 225.602 Z" fill="#000000" fill-rule="nonzero" fill-opacity="1" /><path clip-path="url(#clip610)" d="M209.522 198.056 Q205.91 198.056 204.082 201.621 Q202.276 205.162 202.276 212.292 Q202.276 219.398 204.082 222.963 Q205.91 226.505 209.522 226.505 Q213.156 226.505 214.961 222.963 Q216.79 219.398 216.79 212.292 Q216.79 205.162 214.961 201.621 Q213.156 198.056 209.522 198.056 M209.522 194.352 Q215.332 194.352 218.387 198.959 Q221.466 203.542 221.466 212.292 Q221.466 221.019 218.387 225.625 Q215.332 230.209 209.522 230.209 Q203.711 230.209 200.633 225.625 Q197.577 221.019 197.577 212.292 Q197.577 203.542 200.633 198.959 Q203.711 194.352 209.522 194.352 Z" fill="#000000" fill-rule="nonzero" fill-opacity="1" /><path clip-path="url(#clip610)" d="M231.171 176.548 Q228.237 176.548 226.751 179.445 Q225.284 182.322 225.284 188.115 Q225.284 193.889 226.751 196.786 Q228.237 199.663 231.171 199.663 Q234.124 199.663 235.591 196.786 Q237.076 193.889 237.076 188.115 Q237.076 182.322 235.591 179.445 Q234.124 176.548 231.171 176.548 M231.171 173.539 Q235.891 173.539 238.374 177.282 Q240.876 181.006 240.876 188.115 Q240.876 195.206 238.374 198.948 Q235.891 202.672 231.171 202.672 Q226.45 202.672 223.949 198.948 Q221.466 195.206 221.466 188.115 Q221.466 181.006 223.949 177.282 Q226.45 173.539 231.171 173.539 Z" fill="#000000" fill-rule="nonzero" fill-opacity="1" /><path clip-path="url(#clip610)" d="M29.4065 1023.93 L34.9447 1023.93 Q33.6716 1026.41 33.035 1029.08 Q32.3984 1031.76 32.3984 1034.62 Q32.3984 1038.98 33.7352 1041.18 Q35.072 1043.34 37.7456 1043.34 Q39.7826 1043.34 40.9603 1041.78 Q42.1061 1040.22 43.1565 1035.51 L43.6021 1033.51 Q44.9389 1027.27 47.3897 1024.66 Q49.8086 1022.02 54.1691 1022.02 Q59.1344 1022.02 62.0308 1025.96 Q64.9272 1029.88 64.9272 1036.75 Q64.9272 1039.62 64.3543 1042.74 Q63.8132 1045.83 62.6992 1049.26 L56.6518 1049.26 Q58.3387 1046.02 59.198 1042.87 Q60.0256 1039.71 60.0256 1036.63 Q60.0256 1032.49 58.6251 1030.26 Q57.1929 1028.03 54.6147 1028.03 Q52.2276 1028.03 50.9545 1029.66 Q49.6813 1031.25 48.5037 1036.69 L48.0262 1038.73 Q46.8804 1044.17 44.5251 1046.59 Q42.138 1049.01 38.0002 1049.01 Q32.9713 1049.01 30.2341 1045.44 Q27.4968 1041.88 27.4968 1035.32 Q27.4968 1032.08 27.9743 1029.21 Q28.4517 1026.35 29.4065 1023.93 Z" fill="#000000" fill-rule="nonzero" fill-opacity="1" /><path clip-path="url(#clip610)" d="M46.0847 996.492 Q46.0847 1003.59 47.7079 1006.33 Q49.3312 1009.06 53.2461 1009.06 Q56.3653 1009.06 58.2114 1007.03 Q60.0256 1004.96 60.0256 1001.43 Q60.0256 996.555 56.5881 993.627 Q53.1188 990.667 47.3897 990.667 L46.0847 990.667 L46.0847 996.492 M43.6657 984.811 L64.0042 984.811 L64.0042 990.667 L58.5933 990.667 Q61.8398 992.672 63.3994 995.664 Q64.9272 998.656 64.9272 1002.98 Q64.9272 1008.46 61.8716 1011.71 Q58.7843 1014.92 53.6281 1014.92 Q47.6125 1014.92 44.5569 1010.91 Q41.5014 1006.87 41.5014 998.879 L41.5014 990.667 L40.9285 990.667 Q36.8862 990.667 34.6901 993.341 Q32.4621 995.982 32.4621 1000.79 Q32.4621 1003.84 33.1941 1006.74 Q33.9262 1009.64 35.3903 1012.31 L29.9795 1012.31 Q28.7381 1009.1 28.1334 1006.07 Q27.4968 1003.05 27.4968 1000.18 Q27.4968 992.45 31.5072 988.63 Q35.5176 984.811 43.6657 984.811 Z" fill="#000000" fill-rule="nonzero" fill-opacity="1" /><path clip-path="url(#clip610)" d="M35.1993 944.993 Q31.2526 942.797 29.3747 939.741 Q27.4968 936.686 27.4968 932.548 Q27.4968 926.978 31.4117 923.955 Q35.2948 920.931 42.4881 920.931 L64.0042 920.931 L64.0042 926.819 L42.679 926.819 Q37.5546 926.819 35.072 928.633 Q32.5894 930.448 32.5894 934.171 Q32.5894 938.723 35.6131 941.365 Q38.6368 944.006 43.8567 944.006 L64.0042 944.006 L64.0042 949.895 L42.679 949.895 Q37.5228 949.895 35.072 951.709 Q32.5894 953.523 32.5894 957.311 Q32.5894 961.799 35.6449 964.44 Q38.6686 967.082 43.8567 967.082 L64.0042 967.082 L64.0042 972.97 L28.3562 972.97 L28.3562 967.082 L33.8944 967.082 Q30.616 965.077 29.0564 962.276 Q27.4968 959.475 27.4968 955.624 Q27.4968 951.741 29.4702 949.035 Q31.4436 946.298 35.1993 944.993 Z" fill="#000000" fill-rule="nonzero" fill-opacity="1" /><path clip-path="url(#clip610)" d="M58.657 903.584 L77.5631 903.584 L77.5631 909.473 L28.3562 909.473 L28.3562 903.584 L33.7671 903.584 Q30.5842 901.738 29.0564 898.937 Q27.4968 896.105 27.4968 892.19 Q27.4968 885.697 32.6531 881.654 Q37.8093 877.58 46.212 877.58 Q54.6147 877.58 59.771 881.654 Q64.9272 885.697 64.9272 892.19 Q64.9272 896.105 63.3994 898.937 Q61.8398 901.738 58.657 903.584 M46.212 883.66 Q39.7508 883.66 36.0905 886.333 Q32.3984 888.975 32.3984 893.622 Q32.3984 898.269 36.0905 900.942 Q39.7508 903.584 46.212 903.584 Q52.6732 903.584 56.3653 900.942 Q60.0256 898.269 60.0256 893.622 Q60.0256 888.975 56.3653 886.333 Q52.6732 883.66 46.212 883.66 Z" fill="#000000" fill-rule="nonzero" fill-opacity="1" /><path clip-path="url(#clip610)" d="M14.479 867.873 L14.479 862.016 L64.0042 862.016 L64.0042 867.873 L14.479 867.873 Z" fill="#000000" fill-rule="nonzero" fill-opacity="1" /><path clip-path="url(#clip610)" d="M44.7161 819.27 L47.5806 819.27 L47.5806 846.197 Q53.6281 845.815 56.8109 842.569 Q59.9619 839.291 59.9619 833.466 Q59.9619 830.092 59.1344 826.941 Q58.3069 823.758 56.6518 820.639 L62.1899 820.639 Q63.5267 823.79 64.227 827.1 Q64.9272 830.41 64.9272 833.816 Q64.9272 842.346 59.9619 847.343 Q54.9967 852.308 46.5303 852.308 Q37.7774 852.308 32.6531 847.598 Q27.4968 842.855 27.4968 834.835 Q27.4968 827.641 32.1438 823.472 Q36.7589 819.27 44.7161 819.27 M42.9973 825.127 Q38.1912 825.191 35.3266 827.832 Q32.4621 830.442 32.4621 834.771 Q32.4621 839.673 35.2312 842.633 Q38.0002 845.561 43.0292 846.006 L42.9973 825.127 Z" fill="#000000" fill-rule="nonzero" fill-opacity="1" /><path clip-path="url(#clip610)" d="M33.7671 786.201 L14.479 786.201 L14.479 780.344 L64.0042 780.344 L64.0042 786.201 L58.657 786.201 Q61.8398 788.047 63.3994 790.879 Q64.9272 793.68 64.9272 797.627 Q64.9272 804.088 59.771 808.162 Q54.6147 812.205 46.212 812.205 Q37.8093 812.205 32.6531 808.162 Q27.4968 804.088 27.4968 797.627 Q27.4968 793.68 29.0564 790.879 Q30.5842 788.047 33.7671 786.201 M46.212 806.157 Q52.6732 806.157 56.3653 803.515 Q60.0256 800.842 60.0256 796.195 Q60.0256 791.548 56.3653 788.874 Q52.6732 786.201 46.212 786.201 Q39.7508 786.201 36.0905 788.874 Q32.3984 791.548 32.3984 796.195 Q32.3984 800.842 36.0905 803.515 Q39.7508 806.157 46.212 806.157 Z" fill="#000000" fill-rule="nonzero" fill-opacity="1" /><path clip-path="url(#clip610)" d="M16.4842 747.306 L16.4842 740.877 L58.5933 740.877 L58.5933 717.737 L64.0042 717.737 L64.0042 747.306 L16.4842 747.306 Z" fill="#000000" fill-rule="nonzero" fill-opacity="1" /><path clip-path="url(#clip610)" d="M58.5933 709.303 L58.5933 698.799 L22.3406 698.799 L24.6323 710.226 L18.7758 710.226 L16.4842 698.863 L16.4842 692.434 L58.5933 692.434 L58.5933 681.93 L64.0042 681.93 L64.0042 709.303 L58.5933 709.303 Z" fill="#000000" fill-rule="nonzero" fill-opacity="1" /><path clip-path="url(#clip610)" d="M44.7161 618.56 L47.5806 618.56 L47.5806 645.487 Q53.6281 645.105 56.8109 641.858 Q59.9619 638.58 59.9619 632.755 Q59.9619 629.381 59.1344 626.23 Q58.3069 623.048 56.6518 619.928 L62.1899 619.928 Q63.5267 623.079 64.227 626.39 Q64.9272 629.7 64.9272 633.105 Q64.9272 641.635 59.9619 646.633 Q54.9967 651.598 46.5303 651.598 Q37.7774 651.598 32.6531 646.887 Q27.4968 642.145 27.4968 634.124 Q27.4968 626.931 32.1438 622.761 Q36.7589 618.56 44.7161 618.56 M42.9973 624.416 Q38.1912 624.48 35.3266 627.122 Q32.4621 629.732 32.4621 634.06 Q32.4621 638.962 35.2312 641.922 Q38.0002 644.85 43.0292 645.296 L42.9973 624.416 Z" fill="#000000" fill-rule="nonzero" fill-opacity="1" /><path clip-path="url(#clip610)" d="M33.8307 588.291 Q33.2578 589.277 33.0032 590.455 Q32.7167 591.601 32.7167 593.001 Q32.7167 597.967 35.9632 600.64 Q39.1779 603.282 45.2253 603.282 L64.0042 603.282 L64.0042 609.17 L28.3562 609.17 L28.3562 603.282 L33.8944 603.282 Q30.6479 601.436 29.0883 598.476 Q27.4968 595.516 27.4968 591.283 Q27.4968 590.678 27.5923 589.946 Q27.656 589.214 27.8151 588.323 L33.8307 588.291 Z" fill="#000000" fill-rule="nonzero" fill-opacity="1" /><path clip-path="url(#clip610)" d="M33.8307 562.637 Q33.2578 563.624 33.0032 564.801 Q32.7167 565.947 32.7167 567.348 Q32.7167 572.313 35.9632 574.986 Q39.1779 577.628 45.2253 577.628 L64.0042 577.628 L64.0042 583.517 L28.3562 583.517 L28.3562 577.628 L33.8944 577.628 Q30.6479 575.782 29.0883 572.822 Q27.4968 569.862 27.4968 565.629 Q27.4968 565.024 27.5923 564.292 Q27.656 563.56 27.8151 562.669 L33.8307 562.637 Z" fill="#000000" fill-rule="nonzero" fill-opacity="1" /><path clip-path="url(#clip610)" d="M32.4621 544.113 Q32.4621 548.823 36.1542 551.561 Q39.8145 554.298 46.212 554.298 Q52.6095 554.298 56.3017 551.593 Q59.9619 548.855 59.9619 544.113 Q59.9619 539.434 56.2698 536.697 Q52.5777 533.96 46.212 533.96 Q39.8781 533.96 36.186 536.697 Q32.4621 539.434 32.4621 544.113 M27.4968 544.113 Q27.4968 536.474 32.4621 532.113 Q37.4273 527.753 46.212 527.753 Q54.9649 527.753 59.9619 532.113 Q64.9272 536.474 64.9272 544.113 Q64.9272 551.783 59.9619 556.144 Q54.9649 560.473 46.212 560.473 Q37.4273 560.473 32.4621 556.144 Q27.4968 551.783 27.4968 544.113 Z" fill="#000000" fill-rule="nonzero" fill-opacity="1" /><path clip-path="url(#clip610)" d="M33.8307 497.389 Q33.2578 498.375 33.0032 499.553 Q32.7167 500.699 32.7167 502.099 Q32.7167 507.064 35.9632 509.738 Q39.1779 512.38 45.2253 512.38 L64.0042 512.38 L64.0042 518.268 L28.3562 518.268 L28.3562 512.38 L33.8944 512.38 Q30.6479 510.534 29.0883 507.574 Q27.4968 504.614 27.4968 500.38 Q27.4968 499.776 27.5923 499.044 Q27.656 498.312 27.8151 497.42 L33.8307 497.389 Z" fill="#000000" fill-rule="nonzero" fill-opacity="1" /><path clip-path="url(#clip610)" d="M699.038 12.096 L733.795 12.096 L733.795 18.9825 L707.221 18.9825 L707.221 36.8065 L731.202 36.8065 L731.202 43.6931 L707.221 43.6931 L707.221 72.576 L699.038 72.576 L699.038 12.096 Z" fill="#000000" fill-rule="nonzero" fill-opacity="1" /><path clip-path="url(#clip610)" d="M740.397 27.2059 L747.851 27.2059 L747.851 72.576 L740.397 72.576 L740.397 27.2059 M740.397 9.54393 L747.851 9.54393 L747.851 18.9825 L740.397 18.9825 L740.397 9.54393 Z" fill="#000000" fill-rule="nonzero" fill-opacity="1" /><path clip-path="url(#clip610)" d="M796.097 28.9478 L796.097 35.9153 Q792.938 34.1734 789.738 33.3227 Q786.578 32.4315 783.337 32.4315 Q776.086 32.4315 772.076 37.0496 Q768.065 41.6271 768.065 49.9314 Q768.065 58.2358 772.076 62.8538 Q776.086 67.4314 783.337 67.4314 Q786.578 67.4314 789.738 66.5807 Q792.938 65.6895 796.097 63.9476 L796.097 70.8341 Q792.978 72.2924 789.616 73.0216 Q786.294 73.7508 782.527 73.7508 Q772.278 73.7508 766.242 67.3098 Q760.206 60.8689 760.206 49.9314 Q760.206 38.832 766.283 32.472 Q772.4 26.1121 783.013 26.1121 Q786.456 26.1121 789.738 26.8413 Q793.019 27.5299 796.097 28.9478 Z" fill="#000000" fill-rule="nonzero" fill-opacity="1" /><path clip-path="url(#clip610)" d="M816.433 14.324 L816.433 27.2059 L831.786 27.2059 L831.786 32.9987 L816.433 32.9987 L816.433 57.6282 Q816.433 63.1779 817.932 64.7578 Q819.471 66.3376 824.13 66.3376 L831.786 66.3376 L831.786 72.576 L824.13 72.576 Q815.501 72.576 812.22 69.3758 Q808.939 66.1351 808.939 57.6282 L808.939 32.9987 L803.47 32.9987 L803.47 27.2059 L808.939 27.2059 L808.939 14.324 L816.433 14.324 Z" fill="#000000" fill-rule="nonzero" fill-opacity="1" /><path clip-path="url(#clip610)" d="M841.589 27.2059 L849.043 27.2059 L849.043 72.576 L841.589 72.576 L841.589 27.2059 M841.589 9.54393 L849.043 9.54393 L849.043 18.9825 L841.589 18.9825 L841.589 9.54393 Z" fill="#000000" fill-rule="nonzero" fill-opacity="1" /><path clip-path="url(#clip610)" d="M872.011 14.324 L872.011 27.2059 L887.364 27.2059 L887.364 32.9987 L872.011 32.9987 L872.011 57.6282 Q872.011 63.1779 873.51 64.7578 Q875.05 66.3376 879.708 66.3376 L887.364 66.3376 L887.364 72.576 L879.708 72.576 Q871.08 72.576 867.798 69.3758 Q864.517 66.1351 864.517 57.6282 L864.517 32.9987 L859.048 32.9987 L859.048 27.2059 L864.517 27.2059 L864.517 14.324 L872.011 14.324 Z" fill="#000000" fill-rule="nonzero" fill-opacity="1" /><path clip-path="url(#clip610)" d="M897.167 27.2059 L904.621 27.2059 L904.621 72.576 L897.167 72.576 L897.167 27.2059 M897.167 9.54393 L904.621 9.54393 L904.621 18.9825 L897.167 18.9825 L897.167 9.54393 Z" fill="#000000" fill-rule="nonzero" fill-opacity="1" /><path clip-path="url(#clip610)" d="M937.798 32.4315 Q931.803 32.4315 928.319 37.1306 Q924.835 41.7891 924.835 49.9314 Q924.835 58.0738 928.278 62.7728 Q931.762 67.4314 937.798 67.4314 Q943.753 67.4314 947.237 62.7323 Q950.72 58.0333 950.72 49.9314 Q950.72 41.8701 947.237 37.1711 Q943.753 32.4315 937.798 32.4315 M937.798 26.1121 Q947.52 26.1121 953.07 32.4315 Q958.62 38.7509 958.62 49.9314 Q958.62 61.0714 953.07 67.4314 Q947.52 73.7508 937.798 73.7508 Q928.035 73.7508 922.486 67.4314 Q916.976 61.0714 916.976 49.9314 Q916.976 38.7509 922.486 32.4315 Q928.035 26.1121 937.798 26.1121 Z" fill="#000000" fill-rule="nonzero" fill-opacity="1" /><path clip-path="url(#clip610)" d="M970.205 54.671 L970.205 27.2059 L977.659 27.2059 L977.659 54.3874 Q977.659 60.8284 980.171 64.0691 Q982.682 67.2693 987.705 67.2693 Q993.741 67.2693 997.225 63.421 Q1000.75 59.5726 1000.75 52.9291 L1000.75 27.2059 L1008.2 27.2059 L1008.2 72.576 L1000.75 72.576 L1000.75 65.6084 Q998.035 69.7404 994.43 71.7658 Q990.865 73.7508 986.125 73.7508 Q978.307 73.7508 974.256 68.8897 Q970.205 64.0286 970.205 54.671 M988.961 26.1121 L988.961 26.1121 Z" fill="#000000" fill-rule="nonzero" fill-opacity="1" /><path clip-path="url(#clip610)" d="M1052.48 28.5427 L1052.48 35.5912 Q1049.32 33.9709 1045.92 33.1607 Q1042.51 32.3505 1038.87 32.3505 Q1033.32 32.3505 1030.52 34.0519 Q1027.77 35.7533 1027.77 39.156 Q1027.77 41.7486 1029.75 43.2475 Q1031.74 44.7058 1037.73 46.0426 L1040.29 46.6097 Q1048.23 48.3111 1051.55 51.4303 Q1054.91 54.509 1054.91 60.0587 Q1054.91 66.3781 1049.89 70.0644 Q1044.9 73.7508 1036.15 73.7508 Q1032.51 73.7508 1028.54 73.0216 Q1024.61 72.3329 1020.23 70.9151 L1020.23 63.2184 Q1024.37 65.3654 1028.38 66.4591 Q1032.39 67.5124 1036.32 67.5124 Q1041.58 67.5124 1044.42 65.73 Q1047.25 63.9071 1047.25 60.6258 Q1047.25 57.5877 1045.19 55.9673 Q1043.16 54.3469 1036.24 52.8481 L1033.64 52.2405 Q1026.72 50.7821 1023.64 47.7845 Q1020.56 44.7463 1020.56 39.4801 Q1020.56 33.0797 1025.1 29.5959 Q1029.63 26.1121 1037.98 26.1121 Q1042.11 26.1121 1045.75 26.7198 Q1049.4 27.3274 1052.48 28.5427 Z" fill="#000000" fill-rule="nonzero" fill-opacity="1" /><path clip-path="url(#clip610)" d="M1134.71 63.9476 L1134.71 47.7034 L1121.34 47.7034 L1121.34 40.9789 L1142.81 40.9789 L1142.81 66.9452 Q1138.07 70.3075 1132.36 72.0494 Q1126.65 73.7508 1120.17 73.7508 Q1105.99 73.7508 1097.97 65.4869 Q1089.99 57.1826 1089.99 42.3968 Q1089.99 27.5705 1097.97 19.3066 Q1105.99 11.0023 1120.17 11.0023 Q1126.08 11.0023 1131.39 12.4606 Q1136.74 13.9189 1141.23 16.7545 L1141.23 25.464 Q1136.7 21.6156 1131.59 19.6712 Q1126.49 17.7268 1120.86 17.7268 Q1109.76 17.7268 1104.17 23.9246 Q1098.62 30.1225 1098.62 42.3968 Q1098.62 54.6305 1104.17 60.8284 Q1109.76 67.0263 1120.86 67.0263 Q1125.19 67.0263 1128.6 66.2971 Q1132 65.5274 1134.71 63.9476 Z" fill="#000000" fill-rule="nonzero" fill-opacity="1" /><path clip-path="url(#clip610)" d="M1157.76 12.096 L1192.52 12.096 L1192.52 18.9825 L1165.94 18.9825 L1165.94 36.8065 L1189.93 36.8065 L1189.93 43.6931 L1165.94 43.6931 L1165.94 72.576 L1157.76 72.576 L1157.76 12.096 Z" fill="#000000" fill-rule="nonzero" fill-opacity="1" /><path clip-path="url(#clip610)" d="M1260.45 28.5427 L1260.45 35.5912 Q1257.29 33.9709 1253.89 33.1607 Q1250.49 32.3505 1246.84 32.3505 Q1241.29 32.3505 1238.5 34.0519 Q1235.74 35.7533 1235.74 39.156 Q1235.74 41.7486 1237.73 43.2475 Q1239.71 44.7058 1245.71 46.0426 L1248.26 46.6097 Q1256.2 48.3111 1259.52 51.4303 Q1262.88 54.509 1262.88 60.0587 Q1262.88 66.3781 1257.86 70.0644 Q1252.88 73.7508 1244.13 73.7508 Q1240.48 73.7508 1236.51 73.0216 Q1232.58 72.3329 1228.21 70.9151 L1228.21 63.2184 Q1232.34 65.3654 1236.35 66.4591 Q1240.36 67.5124 1244.29 67.5124 Q1249.56 67.5124 1252.39 65.73 Q1255.23 63.9071 1255.23 60.6258 Q1255.23 57.5877 1253.16 55.9673 Q1251.14 54.3469 1244.21 52.8481 L1241.62 52.2405 Q1234.69 50.7821 1231.61 47.7845 Q1228.53 44.7463 1228.53 39.4801 Q1228.53 33.0797 1233.07 29.5959 Q1237.61 26.1121 1245.95 26.1121 Q1250.08 26.1121 1253.73 26.7198 Q1257.37 27.3274 1260.45 28.5427 Z" fill="#000000" fill-rule="nonzero" fill-opacity="1" /><path clip-path="url(#clip610)" d="M1295.37 49.7694 Q1286.34 49.7694 1282.85 51.8354 Q1279.37 53.9013 1279.37 58.8839 Q1279.37 62.8538 1281.96 65.2034 Q1284.6 67.5124 1289.09 67.5124 Q1295.29 67.5124 1299.02 63.1374 Q1302.78 58.7219 1302.78 51.4303 L1302.78 49.7694 L1295.37 49.7694 M1310.24 46.6907 L1310.24 72.576 L1302.78 72.576 L1302.78 65.6895 Q1300.23 69.8214 1296.42 71.8063 Q1292.62 73.7508 1287.11 73.7508 Q1280.14 73.7508 1276.01 69.8619 Q1271.92 65.9325 1271.92 59.3701 Q1271.92 51.7138 1277.02 47.825 Q1282.17 43.9361 1292.33 43.9361 L1302.78 43.9361 L1302.78 43.2069 Q1302.78 38.0623 1299.38 35.2672 Q1296.02 32.4315 1289.9 32.4315 Q1286.01 32.4315 1282.33 33.3632 Q1278.64 34.295 1275.24 36.1584 L1275.24 29.2718 Q1279.33 27.692 1283.18 26.9223 Q1287.03 26.1121 1290.67 26.1121 Q1300.52 26.1121 1305.38 31.2163 Q1310.24 36.3204 1310.24 46.6907 Z" fill="#000000" fill-rule="nonzero" fill-opacity="1" /><path clip-path="url(#clip610)" d="M1360.91 35.9153 Q1363.71 30.8922 1367.6 28.5022 Q1371.49 26.1121 1376.75 26.1121 Q1383.84 26.1121 1387.69 31.0947 Q1391.54 36.0368 1391.54 45.1919 L1391.54 72.576 L1384.05 72.576 L1384.05 45.4349 Q1384.05 38.913 1381.74 35.7533 Q1379.43 32.5936 1374.69 32.5936 Q1368.9 32.5936 1365.53 36.4419 Q1362.17 40.2903 1362.17 46.9338 L1362.17 72.576 L1354.68 72.576 L1354.68 45.4349 Q1354.68 38.8725 1352.37 35.7533 Q1350.06 32.5936 1345.24 32.5936 Q1339.53 32.5936 1336.16 36.4824 Q1332.8 40.3308 1332.8 46.9338 L1332.8 72.576 L1325.31 72.576 L1325.31 27.2059 L1332.8 27.2059 L1332.8 34.2544 Q1335.35 30.082 1338.92 28.0971 Q1342.48 26.1121 1347.38 26.1121 Q1352.33 26.1121 1355.77 28.6237 Q1359.25 31.1352 1360.91 35.9153 Z" fill="#000000" fill-rule="nonzero" fill-opacity="1" /><path clip-path="url(#clip610)" d="M1413.62 65.7705 L1413.62 89.8329 L1406.12 89.8329 L1406.12 27.2059 L1413.62 27.2059 L1413.62 34.0924 Q1415.97 30.0415 1419.53 28.0971 Q1423.14 26.1121 1428.12 26.1121 Q1436.38 26.1121 1441.53 32.6746 Q1446.71 39.2371 1446.71 49.9314 Q1446.71 60.6258 1441.53 67.1883 Q1436.38 73.7508 1428.12 73.7508 Q1423.14 73.7508 1419.53 71.8063 Q1415.97 69.8214 1413.62 65.7705 M1438.98 49.9314 Q1438.98 41.7081 1435.57 37.0496 Q1432.21 32.3505 1426.3 32.3505 Q1420.38 32.3505 1416.98 37.0496 Q1413.62 41.7081 1413.62 49.9314 Q1413.62 58.1548 1416.98 62.8538 Q1420.38 67.5124 1426.3 67.5124 Q1432.21 67.5124 1435.57 62.8538 Q1438.98 58.1548 1438.98 49.9314 Z" fill="#000000" fill-rule="nonzero" fill-opacity="1" /><path clip-path="url(#clip610)" d="M1459.07 9.54393 L1466.52 9.54393 L1466.52 72.576 L1459.07 72.576 L1459.07 9.54393 Z" fill="#000000" fill-rule="nonzero" fill-opacity="1" /><path clip-path="url(#clip610)" d="M1520.93 48.0275 L1520.93 51.6733 L1486.66 51.6733 Q1487.14 59.3701 1491.27 63.421 Q1495.45 67.4314 1502.86 67.4314 Q1507.15 67.4314 1511.16 66.3781 Q1515.21 65.3249 1519.18 63.2184 L1519.18 70.267 Q1515.17 71.9684 1510.96 72.8596 Q1506.75 73.7508 1502.41 73.7508 Q1491.56 73.7508 1485.2 67.4314 Q1478.88 61.1119 1478.88 50.3365 Q1478.88 39.1965 1484.87 32.6746 Q1490.91 26.1121 1501.12 26.1121 Q1510.27 26.1121 1515.58 32.0264 Q1520.93 37.9003 1520.93 48.0275 M1513.47 45.84 Q1513.39 39.7232 1510.03 36.0774 Q1506.71 32.4315 1501.2 32.4315 Q1494.96 32.4315 1491.19 35.9558 Q1487.47 39.4801 1486.9 45.8805 L1513.47 45.84 Z" fill="#000000" fill-rule="nonzero" fill-opacity="1" /><path clip-path="url(#clip610)" d="M1563.01 34.0924 L1563.01 9.54393 L1570.47 9.54393 L1570.47 72.576 L1563.01 72.576 L1563.01 65.7705 Q1560.67 69.8214 1557.06 71.8063 Q1553.49 73.7508 1548.47 73.7508 Q1540.25 73.7508 1535.06 67.1883 Q1529.92 60.6258 1529.92 49.9314 Q1529.92 39.2371 1535.06 32.6746 Q1540.25 26.1121 1548.47 26.1121 Q1553.49 26.1121 1557.06 28.0971 Q1560.67 30.0415 1563.01 34.0924 M1537.62 49.9314 Q1537.62 58.1548 1540.98 62.8538 Q1544.38 67.5124 1550.29 67.5124 Q1556.21 67.5124 1559.61 62.8538 Q1563.01 58.1548 1563.01 49.9314 Q1563.01 41.7081 1559.61 37.0496 Q1556.21 32.3505 1550.29 32.3505 Q1544.38 32.3505 1540.98 37.0496 Q1537.62 41.7081 1537.62 49.9314 Z" fill="#000000" fill-rule="nonzero" fill-opacity="1" /><path clip-path="url(#clip610)" d="M1612.52 12.096 L1620.7 12.096 L1620.7 65.6895 L1650.15 65.6895 L1650.15 72.576 L1612.52 72.576 L1612.52 12.096 Z" fill="#000000" fill-rule="nonzero" fill-opacity="1" /><path clip-path="url(#clip610)" d="M1660.88 65.6895 L1674.25 65.6895 L1674.25 19.5497 L1659.71 22.4663 L1659.71 15.0127 L1674.17 12.096 L1682.35 12.096 L1682.35 65.6895 L1695.72 65.6895 L1695.72 72.576 L1660.88 72.576 L1660.88 65.6895 Z" fill="#000000" fill-rule="nonzero" fill-opacity="1" /><path clip-path="url(#clip610)" d="M1776.38 48.0275 L1776.38 51.6733 L1742.11 51.6733 Q1742.59 59.3701 1746.72 63.421 Q1750.9 67.4314 1758.31 67.4314 Q1762.6 67.4314 1766.61 66.3781 Q1770.66 65.3249 1774.63 63.2184 L1774.63 70.267 Q1770.62 71.9684 1766.41 72.8596 Q1762.2 73.7508 1757.86 73.7508 Q1747.01 73.7508 1740.65 67.4314 Q1734.33 61.1119 1734.33 50.3365 Q1734.33 39.1965 1740.32 32.6746 Q1746.36 26.1121 1756.57 26.1121 Q1765.72 26.1121 1771.03 32.0264 Q1776.38 37.9003 1776.38 48.0275 M1768.92 45.84 Q1768.84 39.7232 1765.48 36.0774 Q1762.16 32.4315 1756.65 32.4315 Q1750.41 32.4315 1746.64 35.9558 Q1742.92 39.4801 1742.35 45.8805 L1768.92 45.84 Z" fill="#000000" fill-rule="nonzero" fill-opacity="1" /><path clip-path="url(#clip610)" d="M1814.9 34.1734 Q1813.64 33.4443 1812.15 33.1202 Q1810.69 32.7556 1808.9 32.7556 Q1802.59 32.7556 1799.18 36.8875 Q1795.82 40.9789 1795.82 48.6757 L1795.82 72.576 L1788.33 72.576 L1788.33 27.2059 L1795.82 27.2059 L1795.82 34.2544 Q1798.17 30.1225 1801.94 28.1376 Q1805.7 26.1121 1811.09 26.1121 Q1811.86 26.1121 1812.79 26.2337 Q1813.73 26.3147 1814.86 26.5172 L1814.9 34.1734 Z" fill="#000000" fill-rule="nonzero" fill-opacity="1" /><path clip-path="url(#clip610)" d="M1847.55 34.1734 Q1846.29 33.4443 1844.8 33.1202 Q1843.34 32.7556 1841.55 32.7556 Q1835.24 32.7556 1831.83 36.8875 Q1828.47 40.9789 1828.47 48.6757 L1828.47 72.576 L1820.98 72.576 L1820.98 27.2059 L1828.47 27.2059 L1828.47 34.2544 Q1830.82 30.1225 1834.59 28.1376 Q1838.35 26.1121 1843.74 26.1121 Q1844.51 26.1121 1845.44 26.2337 Q1846.38 26.3147 1847.51 26.5172 L1847.55 34.1734 Z" fill="#000000" fill-rule="nonzero" fill-opacity="1" /><path clip-path="url(#clip610)" d="M1871.13 32.4315 Q1865.13 32.4315 1861.65 37.1306 Q1858.16 41.7891 1858.16 49.9314 Q1858.16 58.0738 1861.61 62.7728 Q1865.09 67.4314 1871.13 67.4314 Q1877.08 67.4314 1880.56 62.7323 Q1884.05 58.0333 1884.05 49.9314 Q1884.05 41.8701 1880.56 37.1711 Q1877.08 32.4315 1871.13 32.4315 M1871.13 26.1121 Q1880.85 26.1121 1886.4 32.4315 Q1891.95 38.7509 1891.95 49.9314 Q1891.95 61.0714 1886.4 67.4314 Q1880.85 73.7508 1871.13 73.7508 Q1861.36 73.7508 1855.81 67.4314 Q1850.3 61.0714 1850.3 49.9314 Q1850.3 38.7509 1855.81 32.4315 Q1861.36 26.1121 1871.13 26.1121 Z" fill="#000000" fill-rule="nonzero" fill-opacity="1" /><path clip-path="url(#clip610)" d="M1930.59 34.1734 Q1929.34 33.4443 1927.84 33.1202 Q1926.38 32.7556 1924.6 32.7556 Q1918.28 32.7556 1914.88 36.8875 Q1911.51 40.9789 1911.51 48.6757 L1911.51 72.576 L1904.02 72.576 L1904.02 27.2059 L1911.51 27.2059 L1911.51 34.2544 Q1913.86 30.1225 1917.63 28.1376 Q1921.4 26.1121 1926.79 26.1121 Q1927.56 26.1121 1928.49 26.2337 Q1929.42 26.3147 1930.55 26.5172 L1930.59 34.1734 Z" fill="#000000" fill-rule="nonzero" fill-opacity="1" /><polyline clip-path="url(#clip612)" style="stroke:#009af9; stroke-linecap:round; stroke-linejoin:round; stroke-width:4; stroke-opacity:1; fill:none" points="335.627,160.256 553.224,163.049 770.822,167.979 988.419,172.821 1206.02,183.025 1423.61,180.227 1641.21,185.034 1858.81,181.76 2076.41,179.88 2294,184.204 "/>
<path clip-path="url(#clip612)" d="M335.627 176.256 L324.315 171.568 L319.627 160.256 L324.315 148.944 L335.627 144.256 L346.939 148.944 L351.627 160.256 L346.939 171.568 Z" fill="#009af9" fill-rule="evenodd" fill-opacity="1" stroke="#000000" stroke-opacity="1" stroke-width="3.2"/>
<path clip-path="url(#clip612)" d="M553.224 179.049 L541.912 174.361 L537.224 163.049 L541.912 151.737 L553.224 147.049 L564.536 151.737 L569.224 163.049 L564.536 174.361 Z" fill="#009af9" fill-rule="evenodd" fill-opacity="1" stroke="#000000" stroke-opacity="1" stroke-width="3.2"/>
<path clip-path="url(#clip612)" d="M770.822 183.979 L759.51 179.291 L754.822 167.979 L759.51 156.667 L770.822 151.979 L782.134 156.667 L786.822 167.979 L782.134 179.291 Z" fill="#009af9" fill-rule="evenodd" fill-opacity="1" stroke="#000000" stroke-opacity="1" stroke-width="3.2"/>
<path clip-path="url(#clip612)" d="M988.419 188.821 L977.107 184.133 L972.419 172.821 L977.107 161.509 L988.419 156.821 L999.731 161.509 L1004.42 172.821 L999.731 184.133 Z" fill="#009af9" fill-rule="evenodd" fill-opacity="1" stroke="#000000" stroke-opacity="1" stroke-width="3.2"/>
<path clip-path="url(#clip612)" d="M1206.02 199.025 L1194.7 194.337 L1190.02 183.025 L1194.7 171.713 L1206.02 167.025 L1217.33 171.713 L1222.02 183.025 L1217.33 194.337 Z" fill="#009af9" fill-rule="evenodd" fill-opacity="1" stroke="#000000" stroke-opacity="1" stroke-width="3.2"/>
<path clip-path="url(#clip612)" d="M1423.61 196.227 L1412.3 191.539 L1407.61 180.227 L1412.3 168.915 L1423.61 164.227 L1434.93 168.915 L1439.61 180.227 L1434.93 191.539 Z" fill="#009af9" fill-rule="evenodd" fill-opacity="1" stroke="#000000" stroke-opacity="1" stroke-width="3.2"/>
<path clip-path="url(#clip612)" d="M1641.21 201.034 L1629.9 196.346 L1625.21 185.034 L1629.9 173.722 L1641.21 169.034 L1652.52 173.722 L1657.21 185.034 L1652.52 196.346 Z" fill="#009af9" fill-rule="evenodd" fill-opacity="1" stroke="#000000" stroke-opacity="1" stroke-width="3.2"/>
<path clip-path="url(#clip612)" d="M1858.81 197.76 L1847.5 193.072 L1842.81 181.76 L1847.5 170.448 L1858.81 165.76 L1870.12 170.448 L1874.81 181.76 L1870.12 193.072 Z" fill="#009af9" fill-rule="evenodd" fill-opacity="1" stroke="#000000" stroke-opacity="1" stroke-width="3.2"/>
<path clip-path="url(#clip612)" d="M2076.41 195.88 L2065.1 191.192 L2060.41 179.88 L2065.1 168.568 L2076.41 163.88 L2087.72 168.568 L2092.41 179.88 L2087.72 191.192 Z" fill="#009af9" fill-rule="evenodd" fill-opacity="1" stroke="#000000" stroke-opacity="1" stroke-width="3.2"/>
<path clip-path="url(#clip612)" d="M2294 200.204 L2282.69 195.516 L2278 184.204 L2282.69 172.892 L2294 168.204 L2305.32 172.892 L2310 184.204 L2305.32 195.516 Z" fill="#009af9" fill-rule="evenodd" fill-opacity="1" stroke="#000000" stroke-opacity="1" stroke-width="3.2"/>
<polyline clip-path="url(#clip612)" style="stroke:#e26f46; stroke-linecap:round; stroke-linejoin:round; stroke-width:4; stroke-opacity:1; fill:none" points="335.627,163.04 553.224,168.556 770.822,177.681 988.419,190.715 1206.02,186.765 1423.61,210.847 1641.21,221.74 1858.81,227.581 2076.41,247.748 2294,252.436 "/>
<path clip-path="url(#clip612)" d="M335.627 179.04 L324.315 174.352 L319.627 163.04 L324.315 151.728 L335.627 147.04 L346.939 151.728 L351.627 163.04 L346.939 174.352 Z" fill="#e26f46" fill-rule="evenodd" fill-opacity="1" stroke="#000000" stroke-opacity="1" stroke-width="3.2"/>
<path clip-path="url(#clip612)" d="M553.224 184.556 L541.912 179.868 L537.224 168.556 L541.912 157.244 L553.224 152.556 L564.536 157.244 L569.224 168.556 L564.536 179.868 Z" fill="#e26f46" fill-rule="evenodd" fill-opacity="1" stroke="#000000" stroke-opacity="1" stroke-width="3.2"/>
<path clip-path="url(#clip612)" d="M770.822 193.681 L759.51 188.993 L754.822 177.681 L759.51 166.369 L770.822 161.681 L782.134 166.369 L786.822 177.681 L782.134 188.993 Z" fill="#e26f46" fill-rule="evenodd" fill-opacity="1" stroke="#000000" stroke-opacity="1" stroke-width="3.2"/>
<path clip-path="url(#clip612)" d="M988.419 206.715 L977.107 202.027 L972.419 190.715 L977.107 179.403 L988.419 174.715 L999.731 179.403 L1004.42 190.715 L999.731 202.027 Z" fill="#e26f46" fill-rule="evenodd" fill-opacity="1" stroke="#000000" stroke-opacity="1" stroke-width="3.2"/>
<path clip-path="url(#clip612)" d="M1206.02 202.765 L1194.7 198.077 L1190.02 186.765 L1194.7 175.453 L1206.02 170.765 L1217.33 175.453 L1222.02 186.765 L1217.33 198.077 Z" fill="#e26f46" fill-rule="evenodd" fill-opacity="1" stroke="#000000" stroke-opacity="1" stroke-width="3.2"/>
<path clip-path="url(#clip612)" d="M1423.61 226.847 L1412.3 222.159 L1407.61 210.847 L1412.3 199.535 L1423.61 194.847 L1434.93 199.535 L1439.61 210.847 L1434.93 222.159 Z" fill="#e26f46" fill-rule="evenodd" fill-opacity="1" stroke="#000000" stroke-opacity="1" stroke-width="3.2"/>
<path clip-path="url(#clip612)" d="M1641.21 237.74 L1629.9 233.052 L1625.21 221.74 L1629.9 210.428 L1641.21 205.74 L1652.52 210.428 L1657.21 221.74 L1652.52 233.052 Z" fill="#e26f46" fill-rule="evenodd" fill-opacity="1" stroke="#000000" stroke-opacity="1" stroke-width="3.2"/>
<path clip-path="url(#clip612)" d="M1858.81 243.581 L1847.5 238.893 L1842.81 227.581 L1847.5 216.269 L1858.81 211.581 L1870.12 216.269 L1874.81 227.581 L1870.12 238.893 Z" fill="#e26f46" fill-rule="evenodd" fill-opacity="1" stroke="#000000" stroke-opacity="1" stroke-width="3.2"/>
<path clip-path="url(#clip612)" d="M2076.41 263.748 L2065.1 259.06 L2060.41 247.748 L2065.1 236.436 L2076.41 231.748 L2087.72 236.436 L2092.41 247.748 L2087.72 259.06 Z" fill="#e26f46" fill-rule="evenodd" fill-opacity="1" stroke="#000000" stroke-opacity="1" stroke-width="3.2"/>
<path clip-path="url(#clip612)" d="M2294 268.436 L2282.69 263.748 L2278 252.436 L2282.69 241.124 L2294 236.436 L2305.32 241.124 L2310 252.436 L2305.32 263.748 Z" fill="#e26f46" fill-rule="evenodd" fill-opacity="1" stroke="#000000" stroke-opacity="1" stroke-width="3.2"/>
<polyline clip-path="url(#clip612)" style="stroke:#3da44d; stroke-linecap:round; stroke-linejoin:round; stroke-width:4; stroke-opacity:1; fill:none" points="335.627,172.388 553.224,239.973 770.822,301.736 988.419,472.202 1206.02,799.274 1423.61,1120.65 1641.21,1382.35 1858.81,1386.4 2076.41,1384.73 2294,1385.47 "/>
<path clip-path="url(#clip612)" d="M335.627 188.388 L324.315 183.7 L319.627 172.388 L324.315 161.076 L335.627 156.388 L346.939 161.076 L351.627 172.388 L346.939 183.7 Z" fill="#3da44d" fill-rule="evenodd" fill-opacity="1" stroke="#000000" stroke-opacity="1" stroke-width="3.2"/>
<path clip-path="url(#clip612)" d="M553.224 255.973 L541.912 251.285 L537.224 239.973 L541.912 228.661 L553.224 223.973 L564.536 228.661 L569.224 239.973 L564.536 251.285 Z" fill="#3da44d" fill-rule="evenodd" fill-opacity="1" stroke="#000000" stroke-opacity="1" stroke-width="3.2"/>
<path clip-path="url(#clip612)" d="M770.822 317.736 L759.51 313.048 L754.822 301.736 L759.51 290.424 L770.822 285.736 L782.134 290.424 L786.822 301.736 L782.134 313.048 Z" fill="#3da44d" fill-rule="evenodd" fill-opacity="1" stroke="#000000" stroke-opacity="1" stroke-width="3.2"/>
<path clip-path="url(#clip612)" d="M988.419 488.202 L977.107 483.514 L972.419 472.202 L977.107 460.89 L988.419 456.202 L999.731 460.89 L1004.42 472.202 L999.731 483.514 Z" fill="#3da44d" fill-rule="evenodd" fill-opacity="1" stroke="#000000" stroke-opacity="1" stroke-width="3.2"/>
<path clip-path="url(#clip612)" d="M1206.02 815.274 L1194.7 810.586 L1190.02 799.274 L1194.7 787.962 L1206.02 783.274 L1217.33 787.962 L1222.02 799.274 L1217.33 810.586 Z" fill="#3da44d" fill-rule="evenodd" fill-opacity="1" stroke="#000000" stroke-opacity="1" stroke-width="3.2"/>
<path clip-path="url(#clip612)" d="M1423.61 1136.65 L1412.3 1131.96 L1407.61 1120.65 L1412.3 1109.33 L1423.61 1104.65 L1434.93 1109.33 L1439.61 1120.65 L1434.93 1131.96 Z" fill="#3da44d" fill-rule="evenodd" fill-opacity="1" stroke="#000000" stroke-opacity="1" stroke-width="3.2"/>
<path clip-path="url(#clip612)" d="M1641.21 1398.35 L1629.9 1393.66 L1625.21 1382.35 L1629.9 1371.04 L1641.21 1366.35 L1652.52 1371.04 L1657.21 1382.35 L1652.52 1393.66 Z" fill="#3da44d" fill-rule="evenodd" fill-opacity="1" stroke="#000000" stroke-opacity="1" stroke-width="3.2"/>
<path clip-path="url(#clip612)" d="M1858.81 1402.4 L1847.5 1397.71 L1842.81 1386.4 L1847.5 1375.08 L1858.81 1370.4 L1870.12 1375.08 L1874.81 1386.4 L1870.12 1397.71 Z" fill="#3da44d" fill-rule="evenodd" fill-opacity="1" stroke="#000000" stroke-opacity="1" stroke-width="3.2"/>
<path clip-path="url(#clip612)" d="M2076.41 1400.73 L2065.1 1396.04 L2060.41 1384.73 L2065.1 1373.42 L2076.41 1368.73 L2087.72 1373.42 L2092.41 1384.73 L2087.72 1396.04 Z" fill="#3da44d" fill-rule="evenodd" fill-opacity="1" stroke="#000000" stroke-opacity="1" stroke-width="3.2"/>
<path clip-path="url(#clip612)" d="M2294 1401.47 L2282.69 1396.79 L2278 1385.47 L2282.69 1374.16 L2294 1369.47 L2305.32 1374.16 L2310 1385.47 L2305.32 1396.79 Z" fill="#3da44d" fill-rule="evenodd" fill-opacity="1" stroke="#000000" stroke-opacity="1" stroke-width="3.2"/>
<polyline clip-path="url(#clip612)" style="stroke:#c271d2; stroke-linecap:round; stroke-linejoin:round; stroke-width:4; stroke-opacity:1; fill:none" points="335.627,173.72 553.224,239.963 770.822,309.271 988.419,470.86 1206.02,802.924 1423.61,1111.15 1641.21,1382.09 1858.81,1385.03 2076.41,1385.21 2294,1384.72 "/>
<path clip-path="url(#clip612)" d="M335.627 189.72 L324.315 185.032 L319.627 173.72 L324.315 162.408 L335.627 157.72 L346.939 162.408 L351.627 173.72 L346.939 185.032 Z" fill="#c271d2" fill-rule="evenodd" fill-opacity="1" stroke="#000000" stroke-opacity="1" stroke-width="3.2"/>
<path clip-path="url(#clip612)" d="M553.224 255.963 L541.912 251.275 L537.224 239.963 L541.912 228.651 L553.224 223.963 L564.536 228.651 L569.224 239.963 L564.536 251.275 Z" fill="#c271d2" fill-rule="evenodd" fill-opacity="1" stroke="#000000" stroke-opacity="1" stroke-width="3.2"/>
<path clip-path="url(#clip612)" d="M770.822 325.271 L759.51 320.583 L754.822 309.271 L759.51 297.959 L770.822 293.271 L782.134 297.959 L786.822 309.271 L782.134 320.583 Z" fill="#c271d2" fill-rule="evenodd" fill-opacity="1" stroke="#000000" stroke-opacity="1" stroke-width="3.2"/>
<path clip-path="url(#clip612)" d="M988.419 486.86 L977.107 482.172 L972.419 470.86 L977.107 459.548 L988.419 454.86 L999.731 459.548 L1004.42 470.86 L999.731 482.172 Z" fill="#c271d2" fill-rule="evenodd" fill-opacity="1" stroke="#000000" stroke-opacity="1" stroke-width="3.2"/>
<path clip-path="url(#clip612)" d="M1206.02 818.924 L1194.7 814.236 L1190.02 802.924 L1194.7 791.612 L1206.02 786.924 L1217.33 791.612 L1222.02 802.924 L1217.33 814.236 Z" fill="#c271d2" fill-rule="evenodd" fill-opacity="1" stroke="#000000" stroke-opacity="1" stroke-width="3.2"/>
<path clip-path="url(#clip612)" d="M1423.61 1127.15 L1412.3 1122.46 L1407.61 1111.15 L1412.3 1099.84 L1423.61 1095.15 L1434.93 1099.84 L1439.61 1111.15 L1434.93 1122.46 Z" fill="#c271d2" fill-rule="evenodd" fill-opacity="1" stroke="#000000" stroke-opacity="1" stroke-width="3.2"/>
<path clip-path="url(#clip612)" d="M1641.21 1398.09 L1629.9 1393.4 L1625.21 1382.09 L1629.9 1370.78 L1641.21 1366.09 L1652.52 1370.78 L1657.21 1382.09 L1652.52 1393.4 Z" fill="#c271d2" fill-rule="evenodd" fill-opacity="1" stroke="#000000" stroke-opacity="1" stroke-width="3.2"/>
<path clip-path="url(#clip612)" d="M1858.81 1401.03 L1847.5 1396.35 L1842.81 1385.03 L1847.5 1373.72 L1858.81 1369.03 L1870.12 1373.72 L1874.81 1385.03 L1870.12 1396.35 Z" fill="#c271d2" fill-rule="evenodd" fill-opacity="1" stroke="#000000" stroke-opacity="1" stroke-width="3.2"/>
<path clip-path="url(#clip612)" d="M2076.41 1401.21 L2065.1 1396.52 L2060.41 1385.21 L2065.1 1373.9 L2076.41 1369.21 L2087.72 1373.9 L2092.41 1385.21 L2087.72 1396.52 Z" fill="#c271d2" fill-rule="evenodd" fill-opacity="1" stroke="#000000" stroke-opacity="1" stroke-width="3.2"/>
<path clip-path="url(#clip612)" d="M2294 1400.72 L2282.69 1396.03 L2278 1384.72 L2282.69 1373.41 L2294 1368.72 L2305.32 1373.41 L2310 1384.72 L2305.32 1396.03 Z" fill="#c271d2" fill-rule="evenodd" fill-opacity="1" stroke="#000000" stroke-opacity="1" stroke-width="3.2"/>
<polyline clip-path="url(#clip612)" style="stroke:#ac8d18; stroke-linecap:round; stroke-linejoin:round; stroke-width:4; stroke-opacity:1; fill:none" points="335.627,161.02 553.224,168.345 770.822,181.006 988.419,188.589 1206.02,200.79 1423.61,213.825 1641.21,221.338 1858.81,237.075 2076.41,245.106 2294,260.506 "/>
<path clip-path="url(#clip612)" d="M335.627 177.02 L324.315 172.332 L319.627 161.02 L324.315 149.708 L335.627 145.02 L346.939 149.708 L351.627 161.02 L346.939 172.332 Z" fill="#ac8d18" fill-rule="evenodd" fill-opacity="1" stroke="#000000" stroke-opacity="1" stroke-width="3.2"/>
<path clip-path="url(#clip612)" d="M553.224 184.345 L541.912 179.657 L537.224 168.345 L541.912 157.033 L553.224 152.345 L564.536 157.033 L569.224 168.345 L564.536 179.657 Z" fill="#ac8d18" fill-rule="evenodd" fill-opacity="1" stroke="#000000" stroke-opacity="1" stroke-width="3.2"/>
<path clip-path="url(#clip612)" d="M770.822 197.006 L759.51 192.318 L754.822 181.006 L759.51 169.694 L770.822 165.006 L782.134 169.694 L786.822 181.006 L782.134 192.318 Z" fill="#ac8d18" fill-rule="evenodd" fill-opacity="1" stroke="#000000" stroke-opacity="1" stroke-width="3.2"/>
<path clip-path="url(#clip612)" d="M988.419 204.589 L977.107 199.901 L972.419 188.589 L977.107 177.277 L988.419 172.589 L999.731 177.277 L1004.42 188.589 L999.731 199.901 Z" fill="#ac8d18" fill-rule="evenodd" fill-opacity="1" stroke="#000000" stroke-opacity="1" stroke-width="3.2"/>
<path clip-path="url(#clip612)" d="M1206.02 216.79 L1194.7 212.102 L1190.02 200.79 L1194.7 189.478 L1206.02 184.79 L1217.33 189.478 L1222.02 200.79 L1217.33 212.102 Z" fill="#ac8d18" fill-rule="evenodd" fill-opacity="1" stroke="#000000" stroke-opacity="1" stroke-width="3.2"/>
<path clip-path="url(#clip612)" d="M1423.61 229.825 L1412.3 225.137 L1407.61 213.825 L1412.3 202.513 L1423.61 197.825 L1434.93 202.513 L1439.61 213.825 L1434.93 225.137 Z" fill="#ac8d18" fill-rule="evenodd" fill-opacity="1" stroke="#000000" stroke-opacity="1" stroke-width="3.2"/>
<path clip-path="url(#clip612)" d="M1641.21 237.338 L1629.9 232.65 L1625.21 221.338 L1629.9 210.026 L1641.21 205.338 L1652.52 210.026 L1657.21 221.338 L1652.52 232.65 Z" fill="#ac8d18" fill-rule="evenodd" fill-opacity="1" stroke="#000000" stroke-opacity="1" stroke-width="3.2"/>
<path clip-path="url(#clip612)" d="M1858.81 253.075 L1847.5 248.387 L1842.81 237.075 L1847.5 225.763 L1858.81 221.075 L1870.12 225.763 L1874.81 237.075 L1870.12 248.387 Z" fill="#ac8d18" fill-rule="evenodd" fill-opacity="1" stroke="#000000" stroke-opacity="1" stroke-width="3.2"/>
<path clip-path="url(#clip612)" d="M2076.41 261.106 L2065.1 256.418 L2060.41 245.106 L2065.1 233.794 L2076.41 229.106 L2087.72 233.794 L2092.41 245.106 L2087.72 256.418 Z" fill="#ac8d18" fill-rule="evenodd" fill-opacity="1" stroke="#000000" stroke-opacity="1" stroke-width="3.2"/>
<path clip-path="url(#clip612)" d="M2294 276.506 L2282.69 271.818 L2278 260.506 L2282.69 249.194 L2294 244.506 L2305.32 249.194 L2310 260.506 L2305.32 271.818 Z" fill="#ac8d18" fill-rule="evenodd" fill-opacity="1" stroke="#000000" stroke-opacity="1" stroke-width="3.2"/>
<polyline clip-path="url(#clip612)" style="stroke:#00a9ad; stroke-linecap:round; stroke-linejoin:round; stroke-width:4; stroke-opacity:1; fill:none" points="335.627,162.924 553.224,172.469 770.822,177.305 988.419,194.31 1206.02,186.01 1423.61,211.414 1641.21,218.297 1858.81,224.917 2076.41,248.468 2294,259.167 "/>
<path clip-path="url(#clip612)" d="M335.627 178.924 L324.315 174.236 L319.627 162.924 L324.315 151.612 L335.627 146.924 L346.939 151.612 L351.627 162.924 L346.939 174.236 Z" fill="#00a9ad" fill-rule="evenodd" fill-opacity="1" stroke="#000000" stroke-opacity="1" stroke-width="3.2"/>
<path clip-path="url(#clip612)" d="M553.224 188.469 L541.912 183.781 L537.224 172.469 L541.912 161.157 L553.224 156.469 L564.536 161.157 L569.224 172.469 L564.536 183.781 Z" fill="#00a9ad" fill-rule="evenodd" fill-opacity="1" stroke="#000000" stroke-opacity="1" stroke-width="3.2"/>
<path clip-path="url(#clip612)" d="M770.822 193.305 L759.51 188.617 L754.822 177.305 L759.51 165.993 L770.822 161.305 L782.134 165.993 L786.822 177.305 L782.134 188.617 Z" fill="#00a9ad" fill-rule="evenodd" fill-opacity="1" stroke="#000000" stroke-opacity="1" stroke-width="3.2"/>
<path clip-path="url(#clip612)" d="M988.419 210.31 L977.107 205.622 L972.419 194.31 L977.107 182.998 L988.419 178.31 L999.731 182.998 L1004.42 194.31 L999.731 205.622 Z" fill="#00a9ad" fill-rule="evenodd" fill-opacity="1" stroke="#000000" stroke-opacity="1" stroke-width="3.2"/>
<path clip-path="url(#clip612)" d="M1206.02 202.01 L1194.7 197.322 L1190.02 186.01 L1194.7 174.698 L1206.02 170.01 L1217.33 174.698 L1222.02 186.01 L1217.33 197.322 Z" fill="#00a9ad" fill-rule="evenodd" fill-opacity="1" stroke="#000000" stroke-opacity="1" stroke-width="3.2"/>
<path clip-path="url(#clip612)" d="M1423.61 227.414 L1412.3 222.726 L1407.61 211.414 L1412.3 200.102 L1423.61 195.414 L1434.93 200.102 L1439.61 211.414 L1434.93 222.726 Z" fill="#00a9ad" fill-rule="evenodd" fill-opacity="1" stroke="#000000" stroke-opacity="1" stroke-width="3.2"/>
<path clip-path="url(#clip612)" d="M1641.21 234.297 L1629.9 229.609 L1625.21 218.297 L1629.9 206.985 L1641.21 202.297 L1652.52 206.985 L1657.21 218.297 L1652.52 229.609 Z" fill="#00a9ad" fill-rule="evenodd" fill-opacity="1" stroke="#000000" stroke-opacity="1" stroke-width="3.2"/>
<path clip-path="url(#clip612)" d="M1858.81 240.917 L1847.5 236.229 L1842.81 224.917 L1847.5 213.605 L1858.81 208.917 L1870.12 213.605 L1874.81 224.917 L1870.12 236.229 Z" fill="#00a9ad" fill-rule="evenodd" fill-opacity="1" stroke="#000000" stroke-opacity="1" stroke-width="3.2"/>
<path clip-path="url(#clip612)" d="M2076.41 264.468 L2065.1 259.78 L2060.41 248.468 L2065.1 237.156 L2076.41 232.468 L2087.72 237.156 L2092.41 248.468 L2087.72 259.78 Z" fill="#00a9ad" fill-rule="evenodd" fill-opacity="1" stroke="#000000" stroke-opacity="1" stroke-width="3.2"/>
<path clip-path="url(#clip612)" d="M2294 275.167 L2282.69 270.479 L2278 259.167 L2282.69 247.855 L2294 243.167 L2305.32 247.855 L2310 259.167 L2305.32 270.479 Z" fill="#00a9ad" fill-rule="evenodd" fill-opacity="1" stroke="#000000" stroke-opacity="1" stroke-width="3.2"/>
<path clip-path="url(#clip610)" d="M1711.14 529.676 L2283.56 529.676 L2283.56 166.796 L1711.14 166.796  Z" fill="#ffffff" fill-rule="evenodd" fill-opacity="1"/>
<polyline clip-path="url(#clip610)" style="stroke:#000000; stroke-linecap:round; stroke-linejoin:round; stroke-width:4; stroke-opacity:1; fill:none" points="1711.14,529.676 2283.56,529.676 2283.56,166.796 1711.14,166.796 1711.14,529.676 "/>
<polyline clip-path="url(#clip610)" style="stroke:#009af9; stroke-linecap:round; stroke-linejoin:round; stroke-width:4; stroke-opacity:1; fill:none" points="1734.2,218.636 1872.59,218.636 "/>
<path clip-path="url(#clip610)" d="M1803.4 239.993 L1788.3 233.735 L1782.04 218.636 L1788.3 203.536 L1803.4 197.279 L1818.5 203.536 L1824.75 218.636 L1818.5 233.735 Z" fill="#009af9" fill-rule="evenodd" fill-opacity="1" stroke="#000000" stroke-opacity="1" stroke-width="4.55111"/>
<path clip-path="url(#clip610)" d="M1911.68 204.527 Q1906.58 204.527 1903.58 208.323 Q1900.59 212.12 1900.59 218.67 Q1900.59 225.198 1903.58 228.994 Q1906.58 232.791 1911.68 232.791 Q1916.77 232.791 1919.73 228.994 Q1922.72 225.198 1922.72 218.67 Q1922.72 212.12 1919.73 208.323 Q1916.77 204.527 1911.68 204.527 M1918.23 235.291 L1924.39 242.027 L1918.74 242.027 L1913.62 236.494 Q1912.86 236.541 1912.44 236.564 Q1912.05 236.587 1911.68 236.587 Q1904.39 236.587 1900.01 231.726 Q1895.66 226.842 1895.66 218.67 Q1895.66 210.476 1900.01 205.615 Q1904.39 200.731 1911.68 200.731 Q1918.95 200.731 1923.3 205.615 Q1927.65 210.476 1927.65 218.67 Q1927.65 224.689 1925.22 228.971 Q1922.81 233.254 1918.23 235.291 Z" fill="#000000" fill-rule="nonzero" fill-opacity="1" /><path clip-path="url(#clip610)" d="M1930.17 201.356 L1959.41 201.356 L1959.41 205.291 L1947.14 205.291 L1947.14 235.916 L1942.44 235.916 L1942.44 205.291 L1930.17 205.291 L1930.17 201.356 Z" fill="#000000" fill-rule="nonzero" fill-opacity="1" /><path clip-path="url(#clip610)" d="M1958.3 201.356 L1987.53 201.356 L1987.53 205.291 L1975.26 205.291 L1975.26 235.916 L1970.57 235.916 L1970.57 205.291 L1958.3 205.291 L1958.3 201.356 Z" fill="#000000" fill-rule="nonzero" fill-opacity="1" /><path clip-path="url(#clip610)" d="M2011.56 243.786 L2011.56 247.096 L1986.93 247.096 L1986.93 243.786 L2011.56 243.786 Z" fill="#000000" fill-rule="nonzero" fill-opacity="1" /><path clip-path="url(#clip610)" d="M2036.47 202.49 L2036.47 207.05 Q2033.81 205.777 2031.44 205.152 Q2029.08 204.527 2026.88 204.527 Q2023.07 204.527 2020.98 206.008 Q2018.92 207.49 2018.92 210.221 Q2018.92 212.513 2020.29 213.694 Q2021.68 214.851 2025.52 215.569 L2028.34 216.147 Q2033.57 217.143 2036.05 219.666 Q2038.55 222.166 2038.55 226.379 Q2038.55 231.402 2035.17 233.994 Q2031.82 236.587 2025.31 236.587 Q2022.86 236.587 2020.08 236.031 Q2017.32 235.476 2014.36 234.388 L2014.36 229.573 Q2017.21 231.17 2019.94 231.981 Q2022.67 232.791 2025.31 232.791 Q2029.32 232.791 2031.49 231.217 Q2033.67 229.643 2033.67 226.726 Q2033.67 224.18 2032.09 222.744 Q2030.54 221.309 2026.98 220.592 L2024.13 220.036 Q2018.9 218.995 2016.56 216.772 Q2014.22 214.55 2014.22 210.592 Q2014.22 206.008 2017.44 203.37 Q2020.68 200.731 2026.35 200.731 Q2028.78 200.731 2031.31 201.171 Q2033.83 201.61 2036.47 202.49 Z" fill="#000000" fill-rule="nonzero" fill-opacity="1" /><path clip-path="url(#clip610)" d="M2067.83 221.888 L2067.83 223.971 L2048.25 223.971 Q2048.53 228.369 2050.89 230.684 Q2053.27 232.976 2057.51 232.976 Q2059.96 232.976 2062.25 232.374 Q2064.57 231.772 2066.84 230.569 L2066.84 234.596 Q2064.55 235.568 2062.14 236.078 Q2059.73 236.587 2057.25 236.587 Q2051.05 236.587 2047.42 232.976 Q2043.81 229.365 2043.81 223.207 Q2043.81 216.842 2047.23 213.115 Q2050.68 209.365 2056.51 209.365 Q2061.75 209.365 2064.78 212.745 Q2067.83 216.101 2067.83 221.888 M2063.57 220.638 Q2063.53 217.143 2061.61 215.059 Q2059.71 212.976 2056.56 212.976 Q2053 212.976 2050.84 214.99 Q2048.71 217.004 2048.39 220.661 L2063.57 220.638 Z" fill="#000000" fill-rule="nonzero" fill-opacity="1" /><path clip-path="url(#clip610)" d="M2077.37 222.976 Q2077.37 227.675 2079.29 230.36 Q2081.24 233.022 2084.62 233.022 Q2088 233.022 2089.94 230.36 Q2091.88 227.675 2091.88 222.976 Q2091.88 218.277 2089.94 215.615 Q2088 212.93 2084.62 212.93 Q2081.24 212.93 2079.29 215.615 Q2077.37 218.277 2077.37 222.976 M2091.88 232.027 Q2090.54 234.342 2088.48 235.476 Q2086.44 236.587 2083.57 236.587 Q2078.88 236.587 2075.91 232.837 Q2072.97 229.087 2072.97 222.976 Q2072.97 216.865 2075.91 213.115 Q2078.88 209.365 2083.57 209.365 Q2086.44 209.365 2088.48 210.499 Q2090.54 211.61 2091.88 213.925 L2091.88 209.99 L2096.14 209.99 L2096.14 245.777 L2091.88 245.777 L2091.88 232.027 Z" fill="#000000" fill-rule="nonzero" fill-opacity="1" /><polyline clip-path="url(#clip610)" style="stroke:#e26f46; stroke-linecap:round; stroke-linejoin:round; stroke-width:4; stroke-opacity:1; fill:none" points="1734.2,270.476 1872.59,270.476 "/>
<path clip-path="url(#clip610)" d="M1803.4 291.833 L1788.3 285.575 L1782.04 270.476 L1788.3 255.376 L1803.4 249.119 L1818.5 255.376 L1824.75 270.476 L1818.5 285.575 Z" fill="#e26f46" fill-rule="evenodd" fill-opacity="1" stroke="#000000" stroke-opacity="1" stroke-width="4.55111"/>
<path clip-path="url(#clip610)" d="M1923.53 255.858 L1923.53 260.788 Q1921.17 258.589 1918.48 257.501 Q1915.82 256.413 1912.81 256.413 Q1906.89 256.413 1903.74 260.048 Q1900.59 263.659 1900.59 270.51 Q1900.59 277.339 1903.74 280.973 Q1906.89 284.584 1912.81 284.584 Q1915.82 284.584 1918.48 283.496 Q1921.17 282.409 1923.53 280.209 L1923.53 285.094 Q1921.08 286.76 1918.32 287.594 Q1915.59 288.427 1912.53 288.427 Q1904.69 288.427 1900.17 283.635 Q1895.66 278.821 1895.66 270.51 Q1895.66 262.177 1900.17 257.386 Q1904.69 252.571 1912.53 252.571 Q1915.64 252.571 1918.37 253.404 Q1921.12 254.214 1923.53 255.858 Z" fill="#000000" fill-rule="nonzero" fill-opacity="1" /><path clip-path="url(#clip610)" d="M1925.96 253.196 L1955.2 253.196 L1955.2 257.131 L1942.93 257.131 L1942.93 287.756 L1938.23 287.756 L1938.23 257.131 L1925.96 257.131 L1925.96 253.196 Z" fill="#000000" fill-rule="nonzero" fill-opacity="1" /><path clip-path="url(#clip610)" d="M1954.08 253.196 L1983.32 253.196 L1983.32 257.131 L1971.05 257.131 L1971.05 287.756 L1966.35 287.756 L1966.35 257.131 L1954.08 257.131 L1954.08 253.196 Z" fill="#000000" fill-rule="nonzero" fill-opacity="1" /><path clip-path="url(#clip610)" d="M1987.83 253.196 L1994.13 253.196 L2009.45 282.108 L2009.45 253.196 L2013.99 253.196 L2013.99 287.756 L2007.69 287.756 L1992.37 258.844 L1992.37 287.756 L1987.83 287.756 L1987.83 253.196 Z" fill="#000000" fill-rule="nonzero" fill-opacity="1" /><polyline clip-path="url(#clip610)" style="stroke:#3da44d; stroke-linecap:round; stroke-linejoin:round; stroke-width:4; stroke-opacity:1; fill:none" points="1734.2,322.316 1872.59,322.316 "/>
<path clip-path="url(#clip610)" d="M1803.4 343.673 L1788.3 337.415 L1782.04 322.316 L1788.3 307.216 L1803.4 300.959 L1818.5 307.216 L1824.75 322.316 L1818.5 337.415 Z" fill="#3da44d" fill-rule="evenodd" fill-opacity="1" stroke="#000000" stroke-opacity="1" stroke-width="4.55111"/>
<path clip-path="url(#clip610)" d="M1911.68 308.207 Q1906.58 308.207 1903.58 312.003 Q1900.59 315.8 1900.59 322.35 Q1900.59 328.878 1903.58 332.674 Q1906.58 336.471 1911.68 336.471 Q1916.77 336.471 1919.73 332.674 Q1922.72 328.878 1922.72 322.35 Q1922.72 315.8 1919.73 312.003 Q1916.77 308.207 1911.68 308.207 M1918.23 338.971 L1924.39 345.707 L1918.74 345.707 L1913.62 340.174 Q1912.86 340.221 1912.44 340.244 Q1912.05 340.267 1911.68 340.267 Q1904.39 340.267 1900.01 335.406 Q1895.66 330.522 1895.66 322.35 Q1895.66 314.156 1900.01 309.295 Q1904.39 304.411 1911.68 304.411 Q1918.95 304.411 1923.3 309.295 Q1927.65 314.156 1927.65 322.35 Q1927.65 328.369 1925.22 332.651 Q1922.81 336.934 1918.23 338.971 Z" fill="#000000" fill-rule="nonzero" fill-opacity="1" /><path clip-path="url(#clip610)" d="M1930.17 305.036 L1959.41 305.036 L1959.41 308.971 L1947.14 308.971 L1947.14 339.596 L1942.44 339.596 L1942.44 308.971 L1930.17 308.971 L1930.17 305.036 Z" fill="#000000" fill-rule="nonzero" fill-opacity="1" /><path clip-path="url(#clip610)" d="M1958.3 305.036 L1987.53 305.036 L1987.53 308.971 L1975.26 308.971 L1975.26 339.596 L1970.57 339.596 L1970.57 308.971 L1958.3 308.971 L1958.3 305.036 Z" fill="#000000" fill-rule="nonzero" fill-opacity="1" /><path clip-path="url(#clip610)" d="M2011.56 347.466 L2011.56 350.776 L1986.93 350.776 L1986.93 347.466 L2011.56 347.466 Z" fill="#000000" fill-rule="nonzero" fill-opacity="1" /><path clip-path="url(#clip610)" d="M2015.75 305.036 L2020.43 305.036 L2020.43 339.596 L2015.75 339.596 L2015.75 305.036 Z" fill="#000000" fill-rule="nonzero" fill-opacity="1" /><path clip-path="url(#clip610)" d="M2051.1 323.948 L2051.1 339.596 L2046.84 339.596 L2046.84 324.087 Q2046.84 320.406 2045.4 318.577 Q2043.97 316.749 2041.1 316.749 Q2037.65 316.749 2035.66 318.948 Q2033.67 321.147 2033.67 324.943 L2033.67 339.596 L2029.38 339.596 L2029.38 313.67 L2033.67 313.67 L2033.67 317.698 Q2035.19 315.36 2037.26 314.202 Q2039.34 313.045 2042.05 313.045 Q2046.51 313.045 2048.81 315.823 Q2051.1 318.577 2051.1 323.948 Z" fill="#000000" fill-rule="nonzero" fill-opacity="1" /><path clip-path="url(#clip610)" d="M2063.81 306.309 L2063.81 313.67 L2072.58 313.67 L2072.58 316.98 L2063.81 316.98 L2063.81 331.054 Q2063.81 334.225 2064.66 335.128 Q2065.54 336.031 2068.2 336.031 L2072.58 336.031 L2072.58 339.596 L2068.2 339.596 Q2063.27 339.596 2061.4 337.767 Q2059.52 335.915 2059.52 331.054 L2059.52 316.98 L2056.4 316.98 L2056.4 313.67 L2059.52 313.67 L2059.52 306.309 L2063.81 306.309 Z" fill="#000000" fill-rule="nonzero" fill-opacity="1" /><path clip-path="url(#clip610)" d="M2097.88 347.466 L2097.88 350.776 L2073.25 350.776 L2073.25 347.466 L2097.88 347.466 Z" fill="#000000" fill-rule="nonzero" fill-opacity="1" /><path clip-path="url(#clip610)" d="M2118.41 314.434 L2118.41 318.462 Q2116.61 317.536 2114.66 317.073 Q2112.72 316.61 2110.63 316.61 Q2107.46 316.61 2105.87 317.582 Q2104.29 318.554 2104.29 320.499 Q2104.29 321.98 2105.43 322.837 Q2106.56 323.67 2109.99 324.434 L2111.44 324.758 Q2115.98 325.73 2117.88 327.512 Q2119.8 329.272 2119.8 332.443 Q2119.8 336.054 2116.93 338.161 Q2114.08 340.267 2109.08 340.267 Q2107 340.267 2104.73 339.85 Q2102.49 339.457 2099.99 338.647 L2099.99 334.249 Q2102.35 335.475 2104.64 336.1 Q2106.93 336.702 2109.18 336.702 Q2112.19 336.702 2113.81 335.684 Q2115.43 334.642 2115.43 332.767 Q2115.43 331.031 2114.25 330.105 Q2113.09 329.179 2109.13 328.323 L2107.65 327.975 Q2103.69 327.142 2101.93 325.429 Q2100.17 323.693 2100.17 320.684 Q2100.17 317.026 2102.76 315.036 Q2105.36 313.045 2110.12 313.045 Q2112.49 313.045 2114.57 313.392 Q2116.65 313.739 2118.41 314.434 Z" fill="#000000" fill-rule="nonzero" fill-opacity="1" /><path clip-path="url(#clip610)" d="M2130.8 306.309 L2130.8 313.67 L2139.57 313.67 L2139.57 316.98 L2130.8 316.98 L2130.8 331.054 Q2130.8 334.225 2131.65 335.128 Q2132.53 336.031 2135.19 336.031 L2139.57 336.031 L2139.57 339.596 L2135.19 339.596 Q2130.26 339.596 2128.39 337.767 Q2126.51 335.915 2126.51 331.054 L2126.51 316.98 L2123.39 316.98 L2123.39 313.67 L2126.51 313.67 L2126.51 306.309 L2130.8 306.309 Z" fill="#000000" fill-rule="nonzero" fill-opacity="1" /><path clip-path="url(#clip610)" d="M2160.19 317.651 Q2159.48 317.235 2158.62 317.05 Q2157.79 316.841 2156.77 316.841 Q2153.16 316.841 2151.21 319.202 Q2149.29 321.54 2149.29 325.938 L2149.29 339.596 L2145.01 339.596 L2145.01 313.67 L2149.29 313.67 L2149.29 317.698 Q2150.63 315.337 2152.79 314.202 Q2154.94 313.045 2158.02 313.045 Q2158.46 313.045 2158.99 313.114 Q2159.52 313.161 2160.17 313.276 L2160.19 317.651 Z" fill="#000000" fill-rule="nonzero" fill-opacity="1" /><path clip-path="url(#clip610)" d="M2164.22 329.364 L2164.22 313.67 L2168.48 313.67 L2168.48 329.202 Q2168.48 332.883 2169.92 334.735 Q2171.35 336.563 2174.22 336.563 Q2177.67 336.563 2179.66 334.364 Q2181.68 332.165 2181.68 328.369 L2181.68 313.67 L2185.93 313.67 L2185.93 339.596 L2181.68 339.596 L2181.68 335.614 Q2180.12 337.975 2178.06 339.133 Q2176.03 340.267 2173.32 340.267 Q2168.85 340.267 2166.54 337.489 Q2164.22 334.711 2164.22 329.364 M2174.94 313.045 L2174.94 313.045 Z" fill="#000000" fill-rule="nonzero" fill-opacity="1" /><path clip-path="url(#clip610)" d="M2213.37 314.665 L2213.37 318.647 Q2211.56 317.651 2209.73 317.165 Q2207.93 316.656 2206.07 316.656 Q2201.93 316.656 2199.64 319.295 Q2197.35 321.911 2197.35 326.656 Q2197.35 331.401 2199.64 334.04 Q2201.93 336.656 2206.07 336.656 Q2207.93 336.656 2209.73 336.17 Q2211.56 335.661 2213.37 334.665 L2213.37 338.6 Q2211.58 339.434 2209.66 339.85 Q2207.76 340.267 2205.61 340.267 Q2199.75 340.267 2196.31 336.586 Q2192.86 332.906 2192.86 326.656 Q2192.86 320.313 2196.33 316.679 Q2199.82 313.045 2205.89 313.045 Q2207.86 313.045 2209.73 313.462 Q2211.61 313.855 2213.37 314.665 Z" fill="#000000" fill-rule="nonzero" fill-opacity="1" /><path clip-path="url(#clip610)" d="M2224.99 306.309 L2224.99 313.67 L2233.76 313.67 L2233.76 316.98 L2224.99 316.98 L2224.99 331.054 Q2224.99 334.225 2225.84 335.128 Q2226.72 336.031 2229.38 336.031 L2233.76 336.031 L2233.76 339.596 L2229.38 339.596 Q2224.45 339.596 2222.58 337.767 Q2220.7 335.915 2220.7 331.054 L2220.7 316.98 L2217.58 316.98 L2217.58 313.67 L2220.7 313.67 L2220.7 306.309 L2224.99 306.309 Z" fill="#000000" fill-rule="nonzero" fill-opacity="1" /><polyline clip-path="url(#clip610)" style="stroke:#c271d2; stroke-linecap:round; stroke-linejoin:round; stroke-width:4; stroke-opacity:1; fill:none" points="1734.2,374.156 1872.59,374.156 "/>
<path clip-path="url(#clip610)" d="M1803.4 395.513 L1788.3 389.255 L1782.04 374.156 L1788.3 359.056 L1803.4 352.799 L1818.5 359.056 L1824.75 374.156 L1818.5 389.255 Z" fill="#c271d2" fill-rule="evenodd" fill-opacity="1" stroke="#000000" stroke-opacity="1" stroke-width="4.55111"/>
<path clip-path="url(#clip610)" d="M1911.68 360.047 Q1906.58 360.047 1903.58 363.843 Q1900.59 367.64 1900.59 374.19 Q1900.59 380.718 1903.58 384.514 Q1906.58 388.311 1911.68 388.311 Q1916.77 388.311 1919.73 384.514 Q1922.72 380.718 1922.72 374.19 Q1922.72 367.64 1919.73 363.843 Q1916.77 360.047 1911.68 360.047 M1918.23 390.811 L1924.39 397.547 L1918.74 397.547 L1913.62 392.014 Q1912.86 392.061 1912.44 392.084 Q1912.05 392.107 1911.68 392.107 Q1904.39 392.107 1900.01 387.246 Q1895.66 382.362 1895.66 374.19 Q1895.66 365.996 1900.01 361.135 Q1904.39 356.251 1911.68 356.251 Q1918.95 356.251 1923.3 361.135 Q1927.65 365.996 1927.65 374.19 Q1927.65 380.209 1925.22 384.491 Q1922.81 388.774 1918.23 390.811 Z" fill="#000000" fill-rule="nonzero" fill-opacity="1" /><path clip-path="url(#clip610)" d="M1930.17 356.876 L1959.41 356.876 L1959.41 360.811 L1947.14 360.811 L1947.14 391.436 L1942.44 391.436 L1942.44 360.811 L1930.17 360.811 L1930.17 356.876 Z" fill="#000000" fill-rule="nonzero" fill-opacity="1" /><path clip-path="url(#clip610)" d="M1958.3 356.876 L1987.53 356.876 L1987.53 360.811 L1975.26 360.811 L1975.26 391.436 L1970.57 391.436 L1970.57 360.811 L1958.3 360.811 L1958.3 356.876 Z" fill="#000000" fill-rule="nonzero" fill-opacity="1" /><path clip-path="url(#clip610)" d="M2011.56 399.306 L2011.56 402.616 L1986.93 402.616 L1986.93 399.306 L2011.56 399.306 Z" fill="#000000" fill-rule="nonzero" fill-opacity="1" /><path clip-path="url(#clip610)" d="M2015.75 356.876 L2020.43 356.876 L2020.43 391.436 L2015.75 391.436 L2015.75 356.876 Z" fill="#000000" fill-rule="nonzero" fill-opacity="1" /><path clip-path="url(#clip610)" d="M2051.1 375.788 L2051.1 391.436 L2046.84 391.436 L2046.84 375.927 Q2046.84 372.246 2045.4 370.417 Q2043.97 368.589 2041.1 368.589 Q2037.65 368.589 2035.66 370.788 Q2033.67 372.987 2033.67 376.783 L2033.67 391.436 L2029.38 391.436 L2029.38 365.51 L2033.67 365.51 L2033.67 369.538 Q2035.19 367.2 2037.26 366.042 Q2039.34 364.885 2042.05 364.885 Q2046.51 364.885 2048.81 367.663 Q2051.1 370.417 2051.1 375.788 Z" fill="#000000" fill-rule="nonzero" fill-opacity="1" /><path clip-path="url(#clip610)" d="M2063.81 358.149 L2063.81 365.51 L2072.58 365.51 L2072.58 368.82 L2063.81 368.82 L2063.81 382.894 Q2063.81 386.065 2064.66 386.968 Q2065.54 387.871 2068.2 387.871 L2072.58 387.871 L2072.58 391.436 L2068.2 391.436 Q2063.27 391.436 2061.4 389.607 Q2059.52 387.755 2059.52 382.894 L2059.52 368.82 L2056.4 368.82 L2056.4 365.51 L2059.52 365.51 L2059.52 358.149 L2063.81 358.149 Z" fill="#000000" fill-rule="nonzero" fill-opacity="1" /><polyline clip-path="url(#clip610)" style="stroke:#ac8d18; stroke-linecap:round; stroke-linejoin:round; stroke-width:4; stroke-opacity:1; fill:none" points="1734.2,425.996 1872.59,425.996 "/>
<path clip-path="url(#clip610)" d="M1803.4 447.353 L1788.3 441.095 L1782.04 425.996 L1788.3 410.896 L1803.4 404.639 L1818.5 410.896 L1824.75 425.996 L1818.5 441.095 Z" fill="#ac8d18" fill-rule="evenodd" fill-opacity="1" stroke="#000000" stroke-opacity="1" stroke-width="4.55111"/>
<path clip-path="url(#clip610)" d="M1911.68 411.887 Q1906.58 411.887 1903.58 415.683 Q1900.59 419.48 1900.59 426.03 Q1900.59 432.558 1903.58 436.354 Q1906.58 440.151 1911.68 440.151 Q1916.77 440.151 1919.73 436.354 Q1922.72 432.558 1922.72 426.03 Q1922.72 419.48 1919.73 415.683 Q1916.77 411.887 1911.68 411.887 M1918.23 442.651 L1924.39 449.387 L1918.74 449.387 L1913.62 443.854 Q1912.86 443.901 1912.44 443.924 Q1912.05 443.947 1911.68 443.947 Q1904.39 443.947 1900.01 439.086 Q1895.66 434.202 1895.66 426.03 Q1895.66 417.836 1900.01 412.975 Q1904.39 408.091 1911.68 408.091 Q1918.95 408.091 1923.3 412.975 Q1927.65 417.836 1927.65 426.03 Q1927.65 432.049 1925.22 436.331 Q1922.81 440.614 1918.23 442.651 Z" fill="#000000" fill-rule="nonzero" fill-opacity="1" /><path clip-path="url(#clip610)" d="M1930.17 408.716 L1959.41 408.716 L1959.41 412.651 L1947.14 412.651 L1947.14 443.276 L1942.44 443.276 L1942.44 412.651 L1930.17 412.651 L1930.17 408.716 Z" fill="#000000" fill-rule="nonzero" fill-opacity="1" /><path clip-path="url(#clip610)" d="M1958.3 408.716 L1987.53 408.716 L1987.53 412.651 L1975.26 412.651 L1975.26 443.276 L1970.57 443.276 L1970.57 412.651 L1958.3 412.651 L1958.3 408.716 Z" fill="#000000" fill-rule="nonzero" fill-opacity="1" /><path clip-path="url(#clip610)" d="M2011.56 451.146 L2011.56 454.456 L1986.93 454.456 L1986.93 451.146 L2011.56 451.146 Z" fill="#000000" fill-rule="nonzero" fill-opacity="1" /><path clip-path="url(#clip610)" d="M2036.47 409.85 L2036.47 414.41 Q2033.81 413.137 2031.44 412.512 Q2029.08 411.887 2026.88 411.887 Q2023.07 411.887 2020.98 413.368 Q2018.92 414.85 2018.92 417.581 Q2018.92 419.873 2020.29 421.054 Q2021.68 422.211 2025.52 422.929 L2028.34 423.507 Q2033.57 424.503 2036.05 427.026 Q2038.55 429.526 2038.55 433.739 Q2038.55 438.762 2035.17 441.354 Q2031.82 443.947 2025.31 443.947 Q2022.86 443.947 2020.08 443.391 Q2017.32 442.836 2014.36 441.748 L2014.36 436.933 Q2017.21 438.53 2019.94 439.341 Q2022.67 440.151 2025.31 440.151 Q2029.32 440.151 2031.49 438.577 Q2033.67 437.003 2033.67 434.086 Q2033.67 431.54 2032.09 430.104 Q2030.54 428.669 2026.98 427.952 L2024.13 427.396 Q2018.9 426.355 2016.56 424.132 Q2014.22 421.91 2014.22 417.952 Q2014.22 413.368 2017.44 410.73 Q2020.68 408.091 2026.35 408.091 Q2028.78 408.091 2031.31 408.531 Q2033.83 408.97 2036.47 409.85 Z" fill="#000000" fill-rule="nonzero" fill-opacity="1" /><path clip-path="url(#clip610)" d="M2067.83 429.248 L2067.83 431.331 L2048.25 431.331 Q2048.53 435.729 2050.89 438.044 Q2053.27 440.336 2057.51 440.336 Q2059.96 440.336 2062.25 439.734 Q2064.57 439.132 2066.84 437.929 L2066.84 441.956 Q2064.55 442.928 2062.14 443.438 Q2059.73 443.947 2057.25 443.947 Q2051.05 443.947 2047.42 440.336 Q2043.81 436.725 2043.81 430.567 Q2043.81 424.202 2047.23 420.475 Q2050.68 416.725 2056.51 416.725 Q2061.75 416.725 2064.78 420.105 Q2067.83 423.461 2067.83 429.248 M2063.57 427.998 Q2063.53 424.503 2061.61 422.419 Q2059.71 420.336 2056.56 420.336 Q2053 420.336 2050.84 422.35 Q2048.71 424.364 2048.39 428.021 L2063.57 427.998 Z" fill="#000000" fill-rule="nonzero" fill-opacity="1" /><path clip-path="url(#clip610)" d="M2077.37 430.336 Q2077.37 435.035 2079.29 437.72 Q2081.24 440.382 2084.62 440.382 Q2088 440.382 2089.94 437.72 Q2091.88 435.035 2091.88 430.336 Q2091.88 425.637 2089.94 422.975 Q2088 420.29 2084.62 420.29 Q2081.24 420.29 2079.29 422.975 Q2077.37 425.637 2077.37 430.336 M2091.88 439.387 Q2090.54 441.702 2088.48 442.836 Q2086.44 443.947 2083.57 443.947 Q2078.88 443.947 2075.91 440.197 Q2072.97 436.447 2072.97 430.336 Q2072.97 424.225 2075.91 420.475 Q2078.88 416.725 2083.57 416.725 Q2086.44 416.725 2088.48 417.859 Q2090.54 418.97 2091.88 421.285 L2091.88 417.35 L2096.14 417.35 L2096.14 453.137 L2091.88 453.137 L2091.88 439.387 Z" fill="#000000" fill-rule="nonzero" fill-opacity="1" /><path clip-path="url(#clip610)" d="M2124.62 451.146 L2124.62 454.456 L2099.99 454.456 L2099.99 451.146 L2124.62 451.146 Z" fill="#000000" fill-rule="nonzero" fill-opacity="1" /><path clip-path="url(#clip610)" d="M2145.15 418.114 L2145.15 422.142 Q2143.34 421.216 2141.4 420.753 Q2139.45 420.29 2137.37 420.29 Q2134.2 420.29 2132.6 421.262 Q2131.03 422.234 2131.03 424.179 Q2131.03 425.66 2132.16 426.517 Q2133.3 427.35 2136.72 428.114 L2138.18 428.438 Q2142.72 429.41 2144.62 431.192 Q2146.54 432.952 2146.54 436.123 Q2146.54 439.734 2143.67 441.841 Q2140.82 443.947 2135.82 443.947 Q2133.74 443.947 2131.47 443.53 Q2129.22 443.137 2126.72 442.327 L2126.72 437.929 Q2129.08 439.155 2131.37 439.78 Q2133.67 440.382 2135.91 440.382 Q2138.92 440.382 2140.54 439.364 Q2142.16 438.322 2142.16 436.447 Q2142.16 434.711 2140.98 433.785 Q2139.82 432.859 2135.87 432.003 L2134.38 431.655 Q2130.43 430.822 2128.67 429.109 Q2126.91 427.373 2126.91 424.364 Q2126.91 420.706 2129.5 418.716 Q2132.09 416.725 2136.86 416.725 Q2139.22 416.725 2141.31 417.072 Q2143.39 417.419 2145.15 418.114 Z" fill="#000000" fill-rule="nonzero" fill-opacity="1" /><path clip-path="url(#clip610)" d="M2157.53 409.989 L2157.53 417.35 L2166.31 417.35 L2166.31 420.66 L2157.53 420.66 L2157.53 434.734 Q2157.53 437.905 2158.39 438.808 Q2159.27 439.711 2161.93 439.711 L2166.31 439.711 L2166.31 443.276 L2161.93 443.276 Q2157 443.276 2155.12 441.447 Q2153.25 439.595 2153.25 434.734 L2153.25 420.66 L2150.12 420.66 L2150.12 417.35 L2153.25 417.35 L2153.25 409.989 L2157.53 409.989 Z" fill="#000000" fill-rule="nonzero" fill-opacity="1" /><path clip-path="url(#clip610)" d="M2186.93 421.331 Q2186.21 420.915 2185.36 420.73 Q2184.52 420.521 2183.5 420.521 Q2179.89 420.521 2177.95 422.882 Q2176.03 425.22 2176.03 429.618 L2176.03 443.276 L2171.75 443.276 L2171.75 417.35 L2176.03 417.35 L2176.03 421.378 Q2177.37 419.017 2179.52 417.882 Q2181.68 416.725 2184.75 416.725 Q2185.19 416.725 2185.73 416.794 Q2186.26 416.841 2186.91 416.956 L2186.93 421.331 Z" fill="#000000" fill-rule="nonzero" fill-opacity="1" /><path clip-path="url(#clip610)" d="M2190.96 433.044 L2190.96 417.35 L2195.22 417.35 L2195.22 432.882 Q2195.22 436.563 2196.65 438.415 Q2198.09 440.243 2200.96 440.243 Q2204.41 440.243 2206.4 438.044 Q2208.41 435.845 2208.41 432.049 L2208.41 417.35 L2212.67 417.35 L2212.67 443.276 L2208.41 443.276 L2208.41 439.294 Q2206.86 441.655 2204.8 442.813 Q2202.76 443.947 2200.06 443.947 Q2195.59 443.947 2193.27 441.169 Q2190.96 438.391 2190.96 433.044 M2201.68 416.725 L2201.68 416.725 Z" fill="#000000" fill-rule="nonzero" fill-opacity="1" /><path clip-path="url(#clip610)" d="M2240.1 418.345 L2240.1 422.327 Q2238.3 421.331 2236.47 420.845 Q2234.66 420.336 2232.81 420.336 Q2228.67 420.336 2226.37 422.975 Q2224.08 425.591 2224.08 430.336 Q2224.08 435.081 2226.37 437.72 Q2228.67 440.336 2232.81 440.336 Q2234.66 440.336 2236.47 439.85 Q2238.3 439.341 2240.1 438.345 L2240.1 442.28 Q2238.32 443.114 2236.4 443.53 Q2234.5 443.947 2232.35 443.947 Q2226.49 443.947 2223.04 440.266 Q2219.59 436.586 2219.59 430.336 Q2219.59 423.993 2223.06 420.359 Q2226.56 416.725 2232.62 416.725 Q2234.59 416.725 2236.47 417.142 Q2238.34 417.535 2240.1 418.345 Z" fill="#000000" fill-rule="nonzero" fill-opacity="1" /><path clip-path="url(#clip610)" d="M2251.72 409.989 L2251.72 417.35 L2260.49 417.35 L2260.49 420.66 L2251.72 420.66 L2251.72 434.734 Q2251.72 437.905 2252.58 438.808 Q2253.46 439.711 2256.12 439.711 L2260.49 439.711 L2260.49 443.276 L2256.12 443.276 Q2251.19 443.276 2249.31 441.447 Q2247.44 439.595 2247.44 434.734 L2247.44 420.66 L2244.31 420.66 L2244.31 417.35 L2247.44 417.35 L2247.44 409.989 L2251.72 409.989 Z" fill="#000000" fill-rule="nonzero" fill-opacity="1" /><polyline clip-path="url(#clip610)" style="stroke:#00a9ad; stroke-linecap:round; stroke-linejoin:round; stroke-width:4; stroke-opacity:1; fill:none" points="1734.2,477.836 1872.59,477.836 "/>
<path clip-path="url(#clip610)" d="M1803.4 499.193 L1788.3 492.935 L1782.04 477.836 L1788.3 462.736 L1803.4 456.479 L1818.5 462.736 L1824.75 477.836 L1818.5 492.935 Z" fill="#00a9ad" fill-rule="evenodd" fill-opacity="1" stroke="#000000" stroke-opacity="1" stroke-width="4.55111"/>
<path clip-path="url(#clip610)" d="M1923.53 463.218 L1923.53 468.148 Q1921.17 465.949 1918.48 464.861 Q1915.82 463.773 1912.81 463.773 Q1906.89 463.773 1903.74 467.408 Q1900.59 471.019 1900.59 477.87 Q1900.59 484.699 1903.74 488.333 Q1906.89 491.944 1912.81 491.944 Q1915.82 491.944 1918.48 490.856 Q1921.17 489.769 1923.53 487.569 L1923.53 492.454 Q1921.08 494.12 1918.32 494.954 Q1915.59 495.787 1912.53 495.787 Q1904.69 495.787 1900.17 490.995 Q1895.66 486.181 1895.66 477.87 Q1895.66 469.537 1900.17 464.746 Q1904.69 459.931 1912.53 459.931 Q1915.64 459.931 1918.37 460.764 Q1921.12 461.574 1923.53 463.218 Z" fill="#000000" fill-rule="nonzero" fill-opacity="1" /><path clip-path="url(#clip610)" d="M1925.96 460.556 L1955.2 460.556 L1955.2 464.491 L1942.93 464.491 L1942.93 495.116 L1938.23 495.116 L1938.23 464.491 L1925.96 464.491 L1925.96 460.556 Z" fill="#000000" fill-rule="nonzero" fill-opacity="1" /><path clip-path="url(#clip610)" d="M1954.08 460.556 L1983.32 460.556 L1983.32 464.491 L1971.05 464.491 L1971.05 495.116 L1966.35 495.116 L1966.35 464.491 L1954.08 464.491 L1954.08 460.556 Z" fill="#000000" fill-rule="nonzero" fill-opacity="1" /><path clip-path="url(#clip610)" d="M1987.83 460.556 L1994.13 460.556 L2009.45 489.468 L2009.45 460.556 L2013.99 460.556 L2013.99 495.116 L2007.69 495.116 L1992.37 466.204 L1992.37 495.116 L1987.83 495.116 L1987.83 460.556 Z" fill="#000000" fill-rule="nonzero" fill-opacity="1" /><path clip-path="url(#clip610)" d="M2042.81 502.986 L2042.81 506.296 L2018.18 506.296 L2018.18 502.986 L2042.81 502.986 Z" fill="#000000" fill-rule="nonzero" fill-opacity="1" /><path clip-path="url(#clip610)" d="M2063.34 469.954 L2063.34 473.982 Q2061.54 473.056 2059.59 472.593 Q2057.65 472.13 2055.57 472.13 Q2052.39 472.13 2050.8 473.102 Q2049.22 474.074 2049.22 476.019 Q2049.22 477.5 2050.36 478.357 Q2051.49 479.19 2054.92 479.954 L2056.38 480.278 Q2060.91 481.25 2062.81 483.032 Q2064.73 484.792 2064.73 487.963 Q2064.73 491.574 2061.86 493.681 Q2059.01 495.787 2054.01 495.787 Q2051.93 495.787 2049.66 495.37 Q2047.42 494.977 2044.92 494.167 L2044.92 489.769 Q2047.28 490.995 2049.57 491.62 Q2051.86 492.222 2054.11 492.222 Q2057.12 492.222 2058.74 491.204 Q2060.36 490.162 2060.36 488.287 Q2060.36 486.551 2059.18 485.625 Q2058.02 484.699 2054.06 483.843 L2052.58 483.495 Q2048.62 482.662 2046.86 480.949 Q2045.1 479.213 2045.1 476.204 Q2045.1 472.546 2047.69 470.556 Q2050.29 468.565 2055.06 468.565 Q2057.42 468.565 2059.5 468.912 Q2061.58 469.259 2063.34 469.954 Z" fill="#000000" fill-rule="nonzero" fill-opacity="1" /><path clip-path="url(#clip610)" d="M2075.73 461.829 L2075.73 469.19 L2084.5 469.19 L2084.5 472.5 L2075.73 472.5 L2075.73 486.574 Q2075.73 489.745 2076.58 490.648 Q2077.46 491.551 2080.13 491.551 L2084.5 491.551 L2084.5 495.116 L2080.13 495.116 Q2075.19 495.116 2073.32 493.287 Q2071.44 491.435 2071.44 486.574 L2071.44 472.5 L2068.32 472.5 L2068.32 469.19 L2071.44 469.19 L2071.44 461.829 L2075.73 461.829 Z" fill="#000000" fill-rule="nonzero" fill-opacity="1" /><path clip-path="url(#clip610)" d="M2105.13 473.171 Q2104.41 472.755 2103.55 472.57 Q2102.72 472.361 2101.7 472.361 Q2098.09 472.361 2096.14 474.722 Q2094.22 477.06 2094.22 481.458 L2094.22 495.116 L2089.94 495.116 L2089.94 469.19 L2094.22 469.19 L2094.22 473.218 Q2095.56 470.857 2097.72 469.722 Q2099.87 468.565 2102.95 468.565 Q2103.39 468.565 2103.92 468.634 Q2104.45 468.681 2105.1 468.796 L2105.13 473.171 Z" fill="#000000" fill-rule="nonzero" fill-opacity="1" /><path clip-path="url(#clip610)" d="M2109.15 484.884 L2109.15 469.19 L2113.41 469.19 L2113.41 484.722 Q2113.41 488.403 2114.85 490.255 Q2116.28 492.083 2119.15 492.083 Q2122.6 492.083 2124.59 489.884 Q2126.61 487.685 2126.61 483.889 L2126.61 469.19 L2130.87 469.19 L2130.87 495.116 L2126.61 495.116 L2126.61 491.134 Q2125.06 493.495 2123 494.653 Q2120.96 495.787 2118.25 495.787 Q2113.78 495.787 2111.47 493.009 Q2109.15 490.231 2109.15 484.884 M2119.87 468.565 L2119.87 468.565 Z" fill="#000000" fill-rule="nonzero" fill-opacity="1" /><path clip-path="url(#clip610)" d="M2158.3 470.185 L2158.3 474.167 Q2156.49 473.171 2154.66 472.685 Q2152.86 472.176 2151 472.176 Q2146.86 472.176 2144.57 474.815 Q2142.28 477.431 2142.28 482.176 Q2142.28 486.921 2144.57 489.56 Q2146.86 492.176 2151 492.176 Q2152.86 492.176 2154.66 491.69 Q2156.49 491.181 2158.3 490.185 L2158.3 494.12 Q2156.51 494.954 2154.59 495.37 Q2152.69 495.787 2150.54 495.787 Q2144.68 495.787 2141.24 492.106 Q2137.79 488.426 2137.79 482.176 Q2137.79 475.833 2141.26 472.199 Q2144.75 468.565 2150.82 468.565 Q2152.79 468.565 2154.66 468.982 Q2156.54 469.375 2158.3 470.185 Z" fill="#000000" fill-rule="nonzero" fill-opacity="1" /><path clip-path="url(#clip610)" d="M2169.92 461.829 L2169.92 469.19 L2178.69 469.19 L2178.69 472.5 L2169.92 472.5 L2169.92 486.574 Q2169.92 489.745 2170.77 490.648 Q2171.65 491.551 2174.31 491.551 L2178.69 491.551 L2178.69 495.116 L2174.31 495.116 Q2169.38 495.116 2167.51 493.287 Q2165.63 491.435 2165.63 486.574 L2165.63 472.5 L2162.51 472.5 L2162.51 469.19 L2165.63 469.19 L2165.63 461.829 L2169.92 461.829 Z" fill="#000000" fill-rule="nonzero" fill-opacity="1" /></svg>
