<?xml version="1.0" encoding="utf-8"?>
<svg xmlns="http://www.w3.org/2000/svg" xmlns:xlink="http://www.w3.org/1999/xlink" width="600" height="400" viewBox="0 0 2400 1600">
<defs>
  <clipPath id="clip070">
    <rect x="0" y="0" width="2400" height="1600"/>
  </clipPath>
</defs>
<path clip-path="url(#clip070)" d="M0 1600 L2400 1600 L2400 8.88178e-14 L0 8.88178e-14  Z" fill="#ffffff" fill-rule="evenodd" fill-opacity="1"/>
<defs>
  <clipPath id="clip071">
    <rect x="480" y="0" width="1681" height="1600"/>
  </clipPath>
</defs>
<path clip-path="url(#clip070)" d="M251.56 1423.18 L2352.76 1423.18 L2352.76 47.2441 L251.56 47.2441  Z" fill="#ffffff" fill-rule="evenodd" fill-opacity="1"/>
<defs>
  <clipPath id="clip072">
    <rect x="251" y="47" width="2102" height="1377"/>
  </clipPath>
</defs>
<polyline clip-path="url(#clip072)" style="stroke:#000000; stroke-linecap:round; stroke-linejoin:round; stroke-width:2; stroke-opacity:0.1; fill:none" points="624.016,1423.18 624.016,47.2441 "/>
<polyline clip-path="url(#clip072)" style="stroke:#000000; stroke-linecap:round; stroke-linejoin:round; stroke-width:2; stroke-opacity:0.1; fill:none" points="1041.33,1423.18 1041.33,47.2441 "/>
<polyline clip-path="url(#clip072)" style="stroke:#000000; stroke-linecap:round; stroke-linejoin:round; stroke-width:2; stroke-opacity:0.1; fill:none" points="1458.65,1423.18 1458.65,47.2441 "/>
<polyline clip-path="url(#clip072)" style="stroke:#000000; stroke-linecap:round; stroke-linejoin:round; stroke-width:2; stroke-opacity:0.1; fill:none" points="1875.97,1423.18 1875.97,47.2441 "/>
<polyline clip-path="url(#clip072)" style="stroke:#000000; stroke-linecap:round; stroke-linejoin:round; stroke-width:2; stroke-opacity:0.1; fill:none" points="2293.29,1423.18 2293.29,47.2441 "/>
<polyline clip-path="url(#clip072)" style="stroke:#000000; stroke-linecap:round; stroke-linejoin:round; stroke-width:2; stroke-opacity:0.1; fill:none" points="251.56,999.066 2352.76,999.066 "/>
<polyline clip-path="url(#clip072)" style="stroke:#000000; stroke-linecap:round; stroke-linejoin:round; stroke-width:2; stroke-opacity:0.1; fill:none" points="251.56,177.913 2352.76,177.913 "/>
<polyline clip-path="url(#clip070)" style="stroke:#000000; stroke-linecap:round; stroke-linejoin:round; stroke-width:4; stroke-opacity:1; fill:none" points="251.56,1423.18 2352.76,1423.18 "/>
<polyline clip-path="url(#clip070)" style="stroke:#000000; stroke-linecap:round; stroke-linejoin:round; stroke-width:4; stroke-opacity:1; fill:none" points="624.016,1423.18 624.016,1404.28 "/>
<polyline clip-path="url(#clip070)" style="stroke:#000000; stroke-linecap:round; stroke-linejoin:round; stroke-width:4; stroke-opacity:1; fill:none" points="1041.33,1423.18 1041.33,1404.28 "/>
<polyline clip-path="url(#clip070)" style="stroke:#000000; stroke-linecap:round; stroke-linejoin:round; stroke-width:4; stroke-opacity:1; fill:none" points="1458.65,1423.18 1458.65,1404.28 "/>
<polyline clip-path="url(#clip070)" style="stroke:#000000; stroke-linecap:round; stroke-linejoin:round; stroke-width:4; stroke-opacity:1; fill:none" points="1875.97,1423.18 1875.97,1404.28 "/>
<polyline clip-path="url(#clip070)" style="stroke:#000000; stroke-linecap:round; stroke-linejoin:round; stroke-width:4; stroke-opacity:1; fill:none" points="2293.29,1423.18 2293.29,1404.28 "/>
<path clip-path="url(#clip070)" d="M602.79 1481.64 L619.109 1481.64 L619.109 1485.58 L597.165 1485.58 L597.165 1481.64 Q599.827 1478.89 604.41 1474.26 Q609.017 1469.61 610.197 1468.27 Q612.442 1465.74 613.322 1464.01 Q614.225 1462.25 614.225 1460.56 Q614.225 1457.8 612.28 1456.07 Q610.359 1454.33 607.257 1454.33 Q605.058 1454.33 602.605 1455.09 Q600.174 1455.86 597.396 1457.41 L597.396 1452.69 Q600.22 1451.55 602.674 1450.97 Q605.128 1450.39 607.165 1450.39 Q612.535 1450.39 615.729 1453.08 Q618.924 1455.77 618.924 1460.26 Q618.924 1462.39 618.114 1464.31 Q617.327 1466.2 615.22 1468.8 Q614.642 1469.47 611.54 1472.69 Q608.438 1475.88 602.79 1481.64 Z" fill="#000000" fill-rule="nonzero" fill-opacity="1" /><path clip-path="url(#clip070)" d="M638.924 1454.1 Q635.313 1454.1 633.484 1457.66 Q631.678 1461.2 631.678 1468.33 Q631.678 1475.44 633.484 1479.01 Q635.313 1482.55 638.924 1482.55 Q642.558 1482.55 644.364 1479.01 Q646.192 1475.44 646.192 1468.33 Q646.192 1461.2 644.364 1457.66 Q642.558 1454.1 638.924 1454.1 M638.924 1450.39 Q644.734 1450.39 647.79 1455 Q650.868 1459.58 650.868 1468.33 Q650.868 1477.06 647.79 1481.67 Q644.734 1486.25 638.924 1486.25 Q633.114 1486.25 630.035 1481.67 Q626.979 1477.06 626.979 1468.33 Q626.979 1459.58 630.035 1455 Q633.114 1450.39 638.924 1450.39 Z" fill="#000000" fill-rule="nonzero" fill-opacity="1" /><path clip-path="url(#clip070)" d="M1029.51 1455.09 L1017.7 1473.54 L1029.51 1473.54 L1029.51 1455.09 M1028.28 1451.02 L1034.16 1451.02 L1034.16 1473.54 L1039.09 1473.54 L1039.09 1477.43 L1034.16 1477.43 L1034.16 1485.58 L1029.51 1485.58 L1029.51 1477.43 L1013.9 1477.43 L1013.9 1472.92 L1028.28 1451.02 Z" fill="#000000" fill-rule="nonzero" fill-opacity="1" /><path clip-path="url(#clip070)" d="M1056.82 1454.1 Q1053.21 1454.1 1051.38 1457.66 Q1049.58 1461.2 1049.58 1468.33 Q1049.58 1475.44 1051.38 1479.01 Q1053.21 1482.55 1056.82 1482.55 Q1060.45 1482.55 1062.26 1479.01 Q1064.09 1475.44 1064.09 1468.33 Q1064.09 1461.2 1062.26 1457.66 Q1060.45 1454.1 1056.82 1454.1 M1056.82 1450.39 Q1062.63 1450.39 1065.69 1455 Q1068.76 1459.58 1068.76 1468.33 Q1068.76 1477.06 1065.69 1481.67 Q1062.63 1486.25 1056.82 1486.25 Q1051.01 1486.25 1047.93 1481.67 Q1044.88 1477.06 1044.88 1468.33 Q1044.88 1459.58 1047.93 1455 Q1051.01 1450.39 1056.82 1450.39 Z" fill="#000000" fill-rule="nonzero" fill-opacity="1" /><path clip-path="url(#clip070)" d="M1444.06 1466.44 Q1440.91 1466.44 1439.06 1468.59 Q1437.23 1470.74 1437.23 1474.49 Q1437.23 1478.22 1439.06 1480.39 Q1440.91 1482.55 1444.06 1482.55 Q1447.21 1482.55 1449.03 1480.39 Q1450.89 1478.22 1450.89 1474.49 Q1450.89 1470.74 1449.03 1468.59 Q1447.21 1466.44 1444.06 1466.44 M1453.34 1451.78 L1453.34 1456.04 Q1451.58 1455.21 1449.78 1454.77 Q1447.99 1454.33 1446.23 1454.33 Q1441.6 1454.33 1439.15 1457.45 Q1436.72 1460.58 1436.37 1466.9 Q1437.74 1464.89 1439.8 1463.82 Q1441.86 1462.73 1444.34 1462.73 Q1449.54 1462.73 1452.55 1465.9 Q1455.59 1469.05 1455.59 1474.49 Q1455.59 1479.82 1452.44 1483.03 Q1449.29 1486.25 1444.06 1486.25 Q1438.06 1486.25 1434.89 1481.67 Q1431.72 1477.06 1431.72 1468.33 Q1431.72 1460.14 1435.61 1455.28 Q1439.5 1450.39 1446.05 1450.39 Q1447.81 1450.39 1449.59 1450.74 Q1451.4 1451.09 1453.34 1451.78 Z" fill="#000000" fill-rule="nonzero" fill-opacity="1" /><path clip-path="url(#clip070)" d="M1473.64 1454.1 Q1470.03 1454.1 1468.2 1457.66 Q1466.4 1461.2 1466.4 1468.33 Q1466.4 1475.44 1468.2 1479.01 Q1470.03 1482.55 1473.64 1482.55 Q1477.27 1482.55 1479.08 1479.01 Q1480.91 1475.44 1480.91 1468.33 Q1480.91 1461.2 1479.08 1457.66 Q1477.27 1454.1 1473.64 1454.1 M1473.64 1450.39 Q1479.45 1450.39 1482.51 1455 Q1485.59 1459.58 1485.59 1468.33 Q1485.59 1477.06 1482.51 1481.67 Q1479.45 1486.25 1473.64 1486.25 Q1467.83 1486.25 1464.75 1481.67 Q1461.7 1477.06 1461.7 1468.33 Q1461.7 1459.58 1464.75 1455 Q1467.83 1450.39 1473.64 1450.39 Z" fill="#000000" fill-rule="nonzero" fill-opacity="1" /><path clip-path="url(#clip070)" d="M1860.84 1469.17 Q1857.51 1469.17 1855.59 1470.95 Q1853.69 1472.73 1853.69 1475.86 Q1853.69 1478.98 1855.59 1480.77 Q1857.51 1482.55 1860.84 1482.55 Q1864.18 1482.55 1866.1 1480.77 Q1868.02 1478.96 1868.02 1475.86 Q1868.02 1472.73 1866.1 1470.95 Q1864.2 1469.17 1860.84 1469.17 M1856.17 1467.18 Q1853.16 1466.44 1851.47 1464.38 Q1849.8 1462.32 1849.8 1459.35 Q1849.8 1455.21 1852.74 1452.8 Q1855.7 1450.39 1860.84 1450.39 Q1866 1450.39 1868.94 1452.8 Q1871.88 1455.21 1871.88 1459.35 Q1871.88 1462.32 1870.19 1464.38 Q1868.53 1466.44 1865.54 1467.18 Q1868.92 1467.96 1870.8 1470.26 Q1872.69 1472.55 1872.69 1475.86 Q1872.69 1480.88 1869.62 1483.57 Q1866.56 1486.25 1860.84 1486.25 Q1855.13 1486.25 1852.05 1483.57 Q1848.99 1480.88 1848.99 1475.86 Q1848.99 1472.55 1850.89 1470.26 Q1852.79 1467.96 1856.17 1467.18 M1854.45 1459.79 Q1854.45 1462.48 1856.12 1463.98 Q1857.81 1465.49 1860.84 1465.49 Q1863.85 1465.49 1865.54 1463.98 Q1867.25 1462.48 1867.25 1459.79 Q1867.25 1457.11 1865.54 1455.6 Q1863.85 1454.1 1860.84 1454.1 Q1857.81 1454.1 1856.12 1455.6 Q1854.45 1457.11 1854.45 1459.79 Z" fill="#000000" fill-rule="nonzero" fill-opacity="1" /><path clip-path="url(#clip070)" d="M1891 1454.1 Q1887.39 1454.1 1885.57 1457.66 Q1883.76 1461.2 1883.76 1468.33 Q1883.76 1475.44 1885.57 1479.01 Q1887.39 1482.55 1891 1482.55 Q1894.64 1482.55 1896.44 1479.01 Q1898.27 1475.44 1898.27 1468.33 Q1898.27 1461.2 1896.44 1457.66 Q1894.64 1454.1 1891 1454.1 M1891 1450.39 Q1896.81 1450.39 1899.87 1455 Q1902.95 1459.58 1902.95 1468.33 Q1902.95 1477.06 1899.87 1481.67 Q1896.81 1486.25 1891 1486.25 Q1885.19 1486.25 1882.12 1481.67 Q1879.06 1477.06 1879.06 1468.33 Q1879.06 1459.58 1882.12 1455 Q1885.19 1450.39 1891 1450.39 Z" fill="#000000" fill-rule="nonzero" fill-opacity="1" /><path clip-path="url(#clip070)" d="M2252.89 1481.64 L2260.53 1481.64 L2260.53 1455.28 L2252.22 1456.95 L2252.22 1452.69 L2260.49 1451.02 L2265.16 1451.02 L2265.16 1481.64 L2272.8 1481.64 L2272.8 1485.58 L2252.89 1485.58 L2252.89 1481.64 Z" fill="#000000" fill-rule="nonzero" fill-opacity="1" /><path clip-path="url(#clip070)" d="M2292.25 1454.1 Q2288.64 1454.1 2286.81 1457.66 Q2285 1461.2 2285 1468.33 Q2285 1475.44 2286.81 1479.01 Q2288.64 1482.55 2292.25 1482.55 Q2295.88 1482.55 2297.69 1479.01 Q2299.51 1475.44 2299.51 1468.33 Q2299.51 1461.2 2297.69 1457.66 Q2295.88 1454.1 2292.25 1454.1 M2292.25 1450.39 Q2298.06 1450.39 2301.11 1455 Q2304.19 1459.58 2304.19 1468.33 Q2304.19 1477.06 2301.11 1481.67 Q2298.06 1486.25 2292.25 1486.25 Q2286.44 1486.25 2283.36 1481.67 Q2280.3 1477.06 2280.3 1468.33 Q2280.3 1459.58 2283.36 1455 Q2286.44 1450.39 2292.25 1450.39 Z" fill="#000000" fill-rule="nonzero" fill-opacity="1" /><path clip-path="url(#clip070)" d="M2322.41 1454.1 Q2318.8 1454.1 2316.97 1457.66 Q2315.16 1461.2 2315.16 1468.33 Q2315.16 1475.44 2316.97 1479.01 Q2318.8 1482.55 2322.41 1482.55 Q2326.04 1482.55 2327.85 1479.01 Q2329.68 1475.44 2329.68 1468.33 Q2329.68 1461.2 2327.85 1457.66 Q2326.04 1454.1 2322.41 1454.1 M2322.41 1450.39 Q2328.22 1450.39 2331.27 1455 Q2334.35 1459.58 2334.35 1468.33 Q2334.35 1477.06 2331.27 1481.67 Q2328.22 1486.25 2322.41 1486.25 Q2316.6 1486.25 2313.52 1481.67 Q2310.46 1477.06 2310.46 1468.33 Q2310.46 1459.58 2313.52 1455 Q2316.6 1450.39 2322.41 1450.39 Z" fill="#000000" fill-rule="nonzero" fill-opacity="1" /><path clip-path="url(#clip070)" d="M969.216 1520.52 L978.796 1520.52 L990.923 1552.86 L1003.11 1520.52 L1012.69 1520.52 L1012.69 1568.04 L1006.42 1568.04 L1006.42 1526.32 L994.169 1558.91 L987.708 1558.91 L975.454 1526.32 L975.454 1568.04 L969.216 1568.04 L969.216 1520.52 Z" fill="#000000" fill-rule="nonzero" fill-opacity="1" /><path clip-path="url(#clip070)" d="M1041.4 1550.12 Q1034.31 1550.12 1031.57 1551.75 Q1028.83 1553.37 1028.83 1557.29 Q1028.83 1560.4 1030.87 1562.25 Q1032.94 1564.07 1036.47 1564.07 Q1041.34 1564.07 1044.27 1560.63 Q1047.23 1557.16 1047.23 1551.43 L1047.23 1550.12 L1041.4 1550.12 M1053.08 1547.71 L1053.08 1568.04 L1047.23 1568.04 L1047.23 1562.63 Q1045.22 1565.88 1042.23 1567.44 Q1039.24 1568.97 1034.91 1568.97 Q1029.44 1568.97 1026.19 1565.91 Q1022.97 1562.82 1022.97 1557.67 Q1022.97 1551.65 1026.98 1548.6 Q1031.03 1545.54 1039.02 1545.54 L1047.23 1545.54 L1047.23 1544.97 Q1047.23 1540.93 1044.55 1538.73 Q1041.91 1536.5 1037.11 1536.5 Q1034.05 1536.5 1031.15 1537.23 Q1028.26 1537.97 1025.58 1539.43 L1025.58 1534.02 Q1028.8 1532.78 1031.82 1532.17 Q1034.85 1531.54 1037.71 1531.54 Q1045.45 1531.54 1049.26 1535.55 Q1053.08 1539.56 1053.08 1547.71 Z" fill="#000000" fill-rule="nonzero" fill-opacity="1" /><path clip-path="url(#clip070)" d="M1094.78 1532.4 L1081.89 1549.74 L1095.45 1568.04 L1088.54 1568.04 L1078.16 1554.04 L1067.79 1568.04 L1060.88 1568.04 L1074.73 1549.39 L1062.06 1532.4 L1068.97 1532.4 L1078.42 1545.1 L1087.87 1532.4 L1094.78 1532.4 Z" fill="#000000" fill-rule="nonzero" fill-opacity="1" /><path clip-path="url(#clip070)" d="M1150.03 1550.25 Q1150.03 1543.79 1147.36 1540.13 Q1144.72 1536.44 1140.07 1536.44 Q1135.42 1536.44 1132.75 1540.13 Q1130.11 1543.79 1130.11 1550.25 Q1130.11 1556.71 1132.75 1560.4 Q1135.42 1564.07 1140.07 1564.07 Q1144.72 1564.07 1147.36 1560.4 Q1150.03 1556.71 1150.03 1550.25 M1130.11 1537.81 Q1131.95 1534.62 1134.76 1533.1 Q1137.59 1531.54 1141.5 1531.54 Q1148 1531.54 1152.04 1536.69 Q1156.11 1541.85 1156.11 1550.25 Q1156.11 1558.65 1152.04 1563.81 Q1148 1568.97 1141.5 1568.97 Q1137.59 1568.97 1134.76 1567.44 Q1131.95 1565.88 1130.11 1562.7 L1130.11 1568.04 L1124.22 1568.04 L1124.22 1518.52 L1130.11 1518.52 L1130.11 1537.81 Z" fill="#000000" fill-rule="nonzero" fill-opacity="1" /><path clip-path="url(#clip070)" d="M1179.63 1536.5 Q1174.92 1536.5 1172.19 1540.19 Q1169.45 1543.85 1169.45 1550.25 Q1169.45 1556.65 1172.15 1560.34 Q1174.89 1564 1179.63 1564 Q1184.31 1564 1187.05 1560.31 Q1189.79 1556.62 1189.79 1550.25 Q1189.79 1543.92 1187.05 1540.23 Q1184.31 1536.5 1179.63 1536.5 M1179.63 1531.54 Q1187.27 1531.54 1191.63 1536.5 Q1195.99 1541.47 1195.99 1550.25 Q1195.99 1559 1191.63 1564 Q1187.27 1568.97 1179.63 1568.97 Q1171.96 1568.97 1167.6 1564 Q1163.27 1559 1163.27 1550.25 Q1163.27 1541.47 1167.6 1536.5 Q1171.96 1531.54 1179.63 1531.54 Z" fill="#000000" fill-rule="nonzero" fill-opacity="1" /><path clip-path="url(#clip070)" d="M1235.33 1546.53 L1235.33 1568.04 L1229.48 1568.04 L1229.48 1546.72 Q1229.48 1541.66 1227.5 1539.14 Q1225.53 1536.63 1221.58 1536.63 Q1216.84 1536.63 1214.1 1539.65 Q1211.37 1542.68 1211.37 1547.9 L1211.37 1568.04 L1205.48 1568.04 L1205.48 1532.4 L1211.37 1532.4 L1211.37 1537.93 Q1213.47 1534.72 1216.3 1533.13 Q1219.17 1531.54 1222.89 1531.54 Q1229.03 1531.54 1232.18 1535.36 Q1235.33 1539.14 1235.33 1546.53 Z" fill="#000000" fill-rule="nonzero" fill-opacity="1" /><path clip-path="url(#clip070)" d="M1270.47 1537.81 L1270.47 1518.52 L1276.33 1518.52 L1276.33 1568.04 L1270.47 1568.04 L1270.47 1562.7 Q1268.63 1565.88 1265.79 1567.44 Q1262.99 1568.97 1259.05 1568.97 Q1252.59 1568.97 1248.51 1563.81 Q1244.47 1558.65 1244.47 1550.25 Q1244.47 1541.85 1248.51 1536.69 Q1252.59 1531.54 1259.05 1531.54 Q1262.99 1531.54 1265.79 1533.1 Q1268.63 1534.62 1270.47 1537.81 M1250.52 1550.25 Q1250.52 1556.71 1253.16 1560.4 Q1255.83 1564.07 1260.48 1564.07 Q1265.13 1564.07 1267.8 1560.4 Q1270.47 1556.71 1270.47 1550.25 Q1270.47 1543.79 1267.8 1540.13 Q1265.13 1536.44 1260.48 1536.44 Q1255.83 1536.44 1253.16 1540.13 Q1250.52 1543.79 1250.52 1550.25 Z" fill="#000000" fill-rule="nonzero" fill-opacity="1" /><path clip-path="url(#clip070)" d="M1332.57 1537.81 L1332.57 1518.52 L1338.43 1518.52 L1338.43 1568.04 L1332.57 1568.04 L1332.57 1562.7 Q1330.72 1565.88 1327.89 1567.44 Q1325.09 1568.97 1321.14 1568.97 Q1314.68 1568.97 1310.61 1563.81 Q1306.57 1558.65 1306.57 1550.25 Q1306.57 1541.85 1310.61 1536.69 Q1314.68 1531.54 1321.14 1531.54 Q1325.09 1531.54 1327.89 1533.1 Q1330.72 1534.62 1332.57 1537.81 M1312.61 1550.25 Q1312.61 1556.71 1315.26 1560.4 Q1317.93 1564.07 1322.58 1564.07 Q1327.22 1564.07 1329.9 1560.4 Q1332.57 1556.71 1332.57 1550.25 Q1332.57 1543.79 1329.9 1540.13 Q1327.22 1536.44 1322.58 1536.44 Q1317.93 1536.44 1315.26 1540.13 Q1312.61 1543.79 1312.61 1550.25 Z" fill="#000000" fill-rule="nonzero" fill-opacity="1" /><path clip-path="url(#clip070)" d="M1350.49 1532.4 L1356.35 1532.4 L1356.35 1568.04 L1350.49 1568.04 L1350.49 1532.4 M1350.49 1518.52 L1356.35 1518.52 L1356.35 1525.93 L1350.49 1525.93 L1350.49 1518.52 Z" fill="#000000" fill-rule="nonzero" fill-opacity="1" /><path clip-path="url(#clip070)" d="M1396.35 1539.24 Q1398.55 1535.29 1401.61 1533.41 Q1404.66 1531.54 1408.8 1531.54 Q1414.37 1531.54 1417.39 1535.45 Q1420.42 1539.33 1420.42 1546.53 L1420.42 1568.04 L1414.53 1568.04 L1414.53 1546.72 Q1414.53 1541.59 1412.71 1539.11 Q1410.9 1536.63 1407.18 1536.63 Q1402.62 1536.63 1399.98 1539.65 Q1397.34 1542.68 1397.34 1547.9 L1397.34 1568.04 L1391.45 1568.04 L1391.45 1546.72 Q1391.45 1541.56 1389.64 1539.11 Q1387.82 1536.63 1384.04 1536.63 Q1379.55 1536.63 1376.91 1539.68 Q1374.27 1542.71 1374.27 1547.9 L1374.27 1568.04 L1368.38 1568.04 L1368.38 1532.4 L1374.27 1532.4 L1374.27 1537.93 Q1376.27 1534.66 1379.07 1533.1 Q1381.87 1531.54 1385.72 1531.54 Q1389.61 1531.54 1392.31 1533.51 Q1395.05 1535.48 1396.35 1539.24 Z" fill="#000000" fill-rule="nonzero" fill-opacity="1" /><path clip-path="url(#clip070)" d="M1462.59 1548.76 L1462.59 1551.62 L1435.66 1551.62 Q1436.04 1557.67 1439.29 1560.85 Q1442.57 1564 1448.39 1564 Q1451.77 1564 1454.92 1563.17 Q1458.1 1562.35 1461.22 1560.69 L1461.22 1566.23 Q1458.07 1567.57 1454.76 1568.27 Q1451.45 1568.97 1448.04 1568.97 Q1439.51 1568.97 1434.52 1564 Q1429.55 1559.04 1429.55 1550.57 Q1429.55 1541.82 1434.26 1536.69 Q1439 1531.54 1447.03 1531.54 Q1454.22 1531.54 1458.39 1536.18 Q1462.59 1540.8 1462.59 1548.76 M1456.73 1547.04 Q1456.67 1542.23 1454.03 1539.37 Q1451.42 1536.5 1447.09 1536.5 Q1442.19 1536.5 1439.23 1539.27 Q1436.3 1542.04 1435.85 1547.07 L1456.73 1547.04 Z" fill="#000000" fill-rule="nonzero" fill-opacity="1" /><path clip-path="url(#clip070)" d="M1501.83 1546.53 L1501.83 1568.04 L1495.98 1568.04 L1495.98 1546.72 Q1495.98 1541.66 1494 1539.14 Q1492.03 1536.63 1488.08 1536.63 Q1483.34 1536.63 1480.6 1539.65 Q1477.87 1542.68 1477.87 1547.9 L1477.87 1568.04 L1471.98 1568.04 L1471.98 1532.4 L1477.87 1532.4 L1477.87 1537.93 Q1479.97 1534.72 1482.8 1533.13 Q1485.67 1531.54 1489.39 1531.54 Q1495.53 1531.54 1498.68 1535.36 Q1501.83 1539.14 1501.83 1546.53 Z" fill="#000000" fill-rule="nonzero" fill-opacity="1" /><path clip-path="url(#clip070)" d="M1536.24 1533.45 L1536.24 1538.98 Q1533.76 1537.71 1531.08 1537.07 Q1528.41 1536.44 1525.55 1536.44 Q1521.19 1536.44 1518.99 1537.77 Q1516.83 1539.11 1516.83 1541.79 Q1516.83 1543.82 1518.39 1545 Q1519.94 1546.15 1524.66 1547.2 L1526.66 1547.64 Q1532.9 1548.98 1535.51 1551.43 Q1538.15 1553.85 1538.15 1558.21 Q1538.15 1563.17 1534.2 1566.07 Q1530.29 1568.97 1523.41 1568.97 Q1520.55 1568.97 1517.43 1568.39 Q1514.34 1567.85 1510.91 1566.74 L1510.91 1560.69 Q1514.15 1562.38 1517.3 1563.24 Q1520.45 1564.07 1523.54 1564.07 Q1527.68 1564.07 1529.91 1562.66 Q1532.14 1561.23 1532.14 1558.65 Q1532.14 1556.27 1530.51 1554.99 Q1528.92 1553.72 1523.48 1552.54 L1521.44 1552.07 Q1516 1550.92 1513.58 1548.56 Q1511.16 1546.18 1511.16 1542.04 Q1511.16 1537.01 1514.72 1534.27 Q1518.29 1531.54 1524.85 1531.54 Q1528.09 1531.54 1530.96 1532.01 Q1533.82 1532.49 1536.24 1533.45 Z" fill="#000000" fill-rule="nonzero" fill-opacity="1" /><path clip-path="url(#clip070)" d="M1547.48 1532.4 L1553.33 1532.4 L1553.33 1568.04 L1547.48 1568.04 L1547.48 1532.4 M1547.48 1518.52 L1553.33 1518.52 L1553.33 1525.93 L1547.48 1525.93 L1547.48 1518.52 Z" fill="#000000" fill-rule="nonzero" fill-opacity="1" /><path clip-path="url(#clip070)" d="M1579.4 1536.5 Q1574.69 1536.5 1571.95 1540.19 Q1569.22 1543.85 1569.22 1550.25 Q1569.22 1556.65 1571.92 1560.34 Q1574.66 1564 1579.4 1564 Q1584.08 1564 1586.82 1560.31 Q1589.55 1556.62 1589.55 1550.25 Q1589.55 1543.92 1586.82 1540.23 Q1584.08 1536.5 1579.4 1536.5 M1579.4 1531.54 Q1587.04 1531.54 1591.4 1536.5 Q1595.76 1541.47 1595.76 1550.25 Q1595.76 1559 1591.4 1564 Q1587.04 1568.97 1579.4 1568.97 Q1571.73 1568.97 1567.37 1564 Q1563.04 1559 1563.04 1550.25 Q1563.04 1541.47 1567.37 1536.5 Q1571.73 1531.54 1579.4 1531.54 Z" fill="#000000" fill-rule="nonzero" fill-opacity="1" /><path clip-path="url(#clip070)" d="M1635.1 1546.53 L1635.1 1568.04 L1629.24 1568.04 L1629.24 1546.72 Q1629.24 1541.66 1627.27 1539.14 Q1625.3 1536.63 1621.35 1536.63 Q1616.61 1536.63 1613.87 1539.65 Q1611.13 1542.68 1611.13 1547.9 L1611.13 1568.04 L1605.25 1568.04 L1605.25 1532.4 L1611.13 1532.4 L1611.13 1537.93 Q1613.23 1534.72 1616.07 1533.13 Q1618.93 1531.54 1622.66 1531.54 Q1628.8 1531.54 1631.95 1535.36 Q1635.1 1539.14 1635.1 1546.53 Z" fill="#000000" fill-rule="nonzero" fill-opacity="1" /><polyline clip-path="url(#clip070)" style="stroke:#000000; stroke-linecap:round; stroke-linejoin:round; stroke-width:4; stroke-opacity:1; fill:none" points="251.56,1423.18 251.56,47.2441 "/>
<polyline clip-path="url(#clip070)" style="stroke:#000000; stroke-linecap:round; stroke-linejoin:round; stroke-width:4; stroke-opacity:1; fill:none" points="251.56,999.066 270.458,999.066 "/>
<polyline clip-path="url(#clip070)" style="stroke:#000000; stroke-linecap:round; stroke-linejoin:round; stroke-width:4; stroke-opacity:1; fill:none" points="251.56,177.913 270.458,177.913 "/>
<path clip-path="url(#clip070)" d="M114.931 1018.86 L122.57 1018.86 L122.57 992.493 L114.26 994.159 L114.26 989.9 L122.524 988.234 L127.2 988.234 L127.2 1018.86 L134.839 1018.86 L134.839 1022.79 L114.931 1022.79 L114.931 1018.86 Z" fill="#000000" fill-rule="nonzero" fill-opacity="1" /><path clip-path="url(#clip070)" d="M154.283 991.312 Q150.672 991.312 148.843 994.877 Q147.038 998.419 147.038 1005.55 Q147.038 1012.65 148.843 1016.22 Q150.672 1019.76 154.283 1019.76 Q157.917 1019.76 159.723 1016.22 Q161.552 1012.65 161.552 1005.55 Q161.552 998.419 159.723 994.877 Q157.917 991.312 154.283 991.312 M154.283 987.609 Q160.093 987.609 163.149 992.215 Q166.227 996.798 166.227 1005.55 Q166.227 1014.28 163.149 1018.88 Q160.093 1023.46 154.283 1023.46 Q148.473 1023.46 145.394 1018.88 Q142.339 1014.28 142.339 1005.55 Q142.339 996.798 145.394 992.215 Q148.473 987.609 154.283 987.609 Z" fill="#000000" fill-rule="nonzero" fill-opacity="1" /><path clip-path="url(#clip070)" d="M166.227 981.71 L190.339 981.71 L190.339 984.907 L166.227 984.907 L166.227 981.71 Z" fill="#000000" fill-rule="nonzero" fill-opacity="1" /><path clip-path="url(#clip070)" d="M198.577 967.303 L213.491 967.303 L213.491 970.5 L202.056 970.5 L202.056 977.384 Q202.884 977.102 203.711 976.97 Q204.539 976.82 205.366 976.82 Q210.068 976.82 212.814 979.397 Q215.56 981.973 215.56 986.374 Q215.56 990.907 212.739 993.427 Q209.918 995.929 204.783 995.929 Q203.015 995.929 201.172 995.628 Q199.348 995.327 197.392 994.725 L197.392 990.907 Q199.085 991.828 200.89 992.28 Q202.696 992.731 204.708 992.731 Q207.962 992.731 209.861 991.02 Q211.761 989.308 211.761 986.374 Q211.761 983.44 209.861 981.729 Q207.962 980.017 204.708 980.017 Q203.185 980.017 201.661 980.356 Q200.157 980.694 198.577 981.409 L198.577 967.303 Z" fill="#000000" fill-rule="nonzero" fill-opacity="1" /><path clip-path="url(#clip070)" d="M144.855 197.706 L152.493 197.706 L152.493 171.34 L144.183 173.007 L144.183 168.748 L152.447 167.081 L157.123 167.081 L157.123 197.706 L164.762 197.706 L164.762 201.641 L144.855 201.641 L144.855 197.706 Z" fill="#000000" fill-rule="nonzero" fill-opacity="1" /><path clip-path="url(#clip070)" d="M184.206 170.16 Q180.595 170.16 178.766 173.725 Q176.961 177.266 176.961 184.396 Q176.961 191.502 178.766 195.067 Q180.595 198.609 184.206 198.609 Q187.84 198.609 189.646 195.067 Q191.475 191.502 191.475 184.396 Q191.475 177.266 189.646 173.725 Q187.84 170.16 184.206 170.16 M184.206 166.456 Q190.016 166.456 193.072 171.062 Q196.151 175.646 196.151 184.396 Q196.151 193.123 193.072 197.729 Q190.016 202.312 184.206 202.312 Q178.396 202.312 175.317 197.729 Q172.262 193.123 172.262 184.396 Q172.262 175.646 175.317 171.062 Q178.396 166.456 184.206 166.456 Z" fill="#000000" fill-rule="nonzero" fill-opacity="1" /><path clip-path="url(#clip070)" d="M205.855 148.652 Q202.921 148.652 201.436 151.548 Q199.969 154.426 199.969 160.219 Q199.969 165.993 201.436 168.889 Q202.921 171.767 205.855 171.767 Q208.808 171.767 210.275 168.889 Q211.761 165.993 211.761 160.219 Q211.761 154.426 210.275 151.548 Q208.808 148.652 205.855 148.652 M205.855 145.643 Q210.576 145.643 213.059 149.386 Q215.56 153.11 215.56 160.219 Q215.56 167.309 213.059 171.052 Q210.576 174.776 205.855 174.776 Q201.135 174.776 198.633 171.052 Q196.151 167.309 196.151 160.219 Q196.151 153.11 198.633 149.386 Q201.135 145.643 205.855 145.643 Z" fill="#000000" fill-rule="nonzero" fill-opacity="1" /><path clip-path="url(#clip070)" d="M18.0438 984.429 L24.314 984.429 Q22.5634 988.09 21.704 991.336 Q20.8447 994.583 20.8447 997.606 Q20.8447 1002.86 22.8817 1005.72 Q24.9187 1008.56 28.6745 1008.56 Q31.8255 1008.56 33.4488 1006.68 Q35.0402 1004.77 36.0269 999.484 L36.8226 995.601 Q38.1912 988.408 41.6605 985.002 Q45.098 981.565 50.8908 981.565 Q57.7976 981.565 61.3624 986.212 Q64.9272 990.827 64.9272 999.771 Q64.9272 1003.14 64.1633 1006.96 Q63.3994 1010.75 61.9035 1014.83 L55.2831 1014.83 Q57.4793 1010.91 58.5933 1007.15 Q59.7073 1003.4 59.7073 999.771 Q59.7073 994.264 57.543 991.273 Q55.3786 988.281 51.3682 988.281 Q47.8671 988.281 45.8937 990.445 Q43.9204 992.577 42.9337 997.479 L42.1698 1001.39 Q40.7375 1008.59 37.682 1011.8 Q34.6264 1015.02 29.1837 1015.02 Q22.8817 1015.02 19.2532 1010.59 Q15.6248 1006.14 15.6248 998.338 Q15.6248 994.996 16.2295 991.527 Q16.8343 988.058 18.0438 984.429 Z" fill="#000000" fill-rule="nonzero" fill-opacity="1" /><path clip-path="url(#clip070)" d="M46.0847 955.593 Q46.0847 962.69 47.7079 965.428 Q49.3312 968.165 53.2461 968.165 Q56.3653 968.165 58.2114 966.128 Q60.0256 964.059 60.0256 960.526 Q60.0256 955.656 56.5881 952.728 Q53.1188 949.768 47.3897 949.768 L46.0847 949.768 L46.0847 955.593 M43.6657 943.912 L64.0042 943.912 L64.0042 949.768 L58.5933 949.768 Q61.8398 951.773 63.3994 954.765 Q64.9272 957.757 64.9272 962.086 Q64.9272 967.56 61.8716 970.807 Q58.7843 974.021 53.6281 974.021 Q47.6125 974.021 44.5569 970.011 Q41.5014 965.969 41.5014 957.98 L41.5014 949.768 L40.9285 949.768 Q36.8862 949.768 34.6901 952.442 Q32.4621 955.083 32.4621 959.89 Q32.4621 962.945 33.1941 965.842 Q33.9262 968.738 35.3903 971.412 L29.9795 971.412 Q28.7381 968.197 28.1334 965.173 Q27.4968 962.149 27.4968 959.285 Q27.4968 951.551 31.5072 947.731 Q35.5176 943.912 43.6657 943.912 Z" fill="#000000" fill-rule="nonzero" fill-opacity="1" /><path clip-path="url(#clip070)" d="M35.1993 904.094 Q31.2526 901.898 29.3747 898.842 Q27.4968 895.787 27.4968 891.649 Q27.4968 886.079 31.4117 883.056 Q35.2948 880.032 42.4881 880.032 L64.0042 880.032 L64.0042 885.92 L42.679 885.92 Q37.5546 885.92 35.072 887.734 Q32.5894 889.549 32.5894 893.272 Q32.5894 897.824 35.6131 900.466 Q38.6368 903.107 43.8567 903.107 L64.0042 903.107 L64.0042 908.996 L42.679 908.996 Q37.5228 908.996 35.072 910.81 Q32.5894 912.624 32.5894 916.412 Q32.5894 920.9 35.6449 923.541 Q38.6686 926.183 43.8567 926.183 L64.0042 926.183 L64.0042 932.071 L28.3562 932.071 L28.3562 926.183 L33.8944 926.183 Q30.616 924.178 29.0564 921.377 Q27.4968 918.576 27.4968 914.725 Q27.4968 910.842 29.4702 908.136 Q31.4436 905.399 35.1993 904.094 Z" fill="#000000" fill-rule="nonzero" fill-opacity="1" /><path clip-path="url(#clip070)" d="M58.657 862.685 L77.5631 862.685 L77.5631 868.574 L28.3562 868.574 L28.3562 862.685 L33.7671 862.685 Q30.5842 860.839 29.0564 858.038 Q27.4968 855.206 27.4968 851.291 Q27.4968 844.798 32.6531 840.755 Q37.8093 836.681 46.212 836.681 Q54.6147 836.681 59.771 840.755 Q64.9272 844.798 64.9272 851.291 Q64.9272 855.206 63.3994 858.038 Q61.8398 860.839 58.657 862.685 M46.212 842.761 Q39.7508 842.761 36.0905 845.434 Q32.3984 848.076 32.3984 852.723 Q32.3984 857.37 36.0905 860.043 Q39.7508 862.685 46.212 862.685 Q52.6732 862.685 56.3653 860.043 Q60.0256 857.37 60.0256 852.723 Q60.0256 848.076 56.3653 845.434 Q52.6732 842.761 46.212 842.761 Z" fill="#000000" fill-rule="nonzero" fill-opacity="1" /><path clip-path="url(#clip070)" d="M14.479 826.974 L14.479 821.117 L64.0042 821.117 L64.0042 826.974 L14.479 826.974 Z" fill="#000000" fill-rule="nonzero" fill-opacity="1" /><path clip-path="url(#clip070)" d="M44.7161 778.371 L47.5806 778.371 L47.5806 805.298 Q53.6281 804.916 56.8109 801.67 Q59.9619 798.392 59.9619 792.567 Q59.9619 789.193 59.1344 786.042 Q58.3069 782.859 56.6518 779.74 L62.1899 779.74 Q63.5267 782.891 64.227 786.201 Q64.9272 789.511 64.9272 792.917 Q64.9272 801.447 59.9619 806.444 Q54.9967 811.409 46.5303 811.409 Q37.7774 811.409 32.6531 806.699 Q27.4968 801.956 27.4968 793.936 Q27.4968 786.742 32.1438 782.573 Q36.7589 778.371 44.7161 778.371 M42.9973 784.228 Q38.1912 784.292 35.3266 786.933 Q32.4621 789.543 32.4621 793.872 Q32.4621 798.774 35.2312 801.734 Q38.0002 804.662 43.0292 805.107 L42.9973 784.228 Z" fill="#000000" fill-rule="nonzero" fill-opacity="1" /><path clip-path="url(#clip070)" d="M33.7671 745.302 L14.479 745.302 L14.479 739.445 L64.0042 739.445 L64.0042 745.302 L58.657 745.302 Q61.8398 747.148 63.3994 749.98 Q64.9272 752.781 64.9272 756.728 Q64.9272 763.189 59.771 767.263 Q54.6147 771.306 46.212 771.306 Q37.8093 771.306 32.6531 767.263 Q27.4968 763.189 27.4968 756.728 Q27.4968 752.781 29.0564 749.98 Q30.5842 747.148 33.7671 745.302 M46.212 765.258 Q52.6732 765.258 56.3653 762.616 Q60.0256 759.943 60.0256 755.296 Q60.0256 750.649 56.3653 747.975 Q52.6732 745.302 46.212 745.302 Q39.7508 745.302 36.0905 747.975 Q32.3984 750.649 32.3984 755.296 Q32.3984 759.943 36.0905 762.616 Q39.7508 765.258 46.212 765.258 Z" fill="#000000" fill-rule="nonzero" fill-opacity="1" /><path clip-path="url(#clip070)" d="M16.4842 706.407 L16.4842 699.978 L58.5933 699.978 L58.5933 676.838 L64.0042 676.838 L64.0042 706.407 L16.4842 706.407 Z" fill="#000000" fill-rule="nonzero" fill-opacity="1" /><path clip-path="url(#clip070)" d="M58.5933 668.404 L58.5933 657.9 L22.3406 657.9 L24.6323 669.327 L18.7758 669.327 L16.4842 657.964 L16.4842 651.535 L58.5933 651.535 L58.5933 641.031 L64.0042 641.031 L64.0042 668.404 L58.5933 668.404 Z" fill="#000000" fill-rule="nonzero" fill-opacity="1" /><path clip-path="url(#clip070)" d="M16.4842 607.898 L16.4842 577.852 L21.895 577.852 L21.895 601.468 L35.9632 601.468 L35.9632 578.838 L41.3741 578.838 L41.3741 601.468 L58.5933 601.468 L58.5933 577.279 L64.0042 577.279 L64.0042 607.898 L16.4842 607.898 Z" fill="#000000" fill-rule="nonzero" fill-opacity="1" /><path clip-path="url(#clip070)" d="M33.8307 546.31 Q33.2578 547.296 33.0032 548.474 Q32.7167 549.62 32.7167 551.02 Q32.7167 555.985 35.9632 558.659 Q39.1779 561.301 45.2253 561.301 L64.0042 561.301 L64.0042 567.189 L28.3562 567.189 L28.3562 561.301 L33.8944 561.301 Q30.6479 559.455 29.0883 556.495 Q27.4968 553.535 27.4968 549.302 Q27.4968 548.697 27.5923 547.965 Q27.656 547.233 27.8151 546.341 L33.8307 546.31 Z" fill="#000000" fill-rule="nonzero" fill-opacity="1" /><path clip-path="url(#clip070)" d="M33.8307 520.656 Q33.2578 521.643 33.0032 522.82 Q32.7167 523.966 32.7167 525.366 Q32.7167 530.332 35.9632 533.005 Q39.1779 535.647 45.2253 535.647 L64.0042 535.647 L64.0042 541.535 L28.3562 541.535 L28.3562 535.647 L33.8944 535.647 Q30.6479 533.801 29.0883 530.841 Q27.4968 527.881 27.4968 523.648 Q27.4968 523.043 27.5923 522.311 Q27.656 521.579 27.8151 520.688 L33.8307 520.656 Z" fill="#000000" fill-rule="nonzero" fill-opacity="1" /><path clip-path="url(#clip070)" d="M32.4621 502.132 Q32.4621 506.842 36.1542 509.579 Q39.8145 512.317 46.212 512.317 Q52.6095 512.317 56.3017 509.611 Q59.9619 506.874 59.9619 502.132 Q59.9619 497.453 56.2698 494.716 Q52.5777 491.978 46.212 491.978 Q39.8781 491.978 36.186 494.716 Q32.4621 497.453 32.4621 502.132 M27.4968 502.132 Q27.4968 494.493 32.4621 490.132 Q37.4273 485.772 46.212 485.772 Q54.9649 485.772 59.9619 490.132 Q64.9272 494.493 64.9272 502.132 Q64.9272 509.802 59.9619 514.163 Q54.9649 518.491 46.212 518.491 Q37.4273 518.491 32.4621 514.163 Q27.4968 509.802 27.4968 502.132 Z" fill="#000000" fill-rule="nonzero" fill-opacity="1" /><path clip-path="url(#clip070)" d="M33.8307 455.407 Q33.2578 456.394 33.0032 457.572 Q32.7167 458.718 32.7167 460.118 Q32.7167 465.083 35.9632 467.757 Q39.1779 470.399 45.2253 470.399 L64.0042 470.399 L64.0042 476.287 L28.3562 476.287 L28.3562 470.399 L33.8944 470.399 Q30.6479 468.553 29.0883 465.592 Q27.4968 462.632 27.4968 458.399 Q27.4968 457.794 27.5923 457.062 Q27.656 456.33 27.8151 455.439 L33.8307 455.407 Z" fill="#000000" fill-rule="nonzero" fill-opacity="1" /><polyline clip-path="url(#clip072)" style="stroke:#009af9; stroke-linecap:round; stroke-linejoin:round; stroke-width:4; stroke-opacity:1; fill:none" points="311.028,88.8947 415.358,99.936 519.687,115.898 624.016,121.635 728.346,143.682 832.675,147.551 937.005,147.836 1041.33,146.109 1145.66,144.054 1249.99,138.304 1354.32,165.257 1458.65,165.267 1562.98,165.249 1667.31,168.873 1771.64,174.335 1875.97,164.921 1980.3,168.897 2084.63,165.89 2188.96,175.294 2293.29,168.255 "/>
<path clip-path="url(#clip072)" d="M311.028 104.895 L299.716 100.207 L295.028 88.8947 L299.716 77.5827 L311.028 72.8947 L322.34 77.5827 L327.028 88.8947 L322.34 100.207 Z" fill="#009af9" fill-rule="evenodd" fill-opacity="1" stroke="#000000" stroke-opacity="1" stroke-width="3.2"/>
<path clip-path="url(#clip072)" d="M415.358 115.936 L404.046 111.248 L399.358 99.936 L404.046 88.624 L415.358 83.936 L426.67 88.624 L431.358 99.936 L426.67 111.248 Z" fill="#009af9" fill-rule="evenodd" fill-opacity="1" stroke="#000000" stroke-opacity="1" stroke-width="3.2"/>
<path clip-path="url(#clip072)" d="M519.687 131.898 L508.375 127.21 L503.687 115.898 L508.375 104.586 L519.687 99.8984 L530.999 104.586 L535.687 115.898 L530.999 127.21 Z" fill="#009af9" fill-rule="evenodd" fill-opacity="1" stroke="#000000" stroke-opacity="1" stroke-width="3.2"/>
<path clip-path="url(#clip072)" d="M624.016 137.635 L612.704 132.947 L608.016 121.635 L612.704 110.323 L624.016 105.635 L635.328 110.323 L640.016 121.635 L635.328 132.947 Z" fill="#009af9" fill-rule="evenodd" fill-opacity="1" stroke="#000000" stroke-opacity="1" stroke-width="3.2"/>
<path clip-path="url(#clip072)" d="M728.346 159.682 L717.034 154.994 L712.346 143.682 L717.034 132.37 L728.346 127.682 L739.658 132.37 L744.346 143.682 L739.658 154.994 Z" fill="#009af9" fill-rule="evenodd" fill-opacity="1" stroke="#000000" stroke-opacity="1" stroke-width="3.2"/>
<path clip-path="url(#clip072)" d="M832.675 163.551 L821.363 158.863 L816.675 147.551 L821.363 136.239 L832.675 131.551 L843.987 136.239 L848.675 147.551 L843.987 158.863 Z" fill="#009af9" fill-rule="evenodd" fill-opacity="1" stroke="#000000" stroke-opacity="1" stroke-width="3.2"/>
<path clip-path="url(#clip072)" d="M937.005 163.836 L925.693 159.148 L921.005 147.836 L925.693 136.524 L937.005 131.836 L948.317 136.524 L953.005 147.836 L948.317 159.148 Z" fill="#009af9" fill-rule="evenodd" fill-opacity="1" stroke="#000000" stroke-opacity="1" stroke-width="3.2"/>
<path clip-path="url(#clip072)" d="M1041.33 162.109 L1030.02 157.421 L1025.33 146.109 L1030.02 134.797 L1041.33 130.109 L1052.65 134.797 L1057.33 146.109 L1052.65 157.421 Z" fill="#009af9" fill-rule="evenodd" fill-opacity="1" stroke="#000000" stroke-opacity="1" stroke-width="3.2"/>
<path clip-path="url(#clip072)" d="M1145.66 160.054 L1134.35 155.366 L1129.66 144.054 L1134.35 132.742 L1145.66 128.054 L1156.98 132.742 L1161.66 144.054 L1156.98 155.366 Z" fill="#009af9" fill-rule="evenodd" fill-opacity="1" stroke="#000000" stroke-opacity="1" stroke-width="3.2"/>
<path clip-path="url(#clip072)" d="M1249.99 154.304 L1238.68 149.616 L1233.99 138.304 L1238.68 126.992 L1249.99 122.304 L1261.31 126.992 L1265.99 138.304 L1261.31 149.616 Z" fill="#009af9" fill-rule="evenodd" fill-opacity="1" stroke="#000000" stroke-opacity="1" stroke-width="3.2"/>
<path clip-path="url(#clip072)" d="M1354.32 181.257 L1343.01 176.569 L1338.32 165.257 L1343.01 153.945 L1354.32 149.257 L1365.63 153.945 L1370.32 165.257 L1365.63 176.569 Z" fill="#009af9" fill-rule="evenodd" fill-opacity="1" stroke="#000000" stroke-opacity="1" stroke-width="3.2"/>
<path clip-path="url(#clip072)" d="M1458.65 181.267 L1447.34 176.579 L1442.65 165.267 L1447.34 153.955 L1458.65 149.267 L1469.96 153.955 L1474.65 165.267 L1469.96 176.579 Z" fill="#009af9" fill-rule="evenodd" fill-opacity="1" stroke="#000000" stroke-opacity="1" stroke-width="3.2"/>
<path clip-path="url(#clip072)" d="M1562.98 181.249 L1551.67 176.561 L1546.98 165.249 L1551.67 153.937 L1562.98 149.249 L1574.29 153.937 L1578.98 165.249 L1574.29 176.561 Z" fill="#009af9" fill-rule="evenodd" fill-opacity="1" stroke="#000000" stroke-opacity="1" stroke-width="3.2"/>
<path clip-path="url(#clip072)" d="M1667.31 184.873 L1656 180.185 L1651.31 168.873 L1656 157.561 L1667.31 152.873 L1678.62 157.561 L1683.31 168.873 L1678.62 180.185 Z" fill="#009af9" fill-rule="evenodd" fill-opacity="1" stroke="#000000" stroke-opacity="1" stroke-width="3.2"/>
<path clip-path="url(#clip072)" d="M1771.64 190.335 L1760.33 185.647 L1755.64 174.335 L1760.33 163.023 L1771.64 158.335 L1782.95 163.023 L1787.64 174.335 L1782.95 185.647 Z" fill="#009af9" fill-rule="evenodd" fill-opacity="1" stroke="#000000" stroke-opacity="1" stroke-width="3.2"/>
<path clip-path="url(#clip072)" d="M1875.97 180.921 L1864.66 176.233 L1859.97 164.921 L1864.66 153.609 L1875.97 148.921 L1887.28 153.609 L1891.97 164.921 L1887.28 176.233 Z" fill="#009af9" fill-rule="evenodd" fill-opacity="1" stroke="#000000" stroke-opacity="1" stroke-width="3.2"/>
<path clip-path="url(#clip072)" d="M1980.3 184.897 L1968.99 180.209 L1964.3 168.897 L1968.99 157.585 L1980.3 152.897 L1991.61 157.585 L1996.3 168.897 L1991.61 180.209 Z" fill="#009af9" fill-rule="evenodd" fill-opacity="1" stroke="#000000" stroke-opacity="1" stroke-width="3.2"/>
<path clip-path="url(#clip072)" d="M2084.63 181.89 L2073.32 177.202 L2068.63 165.89 L2073.32 154.578 L2084.63 149.89 L2095.94 154.578 L2100.63 165.89 L2095.94 177.202 Z" fill="#009af9" fill-rule="evenodd" fill-opacity="1" stroke="#000000" stroke-opacity="1" stroke-width="3.2"/>
<path clip-path="url(#clip072)" d="M2188.96 191.294 L2177.65 186.606 L2172.96 175.294 L2177.65 163.982 L2188.96 159.294 L2200.27 163.982 L2204.96 175.294 L2200.27 186.606 Z" fill="#009af9" fill-rule="evenodd" fill-opacity="1" stroke="#000000" stroke-opacity="1" stroke-width="3.2"/>
<path clip-path="url(#clip072)" d="M2293.29 184.255 L2281.98 179.567 L2277.29 168.255 L2281.98 156.943 L2293.29 152.255 L2304.6 156.943 L2309.29 168.255 L2304.6 179.567 Z" fill="#009af9" fill-rule="evenodd" fill-opacity="1" stroke="#000000" stroke-opacity="1" stroke-width="3.2"/>
<polyline clip-path="url(#clip072)" style="stroke:#e26f46; stroke-linecap:round; stroke-linejoin:round; stroke-width:4; stroke-opacity:1; fill:none" points="311.028,93.5819 415.358,112.032 519.687,142.118 624.016,165.699 728.346,179.105 832.675,231.728 937.005,245.493 1041.33,258.845 1145.66,280.816 1249.99,306.966 1354.32,345.625 1458.65,342.941 1562.98,371.068 1667.31,368.574 1771.64,412.048 1875.97,389.146 1980.3,424.077 2084.63,462.68 2188.96,464.011 2293.29,457.057 "/>
<path clip-path="url(#clip072)" d="M311.028 109.582 L299.716 104.894 L295.028 93.5819 L299.716 82.2699 L311.028 77.5819 L322.34 82.2699 L327.028 93.5819 L322.34 104.894 Z" fill="#e26f46" fill-rule="evenodd" fill-opacity="1" stroke="#000000" stroke-opacity="1" stroke-width="3.2"/>
<path clip-path="url(#clip072)" d="M415.358 128.032 L404.046 123.344 L399.358 112.032 L404.046 100.72 L415.358 96.0319 L426.67 100.72 L431.358 112.032 L426.67 123.344 Z" fill="#e26f46" fill-rule="evenodd" fill-opacity="1" stroke="#000000" stroke-opacity="1" stroke-width="3.2"/>
<path clip-path="url(#clip072)" d="M519.687 158.118 L508.375 153.43 L503.687 142.118 L508.375 130.806 L519.687 126.118 L530.999 130.806 L535.687 142.118 L530.999 153.43 Z" fill="#e26f46" fill-rule="evenodd" fill-opacity="1" stroke="#000000" stroke-opacity="1" stroke-width="3.2"/>
<path clip-path="url(#clip072)" d="M624.016 181.699 L612.704 177.011 L608.016 165.699 L612.704 154.387 L624.016 149.699 L635.328 154.387 L640.016 165.699 L635.328 177.011 Z" fill="#e26f46" fill-rule="evenodd" fill-opacity="1" stroke="#000000" stroke-opacity="1" stroke-width="3.2"/>
<path clip-path="url(#clip072)" d="M728.346 195.105 L717.034 190.417 L712.346 179.105 L717.034 167.793 L728.346 163.105 L739.658 167.793 L744.346 179.105 L739.658 190.417 Z" fill="#e26f46" fill-rule="evenodd" fill-opacity="1" stroke="#000000" stroke-opacity="1" stroke-width="3.2"/>
<path clip-path="url(#clip072)" d="M832.675 247.728 L821.363 243.04 L816.675 231.728 L821.363 220.416 L832.675 215.728 L843.987 220.416 L848.675 231.728 L843.987 243.04 Z" fill="#e26f46" fill-rule="evenodd" fill-opacity="1" stroke="#000000" stroke-opacity="1" stroke-width="3.2"/>
<path clip-path="url(#clip072)" d="M937.005 261.493 L925.693 256.805 L921.005 245.493 L925.693 234.181 L937.005 229.493 L948.317 234.181 L953.005 245.493 L948.317 256.805 Z" fill="#e26f46" fill-rule="evenodd" fill-opacity="1" stroke="#000000" stroke-opacity="1" stroke-width="3.2"/>
<path clip-path="url(#clip072)" d="M1041.33 274.845 L1030.02 270.157 L1025.33 258.845 L1030.02 247.533 L1041.33 242.845 L1052.65 247.533 L1057.33 258.845 L1052.65 270.157 Z" fill="#e26f46" fill-rule="evenodd" fill-opacity="1" stroke="#000000" stroke-opacity="1" stroke-width="3.2"/>
<path clip-path="url(#clip072)" d="M1145.66 296.816 L1134.35 292.128 L1129.66 280.816 L1134.35 269.504 L1145.66 264.816 L1156.98 269.504 L1161.66 280.816 L1156.98 292.128 Z" fill="#e26f46" fill-rule="evenodd" fill-opacity="1" stroke="#000000" stroke-opacity="1" stroke-width="3.2"/>
<path clip-path="url(#clip072)" d="M1249.99 322.966 L1238.68 318.278 L1233.99 306.966 L1238.68 295.654 L1249.99 290.966 L1261.31 295.654 L1265.99 306.966 L1261.31 318.278 Z" fill="#e26f46" fill-rule="evenodd" fill-opacity="1" stroke="#000000" stroke-opacity="1" stroke-width="3.2"/>
<path clip-path="url(#clip072)" d="M1354.32 361.625 L1343.01 356.937 L1338.32 345.625 L1343.01 334.313 L1354.32 329.625 L1365.63 334.313 L1370.32 345.625 L1365.63 356.937 Z" fill="#e26f46" fill-rule="evenodd" fill-opacity="1" stroke="#000000" stroke-opacity="1" stroke-width="3.2"/>
<path clip-path="url(#clip072)" d="M1458.65 358.941 L1447.34 354.253 L1442.65 342.941 L1447.34 331.629 L1458.65 326.941 L1469.96 331.629 L1474.65 342.941 L1469.96 354.253 Z" fill="#e26f46" fill-rule="evenodd" fill-opacity="1" stroke="#000000" stroke-opacity="1" stroke-width="3.2"/>
<path clip-path="url(#clip072)" d="M1562.98 387.068 L1551.67 382.38 L1546.98 371.068 L1551.67 359.756 L1562.98 355.068 L1574.29 359.756 L1578.98 371.068 L1574.29 382.38 Z" fill="#e26f46" fill-rule="evenodd" fill-opacity="1" stroke="#000000" stroke-opacity="1" stroke-width="3.2"/>
<path clip-path="url(#clip072)" d="M1667.31 384.574 L1656 379.886 L1651.31 368.574 L1656 357.262 L1667.31 352.574 L1678.62 357.262 L1683.31 368.574 L1678.62 379.886 Z" fill="#e26f46" fill-rule="evenodd" fill-opacity="1" stroke="#000000" stroke-opacity="1" stroke-width="3.2"/>
<path clip-path="url(#clip072)" d="M1771.64 428.048 L1760.33 423.36 L1755.64 412.048 L1760.33 400.736 L1771.64 396.048 L1782.95 400.736 L1787.64 412.048 L1782.95 423.36 Z" fill="#e26f46" fill-rule="evenodd" fill-opacity="1" stroke="#000000" stroke-opacity="1" stroke-width="3.2"/>
<path clip-path="url(#clip072)" d="M1875.97 405.146 L1864.66 400.458 L1859.97 389.146 L1864.66 377.834 L1875.97 373.146 L1887.28 377.834 L1891.97 389.146 L1887.28 400.458 Z" fill="#e26f46" fill-rule="evenodd" fill-opacity="1" stroke="#000000" stroke-opacity="1" stroke-width="3.2"/>
<path clip-path="url(#clip072)" d="M1980.3 440.077 L1968.99 435.389 L1964.3 424.077 L1968.99 412.765 L1980.3 408.077 L1991.61 412.765 L1996.3 424.077 L1991.61 435.389 Z" fill="#e26f46" fill-rule="evenodd" fill-opacity="1" stroke="#000000" stroke-opacity="1" stroke-width="3.2"/>
<path clip-path="url(#clip072)" d="M2084.63 478.68 L2073.32 473.992 L2068.63 462.68 L2073.32 451.368 L2084.63 446.68 L2095.94 451.368 L2100.63 462.68 L2095.94 473.992 Z" fill="#e26f46" fill-rule="evenodd" fill-opacity="1" stroke="#000000" stroke-opacity="1" stroke-width="3.2"/>
<path clip-path="url(#clip072)" d="M2188.96 480.011 L2177.65 475.323 L2172.96 464.011 L2177.65 452.699 L2188.96 448.011 L2200.27 452.699 L2204.96 464.011 L2200.27 475.323 Z" fill="#e26f46" fill-rule="evenodd" fill-opacity="1" stroke="#000000" stroke-opacity="1" stroke-width="3.2"/>
<path clip-path="url(#clip072)" d="M2293.29 473.057 L2281.98 468.369 L2277.29 457.057 L2281.98 445.745 L2293.29 441.057 L2304.6 445.745 L2309.29 457.057 L2304.6 468.369 Z" fill="#e26f46" fill-rule="evenodd" fill-opacity="1" stroke="#000000" stroke-opacity="1" stroke-width="3.2"/>
<polyline clip-path="url(#clip072)" style="stroke:#3da44d; stroke-linecap:round; stroke-linejoin:round; stroke-width:4; stroke-opacity:1; fill:none" points="311.028,86.1857 415.358,115.061 519.687,135.076 624.016,158.448 728.346,173.449 832.675,201.338 937.005,241.701 1041.33,265.352 1145.66,273.545 1249.99,328.491 1354.32,308.605 1458.65,359.979 1562.98,392.574 1667.31,378.632 1771.64,385.216 1875.97,397.544 1980.3,389.955 2084.63,395.145 2188.96,402.82 2293.29,436.296 "/>
<path clip-path="url(#clip072)" d="M311.028 102.186 L299.716 97.4977 L295.028 86.1857 L299.716 74.8737 L311.028 70.1857 L322.34 74.8737 L327.028 86.1857 L322.34 97.4977 Z" fill="#3da44d" fill-rule="evenodd" fill-opacity="1" stroke="#000000" stroke-opacity="1" stroke-width="3.2"/>
<path clip-path="url(#clip072)" d="M415.358 131.061 L404.046 126.373 L399.358 115.061 L404.046 103.749 L415.358 99.0609 L426.67 103.749 L431.358 115.061 L426.67 126.373 Z" fill="#3da44d" fill-rule="evenodd" fill-opacity="1" stroke="#000000" stroke-opacity="1" stroke-width="3.2"/>
<path clip-path="url(#clip072)" d="M519.687 151.076 L508.375 146.388 L503.687 135.076 L508.375 123.764 L519.687 119.076 L530.999 123.764 L535.687 135.076 L530.999 146.388 Z" fill="#3da44d" fill-rule="evenodd" fill-opacity="1" stroke="#000000" stroke-opacity="1" stroke-width="3.2"/>
<path clip-path="url(#clip072)" d="M624.016 174.448 L612.704 169.76 L608.016 158.448 L612.704 147.136 L624.016 142.448 L635.328 147.136 L640.016 158.448 L635.328 169.76 Z" fill="#3da44d" fill-rule="evenodd" fill-opacity="1" stroke="#000000" stroke-opacity="1" stroke-width="3.2"/>
<path clip-path="url(#clip072)" d="M728.346 189.449 L717.034 184.761 L712.346 173.449 L717.034 162.137 L728.346 157.449 L739.658 162.137 L744.346 173.449 L739.658 184.761 Z" fill="#3da44d" fill-rule="evenodd" fill-opacity="1" stroke="#000000" stroke-opacity="1" stroke-width="3.2"/>
<path clip-path="url(#clip072)" d="M832.675 217.338 L821.363 212.65 L816.675 201.338 L821.363 190.026 L832.675 185.338 L843.987 190.026 L848.675 201.338 L843.987 212.65 Z" fill="#3da44d" fill-rule="evenodd" fill-opacity="1" stroke="#000000" stroke-opacity="1" stroke-width="3.2"/>
<path clip-path="url(#clip072)" d="M937.005 257.701 L925.693 253.013 L921.005 241.701 L925.693 230.389 L937.005 225.701 L948.317 230.389 L953.005 241.701 L948.317 253.013 Z" fill="#3da44d" fill-rule="evenodd" fill-opacity="1" stroke="#000000" stroke-opacity="1" stroke-width="3.2"/>
<path clip-path="url(#clip072)" d="M1041.33 281.352 L1030.02 276.664 L1025.33 265.352 L1030.02 254.04 L1041.33 249.352 L1052.65 254.04 L1057.33 265.352 L1052.65 276.664 Z" fill="#3da44d" fill-rule="evenodd" fill-opacity="1" stroke="#000000" stroke-opacity="1" stroke-width="3.2"/>
<path clip-path="url(#clip072)" d="M1145.66 289.545 L1134.35 284.857 L1129.66 273.545 L1134.35 262.233 L1145.66 257.545 L1156.98 262.233 L1161.66 273.545 L1156.98 284.857 Z" fill="#3da44d" fill-rule="evenodd" fill-opacity="1" stroke="#000000" stroke-opacity="1" stroke-width="3.2"/>
<path clip-path="url(#clip072)" d="M1249.99 344.491 L1238.68 339.803 L1233.99 328.491 L1238.68 317.179 L1249.99 312.491 L1261.31 317.179 L1265.99 328.491 L1261.31 339.803 Z" fill="#3da44d" fill-rule="evenodd" fill-opacity="1" stroke="#000000" stroke-opacity="1" stroke-width="3.2"/>
<path clip-path="url(#clip072)" d="M1354.32 324.605 L1343.01 319.917 L1338.32 308.605 L1343.01 297.293 L1354.32 292.605 L1365.63 297.293 L1370.32 308.605 L1365.63 319.917 Z" fill="#3da44d" fill-rule="evenodd" fill-opacity="1" stroke="#000000" stroke-opacity="1" stroke-width="3.2"/>
<path clip-path="url(#clip072)" d="M1458.65 375.979 L1447.34 371.291 L1442.65 359.979 L1447.34 348.667 L1458.65 343.979 L1469.96 348.667 L1474.65 359.979 L1469.96 371.291 Z" fill="#3da44d" fill-rule="evenodd" fill-opacity="1" stroke="#000000" stroke-opacity="1" stroke-width="3.2"/>
<path clip-path="url(#clip072)" d="M1562.98 408.574 L1551.67 403.886 L1546.98 392.574 L1551.67 381.262 L1562.98 376.574 L1574.29 381.262 L1578.98 392.574 L1574.29 403.886 Z" fill="#3da44d" fill-rule="evenodd" fill-opacity="1" stroke="#000000" stroke-opacity="1" stroke-width="3.2"/>
<path clip-path="url(#clip072)" d="M1667.31 394.632 L1656 389.944 L1651.31 378.632 L1656 367.32 L1667.31 362.632 L1678.62 367.32 L1683.31 378.632 L1678.62 389.944 Z" fill="#3da44d" fill-rule="evenodd" fill-opacity="1" stroke="#000000" stroke-opacity="1" stroke-width="3.2"/>
<path clip-path="url(#clip072)" d="M1771.64 401.216 L1760.33 396.528 L1755.64 385.216 L1760.33 373.904 L1771.64 369.216 L1782.95 373.904 L1787.64 385.216 L1782.95 396.528 Z" fill="#3da44d" fill-rule="evenodd" fill-opacity="1" stroke="#000000" stroke-opacity="1" stroke-width="3.2"/>
<path clip-path="url(#clip072)" d="M1875.97 413.544 L1864.66 408.856 L1859.97 397.544 L1864.66 386.232 L1875.97 381.544 L1887.28 386.232 L1891.97 397.544 L1887.28 408.856 Z" fill="#3da44d" fill-rule="evenodd" fill-opacity="1" stroke="#000000" stroke-opacity="1" stroke-width="3.2"/>
<path clip-path="url(#clip072)" d="M1980.3 405.955 L1968.99 401.267 L1964.3 389.955 L1968.99 378.643 L1980.3 373.955 L1991.61 378.643 L1996.3 389.955 L1991.61 401.267 Z" fill="#3da44d" fill-rule="evenodd" fill-opacity="1" stroke="#000000" stroke-opacity="1" stroke-width="3.2"/>
<path clip-path="url(#clip072)" d="M2084.63 411.145 L2073.32 406.457 L2068.63 395.145 L2073.32 383.833 L2084.63 379.145 L2095.94 383.833 L2100.63 395.145 L2095.94 406.457 Z" fill="#3da44d" fill-rule="evenodd" fill-opacity="1" stroke="#000000" stroke-opacity="1" stroke-width="3.2"/>
<path clip-path="url(#clip072)" d="M2188.96 418.82 L2177.65 414.132 L2172.96 402.82 L2177.65 391.508 L2188.96 386.82 L2200.27 391.508 L2204.96 402.82 L2200.27 414.132 Z" fill="#3da44d" fill-rule="evenodd" fill-opacity="1" stroke="#000000" stroke-opacity="1" stroke-width="3.2"/>
<path clip-path="url(#clip072)" d="M2293.29 452.296 L2281.98 447.608 L2277.29 436.296 L2281.98 424.984 L2293.29 420.296 L2304.6 424.984 L2309.29 436.296 L2304.6 447.608 Z" fill="#3da44d" fill-rule="evenodd" fill-opacity="1" stroke="#000000" stroke-opacity="1" stroke-width="3.2"/>
<polyline clip-path="url(#clip072)" style="stroke:#c271d2; stroke-linecap:round; stroke-linejoin:round; stroke-width:4; stroke-opacity:1; fill:none" points="311.028,107.918 415.358,256.585 519.687,417.869 624.016,641.29 728.346,1360.04 832.675,1381.97 937.005,1378.19 1041.33,1376.89 1145.66,1379.76 1249.99,1381.86 1354.32,1376.97 1458.65,1384.24 1562.98,1381.36 1667.31,1379.78 1771.64,1380.99 1875.97,1381.03 1980.3,1382.05 2084.63,1376.8 2188.96,1375.5 2293.29,1382.27 "/>
<path clip-path="url(#clip072)" d="M311.028 123.918 L299.716 119.23 L295.028 107.918 L299.716 96.6057 L311.028 91.9177 L322.34 96.6057 L327.028 107.918 L322.34 119.23 Z" fill="#c271d2" fill-rule="evenodd" fill-opacity="1" stroke="#000000" stroke-opacity="1" stroke-width="3.2"/>
<path clip-path="url(#clip072)" d="M415.358 272.585 L404.046 267.897 L399.358 256.585 L404.046 245.273 L415.358 240.585 L426.67 245.273 L431.358 256.585 L426.67 267.897 Z" fill="#c271d2" fill-rule="evenodd" fill-opacity="1" stroke="#000000" stroke-opacity="1" stroke-width="3.2"/>
<path clip-path="url(#clip072)" d="M519.687 433.869 L508.375 429.181 L503.687 417.869 L508.375 406.557 L519.687 401.869 L530.999 406.557 L535.687 417.869 L530.999 429.181 Z" fill="#c271d2" fill-rule="evenodd" fill-opacity="1" stroke="#000000" stroke-opacity="1" stroke-width="3.2"/>
<path clip-path="url(#clip072)" d="M624.016 657.29 L612.704 652.602 L608.016 641.29 L612.704 629.978 L624.016 625.29 L635.328 629.978 L640.016 641.29 L635.328 652.602 Z" fill="#c271d2" fill-rule="evenodd" fill-opacity="1" stroke="#000000" stroke-opacity="1" stroke-width="3.2"/>
<path clip-path="url(#clip072)" d="M728.346 1376.04 L717.034 1371.36 L712.346 1360.04 L717.034 1348.73 L728.346 1344.04 L739.658 1348.73 L744.346 1360.04 L739.658 1371.36 Z" fill="#c271d2" fill-rule="evenodd" fill-opacity="1" stroke="#000000" stroke-opacity="1" stroke-width="3.2"/>
<path clip-path="url(#clip072)" d="M832.675 1397.97 L821.363 1393.28 L816.675 1381.97 L821.363 1370.66 L832.675 1365.97 L843.987 1370.66 L848.675 1381.97 L843.987 1393.28 Z" fill="#c271d2" fill-rule="evenodd" fill-opacity="1" stroke="#000000" stroke-opacity="1" stroke-width="3.2"/>
<path clip-path="url(#clip072)" d="M937.005 1394.19 L925.693 1389.5 L921.005 1378.19 L925.693 1366.88 L937.005 1362.19 L948.317 1366.88 L953.005 1378.19 L948.317 1389.5 Z" fill="#c271d2" fill-rule="evenodd" fill-opacity="1" stroke="#000000" stroke-opacity="1" stroke-width="3.2"/>
<path clip-path="url(#clip072)" d="M1041.33 1392.89 L1030.02 1388.2 L1025.33 1376.89 L1030.02 1365.58 L1041.33 1360.89 L1052.65 1365.58 L1057.33 1376.89 L1052.65 1388.2 Z" fill="#c271d2" fill-rule="evenodd" fill-opacity="1" stroke="#000000" stroke-opacity="1" stroke-width="3.2"/>
<path clip-path="url(#clip072)" d="M1145.66 1395.76 L1134.35 1391.07 L1129.66 1379.76 L1134.35 1368.45 L1145.66 1363.76 L1156.98 1368.45 L1161.66 1379.76 L1156.98 1391.07 Z" fill="#c271d2" fill-rule="evenodd" fill-opacity="1" stroke="#000000" stroke-opacity="1" stroke-width="3.2"/>
<path clip-path="url(#clip072)" d="M1249.99 1397.86 L1238.68 1393.18 L1233.99 1381.86 L1238.68 1370.55 L1249.99 1365.86 L1261.31 1370.55 L1265.99 1381.86 L1261.31 1393.18 Z" fill="#c271d2" fill-rule="evenodd" fill-opacity="1" stroke="#000000" stroke-opacity="1" stroke-width="3.2"/>
<path clip-path="url(#clip072)" d="M1354.32 1392.97 L1343.01 1388.28 L1338.32 1376.97 L1343.01 1365.66 L1354.32 1360.97 L1365.63 1365.66 L1370.32 1376.97 L1365.63 1388.28 Z" fill="#c271d2" fill-rule="evenodd" fill-opacity="1" stroke="#000000" stroke-opacity="1" stroke-width="3.2"/>
<path clip-path="url(#clip072)" d="M1458.65 1400.24 L1447.34 1395.55 L1442.65 1384.24 L1447.34 1372.93 L1458.65 1368.24 L1469.96 1372.93 L1474.65 1384.24 L1469.96 1395.55 Z" fill="#c271d2" fill-rule="evenodd" fill-opacity="1" stroke="#000000" stroke-opacity="1" stroke-width="3.2"/>
<path clip-path="url(#clip072)" d="M1562.98 1397.36 L1551.67 1392.67 L1546.98 1381.36 L1551.67 1370.05 L1562.98 1365.36 L1574.29 1370.05 L1578.98 1381.36 L1574.29 1392.67 Z" fill="#c271d2" fill-rule="evenodd" fill-opacity="1" stroke="#000000" stroke-opacity="1" stroke-width="3.2"/>
<path clip-path="url(#clip072)" d="M1667.31 1395.78 L1656 1391.09 L1651.31 1379.78 L1656 1368.47 L1667.31 1363.78 L1678.62 1368.47 L1683.31 1379.78 L1678.62 1391.09 Z" fill="#c271d2" fill-rule="evenodd" fill-opacity="1" stroke="#000000" stroke-opacity="1" stroke-width="3.2"/>
<path clip-path="url(#clip072)" d="M1771.64 1396.99 L1760.33 1392.3 L1755.64 1380.99 L1760.33 1369.67 L1771.64 1364.99 L1782.95 1369.67 L1787.64 1380.99 L1782.95 1392.3 Z" fill="#c271d2" fill-rule="evenodd" fill-opacity="1" stroke="#000000" stroke-opacity="1" stroke-width="3.2"/>
<path clip-path="url(#clip072)" d="M1875.97 1397.03 L1864.66 1392.35 L1859.97 1381.03 L1864.66 1369.72 L1875.97 1365.03 L1887.28 1369.72 L1891.97 1381.03 L1887.28 1392.35 Z" fill="#c271d2" fill-rule="evenodd" fill-opacity="1" stroke="#000000" stroke-opacity="1" stroke-width="3.2"/>
<path clip-path="url(#clip072)" d="M1980.3 1398.05 L1968.99 1393.36 L1964.3 1382.05 L1968.99 1370.73 L1980.3 1366.05 L1991.61 1370.73 L1996.3 1382.05 L1991.61 1393.36 Z" fill="#c271d2" fill-rule="evenodd" fill-opacity="1" stroke="#000000" stroke-opacity="1" stroke-width="3.2"/>
<path clip-path="url(#clip072)" d="M2084.63 1392.8 L2073.32 1388.11 L2068.63 1376.8 L2073.32 1365.49 L2084.63 1360.8 L2095.94 1365.49 L2100.63 1376.8 L2095.94 1388.11 Z" fill="#c271d2" fill-rule="evenodd" fill-opacity="1" stroke="#000000" stroke-opacity="1" stroke-width="3.2"/>
<path clip-path="url(#clip072)" d="M2188.96 1391.5 L2177.65 1386.81 L2172.96 1375.5 L2177.65 1364.18 L2188.96 1359.5 L2200.27 1364.18 L2204.96 1375.5 L2200.27 1386.81 Z" fill="#c271d2" fill-rule="evenodd" fill-opacity="1" stroke="#000000" stroke-opacity="1" stroke-width="3.2"/>
<path clip-path="url(#clip072)" d="M2293.29 1398.27 L2281.98 1393.59 L2277.29 1382.27 L2281.98 1370.96 L2293.29 1366.27 L2304.6 1370.96 L2309.29 1382.27 L2304.6 1393.59 Z" fill="#c271d2" fill-rule="evenodd" fill-opacity="1" stroke="#000000" stroke-opacity="1" stroke-width="3.2"/>
<path clip-path="url(#clip070)" d="M1872.11 352.309 L2282.72 352.309 L2282.72 93.1086 L1872.11 93.1086  Z" fill="#ffffff" fill-rule="evenodd" fill-opacity="1"/>
<polyline clip-path="url(#clip070)" style="stroke:#000000; stroke-linecap:round; stroke-linejoin:round; stroke-width:4; stroke-opacity:1; fill:none" points="1872.11,352.309 2282.72,352.309 2282.72,93.1086 1872.11,93.1086 1872.11,352.309 "/>
<polyline clip-path="url(#clip070)" style="stroke:#009af9; stroke-linecap:round; stroke-linejoin:round; stroke-width:4; stroke-opacity:1; fill:none" points="1895.46,144.949 2035.54,144.949 "/>
<path clip-path="url(#clip070)" d="M1965.5 166.566 L1950.21 160.232 L1943.88 144.949 L1950.21 129.665 L1965.5 123.331 L1980.78 129.665 L1987.12 144.949 L1980.78 160.232 Z" fill="#009af9" fill-rule="evenodd" fill-opacity="1" stroke="#000000" stroke-opacity="1" stroke-width="4.55111"/>
<path clip-path="url(#clip070)" d="M2074.9 130.84 Q2069.81 130.84 2066.8 134.636 Q2063.81 138.432 2063.81 144.983 Q2063.81 151.511 2066.8 155.307 Q2069.81 159.104 2074.9 159.104 Q2080 159.104 2082.96 155.307 Q2085.94 151.511 2085.94 144.983 Q2085.94 138.432 2082.96 134.636 Q2080 130.84 2074.9 130.84 M2081.45 161.604 L2087.61 168.34 L2081.96 168.34 L2076.85 162.807 Q2076.08 162.854 2075.67 162.877 Q2075.27 162.9 2074.9 162.9 Q2067.61 162.9 2063.24 158.039 Q2058.88 153.155 2058.88 144.983 Q2058.88 136.789 2063.24 131.928 Q2067.61 127.044 2074.9 127.044 Q2082.17 127.044 2086.52 131.928 Q2090.87 136.789 2090.87 144.983 Q2090.87 151.002 2088.44 155.284 Q2086.04 159.567 2081.45 161.604 Z" fill="#000000" fill-rule="nonzero" fill-opacity="1" /><path clip-path="url(#clip070)" d="M2093.4 127.669 L2122.63 127.669 L2122.63 131.604 L2110.37 131.604 L2110.37 162.229 L2105.67 162.229 L2105.67 131.604 L2093.4 131.604 L2093.4 127.669 Z" fill="#000000" fill-rule="nonzero" fill-opacity="1" /><path clip-path="url(#clip070)" d="M2121.52 127.669 L2150.76 127.669 L2150.76 131.604 L2138.49 131.604 L2138.49 162.229 L2133.79 162.229 L2133.79 131.604 L2121.52 131.604 L2121.52 127.669 Z" fill="#000000" fill-rule="nonzero" fill-opacity="1" /><path clip-path="url(#clip070)" d="M2174.79 170.099 L2174.79 173.409 L2150.16 173.409 L2150.16 170.099 L2174.79 170.099 Z" fill="#000000" fill-rule="nonzero" fill-opacity="1" /><path clip-path="url(#clip070)" d="M2199.69 128.803 L2199.69 133.363 Q2197.03 132.09 2194.67 131.465 Q2192.31 130.84 2190.11 130.84 Q2186.29 130.84 2184.21 132.321 Q2182.15 133.803 2182.15 136.534 Q2182.15 138.826 2183.51 140.007 Q2184.9 141.164 2188.74 141.882 L2191.57 142.46 Q2196.8 143.456 2199.28 145.979 Q2201.78 148.479 2201.78 152.692 Q2201.78 157.715 2198.4 160.307 Q2195.04 162.9 2188.54 162.9 Q2186.08 162.9 2183.31 162.344 Q2180.55 161.789 2177.59 160.701 L2177.59 155.886 Q2180.43 157.483 2183.17 158.293 Q2185.9 159.104 2188.54 159.104 Q2192.54 159.104 2194.72 157.53 Q2196.89 155.956 2196.89 153.039 Q2196.89 150.493 2195.32 149.057 Q2193.77 147.622 2190.2 146.905 L2187.36 146.349 Q2182.12 145.307 2179.79 143.085 Q2177.45 140.863 2177.45 136.905 Q2177.45 132.321 2180.67 129.682 Q2183.91 127.044 2189.58 127.044 Q2192.01 127.044 2194.53 127.483 Q2197.05 127.923 2199.69 128.803 Z" fill="#000000" fill-rule="nonzero" fill-opacity="1" /><path clip-path="url(#clip070)" d="M2231.06 148.201 L2231.06 150.284 L2211.48 150.284 Q2211.75 154.682 2214.12 156.997 Q2216.5 159.289 2220.74 159.289 Q2223.19 159.289 2225.48 158.687 Q2227.8 158.085 2230.06 156.881 L2230.06 160.909 Q2227.77 161.881 2225.36 162.391 Q2222.96 162.9 2220.48 162.9 Q2214.28 162.9 2210.64 159.289 Q2207.03 155.678 2207.03 149.52 Q2207.03 143.155 2210.46 139.428 Q2213.91 135.678 2219.74 135.678 Q2224.97 135.678 2228 139.057 Q2231.06 142.414 2231.06 148.201 M2226.8 146.951 Q2226.75 143.456 2224.83 141.372 Q2222.93 139.289 2219.79 139.289 Q2216.22 139.289 2214.07 141.303 Q2211.94 143.317 2211.62 146.974 L2226.8 146.951 Z" fill="#000000" fill-rule="nonzero" fill-opacity="1" /><path clip-path="url(#clip070)" d="M2240.6 149.289 Q2240.6 153.988 2242.52 156.673 Q2244.46 159.335 2247.84 159.335 Q2251.22 159.335 2253.17 156.673 Q2255.11 153.988 2255.11 149.289 Q2255.11 144.59 2253.17 141.928 Q2251.22 139.243 2247.84 139.243 Q2244.46 139.243 2242.52 141.928 Q2240.6 144.59 2240.6 149.289 M2255.11 158.34 Q2253.77 160.655 2251.71 161.789 Q2249.67 162.9 2246.8 162.9 Q2242.1 162.9 2239.14 159.15 Q2236.2 155.4 2236.2 149.289 Q2236.2 143.178 2239.14 139.428 Q2242.1 135.678 2246.8 135.678 Q2249.67 135.678 2251.71 136.812 Q2253.77 137.923 2255.11 140.238 L2255.11 136.303 L2259.37 136.303 L2259.37 172.09 L2255.11 172.09 L2255.11 158.34 Z" fill="#000000" fill-rule="nonzero" fill-opacity="1" /><polyline clip-path="url(#clip070)" style="stroke:#e26f46; stroke-linecap:round; stroke-linejoin:round; stroke-width:4; stroke-opacity:1; fill:none" points="1895.46,196.789 2035.54,196.789 "/>
<path clip-path="url(#clip070)" d="M1965.5 218.406 L1950.21 212.072 L1943.88 196.789 L1950.21 181.505 L1965.5 175.171 L1980.78 181.505 L1987.12 196.789 L1980.78 212.072 Z" fill="#e26f46" fill-rule="evenodd" fill-opacity="1" stroke="#000000" stroke-opacity="1" stroke-width="4.55111"/>
<path clip-path="url(#clip070)" d="M2063.56 197.564 L2063.56 210.226 L2071.06 210.226 Q2074.83 210.226 2076.64 208.675 Q2078.47 207.101 2078.47 203.883 Q2078.47 200.643 2076.64 199.115 Q2074.83 197.564 2071.06 197.564 L2063.56 197.564 M2063.56 183.351 L2063.56 193.768 L2070.48 193.768 Q2073.91 193.768 2075.57 192.495 Q2077.26 191.198 2077.26 188.559 Q2077.26 185.944 2075.57 184.647 Q2073.91 183.351 2070.48 183.351 L2063.56 183.351 M2058.88 179.509 L2070.83 179.509 Q2076.18 179.509 2079.07 181.731 Q2081.96 183.953 2081.96 188.05 Q2081.96 191.222 2080.48 193.097 Q2079 194.971 2076.13 195.434 Q2079.58 196.175 2081.48 198.536 Q2083.4 200.874 2083.4 204.393 Q2083.4 209.022 2080.25 211.545 Q2077.1 214.069 2071.29 214.069 L2058.88 214.069 L2058.88 179.509 Z" fill="#000000" fill-rule="nonzero" fill-opacity="1" /><path clip-path="url(#clip070)" d="M2086.62 179.509 L2115.85 179.509 L2115.85 183.444 L2103.58 183.444 L2103.58 214.069 L2098.88 214.069 L2098.88 183.444 L2086.62 183.444 L2086.62 179.509 Z" fill="#000000" fill-rule="nonzero" fill-opacity="1" /><path clip-path="url(#clip070)" d="M2114.74 179.509 L2143.98 179.509 L2143.98 183.444 L2131.71 183.444 L2131.71 214.069 L2127.01 214.069 L2127.01 183.444 L2114.74 183.444 L2114.74 179.509 Z" fill="#000000" fill-rule="nonzero" fill-opacity="1" /><path clip-path="url(#clip070)" d="M2148.49 179.509 L2154.79 179.509 L2170.11 208.421 L2170.11 179.509 L2174.65 179.509 L2174.65 214.069 L2168.35 214.069 L2153.03 185.157 L2153.03 214.069 L2148.49 214.069 L2148.49 179.509 Z" fill="#000000" fill-rule="nonzero" fill-opacity="1" /><polyline clip-path="url(#clip070)" style="stroke:#3da44d; stroke-linecap:round; stroke-linejoin:round; stroke-width:4; stroke-opacity:1; fill:none" points="1895.46,248.629 2035.54,248.629 "/>
<path clip-path="url(#clip070)" d="M1965.5 270.246 L1950.21 263.912 L1943.88 248.629 L1950.21 233.345 L1965.5 227.011 L1980.78 233.345 L1987.12 248.629 L1980.78 263.912 Z" fill="#3da44d" fill-rule="evenodd" fill-opacity="1" stroke="#000000" stroke-opacity="1" stroke-width="4.55111"/>
<path clip-path="url(#clip070)" d="M2086.75 234.011 L2086.75 238.941 Q2084.39 236.742 2081.71 235.654 Q2079.05 234.566 2076.04 234.566 Q2070.11 234.566 2066.96 238.2 Q2063.81 241.812 2063.81 248.663 Q2063.81 255.492 2066.96 259.126 Q2070.11 262.737 2076.04 262.737 Q2079.05 262.737 2081.71 261.649 Q2084.39 260.561 2086.75 258.362 L2086.75 263.247 Q2084.3 264.913 2081.55 265.747 Q2078.81 266.58 2075.76 266.58 Q2067.91 266.58 2063.4 261.788 Q2058.88 256.973 2058.88 248.663 Q2058.88 240.33 2063.4 235.538 Q2067.91 230.724 2075.76 230.724 Q2078.86 230.724 2081.59 231.557 Q2084.35 232.367 2086.75 234.011 Z" fill="#000000" fill-rule="nonzero" fill-opacity="1" /><path clip-path="url(#clip070)" d="M2089.19 231.349 L2118.42 231.349 L2118.42 235.284 L2106.15 235.284 L2106.15 265.909 L2101.45 265.909 L2101.45 235.284 L2089.19 235.284 L2089.19 231.349 Z" fill="#000000" fill-rule="nonzero" fill-opacity="1" /><path clip-path="url(#clip070)" d="M2117.31 231.349 L2146.55 231.349 L2146.55 235.284 L2134.28 235.284 L2134.28 265.909 L2129.58 265.909 L2129.58 235.284 L2117.31 235.284 L2117.31 231.349 Z" fill="#000000" fill-rule="nonzero" fill-opacity="1" /><path clip-path="url(#clip070)" d="M2151.06 231.349 L2157.36 231.349 L2172.68 260.261 L2172.68 231.349 L2177.22 231.349 L2177.22 265.909 L2170.92 265.909 L2155.6 236.997 L2155.6 265.909 L2151.06 265.909 L2151.06 231.349 Z" fill="#000000" fill-rule="nonzero" fill-opacity="1" /><polyline clip-path="url(#clip070)" style="stroke:#c271d2; stroke-linecap:round; stroke-linejoin:round; stroke-width:4; stroke-opacity:1; fill:none" points="1895.46,300.469 2035.54,300.469 "/>
<path clip-path="url(#clip070)" d="M1965.5 322.086 L1950.21 315.752 L1943.88 300.469 L1950.21 285.185 L1965.5 278.851 L1980.78 285.185 L1987.12 300.469 L1980.78 315.752 Z" fill="#c271d2" fill-rule="evenodd" fill-opacity="1" stroke="#000000" stroke-opacity="1" stroke-width="4.55111"/>
<path clip-path="url(#clip070)" d="M2074.9 286.36 Q2069.81 286.36 2066.8 290.156 Q2063.81 293.952 2063.81 300.503 Q2063.81 307.031 2066.8 310.827 Q2069.81 314.624 2074.9 314.624 Q2080 314.624 2082.96 310.827 Q2085.94 307.031 2085.94 300.503 Q2085.94 293.952 2082.96 290.156 Q2080 286.36 2074.9 286.36 M2081.45 317.124 L2087.61 323.86 L2081.96 323.86 L2076.85 318.327 Q2076.08 318.374 2075.67 318.397 Q2075.27 318.42 2074.9 318.42 Q2067.61 318.42 2063.24 313.559 Q2058.88 308.675 2058.88 300.503 Q2058.88 292.309 2063.24 287.448 Q2067.61 282.564 2074.9 282.564 Q2082.17 282.564 2086.52 287.448 Q2090.87 292.309 2090.87 300.503 Q2090.87 306.522 2088.44 310.804 Q2086.04 315.087 2081.45 317.124 Z" fill="#000000" fill-rule="nonzero" fill-opacity="1" /><path clip-path="url(#clip070)" d="M2093.4 283.189 L2122.63 283.189 L2122.63 287.124 L2110.37 287.124 L2110.37 317.749 L2105.67 317.749 L2105.67 287.124 L2093.4 287.124 L2093.4 283.189 Z" fill="#000000" fill-rule="nonzero" fill-opacity="1" /><path clip-path="url(#clip070)" d="M2121.52 283.189 L2150.76 283.189 L2150.76 287.124 L2138.49 287.124 L2138.49 317.749 L2133.79 317.749 L2133.79 287.124 L2121.52 287.124 L2121.52 283.189 Z" fill="#000000" fill-rule="nonzero" fill-opacity="1" /><path clip-path="url(#clip070)" d="M2174.79 325.619 L2174.79 328.929 L2150.16 328.929 L2150.16 325.619 L2174.79 325.619 Z" fill="#000000" fill-rule="nonzero" fill-opacity="1" /><path clip-path="url(#clip070)" d="M2178.98 283.189 L2183.65 283.189 L2183.65 317.749 L2178.98 317.749 L2178.98 283.189 Z" fill="#000000" fill-rule="nonzero" fill-opacity="1" /><path clip-path="url(#clip070)" d="M2214.32 302.101 L2214.32 317.749 L2210.06 317.749 L2210.06 302.239 Q2210.06 298.559 2208.63 296.73 Q2207.19 294.902 2204.32 294.902 Q2200.87 294.902 2198.88 297.101 Q2196.89 299.3 2196.89 303.096 L2196.89 317.749 L2192.61 317.749 L2192.61 291.823 L2196.89 291.823 L2196.89 295.851 Q2198.42 293.513 2200.48 292.355 Q2202.56 291.198 2205.27 291.198 Q2209.74 291.198 2212.03 293.976 Q2214.32 296.73 2214.32 302.101 Z" fill="#000000" fill-rule="nonzero" fill-opacity="1" /><path clip-path="url(#clip070)" d="M2227.03 284.462 L2227.03 291.823 L2235.8 291.823 L2235.8 295.133 L2227.03 295.133 L2227.03 309.207 Q2227.03 312.378 2227.89 313.281 Q2228.77 314.184 2231.43 314.184 L2235.8 314.184 L2235.8 317.749 L2231.43 317.749 Q2226.5 317.749 2224.62 315.92 Q2222.75 314.068 2222.75 309.207 L2222.75 295.133 L2219.62 295.133 L2219.62 291.823 L2222.75 291.823 L2222.75 284.462 L2227.03 284.462 Z" fill="#000000" fill-rule="nonzero" fill-opacity="1" /></svg>
