<?xml version="1.0" encoding="utf-8"?>
<svg xmlns="http://www.w3.org/2000/svg" xmlns:xlink="http://www.w3.org/1999/xlink" width="600" height="400" viewBox="0 0 2400 1600">
<defs>
  <clipPath id="clip700">
    <rect x="0" y="0" width="2400" height="1600"/>
  </clipPath>
</defs>
<path clip-path="url(#clip700)" d="M0 1600 L2400 1600 L2400 8.88178e-14 L0 8.88178e-14  Z" fill="#ffffff" fill-rule="evenodd" fill-opacity="1"/>
<defs>
  <clipPath id="clip701">
    <rect x="480" y="0" width="1681" height="1600"/>
  </clipPath>
</defs>
<path clip-path="url(#clip700)" d="M251.56 1423.18 L2352.76 1423.18 L2352.76 47.2441 L251.56 47.2441  Z" fill="#ffffff" fill-rule="evenodd" fill-opacity="1"/>
<defs>
  <clipPath id="clip702">
    <rect x="251" y="47" width="2102" height="1377"/>
  </clipPath>
</defs>
<polyline clip-path="url(#clip702)" style="stroke:#000000; stroke-linecap:round; stroke-linejoin:round; stroke-width:2; stroke-opacity:0.1; fill:none" points="619.38,1423.18 619.38,47.2441 "/>
<polyline clip-path="url(#clip702)" style="stroke:#000000; stroke-linecap:round; stroke-linejoin:round; stroke-width:2; stroke-opacity:0.1; fill:none" points="1059.88,1423.18 1059.88,47.2441 "/>
<polyline clip-path="url(#clip702)" style="stroke:#000000; stroke-linecap:round; stroke-linejoin:round; stroke-width:2; stroke-opacity:0.1; fill:none" points="1500.38,1423.18 1500.38,47.2441 "/>
<polyline clip-path="url(#clip702)" style="stroke:#000000; stroke-linecap:round; stroke-linejoin:round; stroke-width:2; stroke-opacity:0.1; fill:none" points="1940.89,1423.18 1940.89,47.2441 "/>
<polyline clip-path="url(#clip702)" style="stroke:#000000; stroke-linecap:round; stroke-linejoin:round; stroke-width:2; stroke-opacity:0.1; fill:none" points="251.56,988.997 2352.76,988.997 "/>
<polyline clip-path="url(#clip702)" style="stroke:#000000; stroke-linecap:round; stroke-linejoin:round; stroke-width:2; stroke-opacity:0.1; fill:none" points="251.56,170.341 2352.76,170.341 "/>
<polyline clip-path="url(#clip700)" style="stroke:#000000; stroke-linecap:round; stroke-linejoin:round; stroke-width:4; stroke-opacity:1; fill:none" points="251.56,1423.18 2352.76,1423.18 "/>
<polyline clip-path="url(#clip700)" style="stroke:#000000; stroke-linecap:round; stroke-linejoin:round; stroke-width:4; stroke-opacity:1; fill:none" points="619.38,1423.18 619.38,1404.28 "/>
<polyline clip-path="url(#clip700)" style="stroke:#000000; stroke-linecap:round; stroke-linejoin:round; stroke-width:4; stroke-opacity:1; fill:none" points="1059.88,1423.18 1059.88,1404.28 "/>
<polyline clip-path="url(#clip700)" style="stroke:#000000; stroke-linecap:round; stroke-linejoin:round; stroke-width:4; stroke-opacity:1; fill:none" points="1500.38,1423.18 1500.38,1404.28 "/>
<polyline clip-path="url(#clip700)" style="stroke:#000000; stroke-linecap:round; stroke-linejoin:round; stroke-width:4; stroke-opacity:1; fill:none" points="1940.89,1423.18 1940.89,1404.28 "/>
<path clip-path="url(#clip700)" d="M594.067 1481.64 L601.706 1481.64 L601.706 1455.28 L593.396 1456.95 L593.396 1452.69 L601.66 1451.02 L606.336 1451.02 L606.336 1481.64 L613.975 1481.64 L613.975 1485.58 L594.067 1485.58 L594.067 1481.64 Z" fill="#000000" fill-rule="nonzero" fill-opacity="1" /><path clip-path="url(#clip700)" d="M633.419 1454.1 Q629.808 1454.1 627.979 1457.66 Q626.174 1461.2 626.174 1468.33 Q626.174 1475.44 627.979 1479.01 Q629.808 1482.55 633.419 1482.55 Q637.053 1482.55 638.859 1479.01 Q640.687 1475.44 640.687 1468.33 Q640.687 1461.2 638.859 1457.66 Q637.053 1454.1 633.419 1454.1 M633.419 1450.39 Q639.229 1450.39 642.285 1455 Q645.363 1459.58 645.363 1468.33 Q645.363 1477.06 642.285 1481.67 Q639.229 1486.25 633.419 1486.25 Q627.609 1486.25 624.53 1481.67 Q621.475 1477.06 621.475 1468.33 Q621.475 1459.58 624.53 1455 Q627.609 1450.39 633.419 1450.39 Z" fill="#000000" fill-rule="nonzero" fill-opacity="1" /><path clip-path="url(#clip700)" d="M1038.66 1481.64 L1054.97 1481.64 L1054.97 1485.58 L1033.03 1485.58 L1033.03 1481.64 Q1035.69 1478.89 1040.28 1474.26 Q1044.88 1469.61 1046.06 1468.27 Q1048.31 1465.74 1049.19 1464.01 Q1050.09 1462.25 1050.09 1460.56 Q1050.09 1457.8 1048.15 1456.07 Q1046.22 1454.33 1043.12 1454.33 Q1040.92 1454.33 1038.47 1455.09 Q1036.04 1455.86 1033.26 1457.41 L1033.26 1452.69 Q1036.09 1451.55 1038.54 1450.97 Q1040.99 1450.39 1043.03 1450.39 Q1048.4 1450.39 1051.59 1453.08 Q1054.79 1455.77 1054.79 1460.26 Q1054.79 1462.39 1053.98 1464.31 Q1053.19 1466.2 1051.09 1468.8 Q1050.51 1469.47 1047.41 1472.69 Q1044.3 1475.88 1038.66 1481.64 Z" fill="#000000" fill-rule="nonzero" fill-opacity="1" /><path clip-path="url(#clip700)" d="M1074.79 1454.1 Q1071.18 1454.1 1069.35 1457.66 Q1067.54 1461.2 1067.54 1468.33 Q1067.54 1475.44 1069.35 1479.01 Q1071.18 1482.55 1074.79 1482.55 Q1078.42 1482.55 1080.23 1479.01 Q1082.06 1475.44 1082.06 1468.33 Q1082.06 1461.2 1080.23 1457.66 Q1078.42 1454.1 1074.79 1454.1 M1074.79 1450.39 Q1080.6 1450.39 1083.65 1455 Q1086.73 1459.58 1086.73 1468.33 Q1086.73 1477.06 1083.65 1481.67 Q1080.6 1486.25 1074.79 1486.25 Q1068.98 1486.25 1065.9 1481.67 Q1062.84 1477.06 1062.84 1468.33 Q1062.84 1459.58 1065.9 1455 Q1068.98 1450.39 1074.79 1450.39 Z" fill="#000000" fill-rule="nonzero" fill-opacity="1" /><path clip-path="url(#clip700)" d="M1489.23 1466.95 Q1492.58 1467.66 1494.46 1469.93 Q1496.36 1472.2 1496.36 1475.53 Q1496.36 1480.65 1492.84 1483.45 Q1489.32 1486.25 1482.84 1486.25 Q1480.66 1486.25 1478.35 1485.81 Q1476.06 1485.39 1473.6 1484.54 L1473.6 1480.02 Q1475.55 1481.16 1477.86 1481.74 Q1480.18 1482.32 1482.7 1482.32 Q1487.1 1482.32 1489.39 1480.58 Q1491.7 1478.84 1491.7 1475.53 Q1491.7 1472.48 1489.55 1470.77 Q1487.42 1469.03 1483.6 1469.03 L1479.57 1469.03 L1479.57 1465.19 L1483.79 1465.19 Q1487.24 1465.19 1489.06 1463.82 Q1490.89 1462.43 1490.89 1459.84 Q1490.89 1457.18 1489 1455.77 Q1487.12 1454.33 1483.6 1454.33 Q1481.68 1454.33 1479.48 1454.75 Q1477.28 1455.16 1474.64 1456.04 L1474.64 1451.88 Q1477.31 1451.14 1479.62 1450.77 Q1481.96 1450.39 1484.02 1450.39 Q1489.34 1450.39 1492.44 1452.83 Q1495.55 1455.23 1495.55 1459.35 Q1495.55 1462.22 1493.9 1464.21 Q1492.26 1466.18 1489.23 1466.95 Z" fill="#000000" fill-rule="nonzero" fill-opacity="1" /><path clip-path="url(#clip700)" d="M1515.22 1454.1 Q1511.61 1454.1 1509.78 1457.66 Q1507.98 1461.2 1507.98 1468.33 Q1507.98 1475.44 1509.78 1479.01 Q1511.61 1482.55 1515.22 1482.55 Q1518.86 1482.55 1520.66 1479.01 Q1522.49 1475.44 1522.49 1468.33 Q1522.49 1461.2 1520.66 1457.66 Q1518.86 1454.1 1515.22 1454.1 M1515.22 1450.39 Q1521.03 1450.39 1524.09 1455 Q1527.17 1459.58 1527.17 1468.33 Q1527.17 1477.06 1524.09 1481.67 Q1521.03 1486.25 1515.22 1486.25 Q1509.41 1486.25 1506.33 1481.67 Q1503.28 1477.06 1503.28 1468.33 Q1503.28 1459.58 1506.33 1455 Q1509.41 1450.39 1515.22 1450.39 Z" fill="#000000" fill-rule="nonzero" fill-opacity="1" /><path clip-path="url(#clip700)" d="M1929.06 1455.09 L1917.25 1473.54 L1929.06 1473.54 L1929.06 1455.09 M1927.83 1451.02 L1933.71 1451.02 L1933.71 1473.54 L1938.64 1473.54 L1938.64 1477.43 L1933.71 1477.43 L1933.71 1485.58 L1929.06 1485.58 L1929.06 1477.43 L1913.46 1477.43 L1913.46 1472.92 L1927.83 1451.02 Z" fill="#000000" fill-rule="nonzero" fill-opacity="1" /><path clip-path="url(#clip700)" d="M1956.37 1454.1 Q1952.76 1454.1 1950.93 1457.66 Q1949.13 1461.2 1949.13 1468.33 Q1949.13 1475.44 1950.93 1479.01 Q1952.76 1482.55 1956.37 1482.55 Q1960.01 1482.55 1961.81 1479.01 Q1963.64 1475.44 1963.64 1468.33 Q1963.64 1461.2 1961.81 1457.66 Q1960.01 1454.1 1956.37 1454.1 M1956.37 1450.39 Q1962.18 1450.39 1965.24 1455 Q1968.32 1459.58 1968.32 1468.33 Q1968.32 1477.06 1965.24 1481.67 Q1962.18 1486.25 1956.37 1486.25 Q1950.56 1486.25 1947.48 1481.67 Q1944.43 1477.06 1944.43 1468.33 Q1944.43 1459.58 1947.48 1455 Q1950.56 1450.39 1956.37 1450.39 Z" fill="#000000" fill-rule="nonzero" fill-opacity="1" /><path clip-path="url(#clip700)" d="M969.216 1520.52 L978.796 1520.52 L990.923 1552.86 L1003.11 1520.52 L1012.69 1520.52 L1012.69 1568.04 L1006.42 1568.04 L1006.42 1526.32 L994.169 1558.91 L987.708 1558.91 L975.454 1526.32 L975.454 1568.04 L969.216 1568.04 L969.216 1520.52 Z" fill="#000000" fill-rule="nonzero" fill-opacity="1" /><path clip-path="url(#clip700)" d="M1041.4 1550.12 Q1034.31 1550.12 1031.57 1551.75 Q1028.83 1553.37 1028.83 1557.29 Q1028.83 1560.4 1030.87 1562.25 Q1032.94 1564.07 1036.47 1564.07 Q1041.34 1564.07 1044.27 1560.63 Q1047.23 1557.16 1047.23 1551.43 L1047.23 1550.12 L1041.4 1550.12 M1053.08 1547.71 L1053.08 1568.04 L1047.23 1568.04 L1047.23 1562.63 Q1045.22 1565.88 1042.23 1567.44 Q1039.24 1568.97 1034.91 1568.97 Q1029.44 1568.97 1026.19 1565.91 Q1022.97 1562.82 1022.97 1557.67 Q1022.97 1551.65 1026.98 1548.6 Q1031.03 1545.54 1039.02 1545.54 L1047.23 1545.54 L1047.23 1544.97 Q1047.23 1540.93 1044.55 1538.73 Q1041.91 1536.5 1037.11 1536.5 Q1034.05 1536.5 1031.15 1537.23 Q1028.26 1537.97 1025.58 1539.43 L1025.58 1534.02 Q1028.8 1532.78 1031.82 1532.17 Q1034.85 1531.54 1037.71 1531.54 Q1045.45 1531.54 1049.26 1535.55 Q1053.08 1539.56 1053.08 1547.71 Z" fill="#000000" fill-rule="nonzero" fill-opacity="1" /><path clip-path="url(#clip700)" d="M1094.78 1532.4 L1081.89 1549.74 L1095.45 1568.04 L1088.54 1568.04 L1078.16 1554.04 L1067.79 1568.04 L1060.88 1568.04 L1074.73 1549.39 L1062.06 1532.4 L1068.97 1532.4 L1078.42 1545.1 L1087.87 1532.4 L1094.78 1532.4 Z" fill="#000000" fill-rule="nonzero" fill-opacity="1" /><path clip-path="url(#clip700)" d="M1150.03 1550.25 Q1150.03 1543.79 1147.36 1540.13 Q1144.72 1536.44 1140.07 1536.44 Q1135.42 1536.44 1132.75 1540.13 Q1130.11 1543.79 1130.11 1550.25 Q1130.11 1556.71 1132.75 1560.4 Q1135.42 1564.07 1140.07 1564.07 Q1144.72 1564.07 1147.36 1560.4 Q1150.03 1556.71 1150.03 1550.25 M1130.11 1537.81 Q1131.95 1534.62 1134.76 1533.1 Q1137.59 1531.54 1141.5 1531.54 Q1148 1531.54 1152.04 1536.69 Q1156.11 1541.85 1156.11 1550.25 Q1156.11 1558.65 1152.04 1563.81 Q1148 1568.97 1141.5 1568.97 Q1137.59 1568.97 1134.76 1567.44 Q1131.95 1565.88 1130.11 1562.7 L1130.11 1568.04 L1124.22 1568.04 L1124.22 1518.52 L1130.11 1518.52 L1130.11 1537.81 Z" fill="#000000" fill-rule="nonzero" fill-opacity="1" /><path clip-path="url(#clip700)" d="M1179.63 1536.5 Q1174.92 1536.5 1172.19 1540.19 Q1169.45 1543.85 1169.45 1550.25 Q1169.45 1556.65 1172.15 1560.34 Q1174.89 1564 1179.63 1564 Q1184.31 1564 1187.05 1560.31 Q1189.79 1556.62 1189.79 1550.25 Q1189.79 1543.92 1187.05 1540.23 Q1184.31 1536.5 1179.63 1536.5 M1179.63 1531.54 Q1187.27 1531.54 1191.63 1536.5 Q1195.99 1541.47 1195.99 1550.25 Q1195.99 1559 1191.63 1564 Q1187.27 1568.97 1179.63 1568.97 Q1171.96 1568.97 1167.6 1564 Q1163.27 1559 1163.27 1550.25 Q1163.27 1541.47 1167.6 1536.5 Q1171.96 1531.54 1179.63 1531.54 Z" fill="#000000" fill-rule="nonzero" fill-opacity="1" /><path clip-path="url(#clip700)" d="M1235.33 1546.53 L1235.33 1568.04 L1229.48 1568.04 L1229.48 1546.72 Q1229.48 1541.66 1227.5 1539.14 Q1225.53 1536.63 1221.58 1536.63 Q1216.84 1536.63 1214.1 1539.65 Q1211.37 1542.68 1211.37 1547.9 L1211.37 1568.04 L1205.48 1568.04 L1205.48 1532.4 L1211.37 1532.4 L1211.37 1537.93 Q1213.47 1534.72 1216.3 1533.13 Q1219.17 1531.54 1222.89 1531.54 Q1229.03 1531.54 1232.18 1535.36 Q1235.33 1539.14 1235.33 1546.53 Z" fill="#000000" fill-rule="nonzero" fill-opacity="1" /><path clip-path="url(#clip700)" d="M1270.47 1537.81 L1270.47 1518.52 L1276.33 1518.52 L1276.33 1568.04 L1270.47 1568.04 L1270.47 1562.7 Q1268.63 1565.88 1265.79 1567.44 Q1262.99 1568.97 1259.05 1568.97 Q1252.59 1568.97 1248.51 1563.81 Q1244.47 1558.65 1244.47 1550.25 Q1244.47 1541.85 1248.51 1536.69 Q1252.59 1531.54 1259.05 1531.54 Q1262.99 1531.54 1265.79 1533.1 Q1268.63 1534.62 1270.47 1537.81 M1250.52 1550.25 Q1250.52 1556.71 1253.16 1560.4 Q1255.83 1564.07 1260.48 1564.07 Q1265.13 1564.07 1267.8 1560.4 Q1270.47 1556.71 1270.47 1550.25 Q1270.47 1543.79 1267.8 1540.13 Q1265.13 1536.44 1260.48 1536.44 Q1255.83 1536.44 1253.16 1540.13 Q1250.52 1543.79 1250.52 1550.25 Z" fill="#000000" fill-rule="nonzero" fill-opacity="1" /><path clip-path="url(#clip700)" d="M1332.57 1537.81 L1332.57 1518.52 L1338.43 1518.52 L1338.43 1568.04 L1332.57 1568.04 L1332.57 1562.7 Q1330.72 1565.88 1327.89 1567.44 Q1325.09 1568.97 1321.14 1568.97 Q1314.68 1568.97 1310.61 1563.81 Q1306.57 1558.65 1306.57 1550.25 Q1306.57 1541.85 1310.61 1536.69 Q1314.68 1531.54 1321.14 1531.54 Q1325.09 1531.54 1327.89 1533.1 Q1330.72 1534.62 1332.57 1537.81 M1312.61 1550.25 Q1312.61 1556.71 1315.26 1560.4 Q1317.93 1564.07 1322.58 1564.07 Q1327.22 1564.07 1329.9 1560.4 Q1332.57 1556.71 1332.57 1550.25 Q1332.57 1543.79 1329.9 1540.13 Q1327.22 1536.44 1322.58 1536.44 Q1317.93 1536.44 1315.26 1540.13 Q1312.61 1543.79 1312.61 1550.25 Z" fill="#000000" fill-rule="nonzero" fill-opacity="1" /><path clip-path="url(#clip700)" d="M1350.49 1532.4 L1356.35 1532.4 L1356.35 1568.04 L1350.49 1568.04 L1350.49 1532.4 M1350.49 1518.52 L1356.35 1518.52 L1356.35 1525.93 L1350.49 1525.93 L1350.49 1518.52 Z" fill="#000000" fill-rule="nonzero" fill-opacity="1" /><path clip-path="url(#clip700)" d="M1396.35 1539.24 Q1398.55 1535.29 1401.61 1533.41 Q1404.66 1531.54 1408.8 1531.54 Q1414.37 1531.54 1417.39 1535.45 Q1420.42 1539.33 1420.42 1546.53 L1420.42 1568.04 L1414.53 1568.04 L1414.53 1546.72 Q1414.53 1541.59 1412.71 1539.11 Q1410.9 1536.63 1407.18 1536.63 Q1402.62 1536.63 1399.98 1539.65 Q1397.34 1542.68 1397.34 1547.9 L1397.34 1568.04 L1391.45 1568.04 L1391.45 1546.72 Q1391.45 1541.56 1389.64 1539.11 Q1387.82 1536.63 1384.04 1536.63 Q1379.55 1536.63 1376.91 1539.68 Q1374.27 1542.71 1374.27 1547.9 L1374.27 1568.04 L1368.38 1568.04 L1368.38 1532.4 L1374.27 1532.4 L1374.27 1537.93 Q1376.27 1534.66 1379.07 1533.1 Q1381.87 1531.54 1385.72 1531.54 Q1389.61 1531.54 1392.31 1533.51 Q1395.05 1535.48 1396.35 1539.24 Z" fill="#000000" fill-rule="nonzero" fill-opacity="1" /><path clip-path="url(#clip700)" d="M1462.59 1548.76 L1462.59 1551.62 L1435.66 1551.62 Q1436.04 1557.67 1439.29 1560.85 Q1442.57 1564 1448.39 1564 Q1451.77 1564 1454.92 1563.17 Q1458.1 1562.35 1461.22 1560.69 L1461.22 1566.23 Q1458.07 1567.57 1454.76 1568.27 Q1451.45 1568.97 1448.04 1568.97 Q1439.51 1568.97 1434.52 1564 Q1429.55 1559.04 1429.55 1550.57 Q1429.55 1541.82 1434.26 1536.69 Q1439 1531.54 1447.03 1531.54 Q1454.22 1531.54 1458.39 1536.18 Q1462.59 1540.8 1462.59 1548.76 M1456.73 1547.04 Q1456.67 1542.23 1454.03 1539.37 Q1451.42 1536.5 1447.09 1536.5 Q1442.19 1536.5 1439.23 1539.27 Q1436.3 1542.04 1435.85 1547.07 L1456.73 1547.04 Z" fill="#000000" fill-rule="nonzero" fill-opacity="1" /><path clip-path="url(#clip700)" d="M1501.83 1546.53 L1501.83 1568.04 L1495.98 1568.04 L1495.98 1546.72 Q1495.98 1541.66 1494 1539.14 Q1492.03 1536.63 1488.08 1536.63 Q1483.34 1536.63 1480.6 1539.65 Q1477.87 1542.68 1477.87 1547.9 L1477.87 1568.04 L1471.98 1568.04 L1471.98 1532.4 L1477.87 1532.4 L1477.87 1537.93 Q1479.97 1534.72 1482.8 1533.13 Q1485.67 1531.54 1489.39 1531.54 Q1495.53 1531.54 1498.68 1535.36 Q1501.83 1539.14 1501.83 1546.53 Z" fill="#000000" fill-rule="nonzero" fill-opacity="1" /><path clip-path="url(#clip700)" d="M1536.24 1533.45 L1536.24 1538.98 Q1533.76 1537.71 1531.08 1537.07 Q1528.41 1536.44 1525.55 1536.44 Q1521.19 1536.44 1518.99 1537.77 Q1516.83 1539.11 1516.83 1541.79 Q1516.83 1543.82 1518.39 1545 Q1519.94 1546.15 1524.66 1547.2 L1526.66 1547.64 Q1532.9 1548.98 1535.51 1551.43 Q1538.15 1553.85 1538.15 1558.21 Q1538.15 1563.17 1534.2 1566.07 Q1530.29 1568.97 1523.41 1568.97 Q1520.55 1568.97 1517.43 1568.39 Q1514.34 1567.85 1510.91 1566.74 L1510.91 1560.69 Q1514.15 1562.38 1517.3 1563.24 Q1520.45 1564.07 1523.54 1564.07 Q1527.68 1564.07 1529.91 1562.66 Q1532.14 1561.23 1532.14 1558.65 Q1532.14 1556.27 1530.51 1554.99 Q1528.92 1553.72 1523.48 1552.54 L1521.44 1552.07 Q1516 1550.92 1513.58 1548.56 Q1511.16 1546.18 1511.16 1542.04 Q1511.16 1537.01 1514.72 1534.27 Q1518.29 1531.54 1524.85 1531.54 Q1528.09 1531.54 1530.96 1532.01 Q1533.82 1532.49 1536.24 1533.45 Z" fill="#000000" fill-rule="nonzero" fill-opacity="1" /><path clip-path="url(#clip700)" d="M1547.48 1532.4 L1553.33 1532.4 L1553.33 1568.04 L1547.48 1568.04 L1547.48 1532.4 M1547.48 1518.52 L1553.33 1518.52 L1553.33 1525.93 L1547.48 1525.93 L1547.48 1518.52 Z" fill="#000000" fill-rule="nonzero" fill-opacity="1" /><path clip-path="url(#clip700)" d="M1579.4 1536.5 Q1574.69 1536.5 1571.95 1540.19 Q1569.22 1543.85 1569.22 1550.25 Q1569.22 1556.65 1571.92 1560.34 Q1574.66 1564 1579.4 1564 Q1584.08 1564 1586.82 1560.31 Q1589.55 1556.62 1589.55 1550.25 Q1589.55 1543.92 1586.82 1540.23 Q1584.08 1536.5 1579.4 1536.5 M1579.4 1531.54 Q1587.04 1531.54 1591.4 1536.5 Q1595.76 1541.47 1595.76 1550.25 Q1595.76 1559 1591.4 1564 Q1587.04 1568.97 1579.4 1568.97 Q1571.73 1568.97 1567.37 1564 Q1563.04 1559 1563.04 1550.25 Q1563.04 1541.47 1567.37 1536.5 Q1571.73 1531.54 1579.4 1531.54 Z" fill="#000000" fill-rule="nonzero" fill-opacity="1" /><path clip-path="url(#clip700)" d="M1635.1 1546.53 L1635.1 1568.04 L1629.24 1568.04 L1629.24 1546.72 Q1629.24 1541.66 1627.27 1539.14 Q1625.3 1536.63 1621.35 1536.63 Q1616.61 1536.63 1613.87 1539.65 Q1611.13 1542.68 1611.13 1547.9 L1611.13 1568.04 L1605.25 1568.04 L1605.25 1532.4 L1611.13 1532.4 L1611.13 1537.93 Q1613.23 1534.72 1616.07 1533.13 Q1618.93 1531.54 1622.66 1531.54 Q1628.8 1531.54 1631.95 1535.36 Q1635.1 1539.14 1635.1 1546.53 Z" fill="#000000" fill-rule="nonzero" fill-opacity="1" /><polyline clip-path="url(#clip700)" style="stroke:#000000; stroke-linecap:round; stroke-linejoin:round; stroke-width:4; stroke-opacity:1; fill:none" points="251.56,1423.18 251.56,47.2441 "/>
<polyline clip-path="url(#clip700)" style="stroke:#000000; stroke-linecap:round; stroke-linejoin:round; stroke-width:4; stroke-opacity:1; fill:none" points="251.56,988.997 270.458,988.997 "/>
<polyline clip-path="url(#clip700)" style="stroke:#000000; stroke-linecap:round; stroke-linejoin:round; stroke-width:4; stroke-opacity:1; fill:none" points="251.56,170.341 270.458,170.341 "/>
<path clip-path="url(#clip700)" d="M114.931 1008.79 L122.57 1008.79 L122.57 982.424 L114.26 984.091 L114.26 979.832 L122.524 978.165 L127.2 978.165 L127.2 1008.79 L134.839 1008.79 L134.839 1012.73 L114.931 1012.73 L114.931 1008.79 Z" fill="#000000" fill-rule="nonzero" fill-opacity="1" /><path clip-path="url(#clip700)" d="M154.283 981.244 Q150.672 981.244 148.843 984.808 Q147.038 988.35 147.038 995.48 Q147.038 1002.59 148.843 1006.15 Q150.672 1009.69 154.283 1009.69 Q157.917 1009.69 159.723 1006.15 Q161.552 1002.59 161.552 995.48 Q161.552 988.35 159.723 984.808 Q157.917 981.244 154.283 981.244 M154.283 977.54 Q160.093 977.54 163.149 982.146 Q166.227 986.73 166.227 995.48 Q166.227 1004.21 163.149 1008.81 Q160.093 1013.4 154.283 1013.4 Q148.473 1013.4 145.394 1008.81 Q142.339 1004.21 142.339 995.48 Q142.339 986.73 145.394 982.146 Q148.473 977.54 154.283 977.54 Z" fill="#000000" fill-rule="nonzero" fill-opacity="1" /><path clip-path="url(#clip700)" d="M166.227 971.641 L190.339 971.641 L190.339 974.839 L166.227 974.839 L166.227 971.641 Z" fill="#000000" fill-rule="nonzero" fill-opacity="1" /><path clip-path="url(#clip700)" d="M198.577 957.235 L213.491 957.235 L213.491 960.432 L202.056 960.432 L202.056 967.316 Q202.884 967.033 203.711 966.902 Q204.539 966.751 205.366 966.751 Q210.068 966.751 212.814 969.328 Q215.56 971.905 215.56 976.306 Q215.56 980.838 212.739 983.359 Q209.918 985.86 204.783 985.86 Q203.015 985.86 201.172 985.559 Q199.348 985.258 197.392 984.656 L197.392 980.838 Q199.085 981.76 200.89 982.211 Q202.696 982.663 204.708 982.663 Q207.962 982.663 209.861 980.951 Q211.761 979.24 211.761 976.306 Q211.761 973.372 209.861 971.66 Q207.962 969.949 204.708 969.949 Q203.185 969.949 201.661 970.287 Q200.157 970.626 198.577 971.34 L198.577 957.235 Z" fill="#000000" fill-rule="nonzero" fill-opacity="1" /><path clip-path="url(#clip700)" d="M144.855 190.133 L152.493 190.133 L152.493 163.768 L144.183 165.434 L144.183 161.175 L152.447 159.508 L157.123 159.508 L157.123 190.133 L164.762 190.133 L164.762 194.068 L144.855 194.068 L144.855 190.133 Z" fill="#000000" fill-rule="nonzero" fill-opacity="1" /><path clip-path="url(#clip700)" d="M184.206 162.587 Q180.595 162.587 178.766 166.152 Q176.961 169.693 176.961 176.823 Q176.961 183.929 178.766 187.494 Q180.595 191.036 184.206 191.036 Q187.84 191.036 189.646 187.494 Q191.475 183.929 191.475 176.823 Q191.475 169.693 189.646 166.152 Q187.84 162.587 184.206 162.587 M184.206 158.883 Q190.016 158.883 193.072 163.49 Q196.151 168.073 196.151 176.823 Q196.151 185.55 193.072 190.156 Q190.016 194.74 184.206 194.74 Q178.396 194.74 175.317 190.156 Q172.262 185.55 172.262 176.823 Q172.262 168.073 175.317 163.49 Q178.396 158.883 184.206 158.883 Z" fill="#000000" fill-rule="nonzero" fill-opacity="1" /><path clip-path="url(#clip700)" d="M205.855 141.079 Q202.921 141.079 201.436 143.976 Q199.969 146.853 199.969 152.646 Q199.969 158.42 201.436 161.317 Q202.921 164.194 205.855 164.194 Q208.808 164.194 210.275 161.317 Q211.761 158.42 211.761 152.646 Q211.761 146.853 210.275 143.976 Q208.808 141.079 205.855 141.079 M205.855 138.07 Q210.576 138.07 213.059 141.813 Q215.56 145.537 215.56 152.646 Q215.56 159.737 213.059 163.479 Q210.576 167.203 205.855 167.203 Q201.135 167.203 198.633 163.479 Q196.151 159.737 196.151 152.646 Q196.151 145.537 198.633 141.813 Q201.135 138.07 205.855 138.07 Z" fill="#000000" fill-rule="nonzero" fill-opacity="1" /><path clip-path="url(#clip700)" d="M18.0438 984.429 L24.314 984.429 Q22.5634 988.09 21.704 991.336 Q20.8447 994.583 20.8447 997.606 Q20.8447 1002.86 22.8817 1005.72 Q24.9187 1008.56 28.6745 1008.56 Q31.8255 1008.56 33.4488 1006.68 Q35.0402 1004.77 36.0269 999.484 L36.8226 995.601 Q38.1912 988.408 41.6605 985.002 Q45.098 981.565 50.8908 981.565 Q57.7976 981.565 61.3624 986.212 Q64.9272 990.827 64.9272 999.771 Q64.9272 1003.14 64.1633 1006.96 Q63.3994 1010.75 61.9035 1014.83 L55.2831 1014.83 Q57.4793 1010.91 58.5933 1007.15 Q59.7073 1003.4 59.7073 999.771 Q59.7073 994.264 57.543 991.273 Q55.3786 988.281 51.3682 988.281 Q47.8671 988.281 45.8937 990.445 Q43.9204 992.577 42.9337 997.479 L42.1698 1001.39 Q40.7375 1008.59 37.682 1011.8 Q34.6264 1015.02 29.1837 1015.02 Q22.8817 1015.02 19.2532 1010.59 Q15.6248 1006.14 15.6248 998.338 Q15.6248 994.996 16.2295 991.527 Q16.8343 988.058 18.0438 984.429 Z" fill="#000000" fill-rule="nonzero" fill-opacity="1" /><path clip-path="url(#clip700)" d="M46.0847 955.593 Q46.0847 962.69 47.7079 965.428 Q49.3312 968.165 53.2461 968.165 Q56.3653 968.165 58.2114 966.128 Q60.0256 964.059 60.0256 960.526 Q60.0256 955.656 56.5881 952.728 Q53.1188 949.768 47.3897 949.768 L46.0847 949.768 L46.0847 955.593 M43.6657 943.912 L64.0042 943.912 L64.0042 949.768 L58.5933 949.768 Q61.8398 951.773 63.3994 954.765 Q64.9272 957.757 64.9272 962.086 Q64.9272 967.56 61.8716 970.807 Q58.7843 974.021 53.6281 974.021 Q47.6125 974.021 44.5569 970.011 Q41.5014 965.969 41.5014 957.98 L41.5014 949.768 L40.9285 949.768 Q36.8862 949.768 34.6901 952.442 Q32.4621 955.083 32.4621 959.89 Q32.4621 962.945 33.1941 965.842 Q33.9262 968.738 35.3903 971.412 L29.9795 971.412 Q28.7381 968.197 28.1334 965.173 Q27.4968 962.149 27.4968 959.285 Q27.4968 951.551 31.5072 947.731 Q35.5176 943.912 43.6657 943.912 Z" fill="#000000" fill-rule="nonzero" fill-opacity="1" /><path clip-path="url(#clip700)" d="M35.1993 904.094 Q31.2526 901.898 29.3747 898.842 Q27.4968 895.787 27.4968 891.649 Q27.4968 886.079 31.4117 883.056 Q35.2948 880.032 42.4881 880.032 L64.0042 880.032 L64.0042 885.92 L42.679 885.92 Q37.5546 885.92 35.072 887.734 Q32.5894 889.549 32.5894 893.272 Q32.5894 897.824 35.6131 900.466 Q38.6368 903.107 43.8567 903.107 L64.0042 903.107 L64.0042 908.996 L42.679 908.996 Q37.5228 908.996 35.072 910.81 Q32.5894 912.624 32.5894 916.412 Q32.5894 920.9 35.6449 923.541 Q38.6686 926.183 43.8567 926.183 L64.0042 926.183 L64.0042 932.071 L28.3562 932.071 L28.3562 926.183 L33.8944 926.183 Q30.616 924.178 29.0564 921.377 Q27.4968 918.576 27.4968 914.725 Q27.4968 910.842 29.4702 908.136 Q31.4436 905.399 35.1993 904.094 Z" fill="#000000" fill-rule="nonzero" fill-opacity="1" /><path clip-path="url(#clip700)" d="M58.657 862.685 L77.5631 862.685 L77.5631 868.574 L28.3562 868.574 L28.3562 862.685 L33.7671 862.685 Q30.5842 860.839 29.0564 858.038 Q27.4968 855.206 27.4968 851.291 Q27.4968 844.798 32.6531 840.755 Q37.8093 836.681 46.212 836.681 Q54.6147 836.681 59.771 840.755 Q64.9272 844.798 64.9272 851.291 Q64.9272 855.206 63.3994 858.038 Q61.8398 860.839 58.657 862.685 M46.212 842.761 Q39.7508 842.761 36.0905 845.434 Q32.3984 848.076 32.3984 852.723 Q32.3984 857.37 36.0905 860.043 Q39.7508 862.685 46.212 862.685 Q52.6732 862.685 56.3653 860.043 Q60.0256 857.37 60.0256 852.723 Q60.0256 848.076 56.3653 845.434 Q52.6732 842.761 46.212 842.761 Z" fill="#000000" fill-rule="nonzero" fill-opacity="1" /><path clip-path="url(#clip700)" d="M14.479 826.974 L14.479 821.117 L64.0042 821.117 L64.0042 826.974 L14.479 826.974 Z" fill="#000000" fill-rule="nonzero" fill-opacity="1" /><path clip-path="url(#clip700)" d="M44.7161 778.371 L47.5806 778.371 L47.5806 805.298 Q53.6281 804.916 56.8109 801.67 Q59.9619 798.392 59.9619 792.567 Q59.9619 789.193 59.1344 786.042 Q58.3069 782.859 56.6518 779.74 L62.1899 779.74 Q63.5267 782.891 64.227 786.201 Q64.9272 789.511 64.9272 792.917 Q64.9272 801.447 59.9619 806.444 Q54.9967 811.409 46.5303 811.409 Q37.7774 811.409 32.6531 806.699 Q27.4968 801.956 27.4968 793.936 Q27.4968 786.742 32.1438 782.573 Q36.7589 778.371 44.7161 778.371 M42.9973 784.228 Q38.1912 784.292 35.3266 786.933 Q32.4621 789.543 32.4621 793.872 Q32.4621 798.774 35.2312 801.734 Q38.0002 804.662 43.0292 805.107 L42.9973 784.228 Z" fill="#000000" fill-rule="nonzero" fill-opacity="1" /><path clip-path="url(#clip700)" d="M33.7671 745.302 L14.479 745.302 L14.479 739.445 L64.0042 739.445 L64.0042 745.302 L58.657 745.302 Q61.8398 747.148 63.3994 749.98 Q64.9272 752.781 64.9272 756.728 Q64.9272 763.189 59.771 767.263 Q54.6147 771.306 46.212 771.306 Q37.8093 771.306 32.6531 767.263 Q27.4968 763.189 27.4968 756.728 Q27.4968 752.781 29.0564 749.98 Q30.5842 747.148 33.7671 745.302 M46.212 765.258 Q52.6732 765.258 56.3653 762.616 Q60.0256 759.943 60.0256 755.296 Q60.0256 750.649 56.3653 747.975 Q52.6732 745.302 46.212 745.302 Q39.7508 745.302 36.0905 747.975 Q32.3984 750.649 32.3984 755.296 Q32.3984 759.943 36.0905 762.616 Q39.7508 765.258 46.212 765.258 Z" fill="#000000" fill-rule="nonzero" fill-opacity="1" /><path clip-path="url(#clip700)" d="M16.4842 706.407 L16.4842 699.978 L58.5933 699.978 L58.5933 676.838 L64.0042 676.838 L64.0042 706.407 L16.4842 706.407 Z" fill="#000000" fill-rule="nonzero" fill-opacity="1" /><path clip-path="url(#clip700)" d="M58.5933 668.404 L58.5933 657.9 L22.3406 657.9 L24.6323 669.327 L18.7758 669.327 L16.4842 657.964 L16.4842 651.535 L58.5933 651.535 L58.5933 641.031 L64.0042 641.031 L64.0042 668.404 L58.5933 668.404 Z" fill="#000000" fill-rule="nonzero" fill-opacity="1" /><path clip-path="url(#clip700)" d="M16.4842 607.898 L16.4842 577.852 L21.895 577.852 L21.895 601.468 L35.9632 601.468 L35.9632 578.838 L41.3741 578.838 L41.3741 601.468 L58.5933 601.468 L58.5933 577.279 L64.0042 577.279 L64.0042 607.898 L16.4842 607.898 Z" fill="#000000" fill-rule="nonzero" fill-opacity="1" /><path clip-path="url(#clip700)" d="M33.8307 546.31 Q33.2578 547.296 33.0032 548.474 Q32.7167 549.62 32.7167 551.02 Q32.7167 555.985 35.9632 558.659 Q39.1779 561.301 45.2253 561.301 L64.0042 561.301 L64.0042 567.189 L28.3562 567.189 L28.3562 561.301 L33.8944 561.301 Q30.6479 559.455 29.0883 556.495 Q27.4968 553.535 27.4968 549.302 Q27.4968 548.697 27.5923 547.965 Q27.656 547.233 27.8151 546.341 L33.8307 546.31 Z" fill="#000000" fill-rule="nonzero" fill-opacity="1" /><path clip-path="url(#clip700)" d="M33.8307 520.656 Q33.2578 521.643 33.0032 522.82 Q32.7167 523.966 32.7167 525.366 Q32.7167 530.332 35.9632 533.005 Q39.1779 535.647 45.2253 535.647 L64.0042 535.647 L64.0042 541.535 L28.3562 541.535 L28.3562 535.647 L33.8944 535.647 Q30.6479 533.801 29.0883 530.841 Q27.4968 527.881 27.4968 523.648 Q27.4968 523.043 27.5923 522.311 Q27.656 521.579 27.8151 520.688 L33.8307 520.656 Z" fill="#000000" fill-rule="nonzero" fill-opacity="1" /><path clip-path="url(#clip700)" d="M32.4621 502.132 Q32.4621 506.842 36.1542 509.579 Q39.8145 512.317 46.212 512.317 Q52.6095 512.317 56.3017 509.611 Q59.9619 506.874 59.9619 502.132 Q59.9619 497.453 56.2698 494.716 Q52.5777 491.978 46.212 491.978 Q39.8781 491.978 36.186 494.716 Q32.4621 497.453 32.4621 502.132 M27.4968 502.132 Q27.4968 494.493 32.4621 490.132 Q37.4273 485.772 46.212 485.772 Q54.9649 485.772 59.9619 490.132 Q64.9272 494.493 64.9272 502.132 Q64.9272 509.802 59.9619 514.163 Q54.9649 518.491 46.212 518.491 Q37.4273 518.491 32.4621 514.163 Q27.4968 509.802 27.4968 502.132 Z" fill="#000000" fill-rule="nonzero" fill-opacity="1" /><path clip-path="url(#clip700)" d="M33.8307 455.407 Q33.2578 456.394 33.0032 457.572 Q32.7167 458.718 32.7167 460.118 Q32.7167 465.083 35.9632 467.757 Q39.1779 470.399 45.2253 470.399 L64.0042 470.399 L64.0042 476.287 L28.3562 476.287 L28.3562 470.399 L33.8944 470.399 Q30.6479 468.553 29.0883 465.592 Q27.4968 462.632 27.4968 458.399 Q27.4968 457.794 27.5923 457.062 Q27.656 456.33 27.8151 455.439 L33.8307 455.407 Z" fill="#000000" fill-rule="nonzero" fill-opacity="1" /><polyline clip-path="url(#clip702)" style="stroke:#009af9; stroke-linecap:round; stroke-linejoin:round; stroke-width:4; stroke-opacity:1; fill:none" points="311.028,86.1857 443.179,90.9671 575.329,93.4574 707.48,92.5745 839.631,103.97 971.781,108.747 1103.93,118.172 1236.08,148.408 1368.23,169.739 1500.38,202.748 1632.53,239.269 1764.69,298.874 1896.84,352.072 2028.99,443.37 2161.14,542.046 2293.29,689.699 "/>
<path clip-path="url(#clip702)" d="M311.028 102.186 L299.716 97.4977 L295.028 86.1857 L299.716 74.8737 L311.028 70.1857 L322.34 74.8737 L327.028 86.1857 L322.34 97.4977 Z" fill="#009af9" fill-rule="evenodd" fill-opacity="1" stroke="#000000" stroke-opacity="1" stroke-width="3.2"/>
<path clip-path="url(#clip702)" d="M443.179 106.967 L431.867 102.279 L427.179 90.9671 L431.867 79.6551 L443.179 74.9671 L454.491 79.6551 L459.179 90.9671 L454.491 102.279 Z" fill="#009af9" fill-rule="evenodd" fill-opacity="1" stroke="#000000" stroke-opacity="1" stroke-width="3.2"/>
<path clip-path="url(#clip702)" d="M575.329 109.457 L564.017 104.769 L559.329 93.4574 L564.017 82.1454 L575.329 77.4574 L586.641 82.1454 L591.329 93.4574 L586.641 104.769 Z" fill="#009af9" fill-rule="evenodd" fill-opacity="1" stroke="#000000" stroke-opacity="1" stroke-width="3.2"/>
<path clip-path="url(#clip702)" d="M707.48 108.575 L696.168 103.887 L691.48 92.5745 L696.168 81.2625 L707.48 76.5745 L718.792 81.2625 L723.48 92.5745 L718.792 103.887 Z" fill="#009af9" fill-rule="evenodd" fill-opacity="1" stroke="#000000" stroke-opacity="1" stroke-width="3.2"/>
<path clip-path="url(#clip702)" d="M839.631 119.97 L828.319 115.282 L823.631 103.97 L828.319 92.6585 L839.631 87.9705 L850.943 92.6585 L855.631 103.97 L850.943 115.282 Z" fill="#009af9" fill-rule="evenodd" fill-opacity="1" stroke="#000000" stroke-opacity="1" stroke-width="3.2"/>
<path clip-path="url(#clip702)" d="M971.781 124.747 L960.469 120.059 L955.781 108.747 L960.469 97.4348 L971.781 92.7468 L983.093 97.4348 L987.781 108.747 L983.093 120.059 Z" fill="#009af9" fill-rule="evenodd" fill-opacity="1" stroke="#000000" stroke-opacity="1" stroke-width="3.2"/>
<path clip-path="url(#clip702)" d="M1103.93 134.172 L1092.62 129.484 L1087.93 118.172 L1092.62 106.86 L1103.93 102.172 L1115.24 106.86 L1119.93 118.172 L1115.24 129.484 Z" fill="#009af9" fill-rule="evenodd" fill-opacity="1" stroke="#000000" stroke-opacity="1" stroke-width="3.2"/>
<path clip-path="url(#clip702)" d="M1236.08 164.408 L1224.77 159.72 L1220.08 148.408 L1224.77 137.096 L1236.08 132.408 L1247.39 137.096 L1252.08 148.408 L1247.39 159.72 Z" fill="#009af9" fill-rule="evenodd" fill-opacity="1" stroke="#000000" stroke-opacity="1" stroke-width="3.2"/>
<path clip-path="url(#clip702)" d="M1368.23 185.739 L1356.92 181.051 L1352.23 169.739 L1356.92 158.427 L1368.23 153.739 L1379.55 158.427 L1384.23 169.739 L1379.55 181.051 Z" fill="#009af9" fill-rule="evenodd" fill-opacity="1" stroke="#000000" stroke-opacity="1" stroke-width="3.2"/>
<path clip-path="url(#clip702)" d="M1500.38 218.748 L1489.07 214.06 L1484.38 202.748 L1489.07 191.436 L1500.38 186.748 L1511.7 191.436 L1516.38 202.748 L1511.7 214.06 Z" fill="#009af9" fill-rule="evenodd" fill-opacity="1" stroke="#000000" stroke-opacity="1" stroke-width="3.2"/>
<path clip-path="url(#clip702)" d="M1632.53 255.269 L1621.22 250.581 L1616.53 239.269 L1621.22 227.957 L1632.53 223.269 L1643.85 227.957 L1648.53 239.269 L1643.85 250.581 Z" fill="#009af9" fill-rule="evenodd" fill-opacity="1" stroke="#000000" stroke-opacity="1" stroke-width="3.2"/>
<path clip-path="url(#clip702)" d="M1764.69 314.874 L1753.37 310.186 L1748.69 298.874 L1753.37 287.562 L1764.69 282.874 L1776 287.562 L1780.69 298.874 L1776 310.186 Z" fill="#009af9" fill-rule="evenodd" fill-opacity="1" stroke="#000000" stroke-opacity="1" stroke-width="3.2"/>
<path clip-path="url(#clip702)" d="M1896.84 368.072 L1885.52 363.384 L1880.84 352.072 L1885.52 340.76 L1896.84 336.072 L1908.15 340.76 L1912.84 352.072 L1908.15 363.384 Z" fill="#009af9" fill-rule="evenodd" fill-opacity="1" stroke="#000000" stroke-opacity="1" stroke-width="3.2"/>
<path clip-path="url(#clip702)" d="M2028.99 459.37 L2017.67 454.682 L2012.99 443.37 L2017.67 432.058 L2028.99 427.37 L2040.3 432.058 L2044.99 443.37 L2040.3 454.682 Z" fill="#009af9" fill-rule="evenodd" fill-opacity="1" stroke="#000000" stroke-opacity="1" stroke-width="3.2"/>
<path clip-path="url(#clip702)" d="M2161.14 558.046 L2149.83 553.358 L2145.14 542.046 L2149.83 530.734 L2161.14 526.046 L2172.45 530.734 L2177.14 542.046 L2172.45 553.358 Z" fill="#009af9" fill-rule="evenodd" fill-opacity="1" stroke="#000000" stroke-opacity="1" stroke-width="3.2"/>
<path clip-path="url(#clip702)" d="M2293.29 705.699 L2281.98 701.011 L2277.29 689.699 L2281.98 678.387 L2293.29 673.699 L2304.6 678.387 L2309.29 689.699 L2304.6 701.011 Z" fill="#009af9" fill-rule="evenodd" fill-opacity="1" stroke="#000000" stroke-opacity="1" stroke-width="3.2"/>
<polyline clip-path="url(#clip702)" style="stroke:#e26f46; stroke-linecap:round; stroke-linejoin:round; stroke-width:4; stroke-opacity:1; fill:none" points="311.028,92.2948 443.179,104.417 575.329,126.633 707.48,158.569 839.631,226.462 971.781,479.361 1103.93,917.081 1236.08,1340.76 1368.23,1382.39 1500.38,1379.86 1632.53,1382.78 1764.69,1382.72 1896.84,1384.24 2028.99,1381.66 2161.14,1378.83 2293.29,1380.08 "/>
<path clip-path="url(#clip702)" d="M311.028 108.295 L299.716 103.607 L295.028 92.2948 L299.716 80.9828 L311.028 76.2948 L322.34 80.9828 L327.028 92.2948 L322.34 103.607 Z" fill="#e26f46" fill-rule="evenodd" fill-opacity="1" stroke="#000000" stroke-opacity="1" stroke-width="3.2"/>
<path clip-path="url(#clip702)" d="M443.179 120.417 L431.867 115.729 L427.179 104.417 L431.867 93.1048 L443.179 88.4168 L454.491 93.1048 L459.179 104.417 L454.491 115.729 Z" fill="#e26f46" fill-rule="evenodd" fill-opacity="1" stroke="#000000" stroke-opacity="1" stroke-width="3.2"/>
<path clip-path="url(#clip702)" d="M575.329 142.633 L564.017 137.945 L559.329 126.633 L564.017 115.321 L575.329 110.633 L586.641 115.321 L591.329 126.633 L586.641 137.945 Z" fill="#e26f46" fill-rule="evenodd" fill-opacity="1" stroke="#000000" stroke-opacity="1" stroke-width="3.2"/>
<path clip-path="url(#clip702)" d="M707.48 174.569 L696.168 169.881 L691.48 158.569 L696.168 147.257 L707.48 142.569 L718.792 147.257 L723.48 158.569 L718.792 169.881 Z" fill="#e26f46" fill-rule="evenodd" fill-opacity="1" stroke="#000000" stroke-opacity="1" stroke-width="3.2"/>
<path clip-path="url(#clip702)" d="M839.631 242.462 L828.319 237.774 L823.631 226.462 L828.319 215.15 L839.631 210.462 L850.943 215.15 L855.631 226.462 L850.943 237.774 Z" fill="#e26f46" fill-rule="evenodd" fill-opacity="1" stroke="#000000" stroke-opacity="1" stroke-width="3.2"/>
<path clip-path="url(#clip702)" d="M971.781 495.361 L960.469 490.673 L955.781 479.361 L960.469 468.049 L971.781 463.361 L983.093 468.049 L987.781 479.361 L983.093 490.673 Z" fill="#e26f46" fill-rule="evenodd" fill-opacity="1" stroke="#000000" stroke-opacity="1" stroke-width="3.2"/>
<path clip-path="url(#clip702)" d="M1103.93 933.081 L1092.62 928.393 L1087.93 917.081 L1092.62 905.769 L1103.93 901.081 L1115.24 905.769 L1119.93 917.081 L1115.24 928.393 Z" fill="#e26f46" fill-rule="evenodd" fill-opacity="1" stroke="#000000" stroke-opacity="1" stroke-width="3.2"/>
<path clip-path="url(#clip702)" d="M1236.08 1356.76 L1224.77 1352.08 L1220.08 1340.76 L1224.77 1329.45 L1236.08 1324.76 L1247.39 1329.45 L1252.08 1340.76 L1247.39 1352.08 Z" fill="#e26f46" fill-rule="evenodd" fill-opacity="1" stroke="#000000" stroke-opacity="1" stroke-width="3.2"/>
<path clip-path="url(#clip702)" d="M1368.23 1398.39 L1356.92 1393.7 L1352.23 1382.39 L1356.92 1371.07 L1368.23 1366.39 L1379.55 1371.07 L1384.23 1382.39 L1379.55 1393.7 Z" fill="#e26f46" fill-rule="evenodd" fill-opacity="1" stroke="#000000" stroke-opacity="1" stroke-width="3.2"/>
<path clip-path="url(#clip702)" d="M1500.38 1395.86 L1489.07 1391.17 L1484.38 1379.86 L1489.07 1368.55 L1500.38 1363.86 L1511.7 1368.55 L1516.38 1379.86 L1511.7 1391.17 Z" fill="#e26f46" fill-rule="evenodd" fill-opacity="1" stroke="#000000" stroke-opacity="1" stroke-width="3.2"/>
<path clip-path="url(#clip702)" d="M1632.53 1398.78 L1621.22 1394.09 L1616.53 1382.78 L1621.22 1371.47 L1632.53 1366.78 L1643.85 1371.47 L1648.53 1382.78 L1643.85 1394.09 Z" fill="#e26f46" fill-rule="evenodd" fill-opacity="1" stroke="#000000" stroke-opacity="1" stroke-width="3.2"/>
<path clip-path="url(#clip702)" d="M1764.69 1398.72 L1753.37 1394.03 L1748.69 1382.72 L1753.37 1371.41 L1764.69 1366.72 L1776 1371.41 L1780.69 1382.72 L1776 1394.03 Z" fill="#e26f46" fill-rule="evenodd" fill-opacity="1" stroke="#000000" stroke-opacity="1" stroke-width="3.2"/>
<path clip-path="url(#clip702)" d="M1896.84 1400.24 L1885.52 1395.55 L1880.84 1384.24 L1885.52 1372.93 L1896.84 1368.24 L1908.15 1372.93 L1912.84 1384.24 L1908.15 1395.55 Z" fill="#e26f46" fill-rule="evenodd" fill-opacity="1" stroke="#000000" stroke-opacity="1" stroke-width="3.2"/>
<path clip-path="url(#clip702)" d="M2028.99 1397.66 L2017.67 1392.97 L2012.99 1381.66 L2017.67 1370.35 L2028.99 1365.66 L2040.3 1370.35 L2044.99 1381.66 L2040.3 1392.97 Z" fill="#e26f46" fill-rule="evenodd" fill-opacity="1" stroke="#000000" stroke-opacity="1" stroke-width="3.2"/>
<path clip-path="url(#clip702)" d="M2161.14 1394.83 L2149.83 1390.14 L2145.14 1378.83 L2149.83 1367.52 L2161.14 1362.83 L2172.45 1367.52 L2177.14 1378.83 L2172.45 1390.14 Z" fill="#e26f46" fill-rule="evenodd" fill-opacity="1" stroke="#000000" stroke-opacity="1" stroke-width="3.2"/>
<path clip-path="url(#clip702)" d="M2293.29 1396.08 L2281.98 1391.39 L2277.29 1380.08 L2281.98 1368.77 L2293.29 1364.08 L2304.6 1368.77 L2309.29 1380.08 L2304.6 1391.39 Z" fill="#e26f46" fill-rule="evenodd" fill-opacity="1" stroke="#000000" stroke-opacity="1" stroke-width="3.2"/>
<polyline clip-path="url(#clip702)" style="stroke:#3da44d; stroke-linecap:round; stroke-linejoin:round; stroke-width:4; stroke-opacity:1; fill:none" points="311.028,90.7003 443.179,102.982 575.329,124.145 707.48,159.443 839.631,225.401 971.781,466.691 1103.93,893.244 1236.08,1292.43 1368.23,1334.59 1500.38,1331.66 1632.53,1331.38 1764.69,1330.39 1896.84,1334.14 2028.99,1332.08 2161.14,1331.59 2293.29,1334.84 "/>
<path clip-path="url(#clip702)" d="M311.028 106.7 L299.716 102.012 L295.028 90.7003 L299.716 79.3883 L311.028 74.7003 L322.34 79.3883 L327.028 90.7003 L322.34 102.012 Z" fill="#3da44d" fill-rule="evenodd" fill-opacity="1" stroke="#000000" stroke-opacity="1" stroke-width="3.2"/>
<path clip-path="url(#clip702)" d="M443.179 118.982 L431.867 114.294 L427.179 102.982 L431.867 91.6695 L443.179 86.9815 L454.491 91.6695 L459.179 102.982 L454.491 114.294 Z" fill="#3da44d" fill-rule="evenodd" fill-opacity="1" stroke="#000000" stroke-opacity="1" stroke-width="3.2"/>
<path clip-path="url(#clip702)" d="M575.329 140.145 L564.017 135.457 L559.329 124.145 L564.017 112.833 L575.329 108.145 L586.641 112.833 L591.329 124.145 L586.641 135.457 Z" fill="#3da44d" fill-rule="evenodd" fill-opacity="1" stroke="#000000" stroke-opacity="1" stroke-width="3.2"/>
<path clip-path="url(#clip702)" d="M707.48 175.443 L696.168 170.755 L691.48 159.443 L696.168 148.131 L707.48 143.443 L718.792 148.131 L723.48 159.443 L718.792 170.755 Z" fill="#3da44d" fill-rule="evenodd" fill-opacity="1" stroke="#000000" stroke-opacity="1" stroke-width="3.2"/>
<path clip-path="url(#clip702)" d="M839.631 241.401 L828.319 236.713 L823.631 225.401 L828.319 214.089 L839.631 209.401 L850.943 214.089 L855.631 225.401 L850.943 236.713 Z" fill="#3da44d" fill-rule="evenodd" fill-opacity="1" stroke="#000000" stroke-opacity="1" stroke-width="3.2"/>
<path clip-path="url(#clip702)" d="M971.781 482.691 L960.469 478.003 L955.781 466.691 L960.469 455.379 L971.781 450.691 L983.093 455.379 L987.781 466.691 L983.093 478.003 Z" fill="#3da44d" fill-rule="evenodd" fill-opacity="1" stroke="#000000" stroke-opacity="1" stroke-width="3.2"/>
<path clip-path="url(#clip702)" d="M1103.93 909.244 L1092.62 904.556 L1087.93 893.244 L1092.62 881.932 L1103.93 877.244 L1115.24 881.932 L1119.93 893.244 L1115.24 904.556 Z" fill="#3da44d" fill-rule="evenodd" fill-opacity="1" stroke="#000000" stroke-opacity="1" stroke-width="3.2"/>
<path clip-path="url(#clip702)" d="M1236.08 1308.43 L1224.77 1303.74 L1220.08 1292.43 L1224.77 1281.12 L1236.08 1276.43 L1247.39 1281.12 L1252.08 1292.43 L1247.39 1303.74 Z" fill="#3da44d" fill-rule="evenodd" fill-opacity="1" stroke="#000000" stroke-opacity="1" stroke-width="3.2"/>
<path clip-path="url(#clip702)" d="M1368.23 1350.59 L1356.92 1345.9 L1352.23 1334.59 L1356.92 1323.27 L1368.23 1318.59 L1379.55 1323.27 L1384.23 1334.59 L1379.55 1345.9 Z" fill="#3da44d" fill-rule="evenodd" fill-opacity="1" stroke="#000000" stroke-opacity="1" stroke-width="3.2"/>
<path clip-path="url(#clip702)" d="M1500.38 1347.66 L1489.07 1342.97 L1484.38 1331.66 L1489.07 1320.35 L1500.38 1315.66 L1511.7 1320.35 L1516.38 1331.66 L1511.7 1342.97 Z" fill="#3da44d" fill-rule="evenodd" fill-opacity="1" stroke="#000000" stroke-opacity="1" stroke-width="3.2"/>
<path clip-path="url(#clip702)" d="M1632.53 1347.38 L1621.22 1342.69 L1616.53 1331.38 L1621.22 1320.07 L1632.53 1315.38 L1643.85 1320.07 L1648.53 1331.38 L1643.85 1342.69 Z" fill="#3da44d" fill-rule="evenodd" fill-opacity="1" stroke="#000000" stroke-opacity="1" stroke-width="3.2"/>
<path clip-path="url(#clip702)" d="M1764.69 1346.39 L1753.37 1341.71 L1748.69 1330.39 L1753.37 1319.08 L1764.69 1314.39 L1776 1319.08 L1780.69 1330.39 L1776 1341.71 Z" fill="#3da44d" fill-rule="evenodd" fill-opacity="1" stroke="#000000" stroke-opacity="1" stroke-width="3.2"/>
<path clip-path="url(#clip702)" d="M1896.84 1350.14 L1885.52 1345.46 L1880.84 1334.14 L1885.52 1322.83 L1896.84 1318.14 L1908.15 1322.83 L1912.84 1334.14 L1908.15 1345.46 Z" fill="#3da44d" fill-rule="evenodd" fill-opacity="1" stroke="#000000" stroke-opacity="1" stroke-width="3.2"/>
<path clip-path="url(#clip702)" d="M2028.99 1348.08 L2017.67 1343.39 L2012.99 1332.08 L2017.67 1320.76 L2028.99 1316.08 L2040.3 1320.76 L2044.99 1332.08 L2040.3 1343.39 Z" fill="#3da44d" fill-rule="evenodd" fill-opacity="1" stroke="#000000" stroke-opacity="1" stroke-width="3.2"/>
<path clip-path="url(#clip702)" d="M2161.14 1347.59 L2149.83 1342.9 L2145.14 1331.59 L2149.83 1320.27 L2161.14 1315.59 L2172.45 1320.27 L2177.14 1331.59 L2172.45 1342.9 Z" fill="#3da44d" fill-rule="evenodd" fill-opacity="1" stroke="#000000" stroke-opacity="1" stroke-width="3.2"/>
<path clip-path="url(#clip702)" d="M2293.29 1350.84 L2281.98 1346.15 L2277.29 1334.84 L2281.98 1323.53 L2293.29 1318.84 L2304.6 1323.53 L2309.29 1334.84 L2304.6 1346.15 Z" fill="#3da44d" fill-rule="evenodd" fill-opacity="1" stroke="#000000" stroke-opacity="1" stroke-width="3.2"/>
<polyline clip-path="url(#clip702)" style="stroke:#c271d2; stroke-linecap:round; stroke-linejoin:round; stroke-width:4; stroke-opacity:1; fill:none" points="311.028,86.4665 443.179,92.5592 575.329,94.078 707.48,95.195 839.631,96.6334 971.781,94.6689 1103.93,105.349 1236.08,113.59 1368.23,128.067 1500.38,140.677 1632.53,177.038 1764.69,192.272 1896.84,222.046 2028.99,259.051 2161.14,292.398 2293.29,326.463 "/>
<path clip-path="url(#clip702)" d="M311.028 102.466 L299.716 97.7785 L295.028 86.4665 L299.716 75.1545 L311.028 70.4665 L322.34 75.1545 L327.028 86.4665 L322.34 97.7785 Z" fill="#c271d2" fill-rule="evenodd" fill-opacity="1" stroke="#000000" stroke-opacity="1" stroke-width="3.2"/>
<path clip-path="url(#clip702)" d="M443.179 108.559 L431.867 103.871 L427.179 92.5592 L431.867 81.2472 L443.179 76.5592 L454.491 81.2472 L459.179 92.5592 L454.491 103.871 Z" fill="#c271d2" fill-rule="evenodd" fill-opacity="1" stroke="#000000" stroke-opacity="1" stroke-width="3.2"/>
<path clip-path="url(#clip702)" d="M575.329 110.078 L564.017 105.39 L559.329 94.078 L564.017 82.766 L575.329 78.078 L586.641 82.766 L591.329 94.078 L586.641 105.39 Z" fill="#c271d2" fill-rule="evenodd" fill-opacity="1" stroke="#000000" stroke-opacity="1" stroke-width="3.2"/>
<path clip-path="url(#clip702)" d="M707.48 111.195 L696.168 106.507 L691.48 95.195 L696.168 83.883 L707.48 79.195 L718.792 83.883 L723.48 95.195 L718.792 106.507 Z" fill="#c271d2" fill-rule="evenodd" fill-opacity="1" stroke="#000000" stroke-opacity="1" stroke-width="3.2"/>
<path clip-path="url(#clip702)" d="M839.631 112.633 L828.319 107.945 L823.631 96.6334 L828.319 85.3214 L839.631 80.6334 L850.943 85.3214 L855.631 96.6334 L850.943 107.945 Z" fill="#c271d2" fill-rule="evenodd" fill-opacity="1" stroke="#000000" stroke-opacity="1" stroke-width="3.2"/>
<path clip-path="url(#clip702)" d="M971.781 110.669 L960.469 105.981 L955.781 94.6689 L960.469 83.3569 L971.781 78.6689 L983.093 83.3569 L987.781 94.6689 L983.093 105.981 Z" fill="#c271d2" fill-rule="evenodd" fill-opacity="1" stroke="#000000" stroke-opacity="1" stroke-width="3.2"/>
<path clip-path="url(#clip702)" d="M1103.93 121.349 L1092.62 116.661 L1087.93 105.349 L1092.62 94.0371 L1103.93 89.3491 L1115.24 94.0371 L1119.93 105.349 L1115.24 116.661 Z" fill="#c271d2" fill-rule="evenodd" fill-opacity="1" stroke="#000000" stroke-opacity="1" stroke-width="3.2"/>
<path clip-path="url(#clip702)" d="M1236.08 129.59 L1224.77 124.902 L1220.08 113.59 L1224.77 102.278 L1236.08 97.5896 L1247.39 102.278 L1252.08 113.59 L1247.39 124.902 Z" fill="#c271d2" fill-rule="evenodd" fill-opacity="1" stroke="#000000" stroke-opacity="1" stroke-width="3.2"/>
<path clip-path="url(#clip702)" d="M1368.23 144.067 L1356.92 139.379 L1352.23 128.067 L1356.92 116.755 L1368.23 112.067 L1379.55 116.755 L1384.23 128.067 L1379.55 139.379 Z" fill="#c271d2" fill-rule="evenodd" fill-opacity="1" stroke="#000000" stroke-opacity="1" stroke-width="3.2"/>
<path clip-path="url(#clip702)" d="M1500.38 156.677 L1489.07 151.989 L1484.38 140.677 L1489.07 129.365 L1500.38 124.677 L1511.7 129.365 L1516.38 140.677 L1511.7 151.989 Z" fill="#c271d2" fill-rule="evenodd" fill-opacity="1" stroke="#000000" stroke-opacity="1" stroke-width="3.2"/>
<path clip-path="url(#clip702)" d="M1632.53 193.038 L1621.22 188.35 L1616.53 177.038 L1621.22 165.726 L1632.53 161.038 L1643.85 165.726 L1648.53 177.038 L1643.85 188.35 Z" fill="#c271d2" fill-rule="evenodd" fill-opacity="1" stroke="#000000" stroke-opacity="1" stroke-width="3.2"/>
<path clip-path="url(#clip702)" d="M1764.69 208.272 L1753.37 203.584 L1748.69 192.272 L1753.37 180.96 L1764.69 176.272 L1776 180.96 L1780.69 192.272 L1776 203.584 Z" fill="#c271d2" fill-rule="evenodd" fill-opacity="1" stroke="#000000" stroke-opacity="1" stroke-width="3.2"/>
<path clip-path="url(#clip702)" d="M1896.84 238.046 L1885.52 233.358 L1880.84 222.046 L1885.52 210.734 L1896.84 206.046 L1908.15 210.734 L1912.84 222.046 L1908.15 233.358 Z" fill="#c271d2" fill-rule="evenodd" fill-opacity="1" stroke="#000000" stroke-opacity="1" stroke-width="3.2"/>
<path clip-path="url(#clip702)" d="M2028.99 275.051 L2017.67 270.363 L2012.99 259.051 L2017.67 247.739 L2028.99 243.051 L2040.3 247.739 L2044.99 259.051 L2040.3 270.363 Z" fill="#c271d2" fill-rule="evenodd" fill-opacity="1" stroke="#000000" stroke-opacity="1" stroke-width="3.2"/>
<path clip-path="url(#clip702)" d="M2161.14 308.398 L2149.83 303.71 L2145.14 292.398 L2149.83 281.086 L2161.14 276.398 L2172.45 281.086 L2177.14 292.398 L2172.45 303.71 Z" fill="#c271d2" fill-rule="evenodd" fill-opacity="1" stroke="#000000" stroke-opacity="1" stroke-width="3.2"/>
<path clip-path="url(#clip702)" d="M2293.29 342.463 L2281.98 337.775 L2277.29 326.463 L2281.98 315.151 L2293.29 310.463 L2304.6 315.151 L2309.29 326.463 L2304.6 337.775 Z" fill="#c271d2" fill-rule="evenodd" fill-opacity="1" stroke="#000000" stroke-opacity="1" stroke-width="3.2"/>
<path clip-path="url(#clip700)" d="M1872.11 352.309 L2282.72 352.309 L2282.72 93.1086 L1872.11 93.1086  Z" fill="#ffffff" fill-rule="evenodd" fill-opacity="1"/>
<polyline clip-path="url(#clip700)" style="stroke:#000000; stroke-linecap:round; stroke-linejoin:round; stroke-width:4; stroke-opacity:1; fill:none" points="1872.11,352.309 2282.72,352.309 2282.72,93.1086 1872.11,93.1086 1872.11,352.309 "/>
<polyline clip-path="url(#clip700)" style="stroke:#009af9; stroke-linecap:round; stroke-linejoin:round; stroke-width:4; stroke-opacity:1; fill:none" points="1895.46,144.949 2035.54,144.949 "/>
<path clip-path="url(#clip700)" d="M1965.5 166.566 L1950.21 160.232 L1943.88 144.949 L1950.21 129.665 L1965.5 123.331 L1980.78 129.665 L1987.12 144.949 L1980.78 160.232 Z" fill="#009af9" fill-rule="evenodd" fill-opacity="1" stroke="#000000" stroke-opacity="1" stroke-width="4.55111"/>
<path clip-path="url(#clip700)" d="M2074.9 130.84 Q2069.81 130.84 2066.8 134.636 Q2063.81 138.432 2063.81 144.983 Q2063.81 151.511 2066.8 155.307 Q2069.81 159.104 2074.9 159.104 Q2080 159.104 2082.96 155.307 Q2085.94 151.511 2085.94 144.983 Q2085.94 138.432 2082.96 134.636 Q2080 130.84 2074.9 130.84 M2081.45 161.604 L2087.61 168.34 L2081.96 168.34 L2076.85 162.807 Q2076.08 162.854 2075.67 162.877 Q2075.27 162.9 2074.9 162.9 Q2067.61 162.9 2063.24 158.039 Q2058.88 153.155 2058.88 144.983 Q2058.88 136.789 2063.24 131.928 Q2067.61 127.044 2074.9 127.044 Q2082.17 127.044 2086.52 131.928 Q2090.87 136.789 2090.87 144.983 Q2090.87 151.002 2088.44 155.284 Q2086.04 159.567 2081.45 161.604 Z" fill="#000000" fill-rule="nonzero" fill-opacity="1" /><path clip-path="url(#clip700)" d="M2093.4 127.669 L2122.63 127.669 L2122.63 131.604 L2110.37 131.604 L2110.37 162.229 L2105.67 162.229 L2105.67 131.604 L2093.4 131.604 L2093.4 127.669 Z" fill="#000000" fill-rule="nonzero" fill-opacity="1" /><path clip-path="url(#clip700)" d="M2121.52 127.669 L2150.76 127.669 L2150.76 131.604 L2138.49 131.604 L2138.49 162.229 L2133.79 162.229 L2133.79 131.604 L2121.52 131.604 L2121.52 127.669 Z" fill="#000000" fill-rule="nonzero" fill-opacity="1" /><path clip-path="url(#clip700)" d="M2174.79 170.099 L2174.79 173.409 L2150.16 173.409 L2150.16 170.099 L2174.79 170.099 Z" fill="#000000" fill-rule="nonzero" fill-opacity="1" /><path clip-path="url(#clip700)" d="M2199.69 128.803 L2199.69 133.363 Q2197.03 132.09 2194.67 131.465 Q2192.31 130.84 2190.11 130.84 Q2186.29 130.84 2184.21 132.321 Q2182.15 133.803 2182.15 136.534 Q2182.15 138.826 2183.51 140.007 Q2184.9 141.164 2188.74 141.882 L2191.57 142.46 Q2196.8 143.456 2199.28 145.979 Q2201.78 148.479 2201.78 152.692 Q2201.78 157.715 2198.4 160.307 Q2195.04 162.9 2188.54 162.9 Q2186.08 162.9 2183.31 162.344 Q2180.55 161.789 2177.59 160.701 L2177.59 155.886 Q2180.43 157.483 2183.17 158.293 Q2185.9 159.104 2188.54 159.104 Q2192.54 159.104 2194.72 157.53 Q2196.89 155.956 2196.89 153.039 Q2196.89 150.493 2195.32 149.057 Q2193.77 147.622 2190.2 146.905 L2187.36 146.349 Q2182.12 145.307 2179.79 143.085 Q2177.45 140.863 2177.45 136.905 Q2177.45 132.321 2180.67 129.682 Q2183.91 127.044 2189.58 127.044 Q2192.01 127.044 2194.53 127.483 Q2197.05 127.923 2199.69 128.803 Z" fill="#000000" fill-rule="nonzero" fill-opacity="1" /><path clip-path="url(#clip700)" d="M2231.06 148.201 L2231.06 150.284 L2211.48 150.284 Q2211.75 154.682 2214.12 156.997 Q2216.5 159.289 2220.74 159.289 Q2223.19 159.289 2225.48 158.687 Q2227.8 158.085 2230.06 156.881 L2230.06 160.909 Q2227.77 161.881 2225.36 162.391 Q2222.96 162.9 2220.48 162.9 Q2214.28 162.9 2210.64 159.289 Q2207.03 155.678 2207.03 149.52 Q2207.03 143.155 2210.46 139.428 Q2213.91 135.678 2219.74 135.678 Q2224.97 135.678 2228 139.057 Q2231.06 142.414 2231.06 148.201 M2226.8 146.951 Q2226.75 143.456 2224.83 141.372 Q2222.93 139.289 2219.79 139.289 Q2216.22 139.289 2214.07 141.303 Q2211.94 143.317 2211.62 146.974 L2226.8 146.951 Z" fill="#000000" fill-rule="nonzero" fill-opacity="1" /><path clip-path="url(#clip700)" d="M2240.6 149.289 Q2240.6 153.988 2242.52 156.673 Q2244.46 159.335 2247.84 159.335 Q2251.22 159.335 2253.17 156.673 Q2255.11 153.988 2255.11 149.289 Q2255.11 144.59 2253.17 141.928 Q2251.22 139.243 2247.84 139.243 Q2244.46 139.243 2242.52 141.928 Q2240.6 144.59 2240.6 149.289 M2255.11 158.34 Q2253.77 160.655 2251.71 161.789 Q2249.67 162.9 2246.8 162.9 Q2242.1 162.9 2239.14 159.15 Q2236.2 155.4 2236.2 149.289 Q2236.2 143.178 2239.14 139.428 Q2242.1 135.678 2246.8 135.678 Q2249.67 135.678 2251.71 136.812 Q2253.77 137.923 2255.11 140.238 L2255.11 136.303 L2259.37 136.303 L2259.37 172.09 L2255.11 172.09 L2255.11 158.34 Z" fill="#000000" fill-rule="nonzero" fill-opacity="1" /><polyline clip-path="url(#clip700)" style="stroke:#e26f46; stroke-linecap:round; stroke-linejoin:round; stroke-width:4; stroke-opacity:1; fill:none" points="1895.46,196.789 2035.54,196.789 "/>
<path clip-path="url(#clip700)" d="M1965.5 218.406 L1950.21 212.072 L1943.88 196.789 L1950.21 181.505 L1965.5 175.171 L1980.78 181.505 L1987.12 196.789 L1980.78 212.072 Z" fill="#e26f46" fill-rule="evenodd" fill-opacity="1" stroke="#000000" stroke-opacity="1" stroke-width="4.55111"/>
<path clip-path="url(#clip700)" d="M2063.56 197.564 L2063.56 210.226 L2071.06 210.226 Q2074.83 210.226 2076.64 208.675 Q2078.47 207.101 2078.47 203.883 Q2078.47 200.643 2076.64 199.115 Q2074.83 197.564 2071.06 197.564 L2063.56 197.564 M2063.56 183.351 L2063.56 193.768 L2070.48 193.768 Q2073.91 193.768 2075.57 192.495 Q2077.26 191.198 2077.26 188.559 Q2077.26 185.944 2075.57 184.647 Q2073.91 183.351 2070.48 183.351 L2063.56 183.351 M2058.88 179.509 L2070.83 179.509 Q2076.18 179.509 2079.07 181.731 Q2081.96 183.953 2081.96 188.05 Q2081.96 191.222 2080.48 193.097 Q2079 194.971 2076.13 195.434 Q2079.58 196.175 2081.48 198.536 Q2083.4 200.874 2083.4 204.393 Q2083.4 209.022 2080.25 211.545 Q2077.1 214.069 2071.29 214.069 L2058.88 214.069 L2058.88 179.509 Z" fill="#000000" fill-rule="nonzero" fill-opacity="1" /><path clip-path="url(#clip700)" d="M2086.62 179.509 L2115.85 179.509 L2115.85 183.444 L2103.58 183.444 L2103.58 214.069 L2098.88 214.069 L2098.88 183.444 L2086.62 183.444 L2086.62 179.509 Z" fill="#000000" fill-rule="nonzero" fill-opacity="1" /><path clip-path="url(#clip700)" d="M2114.74 179.509 L2143.98 179.509 L2143.98 183.444 L2131.71 183.444 L2131.71 214.069 L2127.01 214.069 L2127.01 183.444 L2114.74 183.444 L2114.74 179.509 Z" fill="#000000" fill-rule="nonzero" fill-opacity="1" /><path clip-path="url(#clip700)" d="M2148.49 179.509 L2154.79 179.509 L2170.11 208.421 L2170.11 179.509 L2174.65 179.509 L2174.65 214.069 L2168.35 214.069 L2153.03 185.157 L2153.03 214.069 L2148.49 214.069 L2148.49 179.509 Z" fill="#000000" fill-rule="nonzero" fill-opacity="1" /><polyline clip-path="url(#clip700)" style="stroke:#3da44d; stroke-linecap:round; stroke-linejoin:round; stroke-width:4; stroke-opacity:1; fill:none" points="1895.46,248.629 2035.54,248.629 "/>
<path clip-path="url(#clip700)" d="M1965.5 270.246 L1950.21 263.912 L1943.88 248.629 L1950.21 233.345 L1965.5 227.011 L1980.78 233.345 L1987.12 248.629 L1980.78 263.912 Z" fill="#3da44d" fill-rule="evenodd" fill-opacity="1" stroke="#000000" stroke-opacity="1" stroke-width="4.55111"/>
<path clip-path="url(#clip700)" d="M2086.75 234.011 L2086.75 238.941 Q2084.39 236.742 2081.71 235.654 Q2079.05 234.566 2076.04 234.566 Q2070.11 234.566 2066.96 238.2 Q2063.81 241.812 2063.81 248.663 Q2063.81 255.492 2066.96 259.126 Q2070.11 262.737 2076.04 262.737 Q2079.05 262.737 2081.71 261.649 Q2084.39 260.561 2086.75 258.362 L2086.75 263.247 Q2084.3 264.913 2081.55 265.747 Q2078.81 266.58 2075.76 266.58 Q2067.91 266.58 2063.4 261.788 Q2058.88 256.973 2058.88 248.663 Q2058.88 240.33 2063.4 235.538 Q2067.91 230.724 2075.76 230.724 Q2078.86 230.724 2081.59 231.557 Q2084.35 232.367 2086.75 234.011 Z" fill="#000000" fill-rule="nonzero" fill-opacity="1" /><path clip-path="url(#clip700)" d="M2089.19 231.349 L2118.42 231.349 L2118.42 235.284 L2106.15 235.284 L2106.15 265.909 L2101.45 265.909 L2101.45 235.284 L2089.19 235.284 L2089.19 231.349 Z" fill="#000000" fill-rule="nonzero" fill-opacity="1" /><path clip-path="url(#clip700)" d="M2117.31 231.349 L2146.55 231.349 L2146.55 235.284 L2134.28 235.284 L2134.28 265.909 L2129.58 265.909 L2129.58 235.284 L2117.31 235.284 L2117.31 231.349 Z" fill="#000000" fill-rule="nonzero" fill-opacity="1" /><path clip-path="url(#clip700)" d="M2151.06 231.349 L2157.36 231.349 L2172.68 260.261 L2172.68 231.349 L2177.22 231.349 L2177.22 265.909 L2170.92 265.909 L2155.6 236.997 L2155.6 265.909 L2151.06 265.909 L2151.06 231.349 Z" fill="#000000" fill-rule="nonzero" fill-opacity="1" /><polyline clip-path="url(#clip700)" style="stroke:#c271d2; stroke-linecap:round; stroke-linejoin:round; stroke-width:4; stroke-opacity:1; fill:none" points="1895.46,300.469 2035.54,300.469 "/>
<path clip-path="url(#clip700)" d="M1965.5 322.086 L1950.21 315.752 L1943.88 300.469 L1950.21 285.185 L1965.5 278.851 L1980.78 285.185 L1987.12 300.469 L1980.78 315.752 Z" fill="#c271d2" fill-rule="evenodd" fill-opacity="1" stroke="#000000" stroke-opacity="1" stroke-width="4.55111"/>
<path clip-path="url(#clip700)" d="M2074.9 286.36 Q2069.81 286.36 2066.8 290.156 Q2063.81 293.952 2063.81 300.503 Q2063.81 307.031 2066.8 310.827 Q2069.81 314.624 2074.9 314.624 Q2080 314.624 2082.96 310.827 Q2085.94 307.031 2085.94 300.503 Q2085.94 293.952 2082.96 290.156 Q2080 286.36 2074.9 286.36 M2081.45 317.124 L2087.61 323.86 L2081.96 323.86 L2076.85 318.327 Q2076.08 318.374 2075.67 318.397 Q2075.27 318.42 2074.9 318.42 Q2067.61 318.42 2063.24 313.559 Q2058.88 308.675 2058.88 300.503 Q2058.88 292.309 2063.24 287.448 Q2067.61 282.564 2074.9 282.564 Q2082.17 282.564 2086.52 287.448 Q2090.87 292.309 2090.87 300.503 Q2090.87 306.522 2088.44 310.804 Q2086.04 315.087 2081.45 317.124 Z" fill="#000000" fill-rule="nonzero" fill-opacity="1" /><path clip-path="url(#clip700)" d="M2093.4 283.189 L2122.63 283.189 L2122.63 287.124 L2110.37 287.124 L2110.37 317.749 L2105.67 317.749 L2105.67 287.124 L2093.4 287.124 L2093.4 283.189 Z" fill="#000000" fill-rule="nonzero" fill-opacity="1" /><path clip-path="url(#clip700)" d="M2121.52 283.189 L2150.76 283.189 L2150.76 287.124 L2138.49 287.124 L2138.49 317.749 L2133.79 317.749 L2133.79 287.124 L2121.52 287.124 L2121.52 283.189 Z" fill="#000000" fill-rule="nonzero" fill-opacity="1" /><path clip-path="url(#clip700)" d="M2174.79 325.619 L2174.79 328.929 L2150.16 328.929 L2150.16 325.619 L2174.79 325.619 Z" fill="#000000" fill-rule="nonzero" fill-opacity="1" /><path clip-path="url(#clip700)" d="M2178.98 283.189 L2183.65 283.189 L2183.65 317.749 L2178.98 317.749 L2178.98 283.189 Z" fill="#000000" fill-rule="nonzero" fill-opacity="1" /><path clip-path="url(#clip700)" d="M2214.32 302.101 L2214.32 317.749 L2210.06 317.749 L2210.06 302.239 Q2210.06 298.559 2208.63 296.73 Q2207.19 294.902 2204.32 294.902 Q2200.87 294.902 2198.88 297.101 Q2196.89 299.3 2196.89 303.096 L2196.89 317.749 L2192.61 317.749 L2192.61 291.823 L2196.89 291.823 L2196.89 295.851 Q2198.42 293.513 2200.48 292.355 Q2202.56 291.198 2205.27 291.198 Q2209.74 291.198 2212.03 293.976 Q2214.32 296.73 2214.32 302.101 Z" fill="#000000" fill-rule="nonzero" fill-opacity="1" /><path clip-path="url(#clip700)" d="M2227.03 284.462 L2227.03 291.823 L2235.8 291.823 L2235.8 295.133 L2227.03 295.133 L2227.03 309.207 Q2227.03 312.378 2227.89 313.281 Q2228.77 314.184 2231.43 314.184 L2235.8 314.184 L2235.8 317.749 L2231.43 317.749 Q2226.5 317.749 2224.62 315.92 Q2222.75 314.068 2222.75 309.207 L2222.75 295.133 L2219.62 295.133 L2219.62 291.823 L2222.75 291.823 L2222.75 284.462 L2227.03 284.462 Z" fill="#000000" fill-rule="nonzero" fill-opacity="1" /></svg>
