<?xml version="1.0" encoding="UTF-8" standalone="no"?>
<!DOCTYPE svg PUBLIC "-//W3C//DTD SVG 1.1//EN"
 "http://www.w3.org/Graphics/SVG/1.1/DTD/svg11.dtd">
<!-- Generated by graphviz version 14.0.2 (20251019.1705)
 -->
<!-- Title: dc_qtt3 Pages: 1 -->
<svg width="989pt" height="1189pt"
 viewBox="0.00 0.00 989.00 1189.00" xmlns="http://www.w3.org/2000/svg" xmlns:xlink="http://www.w3.org/1999/xlink">
<g id="graph0" class="graph" transform="scale(1 1) rotate(0) translate(4 1185.2)">
<title>dc_qtt3</title>
<polygon fill="white" stroke="none" points="-4,4 -4,-1185.2 985.05,-1185.2 985.05,4 -4,4"/>
<!-- 1 -->
<g id="node1" class="node">
<title>1</title>
<ellipse fill="#3b78d8" stroke="black" cx="128.05" cy="-1044.6" rx="21.6" ry="21.6"/>
<text xml:space="preserve" text-anchor="middle" x="128.05" y="-1039.57" font-family="Helvetica,sans-Serif" font-size="12.00" fill="#ffffff">1</text>
</g>
<!-- 17 -->
<g id="node17" class="node">
<title>17</title>
<g id="a_node17"><a xlink:title="17">
<ellipse fill="#d9534f" stroke="black" cx="234.5" cy="-1159.6" rx="21.6" ry="21.6"/>
<text xml:space="preserve" text-anchor="middle" x="234.5" y="-1154.57" font-family="Helvetica,sans-Serif" font-size="12.00" fill="#ffffff">1</text>
</a>
</g>
</g>
<!-- 1&#45;&#45;17 -->
<g id="edge1" class="edge">
<title>1&#45;&#45;17</title>
<path fill="none" stroke="#666666" stroke-width="1.8" d="M143.14,-1060.11C163.07,-1082.06 199.31,-1121.95 219.3,-1143.97"/>
<text xml:space="preserve" text-anchor="middle" x="181.28" y="-1103.85" font-family="Helvetica,sans-Serif" font-size="10.00">2</text>
</g>
<!-- 20 -->
<g id="node20" class="node">
<title>20</title>
<g id="a_node20"><a xlink:title="20">
<ellipse fill="#d9534f" stroke="black" cx="234.5" cy="-1044.6" rx="21.6" ry="21.6"/>
<text xml:space="preserve" text-anchor="middle" x="234.5" y="-1039.57" font-family="Helvetica,sans-Serif" font-size="12.00" fill="#ffffff">4</text>
</a>
</g>
</g>
<!-- 1&#45;&#45;20 -->
<g id="edge2" class="edge">
<title>1&#45;&#45;20</title>
<path fill="none" stroke="#666666" stroke-width="1.8" d="M149.94,-1044.6C168.15,-1044.6 194.44,-1044.6 212.65,-1044.6"/>
<text xml:space="preserve" text-anchor="middle" x="181.28" y="-1046.35" font-family="Helvetica,sans-Serif" font-size="10.00">2</text>
</g>
<!-- 21 -->
<g id="node21" class="node">
<title>21</title>
<g id="a_node21"><a xlink:title="21">
<ellipse fill="#d9534f" stroke="black" cx="234.5" cy="-569.6" rx="21.6" ry="21.6"/>
<text xml:space="preserve" text-anchor="middle" x="234.5" y="-564.58" font-family="Helvetica,sans-Serif" font-size="12.00" fill="#ffffff">5</text>
</a>
</g>
</g>
<!-- 1&#45;&#45;21 -->
<g id="edge3" class="edge">
<title>1&#45;&#45;21</title>
<path fill="none" stroke="#666666" stroke-width="5.4" d="M130.22,-1022.8C134.41,-949.37 149.93,-711.72 178.65,-641.35 187.72,-619.14 205.54,-597.85 218.41,-584.31"/>
<text xml:space="preserve" text-anchor="middle" x="181.28" y="-643.1" font-family="Helvetica,sans-Serif" font-size="10.00">8</text>
</g>
<!-- 2 -->
<g id="node2" class="node">
<title>2</title>
<ellipse fill="#3b78d8" stroke="black" cx="21.6" cy="-407.6" rx="21.6" ry="21.6"/>
<text xml:space="preserve" text-anchor="middle" x="21.6" y="-402.58" font-family="Helvetica,sans-Serif" font-size="12.00" fill="#ffffff">2</text>
</g>
<!-- 18 -->
<g id="node18" class="node">
<title>18</title>
<g id="a_node18"><a xlink:title="18">
<ellipse fill="#d9534f" stroke="black" cx="128.05" cy="-407.6" rx="21.6" ry="21.6"/>
<text xml:space="preserve" text-anchor="middle" x="128.05" y="-402.58" font-family="Helvetica,sans-Serif" font-size="12.00" fill="#ffffff">2</text>
</a>
</g>
</g>
<!-- 2&#45;&#45;18 -->
<g id="edge4" class="edge">
<title>2&#45;&#45;18</title>
<path fill="none" stroke="#666666" stroke-width="1.8" d="M43.49,-407.6C61.7,-407.6 87.99,-407.6 106.2,-407.6"/>
<text xml:space="preserve" text-anchor="middle" x="74.83" y="-409.35" font-family="Helvetica,sans-Serif" font-size="10.00">2</text>
</g>
<!-- 3 -->
<g id="node3" class="node">
<title>3</title>
<ellipse fill="#3b78d8" stroke="black" cx="21.6" cy="-641.6" rx="21.6" ry="21.6"/>
<text xml:space="preserve" text-anchor="middle" x="21.6" y="-636.58" font-family="Helvetica,sans-Serif" font-size="12.00" fill="#ffffff">3</text>
</g>
<!-- 4 -->
<g id="node4" class="node">
<title>4</title>
<ellipse fill="#3b78d8" stroke="black" cx="128.05" cy="-641.6" rx="21.6" ry="21.6"/>
<text xml:space="preserve" text-anchor="middle" x="128.05" y="-636.58" font-family="Helvetica,sans-Serif" font-size="12.00" fill="#ffffff">4</text>
</g>
<!-- 3&#45;&#45;4 -->
<g id="edge5" class="edge">
<title>3&#45;&#45;4</title>
<path fill="none" stroke="#666666" stroke-width="1.8" d="M43.49,-641.6C61.7,-641.6 87.99,-641.6 106.2,-641.6"/>
<text xml:space="preserve" text-anchor="middle" x="74.83" y="-643.35" font-family="Helvetica,sans-Serif" font-size="10.00">2</text>
</g>
<!-- 5 -->
<g id="node5" class="node">
<title>5</title>
<ellipse fill="#3b78d8" stroke="black" cx="234.5" cy="-699.6" rx="21.6" ry="21.6"/>
<text xml:space="preserve" text-anchor="middle" x="234.5" y="-694.58" font-family="Helvetica,sans-Serif" font-size="12.00" fill="#ffffff">5</text>
</g>
<!-- 4&#45;&#45;5 -->
<g id="edge6" class="edge">
<title>4&#45;&#45;5</title>
<path fill="none" stroke="#666666" stroke-width="1.8" d="M147.24,-651.7C166.3,-662.28 196.06,-678.81 215.16,-689.42"/>
<text xml:space="preserve" text-anchor="middle" x="181.28" y="-672.35" font-family="Helvetica,sans-Serif" font-size="10.00">2</text>
</g>
<!-- 4&#45;&#45;21 -->
<g id="edge7" class="edge">
<title>4&#45;&#45;21</title>
<path fill="none" stroke="#666666" stroke-width="2.4" d="M132.49,-620.13C137.7,-595.51 150.2,-556.24 178.65,-538.35 192.57,-529.6 209.01,-541.83 220.23,-553.46"/>
<text xml:space="preserve" text-anchor="middle" x="181.28" y="-540.1" font-family="Helvetica,sans-Serif" font-size="10.00">8</text>
</g>
<!-- 6 -->
<g id="node6" class="node">
<title>6</title>
<ellipse fill="#3b78d8" stroke="black" cx="234.5" cy="-929.6" rx="21.6" ry="21.6"/>
<text xml:space="preserve" text-anchor="middle" x="234.5" y="-924.58" font-family="Helvetica,sans-Serif" font-size="12.00" fill="#ffffff">6</text>
</g>
<!-- 22 -->
<g id="node22" class="node">
<title>22</title>
<g id="a_node22"><a xlink:title="22">
<ellipse fill="#d9534f" stroke="black" cx="358.2" cy="-814.6" rx="21.6" ry="21.6"/>
<text xml:space="preserve" text-anchor="middle" x="358.2" y="-809.58" font-family="Helvetica,sans-Serif" font-size="12.00" fill="#ffffff">6</text>
</a>
</g>
</g>
<!-- 6&#45;&#45;22 -->
<g id="edge8" class="edge">
<title>6&#45;&#45;22</title>
<path fill="none" stroke="#666666" stroke-width="1.8" d="M250.91,-915.04C274.32,-892.91 318.58,-851.1 341.91,-829.05"/>
<text xml:space="preserve" text-anchor="middle" x="296.35" y="-884.15" font-family="Helvetica,sans-Serif" font-size="10.00">2</text>
</g>
<!-- 7 -->
<g id="node7" class="node">
<title>7</title>
<ellipse fill="#3b78d8" stroke="black" cx="234.5" cy="-814.6" rx="21.6" ry="21.6"/>
<text xml:space="preserve" text-anchor="middle" x="234.5" y="-809.58" font-family="Helvetica,sans-Serif" font-size="12.00" fill="#ffffff">7</text>
</g>
<!-- 7&#45;&#45;22 -->
<g id="edge9" class="edge">
<title>7&#45;&#45;22</title>
<path fill="none" stroke="#666666" stroke-width="1.8" d="M256.42,-814.6C278.71,-814.6 313.8,-814.6 336.14,-814.6"/>
<text xml:space="preserve" text-anchor="middle" x="296.35" y="-816.35" font-family="Helvetica,sans-Serif" font-size="10.00">2</text>
</g>
<!-- 8 -->
<g id="node8" class="node">
<title>8</title>
<ellipse fill="#3b78d8" stroke="black" cx="358.2" cy="-929.6" rx="21.6" ry="21.6"/>
<text xml:space="preserve" text-anchor="middle" x="358.2" y="-924.58" font-family="Helvetica,sans-Serif" font-size="12.00" fill="#ffffff">8</text>
</g>
<!-- 23 -->
<g id="node23" class="node">
<title>23</title>
<g id="a_node23"><a xlink:title="23">
<ellipse fill="#d9534f" stroke="black" cx="481.9" cy="-823.6" rx="21.6" ry="21.6"/>
<text xml:space="preserve" text-anchor="middle" x="481.9" y="-818.58" font-family="Helvetica,sans-Serif" font-size="12.00" fill="#ffffff">7</text>
</a>
</g>
</g>
<!-- 8&#45;&#45;23 -->
<g id="edge10" class="edge">
<title>8&#45;&#45;23</title>
<path fill="none" stroke="#666666" stroke-width="1.8" d="M375.11,-915.74C398.43,-895.43 441.66,-857.78 464.99,-837.46"/>
<text xml:space="preserve" text-anchor="middle" x="420.05" y="-887.84" font-family="Helvetica,sans-Serif" font-size="10.00">2</text>
</g>
<!-- 9 -->
<g id="node9" class="node">
<title>9</title>
<ellipse fill="#3b78d8" stroke="black" cx="358.2" cy="-593.6" rx="21.6" ry="21.6"/>
<text xml:space="preserve" text-anchor="middle" x="358.2" y="-588.58" font-family="Helvetica,sans-Serif" font-size="12.00" fill="#ffffff">9</text>
</g>
<!-- 10 -->
<g id="node10" class="node">
<title>10</title>
<ellipse fill="#3b78d8" stroke="black" cx="481.9" cy="-644.6" rx="21.6" ry="21.6"/>
<text xml:space="preserve" text-anchor="middle" x="481.9" y="-639.58" font-family="Helvetica,sans-Serif" font-size="12.00" fill="#ffffff">10</text>
</g>
<!-- 9&#45;&#45;10 -->
<g id="edge11" class="edge">
<title>9&#45;&#45;10</title>
<path fill="none" stroke="#666666" stroke-width="1.8" d="M378.48,-601.68C401.27,-611.23 438.96,-627.02 461.71,-636.56"/>
<text xml:space="preserve" text-anchor="middle" x="420.05" y="-625.42" font-family="Helvetica,sans-Serif" font-size="10.00">2</text>
</g>
<!-- 9&#45;&#45;23 -->
<g id="edge12" class="edge">
<title>9&#45;&#45;23</title>
<path fill="none" stroke="#666666" stroke-width="9.4" d="M369.16,-612.42C391.98,-655.55 447.85,-761.14 470.8,-804.52"/>
<text xml:space="preserve" text-anchor="middle" x="420.05" y="-731.2" font-family="Helvetica,sans-Serif" font-size="20.00" fill="#333333">49</text>
</g>
<!-- 25 -->
<g id="node25" class="node">
<title>25</title>
<g id="a_node25"><a xlink:title="25">
<ellipse fill="#d9534f" stroke="black" cx="481.9" cy="-529.6" rx="21.6" ry="21.6"/>
<text xml:space="preserve" text-anchor="middle" x="481.9" y="-524.58" font-family="Helvetica,sans-Serif" font-size="12.00" fill="#ffffff">9</text>
</a>
</g>
</g>
<!-- 9&#45;&#45;25 -->
<g id="edge13" class="edge">
<title>9&#45;&#45;25</title>
<path fill="none" stroke="#666666" stroke-width="1.8" d="M377.95,-583.74C400.89,-571.68 439.47,-551.38 462.33,-539.37"/>
<text xml:space="preserve" text-anchor="middle" x="420.05" y="-569.08" font-family="Helvetica,sans-Serif" font-size="10.00">2</text>
</g>
<!-- 26 -->
<g id="node26" class="node">
<title>26</title>
<g id="a_node26"><a xlink:title="26">
<ellipse fill="#d9534f" stroke="black" cx="481.9" cy="-385.6" rx="21.6" ry="21.6"/>
<text xml:space="preserve" text-anchor="middle" x="481.9" y="-380.58" font-family="Helvetica,sans-Serif" font-size="12.00" fill="#ffffff">10</text>
</a>
</g>
</g>
<!-- 9&#45;&#45;26 -->
<g id="edge14" class="edge">
<title>9&#45;&#45;26</title>
<path fill="none" stroke="#666666" stroke-width="4.6" d="M370,-575.14C393.09,-535.67 447.05,-443.45 470.12,-404.02"/>
<text xml:space="preserve" text-anchor="middle" x="420.05" y="-510.23" font-family="Helvetica,sans-Serif" font-size="20.00" fill="#333333">40</text>
</g>
<!-- 11 -->
<g id="node11" class="node">
<title>11</title>
<ellipse fill="#3b78d8" stroke="black" cx="358.2" cy="-356.6" rx="21.6" ry="21.6"/>
<text xml:space="preserve" text-anchor="middle" x="358.2" y="-351.58" font-family="Helvetica,sans-Serif" font-size="12.00" fill="#ffffff">11</text>
</g>
<!-- 11&#45;&#45;26 -->
<g id="edge15" class="edge">
<title>11&#45;&#45;26</title>
<path fill="none" stroke="#666666" stroke-width="1.8" d="M379.8,-353.14C394.44,-351.43 414.43,-350.61 431.3,-355.35 443.34,-358.73 455.35,-365.94 464.54,-372.46"/>
<text xml:space="preserve" text-anchor="middle" x="420.05" y="-357.1" font-family="Helvetica,sans-Serif" font-size="10.00">2</text>
</g>
<!-- 12 -->
<g id="node12" class="node">
<title>12</title>
<ellipse fill="#3b78d8" stroke="black" cx="481.9" cy="-235.6" rx="21.6" ry="21.6"/>
<text xml:space="preserve" text-anchor="middle" x="481.9" y="-230.58" font-family="Helvetica,sans-Serif" font-size="12.00" fill="#ffffff">12</text>
</g>
<!-- 28 -->
<g id="node28" class="node">
<title>28</title>
<g id="a_node28"><a xlink:title="28">
<ellipse fill="#d9534f" stroke="black" cx="605.6" cy="-224.6" rx="21.6" ry="21.6"/>
<text xml:space="preserve" text-anchor="middle" x="605.6" y="-219.58" font-family="Helvetica,sans-Serif" font-size="12.00" fill="#ffffff">12</text>
</a>
</g>
</g>
<!-- 12&#45;&#45;28 -->
<g id="edge16" class="edge">
<title>12&#45;&#45;28</title>
<path fill="none" stroke="#666666" stroke-width="1.8" d="M503.82,-233.71C526.25,-231.68 561.63,-228.48 583.95,-226.47"/>
<text xml:space="preserve" text-anchor="middle" x="543.75" y="-232.84" font-family="Helvetica,sans-Serif" font-size="10.00">2</text>
</g>
<!-- 13 -->
<g id="node13" class="node">
<title>13</title>
<ellipse fill="#3b78d8" stroke="black" cx="481.9" cy="-120.6" rx="21.6" ry="21.6"/>
<text xml:space="preserve" text-anchor="middle" x="481.9" y="-115.58" font-family="Helvetica,sans-Serif" font-size="12.00" fill="#ffffff">13</text>
</g>
<!-- 13&#45;&#45;28 -->
<g id="edge17" class="edge">
<title>13&#45;&#45;28</title>
<path fill="none" stroke="#666666" stroke-width="1.8" d="M499.06,-134.41C522.47,-154.41 565.53,-191.22 588.76,-211.06"/>
<text xml:space="preserve" text-anchor="middle" x="543.75" y="-183.67" font-family="Helvetica,sans-Serif" font-size="10.00">2</text>
</g>
<!-- 14 -->
<g id="node14" class="node">
<title>14</title>
<ellipse fill="#3b78d8" stroke="black" cx="605.6" cy="-339.6" rx="21.6" ry="21.6"/>
<text xml:space="preserve" text-anchor="middle" x="605.6" y="-334.58" font-family="Helvetica,sans-Serif" font-size="12.00" fill="#ffffff">14</text>
</g>
<!-- 29 -->
<g id="node29" class="node">
<title>29</title>
<g id="a_node29"><a xlink:title="29">
<ellipse fill="#d9534f" stroke="black" cx="729.3" cy="-286.6" rx="21.6" ry="21.6"/>
<text xml:space="preserve" text-anchor="middle" x="729.3" y="-281.58" font-family="Helvetica,sans-Serif" font-size="12.00" fill="#ffffff">13</text>
</a>
</g>
</g>
<!-- 14&#45;&#45;29 -->
<g id="edge18" class="edge">
<title>14&#45;&#45;29</title>
<path fill="none" stroke="#666666" stroke-width="1.8" d="M625.88,-331.2C648.67,-321.28 686.36,-304.87 709.11,-294.96"/>
<text xml:space="preserve" text-anchor="middle" x="667.45" y="-319.6" font-family="Helvetica,sans-Serif" font-size="10.00">2</text>
</g>
<!-- 15 -->
<g id="node15" class="node">
<title>15</title>
<ellipse fill="#3b78d8" stroke="black" cx="729.3" cy="-21.6" rx="21.6" ry="21.6"/>
<text xml:space="preserve" text-anchor="middle" x="729.3" y="-16.58" font-family="Helvetica,sans-Serif" font-size="12.00" fill="#ffffff">15</text>
</g>
<!-- 31 -->
<g id="node31" class="node">
<title>31</title>
<g id="a_node31"><a xlink:title="31">
<ellipse fill="#d9534f" stroke="black" cx="853" cy="-136.6" rx="21.6" ry="21.6"/>
<text xml:space="preserve" text-anchor="middle" x="853" y="-131.58" font-family="Helvetica,sans-Serif" font-size="12.00" fill="#ffffff">15</text>
</a>
</g>
</g>
<!-- 15&#45;&#45;31 -->
<g id="edge19" class="edge">
<title>15&#45;&#45;31</title>
<path fill="none" stroke="#666666" stroke-width="1.8" d="M745.71,-36.16C769.12,-58.29 813.38,-100.1 836.71,-122.15"/>
<text xml:space="preserve" text-anchor="middle" x="791.15" y="-91.15" font-family="Helvetica,sans-Serif" font-size="10.00">2</text>
</g>
<!-- 16 -->
<g id="node16" class="node">
<title>16</title>
<ellipse fill="#3b78d8" stroke="black" cx="729.3" cy="-136.6" rx="21.6" ry="21.6"/>
<text xml:space="preserve" text-anchor="middle" x="729.3" y="-131.58" font-family="Helvetica,sans-Serif" font-size="12.00" fill="#ffffff">16</text>
</g>
<!-- 16&#45;&#45;31 -->
<g id="edge20" class="edge">
<title>16&#45;&#45;31</title>
<path fill="none" stroke="#666666" stroke-width="1.8" d="M751.05,-135.96C759.94,-135.72 770.43,-135.47 779.9,-135.35 797.18,-135.13 816.78,-135.51 831.18,-135.91"/>
<text xml:space="preserve" text-anchor="middle" x="791.15" y="-137.1" font-family="Helvetica,sans-Serif" font-size="10.00">2</text>
</g>
<!-- 19 -->
<g id="node19" class="node">
<title>19</title>
<g id="a_node19"><a xlink:title="19">
<ellipse fill="#d9534f" stroke="black" cx="234.5" cy="-363.6" rx="21.6" ry="21.6"/>
<text xml:space="preserve" text-anchor="middle" x="234.5" y="-358.58" font-family="Helvetica,sans-Serif" font-size="12.00" fill="#ffffff">3</text>
</a>
</g>
</g>
<!-- 18&#45;&#45;19 -->
<g id="edge21" class="edge">
<title>18&#45;&#45;19</title>
<path fill="none" stroke="#666666" stroke-width="1.8" d="M141.78,-390.87C150.79,-380.49 163.87,-368.08 178.65,-362.35 189.49,-358.15 202.45,-358.24 213.05,-359.48"/>
<text xml:space="preserve" text-anchor="middle" x="181.28" y="-364.1" font-family="Helvetica,sans-Serif" font-size="10.00">2</text>
</g>
<!-- 18&#45;&#45;21 -->
<g id="edge22" class="edge">
<title>18&#45;&#45;21</title>
<path fill="none" stroke="#666666" stroke-width="2.4" d="M140.63,-425.56C160.7,-456.7 201.76,-520.37 221.87,-551.56"/>
<text xml:space="preserve" text-anchor="middle" x="181.28" y="-490.35" font-family="Helvetica,sans-Serif" font-size="10.00">8</text>
</g>
<!-- 21&#45;&#45;22 -->
<g id="edge23" class="edge">
<title>21&#45;&#45;22</title>
<path fill="none" stroke="#666666" stroke-width="6.6" d="M245.05,-588.82C267.8,-634.62 324.99,-749.76 347.69,-795.46"/>
<text xml:space="preserve" text-anchor="middle" x="296.35" y="-716.04" font-family="Helvetica,sans-Serif" font-size="20.00" fill="#333333">60</text>
</g>
<!-- 22&#45;&#45;23 -->
<g id="edge24" class="edge">
<title>22&#45;&#45;23</title>
<path fill="none" stroke="#666666" stroke-width="6.6" d="M380.04,-815.51C394.45,-816.2 414.05,-817.25 431.3,-818.6 440.79,-819.34 451.28,-820.37 460.16,-821.3"/>
<text xml:space="preserve" text-anchor="middle" x="420.05" y="-820.6" font-family="Helvetica,sans-Serif" font-size="20.00" fill="#333333">60</text>
</g>
<!-- 24 -->
<g id="node24" class="node">
<title>24</title>
<g id="a_node24"><a xlink:title="24">
<ellipse fill="#d9534f" stroke="black" cx="605.6" cy="-823.6" rx="21.6" ry="21.6"/>
<text xml:space="preserve" text-anchor="middle" x="605.6" y="-818.58" font-family="Helvetica,sans-Serif" font-size="12.00" fill="#ffffff">8</text>
</a>
</g>
</g>
<!-- 23&#45;&#45;24 -->
<g id="edge25" class="edge">
<title>23&#45;&#45;24</title>
<path fill="none" stroke="#666666" stroke-width="1.8" d="M503.82,-823.6C526.11,-823.6 561.2,-823.6 583.54,-823.6"/>
<text xml:space="preserve" text-anchor="middle" x="543.75" y="-825.35" font-family="Helvetica,sans-Serif" font-size="10.00">2</text>
</g>
<!-- 27 -->
<g id="node27" class="node">
<title>27</title>
<g id="a_node27"><a xlink:title="27">
<ellipse fill="#d9534f" stroke="black" cx="605.6" cy="-454.6" rx="21.6" ry="21.6"/>
<text xml:space="preserve" text-anchor="middle" x="605.6" y="-449.58" font-family="Helvetica,sans-Serif" font-size="12.00" fill="#ffffff">11</text>
</a>
</g>
</g>
<!-- 26&#45;&#45;27 -->
<g id="edge26" class="edge">
<title>26&#45;&#45;27</title>
<path fill="none" stroke="#666666" stroke-width="1.8" d="M501.12,-395.93C524.06,-408.94 563.25,-431.16 586.26,-444.2"/>
<text xml:space="preserve" text-anchor="middle" x="543.75" y="-428.03" font-family="Helvetica,sans-Serif" font-size="10.00">2</text>
</g>
<!-- 26&#45;&#45;28 -->
<g id="edge27" class="edge">
<title>26&#45;&#45;28</title>
<path fill="none" stroke="#666666" stroke-width="7.8" d="M495.69,-368.67C519.13,-337.67 568.67,-272.13 591.98,-241.3"/>
<text xml:space="preserve" text-anchor="middle" x="543.75" y="-321.52" font-family="Helvetica,sans-Serif" font-size="20.00" fill="#333333">22</text>
</g>
<!-- 28&#45;&#45;29 -->
<g id="edge28" class="edge">
<title>28&#45;&#45;29</title>
<path fill="none" stroke="#666666" stroke-width="6.6" d="M625.35,-234.15C648.29,-245.84 686.87,-265.5 709.73,-277.14"/>
<text xml:space="preserve" text-anchor="middle" x="667.45" y="-263.15" font-family="Helvetica,sans-Serif" font-size="20.00" fill="#333333">20</text>
</g>
<!-- 30 -->
<g id="node30" class="node">
<title>30</title>
<g id="a_node30"><a xlink:title="30">
<ellipse fill="#d9534f" stroke="black" cx="853" cy="-322.6" rx="21.6" ry="21.6"/>
<text xml:space="preserve" text-anchor="middle" x="853" y="-317.58" font-family="Helvetica,sans-Serif" font-size="12.00" fill="#ffffff">14</text>
</a>
</g>
</g>
<!-- 29&#45;&#45;30 -->
<g id="edge29" class="edge">
<title>29&#45;&#45;30</title>
<path fill="none" stroke="#666666" stroke-width="1.8" d="M750.4,-292.54C772.95,-299.21 809.31,-309.97 831.87,-316.65"/>
<text xml:space="preserve" text-anchor="middle" x="791.15" y="-309.57" font-family="Helvetica,sans-Serif" font-size="10.00">2</text>
</g>
<!-- 29&#45;&#45;31 -->
<g id="edge30" class="edge">
<title>29&#45;&#45;31</title>
<path fill="none" stroke="#666666" stroke-width="2.4" d="M743.79,-269.97C767.31,-240.99 815.52,-181.56 838.82,-152.84"/>
<text xml:space="preserve" text-anchor="middle" x="791.15" y="-227.04" font-family="Helvetica,sans-Serif" font-size="20.00" fill="#333333">14</text>
</g>
<!-- 32 -->
<g id="node32" class="node">
<title>32</title>
<g id="a_node32"><a xlink:title="32">
<ellipse fill="#d9534f" stroke="black" cx="959.45" cy="-136.6" rx="21.6" ry="21.6"/>
<text xml:space="preserve" text-anchor="middle" x="959.45" y="-131.58" font-family="Helvetica,sans-Serif" font-size="12.00" fill="#ffffff">16</text>
</a>
</g>
</g>
<!-- 31&#45;&#45;32 -->
<g id="edge31" class="edge">
<title>31&#45;&#45;32</title>
<path fill="none" stroke="#666666" stroke-width="1.8" d="M874.89,-136.6C893.1,-136.6 919.39,-136.6 937.6,-136.6"/>
<text xml:space="preserve" text-anchor="middle" x="906.23" y="-138.35" font-family="Helvetica,sans-Serif" font-size="10.00">2</text>
</g>
</g>
</svg>
